G04 CAM350/DFMSTREAM V12.1 (Build 1022) Date:  Fri Dec 18 14:28:10 2020 *
G04 Database: c:\users\admin\desktop\hhhggh.cam *
G04 Layer 2: 0 *
%FSLAX23Y23*%
%MOIN*%
%SFA1.000B1.000*%

%MIA0B0*%
%IPPOS*%
%AMSQUARE_84_L1*
4,1,4,0.0412500,0.0412500,0.0412500,-0.0412500,-0.0412500,-0.0412500,-0.0412500,0.0412500,0.0412500,0.0412500,0.0000000*
%
%AMRECTANGLE_51_L1*
4,1,4,0.0300000,0.0070000,0.0300000,-0.0070000,-0.0300000,-0.0070000,-0.0300000,0.0070000,0.0300000,0.0070000,0.0000000*
%
%AMCUSTOM_17_L1*
4,1,3,-0.0020750,0.0110000,-0.0015203,0.0110387,-0.0010899,0.0110000,-0.0020750,0.0110000,0.0000000*
4,1,4,-0.0100250,0.0107728,-0.0100250,0.0110000,-0.0010899,0.0110000,0.0014342,0.0107728,-0.0100250,0.0107728,0.0000000*
4,1,4,-0.0100250,0.0097304,-0.0100250,0.0107728,0.0014342,0.0107728,0.0042114,0.0097304,-0.0100250,0.0097304,0.0000000*
4,1,4,-0.0100250,0.0079867,-0.0100250,0.0097304,0.0042114,0.0097304,0.0066113,0.0079867,-0.0100250,0.0079867,0.0000000*
4,1,4,-0.0100250,0.0064101,-0.0100250,0.0079867,0.0066113,0.0079867,0.0078687,0.0064101,-0.0100250,0.0064101,0.0000000*
4,1,4,-0.0100250,0.0056674,-0.0100250,0.0064101,0.0078687,0.0064101,0.0084609,0.0056674,-0.0100250,0.0056674,0.0000000*
4,1,4,-0.0100250,0.0029397,-0.0100250,0.0056674,0.0084609,0.0056674,0.0096267,0.0029397,-0.0100250,0.0029397,0.0000000*
4,1,4,-0.0100250,0.0000001,-0.0100250,0.0029397,0.0096267,0.0029397,0.0100250,0.0000001,-0.0100250,0.0000001,0.0000000*
4,1,4,-0.0100250,-0.0001983,-0.0100250,0.0000001,0.0100250,0.0000001,0.0100231,-0.0001983,-0.0100250,-0.0001983,0.0000000*
4,1,4,-0.0100250,-0.0003968,-0.0100250,-0.0001983,0.0100231,-0.0001983,0.0100178,-0.0003968,-0.0100250,-0.0003968,0.0000000*
4,1,4,-0.0100250,-0.0034717,-0.0100250,-0.0003968,0.0100178,-0.0003968,0.0094654,-0.0034717,-0.0100250,-0.0034717,0.0000000*
4,1,4,-0.0100250,-0.0061373,-0.0100250,-0.0034717,0.0094654,-0.0034717,0.0081639,-0.0061373,-0.0100250,-0.0061373,0.0000000*
4,1,4,-0.0100250,-0.0083607,-0.0100250,-0.0061373,0.0081639,-0.0061373,0.0062000,-0.0083607,-0.0100250,-0.0083607,0.0000000*
4,1,4,-0.0100250,-0.0099815,-0.0100250,-0.0083607,0.0062000,-0.0083607,0.0037154,-0.0099815,-0.0100250,-0.0099815,0.0000000*
4,1,4,-0.0100250,-0.0108829,-0.0100250,-0.0099815,0.0037154,-0.0099815,0.0008892,-0.0108829,-0.0100250,-0.0108829,0.0000000*
4,1,4,-0.0100250,-0.0110000,-0.0100250,-0.0108829,0.0008892,-0.0108829,-0.0020750,-0.0110000,-0.0100250,-0.0110000,0.0000000*
%
%AMCUSTOM_14_L1*
4,1,4,-0.0008891,0.0108829,0.0020750,0.0110000,0.0100250,0.0110000,0.0100250,0.0108829,-0.0008891,0.0108829,0.0000000*
4,1,4,-0.0037153,0.0099815,-0.0008891,0.0108829,0.0100250,0.0108829,0.0100250,0.0099815,-0.0037153,0.0099815,0.0000000*
4,1,4,-0.0061998,0.0083607,-0.0037153,0.0099815,0.0100250,0.0099815,0.0100250,0.0083607,-0.0061998,0.0083607,0.0000000*
4,1,4,-0.0081637,0.0061374,-0.0061998,0.0083607,0.0100250,0.0083607,0.0100250,0.0061374,-0.0081637,0.0061374,0.0000000*
4,1,4,-0.0094654,0.0034717,-0.0081637,0.0061374,0.0100250,0.0061374,0.0100250,0.0034717,-0.0094654,0.0034717,0.0000000*
4,1,4,-0.0100178,0.0003967,-0.0094654,0.0034717,0.0100250,0.0034717,0.0100250,0.0003967,-0.0100178,0.0003967,0.0000000*
4,1,4,-0.0100231,0.0001974,-0.0100178,0.0003967,0.0100250,0.0003967,0.0100250,0.0001974,-0.0100231,0.0001974,0.0000000*
4,1,4,-0.0100249,0.0000000,-0.0100231,0.0001974,0.0100250,0.0001974,0.0100250,0.0000000,-0.0100249,0.0000000,0.0000000*
4,1,4,-0.0096266,-0.0029396,-0.0100249,0.0000000,0.0100250,0.0000000,0.0100250,-0.0029396,-0.0096266,-0.0029396,0.0000000*
4,1,4,-0.0084608,-0.0056673,-0.0096266,-0.0029396,0.0100250,-0.0029396,0.0100250,-0.0056673,-0.0084608,-0.0056673,0.0000000*
4,1,4,-0.0078685,-0.0064099,-0.0084608,-0.0056673,0.0100250,-0.0056673,0.0100250,-0.0064099,-0.0078685,-0.0064099,0.0000000*
4,1,4,-0.0066112,-0.0079866,-0.0078685,-0.0064099,0.0100250,-0.0064099,0.0100250,-0.0079866,-0.0066112,-0.0079866,0.0000000*
4,1,4,-0.0042113,-0.0097303,-0.0066112,-0.0079866,0.0100250,-0.0079866,0.0100250,-0.0097303,-0.0042113,-0.0097303,0.0000000*
4,1,4,-0.0014340,-0.0107728,-0.0042113,-0.0097303,0.0100250,-0.0097303,0.0100250,-0.0107728,-0.0014340,-0.0107728,0.0000000*
4,1,4,0.0010902,-0.0110000,-0.0014340,-0.0107728,0.0100250,-0.0107728,0.0100250,-0.0110000,0.0010902,-0.0110000,0.0000000*
4,1,3,0.0015204,-0.0110387,0.0010902,-0.0110000,0.0020750,-0.0110000,0.0015204,-0.0110387,0.0000000*
%
%AMRECTANGLE_ROUNDED_36_L1*
4,1,4,-0.0034617,0.0176013,-0.0000300,0.0180000,0.0150000,0.0180000,0.0150000,0.0176013,-0.0034617,0.0176013,0.0000000*
4,1,4,-0.0067107,0.0164265,-0.0034617,0.0176013,0.0150000,0.0176013,0.0150000,0.0164265,-0.0067107,0.0164265,0.0000000*
4,1,4,-0.0096039,0.0145382,-0.0067107,0.0164265,0.0150000,0.0164265,0.0150000,0.0145382,-0.0096039,0.0145382,0.0000000*
4,1,4,-0.0119872,0.0120369,-0.0096039,0.0145382,0.0150000,0.0145382,0.0150000,0.0120369,-0.0119872,0.0120369,0.0000000*
4,1,4,-0.0137335,0.0090560,-0.0119872,0.0120369,0.0150000,0.0120369,0.0150000,0.0090560,-0.0137335,0.0090560,0.0000000*
4,1,4,-0.0147500,0.0057540,-0.0137335,0.0090560,0.0150000,0.0090560,0.0150000,0.0057540,-0.0147500,0.0057540,0.0000000*
4,1,4,-0.0150000,0.0030300,-0.0147500,0.0057540,0.0150000,0.0057540,0.0150000,0.0030300,-0.0150000,0.0030300,0.0000000*
4,1,4,-0.0150000,-0.0030300,-0.0150000,0.0030300,0.0150000,0.0030300,0.0150000,-0.0030300,-0.0150000,-0.0030300,0.0000000*
4,1,4,-0.0146013,-0.0064617,-0.0150000,-0.0030300,0.0150000,-0.0030300,0.0150000,-0.0064617,-0.0146013,-0.0064617,0.0000000*
4,1,4,-0.0134265,-0.0097107,-0.0146013,-0.0064617,0.0150000,-0.0064617,0.0150000,-0.0097107,-0.0134265,-0.0097107,0.0000000*
4,1,4,-0.0115382,-0.0126039,-0.0134265,-0.0097107,0.0150000,-0.0097107,0.0150000,-0.0126039,-0.0115382,-0.0126039,0.0000000*
4,1,4,-0.0090369,-0.0149872,-0.0115382,-0.0126039,0.0150000,-0.0126039,0.0150000,-0.0149872,-0.0090369,-0.0149872,0.0000000*
4,1,4,-0.0060560,-0.0167335,-0.0090369,-0.0149872,0.0150000,-0.0149872,0.0150000,-0.0167335,-0.0060560,-0.0167335,0.0000000*
4,1,4,-0.0027540,-0.0177500,-0.0060560,-0.0167335,0.0150000,-0.0167335,0.0150000,-0.0177500,-0.0027540,-0.0177500,0.0000000*
4,1,4,-0.0000300,-0.0180000,-0.0027540,-0.0177500,0.0150000,-0.0177500,0.0150000,-0.0180000,-0.0000300,-0.0180000,0.0000000*
%
%AMCUSTOM_35_L1*
4,1,4,-0.0180000,0.0000000,-0.0180000,0.0150000,0.0180000,0.0150000,0.0180000,0.0000000,-0.0180000,0.0000000,0.0000000*
4,1,4,-0.0179062,-0.0015000,-0.0180000,0.0000000,0.0180000,0.0000000,0.0179000,-0.0015000,-0.0179062,-0.0015000,0.0000000*
4,1,4,-0.0179000,-0.0016000,-0.0179062,-0.0015000,0.0179000,-0.0015000,0.0178842,-0.0016000,-0.0179000,-0.0016000,0.0000000*
4,1,4,-0.0177000,-0.0031000,-0.0179000,-0.0016000,0.0178842,-0.0016000,0.0176473,-0.0031000,-0.0177000,-0.0031000,0.0000000*
4,1,4,-0.0176143,-0.0034000,-0.0177000,-0.0031000,0.0176473,-0.0031000,0.0176000,-0.0034000,-0.0176143,-0.0034000,0.0000000*
4,1,4,-0.0175000,-0.0038000,-0.0176143,-0.0034000,0.0176000,-0.0034000,0.0174720,-0.0038000,-0.0175000,-0.0038000,0.0000000*
4,1,4,-0.0172000,-0.0048000,-0.0175000,-0.0038000,0.0174720,-0.0038000,0.0171520,-0.0048000,-0.0172000,-0.0048000,0.0000000*
4,1,4,-0.0167769,-0.0059000,-0.0172000,-0.0048000,0.0171520,-0.0048000,0.0168000,-0.0059000,-0.0167769,-0.0059000,0.0000000*
4,1,4,-0.0167000,-0.0061000,-0.0167769,-0.0059000,0.0168000,-0.0059000,0.0166888,-0.0061000,-0.0167000,-0.0061000,0.0000000*
4,1,4,-0.0161000,-0.0073000,-0.0167000,-0.0061000,0.0166888,-0.0061000,0.0160222,-0.0073000,-0.0161000,-0.0073000,0.0000000*
4,1,4,-0.0155000,-0.0083000,-0.0161000,-0.0073000,0.0160222,-0.0073000,0.0154666,-0.0083000,-0.0155000,-0.0083000,0.0000000*
4,1,4,-0.0152750,-0.0086000,-0.0155000,-0.0083000,0.0154666,-0.0083000,0.0153000,-0.0086000,-0.0152750,-0.0086000,0.0000000*
4,1,4,-0.0149000,-0.0091000,-0.0152750,-0.0086000,0.0153000,-0.0086000,0.0149538,-0.0091000,-0.0149000,-0.0091000,0.0000000*
4,1,4,-0.0142777,-0.0099000,-0.0149000,-0.0091000,0.0149538,-0.0091000,0.0144000,-0.0099000,-0.0142777,-0.0099000,0.0000000*
4,1,4,-0.0142000,-0.0100000,-0.0142777,-0.0099000,0.0144000,-0.0099000,0.0142933,-0.0100000,-0.0142000,-0.0100000,0.0000000*
4,1,4,-0.0135000,-0.0107000,-0.0142000,-0.0100000,0.0142933,-0.0100000,0.0135466,-0.0107000,-0.0135000,-0.0107000,0.0000000*
4,1,4,-0.0127222,-0.0114000,-0.0135000,-0.0107000,0.0135466,-0.0107000,0.0128000,-0.0114000,-0.0127222,-0.0114000,0.0000000*
4,1,4,-0.0125000,-0.0116000,-0.0127222,-0.0114000,0.0128000,-0.0114000,0.0125384,-0.0116000,-0.0125000,-0.0116000,0.0000000*
4,1,4,-0.0116000,-0.0123000,-0.0125000,-0.0116000,0.0125384,-0.0116000,0.0116231,-0.0123000,-0.0116000,-0.0123000,0.0000000*
4,1,4,-0.0109500,-0.0127000,-0.0116000,-0.0123000,0.0116231,-0.0123000,0.0111000,-0.0127000,-0.0109500,-0.0127000,0.0000000*
4,1,4,-0.0103000,-0.0131000,-0.0109500,-0.0127000,0.0111000,-0.0127000,0.0104091,-0.0131000,-0.0103000,-0.0131000,0.0000000*
4,1,4,-0.0091000,-0.0137000,-0.0103000,-0.0131000,0.0104091,-0.0131000,0.0093727,-0.0137000,-0.0091000,-0.0137000,0.0000000*
4,1,4,-0.0088500,-0.0138000,-0.0091000,-0.0137000,0.0093727,-0.0137000,0.0092000,-0.0138000,-0.0088500,-0.0138000,0.0000000*
4,1,4,-0.0076000,-0.0143000,-0.0088500,-0.0138000,0.0092000,-0.0138000,0.0076166,-0.0143000,-0.0076000,-0.0143000,0.0000000*
4,1,4,-0.0072250,-0.0144000,-0.0076000,-0.0143000,0.0076166,-0.0143000,0.0073000,-0.0144000,-0.0072250,-0.0144000,0.0000000*
4,1,4,-0.0064750,-0.0146000,-0.0072250,-0.0144000,0.0073000,-0.0144000,0.0063000,-0.0146000,-0.0064750,-0.0146000,0.0000000*
4,1,4,-0.0061000,-0.0147000,-0.0064750,-0.0146000,0.0063000,-0.0146000,0.0059000,-0.0147000,-0.0061000,-0.0147000,0.0000000*
4,1,4,-0.0044000,-0.0149000,-0.0061000,-0.0147000,0.0059000,-0.0147000,0.0051000,-0.0149000,-0.0044000,-0.0149000,0.0000000*
4,1,4,-0.0031000,-0.0150000,-0.0044000,-0.0149000,0.0051000,-0.0149000,0.0047000,-0.0150000,-0.0031000,-0.0150000,0.0000000*
%
%AMCUSTOM_19_L1*
4,1,4,-0.0110000,0.0020750,-0.0110000,0.0100250,0.0110000,0.0100250,0.0110000,0.0020750,-0.0110000,0.0020750,0.0000000*
4,1,4,-0.0110375,0.0015506,-0.0110000,0.0020750,0.0110000,0.0020750,0.0110375,0.0015506,-0.0110375,0.0015506,0.0000000*
4,1,4,-0.0110500,0.0010251,-0.0110375,0.0015506,0.0110375,0.0015506,0.0110500,0.0010251,-0.0110500,0.0010251,0.0000000*
4,1,4,-0.0106646,-0.0018193,-0.0110500,0.0010251,0.0110500,0.0010251,0.0106776,-0.0018193,-0.0106646,-0.0018193,0.0000000*
4,1,4,-0.0106518,-0.0019145,-0.0106646,-0.0018193,0.0106776,-0.0018193,0.0106379,-0.0019145,-0.0106518,-0.0019145,0.0000000*
4,1,4,-0.0095221,-0.0045573,-0.0106518,-0.0019145,0.0106379,-0.0019145,0.0095361,-0.0045573,-0.0095221,-0.0045573,0.0000000*
4,1,4,-0.0094859,-0.0046422,-0.0095221,-0.0045573,0.0095361,-0.0045573,0.0094696,-0.0046422,-0.0094859,-0.0046422,0.0000000*
4,1,4,-0.0076909,-0.0068931,-0.0094859,-0.0046422,0.0094696,-0.0046422,0.0077074,-0.0068931,-0.0076909,-0.0068931,0.0000000*
4,1,4,-0.0076364,-0.0069616,-0.0076909,-0.0068931,0.0077074,-0.0068931,0.0076148,-0.0069616,-0.0076364,-0.0069616,0.0000000*
4,1,4,-0.0053013,-0.0086582,-0.0076364,-0.0069616,0.0076148,-0.0069616,0.0053231,-0.0086582,-0.0053013,-0.0086582,0.0000000*
4,1,4,-0.0052365,-0.0087053,-0.0053013,-0.0086582,0.0053231,-0.0086582,0.0052009,-0.0087053,-0.0052365,-0.0087053,0.0000000*
4,1,4,-0.0025187,-0.0097254,-0.0052365,-0.0087053,0.0052009,-0.0087053,0.0025553,-0.0097254,-0.0025187,-0.0097254,0.0000000*
4,1,4,-0.0024592,-0.0097477,-0.0025187,-0.0097254,0.0025553,-0.0097254,0.0023295,-0.0097477,-0.0024592,-0.0097477,0.0000000*
4,1,3,-0.0003967,-0.0100178,-0.0024592,-0.0097477,0.0023295,-0.0097477,-0.0003967,-0.0100178,0.0000000*
%
%AMRECTANGLE_83_L1*
4,1,4,0.0570000,0.0295000,0.0570000,-0.0295000,-0.0570000,-0.0295000,-0.0570000,0.0295000,0.0570000,0.0295000,0.0000000*
%
%AMRECTANGLE_61_L1*
4,1,4,0.0060000,0.0170000,0.0060000,-0.0170000,-0.0060000,-0.0170000,-0.0060000,0.0170000,0.0060000,0.0170000,0.0000000*
%
%AMCUSTOM_24_L1*
4,1,3,-0.0023287,0.0097478,0.0003968,0.0100178,0.0024592,0.0097478,-0.0023287,0.0097478,0.0000000*
4,1,4,-0.0025552,0.0097254,-0.0023287,0.0097478,0.0024592,0.0097478,0.0025191,0.0097254,-0.0025552,0.0097254,0.0000000*
4,1,4,-0.0052008,0.0087054,-0.0025552,0.0097254,0.0025191,0.0097254,0.0052365,0.0087054,-0.0052008,0.0087054,0.0000000*
4,1,4,-0.0053231,0.0086582,-0.0052008,0.0087054,0.0052365,0.0087054,0.0053014,0.0086582,-0.0053231,0.0086582,0.0000000*
4,1,4,-0.0076148,0.0069617,-0.0053231,0.0086582,0.0053014,0.0086582,0.0076364,0.0069617,-0.0076148,0.0069617,0.0000000*
4,1,4,-0.0077073,0.0068931,-0.0076148,0.0069617,0.0076364,0.0069617,0.0076910,0.0068931,-0.0077073,0.0068931,0.0000000*
4,1,4,-0.0094696,0.0046424,-0.0077073,0.0068931,0.0076910,0.0068931,0.0094859,0.0046424,-0.0094696,0.0046424,0.0000000*
4,1,4,-0.0095361,0.0045574,-0.0094696,0.0046424,0.0094859,0.0046424,0.0095223,0.0045574,-0.0095361,0.0045574,0.0000000*
4,1,4,-0.0106379,0.0019146,-0.0095361,0.0045574,0.0095223,0.0045574,0.0106517,0.0019146,-0.0106379,0.0019146,0.0000000*
4,1,4,-0.0106776,0.0018194,-0.0106379,0.0019146,0.0106517,0.0019146,0.0106646,0.0018194,-0.0106776,0.0018194,0.0000000*
4,1,4,-0.0110500,-0.0010250,-0.0106776,0.0018194,0.0106646,0.0018194,0.0110500,-0.0010250,-0.0110500,-0.0010250,0.0000000*
4,1,4,-0.0110375,-0.0015506,-0.0110499,-0.0010250,0.0110500,-0.0010250,0.0110375,-0.0015506,-0.0110375,-0.0015506,0.0000000*
4,1,4,-0.0110000,-0.0020750,-0.0110375,-0.0015506,0.0110375,-0.0015506,0.0110000,-0.0020750,-0.0110000,-0.0020750,0.0000000*
4,1,4,-0.0110000,-0.0100250,-0.0110000,-0.0020750,0.0110000,-0.0020750,0.0110000,-0.0100250,-0.0110000,-0.0100250,0.0000000*
%
%AMRECTANGLE_47_L1*
4,1,4,0.0040000,0.0140000,0.0040000,-0.0140000,-0.0040000,-0.0140000,-0.0040000,0.0140000,0.0040000,0.0140000,0.0000000*
%
%AMRECTANGLE_34_L1*
4,1,4,0.0140000,0.0040000,0.0140000,-0.0040000,-0.0140000,-0.0040000,-0.0140000,0.0040000,0.0140000,0.0040000,0.0000000*
%
%AMRECTANGLE_82_L1*
4,1,4,0.0335000,0.0140000,0.0335000,-0.0140000,-0.0335000,-0.0140000,-0.0335000,0.0140000,0.0335000,0.0140000,0.0000000*
%
%AMRECTANGLE_ROUNDED_76_L1*
4,1,4,-0.0120800,0.0115402,-0.0120800,0.0120050,0.0000750,0.0120050,0.0033831,0.0115402,-0.0120800,0.0115402,0.0000000*
4,1,4,-0.0120800,0.0103121,-0.0120800,0.0115402,0.0033831,0.0115402,0.0062213,0.0103121,-0.0120800,0.0103121,0.0000000*
4,1,4,-0.0120800,0.0083998,-0.0120800,0.0103121,0.0062213,0.0103121,0.0086518,0.0083998,-0.0120800,0.0083998,0.0000000*
4,1,4,-0.0120800,0.0059300,-0.0120800,0.0083998,0.0086518,0.0083998,0.0105131,0.0059300,-0.0120800,0.0059300,0.0000000*
4,1,4,-0.0120800,0.0030667,-0.0120800,0.0059300,0.0105131,0.0059300,0.0116817,0.0030667,-0.0120800,0.0030667,0.0000000*
4,1,4,-0.0120800,-0.0000001,-0.0120800,0.0030667,0.0116817,0.0030667,0.0120800,-0.0000001,-0.0120800,-0.0000001,0.0000000*
4,1,4,-0.0120800,-0.0033081,-0.0120800,-0.0000001,0.0120800,-0.0000001,0.0116151,-0.0033081,-0.0120800,-0.0033081,0.0000000*
4,1,4,-0.0120800,-0.0061464,-0.0120800,-0.0033081,0.0116151,-0.0033081,0.0103872,-0.0061464,-0.0120800,-0.0061464,0.0000000*
4,1,4,-0.0120800,-0.0085769,-0.0120800,-0.0061464,0.0103872,-0.0061464,0.0084748,-0.0085769,-0.0120800,-0.0085769,0.0000000*
4,1,4,-0.0120800,-0.0104380,-0.0120800,-0.0085769,0.0084748,-0.0085769,0.0060050,-0.0104380,-0.0120800,-0.0104380,0.0000000*
4,1,4,-0.0120800,-0.0116066,-0.0120800,-0.0104380,0.0060050,-0.0104380,0.0031417,-0.0116066,-0.0120800,-0.0116066,0.0000000*
4,1,4,-0.0120800,-0.0120050,-0.0120800,-0.0116066,0.0031417,-0.0116066,0.0000750,-0.0120050,-0.0120800,-0.0120050,0.0000000*
%
%AMCUSTOM_57_L1*
4,1,4,-0.0055000,0.0059287,-0.0055000,0.0060000,-0.0005000,0.0060000,0.0004213,0.0059287,-0.0055000,0.0059287,0.0000000*
4,1,4,-0.0055000,0.0052074,-0.0055000,0.0059287,0.0004213,0.0059287,0.0024803,0.0052074,-0.0055000,0.0052074,0.0000000*
4,1,4,-0.0055000,0.0037974,-0.0055000,0.0052074,0.0024803,0.0052074,0.0041453,0.0037974,-0.0055000,0.0037974,0.0000000*
4,1,4,-0.0055000,0.0018854,-0.0055000,0.0037974,0.0041453,0.0037974,0.0051960,0.0018854,-0.0055000,0.0018854,0.0000000*
4,1,4,-0.0055000,-0.0002759,-0.0055000,0.0018854,0.0051960,0.0018854,0.0054936,-0.0002759,-0.0055000,-0.0002759,0.0000000*
4,1,4,-0.0055000,-0.0006477,-0.0055000,-0.0002759,0.0054936,-0.0002759,0.0054649,-0.0006477,-0.0055000,-0.0006477,0.0000000*
4,1,4,-0.0055000,-0.0027377,-0.0055000,-0.0006477,0.0054649,-0.0006477,0.0048390,-0.0027377,-0.0055000,-0.0027377,0.0000000*
4,1,4,-0.0055000,-0.0044657,-0.0055000,-0.0027377,0.0048390,-0.0027377,0.0035071,-0.0044657,-0.0055000,-0.0044657,0.0000000*
4,1,4,-0.0055000,-0.0056033,-0.0055000,-0.0044657,0.0035071,-0.0044657,0.0016454,-0.0056033,-0.0055000,-0.0056033,0.0000000*
4,1,4,-0.0055000,-0.0060000,-0.0055000,-0.0056033,0.0016454,-0.0056033,-0.0005000,-0.0060000,-0.0055000,-0.0060000,0.0000000*
%
%AMCUSTOM_59_L1*
4,1,4,-0.0016454,0.0056033,0.0005000,0.0060000,0.0055000,0.0060000,0.0055000,0.0056033,-0.0016454,0.0056033,0.0000000*
4,1,4,-0.0035071,0.0044657,-0.0016454,0.0056033,0.0055000,0.0056033,0.0055000,0.0044657,-0.0035071,0.0044657,0.0000000*
4,1,4,-0.0048390,0.0027377,-0.0035071,0.0044657,0.0055000,0.0044657,0.0055000,0.0027377,-0.0048390,0.0027377,0.0000000*
4,1,4,-0.0054649,0.0006477,-0.0048390,0.0027377,0.0055000,0.0027377,0.0055000,0.0006477,-0.0054649,0.0006477,0.0000000*
4,1,4,-0.0054936,0.0002759,-0.0054649,0.0006477,0.0055000,0.0006477,0.0055000,0.0002759,-0.0054936,0.0002759,0.0000000*
4,1,4,-0.0051960,-0.0018854,-0.0054936,0.0002759,0.0055000,0.0002759,0.0055000,-0.0018854,-0.0051960,-0.0018854,0.0000000*
4,1,4,-0.0041453,-0.0037974,-0.0051960,-0.0018854,0.0055000,-0.0018854,0.0055000,-0.0037974,-0.0041453,-0.0037974,0.0000000*
4,1,4,-0.0024803,-0.0052074,-0.0041453,-0.0037974,0.0055000,-0.0037974,0.0055000,-0.0052074,-0.0024803,-0.0052074,0.0000000*
4,1,4,-0.0004213,-0.0059287,-0.0024803,-0.0052074,0.0055000,-0.0052074,0.0055000,-0.0059287,-0.0004213,-0.0059287,0.0000000*
4,1,4,0.0005000,-0.0060000,-0.0004213,-0.0059287,0.0055000,-0.0059287,0.0055000,-0.0060000,0.0005000,-0.0060000,0.0000000*
%
%AMRECTANGLE_81_L1*
4,1,4,0.0490000,0.0295000,0.0490000,-0.0295000,-0.0490000,-0.0295000,-0.0490000,0.0295000,0.0490000,0.0295000,0.0000000*
%
%AMCUSTOM_27_L1*
4,1,4,-0.0280000,-0.0010000,-0.0280000,0.0200000,0.0280000,0.0200000,0.0280000,-0.0010000,-0.0280000,-0.0010000,0.0000000*
4,1,4,-0.0276000,-0.0041000,-0.0280000,-0.0010000,0.0280000,-0.0010000,0.0275156,-0.0041000,-0.0276000,-0.0041000,0.0000000*
4,1,4,-0.0275718,-0.0042000,-0.0276000,-0.0041000,0.0275156,-0.0041000,0.0275000,-0.0042000,-0.0275718,-0.0042000,0.0000000*
4,1,4,-0.0268969,-0.0066000,-0.0275718,-0.0042000,0.0275000,-0.0042000,0.0269000,-0.0066000,-0.0268969,-0.0066000,0.0000000*
4,1,4,-0.0267000,-0.0073000,-0.0268969,-0.0066000,0.0269000,-0.0066000,0.0265966,-0.0073000,-0.0267000,-0.0073000,0.0000000*
4,1,4,-0.0256000,-0.0095000,-0.0267000,-0.0073000,0.0265966,-0.0073000,0.0256433,-0.0095000,-0.0256000,-0.0095000,0.0000000*
4,1,4,-0.0255368,-0.0096000,-0.0256000,-0.0095000,0.0256433,-0.0095000,0.0256000,-0.0096000,-0.0255368,-0.0096000,0.0000000*
4,1,4,-0.0244000,-0.0114000,-0.0255368,-0.0096000,0.0256000,-0.0096000,0.0243076,-0.0114000,-0.0244000,-0.0114000,0.0000000*
4,1,4,-0.0232000,-0.0130000,-0.0244000,-0.0114000,0.0243076,-0.0114000,0.0231589,-0.0130000,-0.0232000,-0.0130000,0.0000000*
4,1,4,-0.0227000,-0.0135000,-0.0232000,-0.0130000,0.0231589,-0.0130000,0.0228000,-0.0135000,-0.0227000,-0.0135000,0.0000000*
4,1,4,-0.0216000,-0.0146000,-0.0227000,-0.0135000,0.0228000,-0.0135000,0.0216120,-0.0146000,-0.0216000,-0.0146000,0.0000000*
4,1,4,-0.0200000,-0.0160000,-0.0216000,-0.0146000,0.0216120,-0.0146000,0.0201000,-0.0160000,-0.0200000,-0.0160000,0.0000000*
4,1,4,-0.0180000,-0.0173000,-0.0200000,-0.0160000,0.0201000,-0.0160000,0.0180000,-0.0173000,-0.0180000,-0.0173000,0.0000000*
4,1,4,-0.0163000,-0.0183000,-0.0180000,-0.0173000,0.0180000,-0.0173000,0.0161818,-0.0183000,-0.0163000,-0.0183000,0.0000000*
4,1,4,-0.0160124,-0.0184000,-0.0163000,-0.0183000,0.0161818,-0.0183000,0.0160000,-0.0184000,-0.0160124,-0.0184000,0.0000000*
4,1,4,-0.0140000,-0.0191000,-0.0160124,-0.0184000,0.0160000,-0.0184000,0.0139000,-0.0191000,-0.0140000,-0.0191000,0.0000000*
4,1,4,-0.0128600,-0.0194000,-0.0140000,-0.0191000,0.0139000,-0.0191000,0.0130000,-0.0194000,-0.0128600,-0.0194000,0.0000000*
4,1,4,-0.0121000,-0.0196000,-0.0128600,-0.0194000,0.0130000,-0.0194000,0.0118400,-0.0196000,-0.0121000,-0.0196000,0.0000000*
4,1,4,-0.0101000,-0.0199000,-0.0121000,-0.0196000,0.0118400,-0.0196000,0.0101000,-0.0199000,-0.0101000,-0.0199000,0.0000000*
4,1,4,-0.0082000,-0.0200000,-0.0101000,-0.0199000,0.0101000,-0.0199000,0.0082000,-0.0200000,-0.0082000,-0.0200000,0.0000000*
%
%AMCUSTOM_30_L1*
4,1,4,-0.0101000,0.0199000,-0.0082000,0.0200000,0.0082000,0.0200000,0.0101000,0.0199000,-0.0101000,0.0199000,0.0000000*
4,1,4,-0.0118400,0.0196000,-0.0101000,0.0199000,0.0101000,0.0199000,0.0121000,0.0196000,-0.0118400,0.0196000,0.0000000*
4,1,4,-0.0130000,0.0194000,-0.0118400,0.0196000,0.0121000,0.0196000,0.0128600,0.0194000,-0.0130000,0.0194000,0.0000000*
4,1,4,-0.0139000,0.0191000,-0.0130000,0.0194000,0.0128600,0.0194000,0.0140000,0.0191000,-0.0139000,0.0191000,0.0000000*
4,1,4,-0.0160000,0.0184000,-0.0139000,0.0191000,0.0140000,0.0191000,0.0160125,0.0184000,-0.0160000,0.0184000,0.0000000*
4,1,4,-0.0161819,0.0183000,-0.0160000,0.0184000,0.0160125,0.0184000,0.0163000,0.0183000,-0.0161819,0.0183000,0.0000000*
4,1,4,-0.0180000,0.0173000,-0.0161819,0.0183000,0.0163000,0.0183000,0.0180000,0.0173000,-0.0180000,0.0173000,0.0000000*
4,1,4,-0.0201000,0.0160000,-0.0180000,0.0173000,0.0180000,0.0173000,0.0200000,0.0160000,-0.0201000,0.0160000,0.0000000*
4,1,4,-0.0216120,0.0146000,-0.0201000,0.0160000,0.0200000,0.0160000,0.0216000,0.0146000,-0.0216120,0.0146000,0.0000000*
4,1,4,-0.0228000,0.0135000,-0.0216120,0.0146000,0.0216000,0.0146000,0.0227000,0.0135000,-0.0228000,0.0135000,0.0000000*
4,1,4,-0.0231590,0.0130000,-0.0228000,0.0135000,0.0227000,0.0135000,0.0232000,0.0130000,-0.0231590,0.0130000,0.0000000*
4,1,4,-0.0243077,0.0114000,-0.0231590,0.0130000,0.0232000,0.0130000,0.0244000,0.0114000,-0.0243077,0.0114000,0.0000000*
4,1,4,-0.0256000,0.0096000,-0.0243077,0.0114000,0.0244000,0.0114000,0.0255369,0.0096000,-0.0256000,0.0096000,0.0000000*
4,1,4,-0.0256434,0.0095000,-0.0256000,0.0096000,0.0255369,0.0096000,0.0256000,0.0095000,-0.0256434,0.0095000,0.0000000*
4,1,4,-0.0265967,0.0073000,-0.0256434,0.0095000,0.0256000,0.0095000,0.0267000,0.0073000,-0.0265967,0.0073000,0.0000000*
4,1,4,-0.0269000,0.0066000,-0.0265967,0.0073000,0.0267000,0.0073000,0.0268969,0.0066000,-0.0269000,0.0066000,0.0000000*
4,1,4,-0.0275000,0.0042000,-0.0269000,0.0066000,0.0268969,0.0066000,0.0275719,0.0042000,-0.0275000,0.0042000,0.0000000*
4,1,4,-0.0275157,0.0041000,-0.0275000,0.0042000,0.0275719,0.0042000,0.0276000,0.0041000,-0.0275157,0.0041000,0.0000000*
4,1,4,-0.0280000,0.0010000,-0.0275157,0.0041000,0.0276000,0.0041000,0.0280000,0.0010000,-0.0280000,0.0010000,0.0000000*
4,1,4,-0.0280000,-0.0200000,-0.0280000,0.0010000,0.0280000,0.0010000,0.0280000,-0.0200000,-0.0280000,-0.0200000,0.0000000*
%
%AMRECTANGLE_67_L1*
4,1,4,0.0060000,0.0475000,0.0060000,-0.0475000,-0.0060000,-0.0475000,-0.0060000,0.0475000,0.0060000,0.0475000,0.0000000*
%
%AMRECTANGLE_50_L1*
4,1,4,0.0070000,0.0180000,0.0070000,-0.0180000,-0.0070000,-0.0180000,-0.0070000,0.0180000,0.0070000,0.0180000,0.0000000*
%
%AMRECTANGLE_ROUNDED_37_L1*
4,1,4,-0.0150000,0.0177500,-0.0150000,0.0180000,0.0000300,0.0180000,0.0027540,0.0177500,-0.0150000,0.0177500,0.0000000*
4,1,4,-0.0150000,0.0167335,-0.0150000,0.0177500,0.0027540,0.0177500,0.0060560,0.0167335,-0.0150000,0.0167335,0.0000000*
4,1,4,-0.0150000,0.0149872,-0.0150000,0.0167335,0.0060560,0.0167335,0.0090369,0.0149872,-0.0150000,0.0149872,0.0000000*
4,1,4,-0.0150000,0.0126039,-0.0150000,0.0149872,0.0090369,0.0149872,0.0115382,0.0126039,-0.0150000,0.0126039,0.0000000*
4,1,4,-0.0150000,0.0097107,-0.0150000,0.0126039,0.0115382,0.0126039,0.0134265,0.0097107,-0.0150000,0.0097107,0.0000000*
4,1,4,-0.0150000,0.0064617,-0.0150000,0.0097107,0.0134265,0.0097107,0.0146013,0.0064617,-0.0150000,0.0064617,0.0000000*
4,1,4,-0.0150000,0.0030300,-0.0150000,0.0064617,0.0146013,0.0064617,0.0150000,0.0030300,-0.0150000,0.0030300,0.0000000*
4,1,4,-0.0150000,-0.0030300,-0.0150000,0.0030300,0.0150000,0.0030300,0.0150000,-0.0030300,-0.0150000,-0.0030300,0.0000000*
4,1,4,-0.0150000,-0.0057540,-0.0150000,-0.0030300,0.0150000,-0.0030300,0.0147500,-0.0057540,-0.0150000,-0.0057540,0.0000000*
4,1,4,-0.0150000,-0.0090560,-0.0150000,-0.0057540,0.0147500,-0.0057540,0.0137335,-0.0090560,-0.0150000,-0.0090560,0.0000000*
4,1,4,-0.0150000,-0.0120369,-0.0150000,-0.0090560,0.0137335,-0.0090560,0.0119872,-0.0120369,-0.0150000,-0.0120369,0.0000000*
4,1,4,-0.0150000,-0.0145382,-0.0150000,-0.0120369,0.0119872,-0.0120369,0.0096039,-0.0145382,-0.0150000,-0.0145382,0.0000000*
4,1,4,-0.0150000,-0.0164265,-0.0150000,-0.0145382,0.0096039,-0.0145382,0.0067107,-0.0164265,-0.0150000,-0.0164265,0.0000000*
4,1,4,-0.0150000,-0.0176013,-0.0150000,-0.0164265,0.0067107,-0.0164265,0.0034617,-0.0176013,-0.0150000,-0.0176013,0.0000000*
4,1,4,-0.0150000,-0.0180000,-0.0150000,-0.0176013,0.0034617,-0.0176013,0.0000300,-0.0180000,-0.0150000,-0.0180000,0.0000000*
%
%AMRECTANGLE_63_L1*
4,1,4,0.0040000,0.0220000,0.0040000,-0.0220000,-0.0040000,-0.0220000,-0.0040000,0.0220000,0.0040000,0.0220000,0.0000000*
%
%AMCUSTOM_28_L1*
4,1,4,-0.0051000,0.0149000,-0.0047000,0.0150000,0.0031000,0.0150000,0.0044000,0.0149000,-0.0051000,0.0149000,0.0000000*
4,1,4,-0.0059000,0.0147000,-0.0051000,0.0149000,0.0044000,0.0149000,0.0061000,0.0147000,-0.0059000,0.0147000,0.0000000*
4,1,4,-0.0063000,0.0146000,-0.0059000,0.0147000,0.0061000,0.0147000,0.0064750,0.0146000,-0.0063000,0.0146000,0.0000000*
4,1,4,-0.0073000,0.0144000,-0.0063000,0.0146000,0.0064750,0.0146000,0.0072250,0.0144000,-0.0073000,0.0144000,0.0000000*
4,1,4,-0.0076167,0.0143000,-0.0073000,0.0144000,0.0072250,0.0144000,0.0076000,0.0143000,-0.0076167,0.0143000,0.0000000*
4,1,4,-0.0092000,0.0138000,-0.0076167,0.0143000,0.0076000,0.0143000,0.0088500,0.0138000,-0.0092000,0.0138000,0.0000000*
4,1,4,-0.0093728,0.0137000,-0.0092000,0.0138000,0.0088500,0.0138000,0.0091000,0.0137000,-0.0093728,0.0137000,0.0000000*
4,1,4,-0.0104091,0.0131000,-0.0093728,0.0137000,0.0091000,0.0137000,0.0103000,0.0131000,-0.0104091,0.0131000,0.0000000*
4,1,4,-0.0111000,0.0127000,-0.0104091,0.0131000,0.0103000,0.0131000,0.0109500,0.0127000,-0.0111000,0.0127000,0.0000000*
4,1,4,-0.0116231,0.0123000,-0.0111000,0.0127000,0.0109500,0.0127000,0.0116000,0.0123000,-0.0116231,0.0123000,0.0000000*
4,1,4,-0.0125385,0.0116000,-0.0116231,0.0123000,0.0116000,0.0123000,0.0125000,0.0116000,-0.0125385,0.0116000,0.0000000*
4,1,4,-0.0128000,0.0114000,-0.0125385,0.0116000,0.0125000,0.0116000,0.0127223,0.0114000,-0.0128000,0.0114000,0.0000000*
4,1,4,-0.0135467,0.0107000,-0.0128000,0.0114000,0.0127223,0.0114000,0.0135000,0.0107000,-0.0135467,0.0107000,0.0000000*
4,1,4,-0.0142934,0.0100000,-0.0135467,0.0107000,0.0135000,0.0107000,0.0142000,0.0100000,-0.0142934,0.0100000,0.0000000*
4,1,4,-0.0144000,0.0099000,-0.0142934,0.0100000,0.0142000,0.0100000,0.0142778,0.0099000,-0.0144000,0.0099000,0.0000000*
4,1,4,-0.0149539,0.0091000,-0.0144000,0.0099000,0.0142778,0.0099000,0.0149000,0.0091000,-0.0149539,0.0091000,0.0000000*
4,1,4,-0.0153000,0.0086000,-0.0149539,0.0091000,0.0149000,0.0091000,0.0152750,0.0086000,-0.0153000,0.0086000,0.0000000*
4,1,4,-0.0154667,0.0083000,-0.0153000,0.0086000,0.0152750,0.0086000,0.0155000,0.0083000,-0.0154667,0.0083000,0.0000000*
4,1,4,-0.0160223,0.0073000,-0.0154667,0.0083000,0.0155000,0.0083000,0.0161000,0.0073000,-0.0160223,0.0073000,0.0000000*
4,1,4,-0.0166889,0.0061000,-0.0160223,0.0073000,0.0161000,0.0073000,0.0167000,0.0061000,-0.0166889,0.0061000,0.0000000*
4,1,4,-0.0168000,0.0059000,-0.0166889,0.0061000,0.0167000,0.0061000,0.0167769,0.0059000,-0.0168000,0.0059000,0.0000000*
4,1,4,-0.0171520,0.0048000,-0.0168000,0.0059000,0.0167769,0.0059000,0.0172000,0.0048000,-0.0171520,0.0048000,0.0000000*
4,1,4,-0.0174720,0.0038000,-0.0171520,0.0048000,0.0172000,0.0048000,0.0175000,0.0038000,-0.0174720,0.0038000,0.0000000*
4,1,4,-0.0176000,0.0034000,-0.0174720,0.0038000,0.0175000,0.0038000,0.0176143,0.0034000,-0.0176000,0.0034000,0.0000000*
4,1,4,-0.0176474,0.0031000,-0.0176000,0.0034000,0.0176143,0.0034000,0.0177000,0.0031000,-0.0176474,0.0031000,0.0000000*
4,1,4,-0.0178843,0.0016000,-0.0176474,0.0031000,0.0177000,0.0031000,0.0179000,0.0016000,-0.0178843,0.0016000,0.0000000*
4,1,4,-0.0179000,0.0015000,-0.0178843,0.0016000,0.0179000,0.0016000,0.0179063,0.0015000,-0.0179000,0.0015000,0.0000000*
4,1,4,-0.0180000,0.0000000,-0.0179000,0.0015000,0.0179063,0.0015000,0.0180000,0.0000000,-0.0180000,0.0000000,0.0000000*
4,1,4,-0.0180000,-0.0150000,-0.0180000,0.0000000,0.0180000,0.0000000,0.0180000,-0.0150000,-0.0180000,-0.0150000,0.0000000*
%
%AMRECTANGLE_16_L1*
4,1,4,0.0315000,0.0300000,0.0315000,-0.0300000,-0.0315000,-0.0300000,-0.0315000,0.0300000,0.0315000,0.0300000,0.0000000*
%
%AMRECTANGLE_29_L1*
4,1,4,0.0150000,0.0080000,0.0150000,-0.0080000,-0.0150000,-0.0080000,-0.0150000,0.0080000,0.0150000,0.0080000,0.0000000*
%
%AMRECTANGLE_33_L1*
4,1,4,0.0325000,0.0125000,0.0325000,-0.0125000,-0.0325000,-0.0125000,-0.0325000,0.0125000,0.0325000,0.0125000,0.0000000*
%
%AMRECTANGLE_ROUNDED_74_L1*
4,1,4,-0.0042246,0.0086643,-0.0021400,0.0090000,0.0021400,0.0090000,0.0044124,0.0086643,-0.0042246,0.0086643,0.0000000*
4,1,4,-0.0046078,0.0086025,-0.0042246,0.0086643,0.0044124,0.0086643,0.0045393,0.0086025,-0.0046078,0.0086025,0.0000000*
4,1,4,-0.0065950,0.0075703,-0.0046078,0.0086025,0.0045393,0.0086025,0.0066599,0.0075703,-0.0065950,0.0075703,0.0000000*
4,1,4,-0.0068260,0.0074503,-0.0065950,0.0075703,0.0066599,0.0075703,0.0067831,0.0074503,-0.0068260,0.0074503,0.0000000*
4,1,4,-0.0084086,0.0058260,-0.0068260,0.0074503,0.0067831,0.0074503,0.0084503,0.0058260,-0.0084086,0.0058260,0.0000000*
4,1,4,-0.0085703,0.0056599,-0.0084086,0.0058260,0.0084503,0.0058260,0.0085366,0.0056599,-0.0085703,0.0056599,0.0000000*
4,1,4,-0.0095692,0.0036078,-0.0085703,0.0056599,0.0085366,0.0056599,0.0096025,0.0036078,-0.0095692,0.0036078,0.0000000*
4,1,4,-0.0096643,0.0034124,-0.0095692,0.0036078,0.0096025,0.0036078,0.0096340,0.0034124,-0.0096643,0.0034124,0.0000000*
4,1,4,-0.0100000,0.0011400,-0.0096643,0.0034124,0.0096340,0.0034124,0.0100000,0.0011400,-0.0100000,0.0011400,0.0000000*
4,1,4,-0.0100000,-0.0090000,-0.0100000,0.0011400,0.0100000,0.0011400,0.0100000,-0.0090000,-0.0100000,-0.0090000,0.0000000*
%
%AMRECTANGLE_40_L1*
4,1,4,0.0150000,0.0160000,0.0150000,-0.0160000,-0.0150000,-0.0160000,-0.0150000,0.0160000,0.0150000,0.0160000,0.0000000*
%
%AMRECTANGLE_58_L1*
4,1,4,0.0315000,0.0335000,0.0315000,-0.0335000,-0.0315000,-0.0335000,-0.0315000,0.0335000,0.0315000,0.0335000,0.0000000*
%
%AMRECTANGLE_25_L1*
4,1,4,0.0130000,0.0150000,0.0130000,-0.0150000,-0.0130000,-0.0150000,-0.0130000,0.0150000,0.0130000,0.0150000,0.0000000*
%
%AMOBLONG_80_L1*
4,1,72,-0.0295000,-0.0295000,-0.0293877,-0.0269289,-0.0290518,-0.0243774,-0.0284948,-0.0218648,-0.0277209,-0.0194104,-0.0267361,-0.0170328,-0.0255477,-0.0147500,-0.0241650,-0.0125795,-0.0225983,-0.0105378,-0.0208597,-0.0086403,-0.0189622,-0.0069017,-0.0169205,-0.0053350,-0.0147500,-0.0039523,-0.0124672,-0.0027639,-0.0100896,-0.0017791,-0.0076352,-0.0010052,-0.0051226,-0.0004482,-0.0025711,-0.0001123,0.0000000,0.0000000,0.0025711,-0.0001123,0.0051226,-0.0004482,0.0076352,-0.0010052,0.0100896,-0.0017791,0.0124672,-0.0027639,0.0147500,-0.0039523,0.0169205,-0.0053350,0.0189622,-0.0069017,0.0208597,-0.0086403,0.0225983,-0.0105378,0.0241650,-0.0125795,0.0255477,-0.0147500,0.0267361,-0.0170328,0.0277209,-0.0194104,0.0284948,-0.0218648,0.0290518,-0.0243774,0.0293877,-0.0269289,0.0295000,-0.0295000,0.0293877,-0.0320711,0.0290518,-0.0346226,0.0284948,-0.0371352,0.0277209,-0.0395896,0.0267361,-0.0419672,0.0255477,-0.0442500,0.0241650,-0.0464205,0.0225983,-0.0484622,0.0208597,-0.0503597,0.0189622,-0.0520983,0.0169205,-0.0536650,0.0147500,-0.0550477,0.0124672,-0.0562361,0.0100896,-0.0572209,0.0076352,-0.0579948,0.0051226,-0.0585518,0.0025711,-0.0588877,0.0000000,-0.0590000,-0.0025711,-0.0588877,-0.0051226,-0.0585518,-0.0076352,-0.0579948,-0.0100896,-0.0572209,-0.0124672,-0.0562361,-0.0147500,-0.0550477,-0.0169205,-0.0536650,-0.0189622,-0.0520983,-0.0208597,-0.0503597,-0.0225983,-0.0484622,-0.0241650,-0.0464205,-0.0255477,-0.0442500,-0.0267361,-0.0419672,-0.0277209,-0.0395896,-0.0284948,-0.0371352,-0.0290518,-0.0346226,-0.0293877,-0.0320711,-0.0295000,-0.0295000,0.0000000*
4,1,72,-0.0295000,0.0295000,-0.0293877,0.0320711,-0.0290518,0.0346226,-0.0284948,0.0371352,-0.0277209,0.0395896,-0.0267361,0.0419672,-0.0255477,0.0442500,-0.0241650,0.0464205,-0.0225983,0.0484622,-0.0208597,0.0503597,-0.0189622,0.0520983,-0.0169205,0.0536650,-0.0147500,0.0550477,-0.0124672,0.0562361,-0.0100896,0.0572209,-0.0076352,0.0579948,-0.0051226,0.0585518,-0.0025711,0.0588877,0.0000000,0.0590000,0.0025711,0.0588877,0.0051226,0.0585518,0.0076352,0.0579948,0.0100896,0.0572209,0.0124672,0.0562361,0.0147500,0.0550477,0.0169205,0.0536650,0.0189622,0.0520983,0.0208597,0.0503597,0.0225983,0.0484622,0.0241650,0.0464205,0.0255477,0.0442500,0.0267361,0.0419672,0.0277209,0.0395896,0.0284948,0.0371352,0.0290518,0.0346226,0.0293877,0.0320711,0.0295000,0.0295000,0.0293877,0.0269289,0.0290518,0.0243774,0.0284948,0.0218648,0.0277209,0.0194104,0.0267361,0.0170328,0.0255477,0.0147500,0.0241650,0.0125795,0.0225983,0.0105378,0.0208597,0.0086403,0.0189622,0.0069017,0.0169205,0.0053350,0.0147500,0.0039523,0.0124672,0.0027639,0.0100896,0.0017791,0.0076352,0.0010052,0.0051226,0.0004482,0.0025711,0.0001123,0.0000000,0.0000000,-0.0025711,0.0001123,-0.0051226,0.0004482,-0.0076352,0.0010052,-0.0100896,0.0017791,-0.0124672,0.0027639,-0.0147500,0.0039523,-0.0169205,0.0053350,-0.0189622,0.0069017,-0.0208597,0.0086403,-0.0225983,0.0105378,-0.0241650,0.0125795,-0.0255477,0.0147500,-0.0267361,0.0170328,-0.0277209,0.0194104,-0.0284948,0.0218648,-0.0290518,0.0243774,-0.0293877,0.0269289,-0.0295000,0.0295000,0.0000000*
4,1,4,0.0295000,0.0295000,0.0295000,-0.0295000,-0.0295000,-0.0295000,-0.0295000,0.0295000,0.0295000,0.0295000,0.0000000*
%
%AMOBLONG_79_L1*
4,1,72,-0.0295000,-0.0110000,-0.0293877,-0.0084289,-0.0290518,-0.0058774,-0.0284948,-0.0033648,-0.0277209,-0.0009104,-0.0267361,0.0014672,-0.0255477,0.0037500,-0.0241650,0.0059205,-0.0225983,0.0079622,-0.0208597,0.0098597,-0.0189622,0.0115983,-0.0169205,0.0131650,-0.0147500,0.0145477,-0.0124672,0.0157361,-0.0100896,0.0167209,-0.0076352,0.0174948,-0.0051226,0.0180518,-0.0025711,0.0183877,0.0000000,0.0185000,0.0025711,0.0183877,0.0051226,0.0180518,0.0076352,0.0174948,0.0100896,0.0167209,0.0124672,0.0157361,0.0147500,0.0145477,0.0169205,0.0131650,0.0189622,0.0115983,0.0208597,0.0098597,0.0225983,0.0079622,0.0241650,0.0059205,0.0255477,0.0037500,0.0267361,0.0014672,0.0277209,-0.0009104,0.0284948,-0.0033648,0.0290518,-0.0058774,0.0293877,-0.0084289,0.0295000,-0.0110000,0.0293877,-0.0135711,0.0290518,-0.0161226,0.0284948,-0.0186352,0.0277209,-0.0210896,0.0267361,-0.0234672,0.0255477,-0.0257500,0.0241650,-0.0279205,0.0225983,-0.0299622,0.0208597,-0.0318597,0.0189622,-0.0335983,0.0169205,-0.0351650,0.0147500,-0.0365477,0.0124672,-0.0377361,0.0100896,-0.0387209,0.0076352,-0.0394948,0.0051226,-0.0400518,0.0025711,-0.0403877,0.0000000,-0.0405000,-0.0025711,-0.0403877,-0.0051226,-0.0400518,-0.0076352,-0.0394948,-0.0100896,-0.0387209,-0.0124672,-0.0377361,-0.0147500,-0.0365477,-0.0169205,-0.0351650,-0.0189622,-0.0335983,-0.0208597,-0.0318597,-0.0225983,-0.0299622,-0.0241650,-0.0279205,-0.0255477,-0.0257500,-0.0267361,-0.0234672,-0.0277209,-0.0210896,-0.0284948,-0.0186352,-0.0290518,-0.0161226,-0.0293877,-0.0135711,-0.0295000,-0.0110000,0.0000000*
4,1,72,-0.0295000,0.0110000,-0.0293877,0.0135711,-0.0290518,0.0161226,-0.0284948,0.0186352,-0.0277209,0.0210896,-0.0267361,0.0234672,-0.0255477,0.0257500,-0.0241650,0.0279205,-0.0225983,0.0299622,-0.0208597,0.0318597,-0.0189622,0.0335983,-0.0169205,0.0351650,-0.0147500,0.0365477,-0.0124672,0.0377361,-0.0100896,0.0387209,-0.0076352,0.0394948,-0.0051226,0.0400518,-0.0025711,0.0403877,0.0000000,0.0405000,0.0025711,0.0403877,0.0051226,0.0400518,0.0076352,0.0394948,0.0100896,0.0387209,0.0124672,0.0377361,0.0147500,0.0365477,0.0169205,0.0351650,0.0189622,0.0335983,0.0208597,0.0318597,0.0225983,0.0299622,0.0241650,0.0279205,0.0255477,0.0257500,0.0267361,0.0234672,0.0277209,0.0210896,0.0284948,0.0186352,0.0290518,0.0161226,0.0293877,0.0135711,0.0295000,0.0110000,0.0293877,0.0084289,0.0290518,0.0058774,0.0284948,0.0033648,0.0277209,0.0009104,0.0267361,-0.0014672,0.0255477,-0.0037500,0.0241650,-0.0059205,0.0225983,-0.0079622,0.0208597,-0.0098597,0.0189622,-0.0115983,0.0169205,-0.0131650,0.0147500,-0.0145477,0.0124672,-0.0157361,0.0100896,-0.0167209,0.0076352,-0.0174948,0.0051226,-0.0180518,0.0025711,-0.0183877,0.0000000,-0.0185000,-0.0025711,-0.0183877,-0.0051226,-0.0180518,-0.0076352,-0.0174948,-0.0100896,-0.0167209,-0.0124672,-0.0157361,-0.0147500,-0.0145477,-0.0169205,-0.0131650,-0.0189622,-0.0115983,-0.0208597,-0.0098597,-0.0225983,-0.0079622,-0.0241650,-0.0059205,-0.0255477,-0.0037500,-0.0267361,-0.0014672,-0.0277209,0.0009104,-0.0284948,0.0033648,-0.0290518,0.0058774,-0.0293877,0.0084289,-0.0295000,0.0110000,0.0000000*
4,1,4,0.0295000,0.0110000,0.0295000,-0.0110000,-0.0295000,-0.0110000,-0.0295000,0.0110000,0.0295000,0.0110000,0.0000000*
%
%AMRECTANGLE_78_L1*
4,1,4,0.0080000,0.0140000,0.0080000,-0.0140000,-0.0080000,-0.0140000,-0.0080000,0.0140000,0.0080000,0.0140000,0.0000000*
%
%AMRECTANGLE_38_L1*
4,1,4,0.0110000,0.0210000,0.0110000,-0.0210000,-0.0110000,-0.0210000,-0.0110000,0.0210000,0.0110000,0.0210000,0.0000000*
%
%AMCUSTOM_48_L1*
4,1,4,-0.0200000,0.0275000,-0.0200000,0.0280000,0.0010000,0.0280000,0.0042000,0.0275000,-0.0200000,0.0275000,0.0000000*
4,1,4,-0.0200000,0.0269000,-0.0200000,0.0275000,0.0042000,0.0275000,0.0066000,0.0269000,-0.0200000,0.0269000,0.0000000*
4,1,4,-0.0200000,0.0256000,-0.0200000,0.0269000,0.0066000,0.0269000,0.0096000,0.0256000,-0.0200000,0.0256000,0.0000000*
4,1,4,-0.0200000,0.0228000,-0.0200000,0.0256000,0.0096000,0.0256000,0.0135000,0.0228000,-0.0200000,0.0228000,0.0000000*
4,1,4,-0.0200000,0.0201000,-0.0200000,0.0228000,0.0135000,0.0228000,0.0160000,0.0201000,-0.0200000,0.0201000,0.0000000*
4,1,4,-0.0200000,0.0180000,-0.0200000,0.0201000,0.0160000,0.0201000,0.0173000,0.0180000,-0.0200000,0.0180000,0.0000000*
4,1,4,-0.0200000,0.0160000,-0.0200000,0.0180000,0.0173000,0.0180000,0.0184000,0.0160000,-0.0200000,0.0160000,0.0000000*
4,1,4,-0.0200000,0.0130000,-0.0200000,0.0160000,0.0184000,0.0160000,0.0194000,0.0130000,-0.0200000,0.0130000,0.0000000*
4,1,4,-0.0200000,0.0101000,-0.0200000,0.0130000,0.0194000,0.0130000,0.0199000,0.0101000,-0.0200000,0.0101000,0.0000000*
4,1,4,-0.0200000,0.0082000,-0.0200000,0.0101000,0.0199000,0.0101000,0.0200000,0.0082000,-0.0200000,0.0082000,0.0000000*
4,1,4,-0.0200000,-0.0082000,-0.0200000,0.0082000,0.0200000,0.0082000,0.0200000,-0.0082000,-0.0200000,-0.0082000,0.0000000*
4,1,4,-0.0200000,-0.0101000,-0.0200000,-0.0082000,0.0200000,-0.0082000,0.0199000,-0.0101000,-0.0200000,-0.0101000,0.0000000*
4,1,4,-0.0200000,-0.0121000,-0.0200000,-0.0101000,0.0199000,-0.0101000,0.0196000,-0.0121000,-0.0200000,-0.0121000,0.0000000*
4,1,4,-0.0200000,-0.0140000,-0.0200000,-0.0121000,0.0196000,-0.0121000,0.0191000,-0.0140000,-0.0200000,-0.0140000,0.0000000*
4,1,4,-0.0200000,-0.0163000,-0.0200000,-0.0140000,0.0191000,-0.0140000,0.0183000,-0.0163000,-0.0200000,-0.0163000,0.0000000*
4,1,4,-0.0200000,-0.0180000,-0.0200000,-0.0163000,0.0183000,-0.0163000,0.0173000,-0.0180000,-0.0200000,-0.0180000,0.0000000*
4,1,4,-0.0200000,-0.0200000,-0.0200000,-0.0180000,0.0173000,-0.0180000,0.0160000,-0.0200000,-0.0200000,-0.0200000,0.0000000*
4,1,4,-0.0200000,-0.0216000,-0.0200000,-0.0200000,0.0160000,-0.0200000,0.0146000,-0.0216000,-0.0200000,-0.0216000,0.0000000*
4,1,4,-0.0200000,-0.0232000,-0.0200000,-0.0216000,0.0146000,-0.0216000,0.0130000,-0.0232000,-0.0200000,-0.0232000,0.0000000*
4,1,4,-0.0200000,-0.0244000,-0.0200000,-0.0232000,0.0130000,-0.0232000,0.0114000,-0.0244000,-0.0200000,-0.0244000,0.0000000*
4,1,4,-0.0200000,-0.0256000,-0.0200000,-0.0244000,0.0114000,-0.0244000,0.0095000,-0.0256000,-0.0200000,-0.0256000,0.0000000*
4,1,4,-0.0200000,-0.0267000,-0.0200000,-0.0256000,0.0095000,-0.0256000,0.0073000,-0.0267000,-0.0200000,-0.0267000,0.0000000*
4,1,4,-0.0200000,-0.0276000,-0.0200000,-0.0267000,0.0073000,-0.0267000,0.0041000,-0.0276000,-0.0200000,-0.0276000,0.0000000*
4,1,4,-0.0200000,-0.0280000,-0.0200000,-0.0276000,0.0041000,-0.0276000,0.0010000,-0.0280000,-0.0200000,-0.0280000,0.0000000*
%
%AMRECTANGLE_70_L1*
4,1,4,0.0335000,0.0315000,0.0335000,-0.0315000,-0.0335000,-0.0315000,-0.0335000,0.0315000,0.0335000,0.0315000,0.0000000*
%
%AMRECTANGLE_46_L1*
4,1,4,0.0210000,0.0110000,0.0210000,-0.0110000,-0.0210000,-0.0110000,-0.0210000,0.0110000,0.0210000,0.0110000,0.0000000*
%
%AMRECTANGLE_77_L1*
4,1,4,0.0235000,0.0265000,0.0235000,-0.0265000,-0.0235000,-0.0265000,-0.0235000,0.0265000,0.0235000,0.0265000,0.0000000*
%
%AMRECTANGLE_44_L1*
4,1,4,0.0230000,0.0060000,0.0230000,-0.0060000,-0.0230000,-0.0060000,-0.0230000,0.0060000,0.0230000,0.0060000,0.0000000*
%
%AMRECTANGLE_18_L1*
4,1,4,0.0080000,0.0150000,0.0080000,-0.0150000,-0.0080000,-0.0150000,-0.0080000,0.0150000,0.0080000,0.0150000,0.0000000*
%
%AMRECTANGLE_15_L1*
4,1,4,0.0070000,0.0300000,0.0070000,-0.0300000,-0.0070000,-0.0300000,-0.0070000,0.0300000,0.0070000,0.0300000,0.0000000*
%
%AMRECTANGLE_ROUNDED_75_L1*
4,1,4,-0.0046617,0.0284444,-0.0040000,0.0285000,0.0040000,0.0285000,0.0057795,0.0284444,-0.0046617,0.0284444,0.0000000*
4,1,4,-0.0087539,0.0281006,-0.0046617,0.0284444,0.0057795,0.0284444,0.0081130,0.0281006,-0.0087539,0.0281006,0.0000000*
4,1,4,-0.0101229,0.0277491,-0.0087539,0.0281006,0.0081130,0.0281006,0.0104993,0.0277491,-0.0101229,0.0277491,0.0000000*
4,1,4,-0.0133747,0.0269139,-0.0101229,0.0277491,0.0104993,0.0277491,0.0130721,0.0269139,-0.0133747,0.0269139,0.0000000*
4,1,4,-0.0148069,0.0262761,-0.0133747,0.0269139,0.0130721,0.0269139,0.0150370,0.0262761,-0.0148069,0.0262761,0.0000000*
4,1,4,-0.0177328,0.0249731,-0.0148069,0.0262761,0.0150370,0.0262761,0.0175311,0.0249731,-0.0177328,0.0249731,0.0000000*
4,1,4,-0.0190963,0.0240669,-0.0177328,0.0249731,0.0175311,0.0249731,0.0192654,0.0240669,-0.0190963,0.0240669,0.0000000*
4,1,4,-0.0217061,0.0223324,-0.0190963,0.0240669,0.0192654,0.0240669,0.0215515,0.0223324,-0.0217061,0.0223324,0.0000000*
4,1,4,-0.0229294,0.0211833,-0.0217061,0.0223324,0.0215515,0.0223324,0.0230661,0.0211833,-0.0229294,0.0211833,0.0000000*
4,1,4,-0.0251832,0.0190660,-0.0229294,0.0211833,0.0230661,0.0211833,0.0250551,0.0190660,-0.0251832,0.0190660,0.0000000*
4,1,4,-0.0262150,0.0177062,-0.0251832,0.0190660,0.0250551,0.0190660,0.0263324,0.0177062,-0.0262150,0.0177062,0.0000000*
4,1,4,-0.0280669,0.0152654,-0.0262150,0.0177062,0.0263324,0.0177062,0.0279546,0.0152654,-0.0280669,0.0152654,0.0000000*
4,1,4,-0.0288675,0.0137329,-0.0280669,0.0152654,0.0279546,0.0152654,0.0289731,0.0137329,-0.0288675,0.0137329,0.0000000*
4,1,4,-0.0302760,0.0110369,-0.0288675,0.0137329,0.0289731,0.0137329,0.0301738,0.0110369,-0.0302760,0.0110369,0.0000000*
4,1,4,-0.0308155,0.0093748,-0.0302760,0.0110369,0.0301738,0.0110369,0.0309139,0.0093748,-0.0308155,0.0093748,0.0000000*
4,1,4,-0.0317489,0.0064993,-0.0308155,0.0093748,0.0309139,0.0093748,0.0316524,0.0064993,-0.0317489,0.0064993,0.0000000*
4,1,4,-0.0320061,0.0047539,-0.0317489,0.0064993,0.0316524,0.0064993,0.0321006,0.0047539,-0.0320061,0.0047539,0.0000000*
4,1,4,-0.0324443,0.0017795,-0.0320061,0.0047539,0.0321006,0.0047539,0.0323506,0.0017795,-0.0324443,0.0017795,0.0000000*
4,1,4,-0.0325000,0.0000000,-0.0324443,0.0017795,0.0323506,0.0017795,0.0325000,0.0000000,-0.0325000,0.0000000,0.0000000*
4,1,4,-0.0325000,-0.0285000,-0.0325000,0.0000000,0.0325000,0.0000000,0.0325000,-0.0285000,-0.0325000,-0.0285000,0.0000000*
%
%AMRECTANGLE_53_L1*
4,1,4,0.0055000,0.0140000,0.0055000,-0.0140000,-0.0055000,-0.0140000,-0.0055000,0.0140000,0.0055000,0.0140000,0.0000000*
%
%AMRECTANGLE_20_L1*
4,1,4,0.0140000,0.0055000,0.0140000,-0.0055000,-0.0140000,-0.0055000,-0.0140000,0.0055000,0.0140000,0.0055000,0.0000000*
%
%AMCUSTOM_11_L1*
4,1,3,0.0000672,0.0054649,0.0002759,0.0054936,0.0006477,0.0054649,0.0000672,0.0054649,0.0000000*
4,1,4,-0.0018854,0.0051960,0.0000672,0.0054649,0.0006477,0.0054649,0.0015457,0.0051960,-0.0018854,0.0051960,0.0000000*
4,1,4,-0.0025351,0.0048390,-0.0018854,0.0051960,0.0015457,0.0051960,0.0027377,0.0048390,-0.0025351,0.0048390,0.0000000*
4,1,4,-0.0037974,0.0041453,-0.0025351,0.0048390,0.0027377,0.0048390,0.0036378,0.0041453,-0.0037974,0.0041453,0.0000000*
4,1,4,-0.0043379,0.0035071,-0.0037974,0.0041453,0.0036378,0.0041453,0.0044657,0.0035071,-0.0043379,0.0035071,0.0000000*
4,1,4,-0.0052074,0.0024803,-0.0043379,0.0035071,0.0044657,0.0035071,0.0050931,0.0024803,-0.0052074,0.0024803,0.0000000*
4,1,4,-0.0054999,0.0016454,-0.0052074,0.0024803,0.0050931,0.0024803,0.0056033,0.0016454,-0.0054999,0.0016454,0.0000000*
4,1,4,-0.0059287,0.0004213,-0.0054999,0.0016454,0.0056033,0.0016454,0.0058297,0.0004213,-0.0059287,0.0004213,0.0000000*
4,1,4,-0.0060000,-0.0005000,-0.0059287,0.0004213,0.0058297,0.0004213,0.0060000,-0.0005000,-0.0060000,-0.0005000,0.0000000*
4,1,4,-0.0060000,-0.0055000,-0.0060000,-0.0005000,0.0060000,-0.0005000,0.0060000,-0.0055000,-0.0060000,-0.0055000,0.0000000*
%
%AMCUSTOM_12_L1*
4,1,4,-0.0060000,0.0005000,-0.0060000,0.0055000,0.0060000,0.0055000,0.0060000,0.0005000,-0.0060000,0.0005000,0.0000000*
4,1,4,-0.0058296,-0.0004213,-0.0060000,0.0005000,0.0060000,0.0005000,0.0059287,-0.0004213,-0.0058296,-0.0004213,0.0000000*
4,1,4,-0.0056033,-0.0016454,-0.0058296,-0.0004213,0.0059287,-0.0004213,0.0054998,-0.0016454,-0.0056033,-0.0016454,0.0000000*
4,1,4,-0.0050931,-0.0024803,-0.0056033,-0.0016454,0.0054998,-0.0016454,0.0052074,-0.0024803,-0.0050931,-0.0024803,0.0000000*
4,1,4,-0.0044657,-0.0035071,-0.0050931,-0.0024803,0.0052074,-0.0024803,0.0043378,-0.0035071,-0.0044657,-0.0035071,0.0000000*
4,1,4,-0.0036377,-0.0041453,-0.0044657,-0.0035071,0.0043378,-0.0035071,0.0037974,-0.0041453,-0.0036377,-0.0041453,0.0000000*
4,1,4,-0.0027377,-0.0048390,-0.0036377,-0.0041453,0.0037974,-0.0041453,0.0025350,-0.0048390,-0.0027377,-0.0048390,0.0000000*
4,1,4,-0.0015456,-0.0051960,-0.0027377,-0.0048390,0.0025350,-0.0048390,0.0018854,-0.0051960,-0.0015456,-0.0051960,0.0000000*
4,1,4,-0.0006477,-0.0054649,-0.0015456,-0.0051960,0.0018854,-0.0051960,-0.0000672,-0.0054649,-0.0006477,-0.0054649,0.0000000*
4,1,3,-0.0002759,-0.0054936,-0.0006477,-0.0054649,-0.0000672,-0.0054649,-0.0002759,-0.0054936,0.0000000*
%
%AMRECTANGLE_72_L1*
4,1,4,0.0530000,0.0275000,0.0530000,-0.0275000,-0.0530000,-0.0275000,-0.0530000,0.0275000,0.0530000,0.0275000,0.0000000*
%
%AMRECTANGLE_42_L1*
4,1,4,0.0200000,0.0225000,0.0200000,-0.0225000,-0.0200000,-0.0225000,-0.0200000,0.0225000,0.0200000,0.0225000,0.0000000*
%
%AMRECTANGLE_31_L1*
4,1,4,0.0225000,0.0200000,0.0225000,-0.0200000,-0.0225000,-0.0200000,-0.0225000,0.0200000,0.0225000,0.0200000,0.0000000*
%
%AMRECTANGLE_54_L1*
4,1,4,0.0825000,0.0340000,0.0825000,-0.0340000,-0.0825000,-0.0340000,-0.0825000,0.0340000,0.0825000,0.0340000,0.0000000*
%
%AMRECTANGLE_55_L1*
4,1,4,0.0240000,0.0395000,0.0240000,-0.0395000,-0.0240000,-0.0395000,-0.0240000,0.0395000,0.0240000,0.0395000,0.0000000*
%
%AMRECTANGLE_ROUNDED_45_L1*
4,1,4,-0.0325000,0.0000000,-0.0325000,0.0285000,0.0325000,0.0285000,0.0325000,0.0000000,-0.0325000,0.0000000,0.0000000*
4,1,4,-0.0323505,-0.0017795,-0.0325000,0.0000000,0.0325000,0.0000000,0.0324443,-0.0017795,-0.0323505,-0.0017795,0.0000000*
4,1,4,-0.0321006,-0.0047539,-0.0323505,-0.0017795,0.0324443,-0.0017795,0.0320060,-0.0047539,-0.0321006,-0.0047539,0.0000000*
4,1,4,-0.0316524,-0.0064993,-0.0321006,-0.0047539,0.0320060,-0.0047539,0.0317489,-0.0064993,-0.0316524,-0.0064993,0.0000000*
4,1,4,-0.0309139,-0.0093748,-0.0316524,-0.0064993,0.0317489,-0.0064993,0.0308154,-0.0093748,-0.0309139,-0.0093748,0.0000000*
4,1,4,-0.0301737,-0.0110369,-0.0309139,-0.0093748,0.0308154,-0.0093748,0.0302760,-0.0110369,-0.0301737,-0.0110369,0.0000000*
4,1,4,-0.0289731,-0.0137329,-0.0301737,-0.0110369,0.0302760,-0.0110369,0.0288674,-0.0137329,-0.0289731,-0.0137329,0.0000000*
4,1,4,-0.0279546,-0.0152654,-0.0289731,-0.0137329,0.0288674,-0.0137329,0.0280669,-0.0152654,-0.0279546,-0.0152654,0.0000000*
4,1,4,-0.0263324,-0.0177062,-0.0279546,-0.0152654,0.0280669,-0.0152654,0.0262149,-0.0177062,-0.0263324,-0.0177062,0.0000000*
4,1,4,-0.0250550,-0.0190660,-0.0263324,-0.0177062,0.0262149,-0.0177062,0.0251832,-0.0190660,-0.0250550,-0.0190660,0.0000000*
4,1,4,-0.0230661,-0.0211833,-0.0250550,-0.0190660,0.0251832,-0.0190660,0.0229294,-0.0211833,-0.0230661,-0.0211833,0.0000000*
4,1,4,-0.0215514,-0.0223324,-0.0230661,-0.0211833,0.0229294,-0.0211833,0.0217061,-0.0223324,-0.0215514,-0.0223324,0.0000000*
4,1,4,-0.0192654,-0.0240669,-0.0215514,-0.0223324,0.0217061,-0.0223324,0.0190962,-0.0240669,-0.0192654,-0.0240669,0.0000000*
4,1,4,-0.0175310,-0.0249731,-0.0192654,-0.0240669,0.0190962,-0.0240669,0.0177328,-0.0249731,-0.0175310,-0.0249731,0.0000000*
4,1,4,-0.0150370,-0.0262761,-0.0175310,-0.0249731,0.0177328,-0.0249731,0.0148069,-0.0262761,-0.0150370,-0.0262761,0.0000000*
4,1,4,-0.0130720,-0.0269139,-0.0150370,-0.0262761,0.0148069,-0.0262761,0.0133747,-0.0269139,-0.0130720,-0.0269139,0.0000000*
4,1,4,-0.0104993,-0.0277491,-0.0130720,-0.0269139,0.0133747,-0.0269139,0.0101228,-0.0277491,-0.0104993,-0.0277491,0.0000000*
4,1,4,-0.0081129,-0.0281006,-0.0104993,-0.0277491,0.0101228,-0.0277491,0.0087539,-0.0281006,-0.0081129,-0.0281006,0.0000000*
4,1,4,-0.0057795,-0.0284444,-0.0081129,-0.0281006,0.0087539,-0.0281006,0.0046617,-0.0284444,-0.0057795,-0.0284444,0.0000000*
4,1,4,-0.0040000,-0.0285000,-0.0057795,-0.0284444,0.0046617,-0.0284444,0.0040000,-0.0285000,-0.0040000,-0.0285000,0.0000000*
%
%AMRECTANGLE_ROUNDED_41_L1*
4,1,4,-0.0031417,0.0116065,-0.0000750,0.0120050,0.0120800,0.0120050,0.0120800,0.0116065,-0.0031417,0.0116065,0.0000000*
4,1,4,-0.0060050,0.0104380,-0.0031417,0.0116065,0.0120800,0.0116065,0.0120800,0.0104380,-0.0060050,0.0104380,0.0000000*
4,1,4,-0.0084747,0.0085767,-0.0060050,0.0104380,0.0120800,0.0104380,0.0120800,0.0085767,-0.0084747,0.0085767,0.0000000*
4,1,4,-0.0103871,0.0061463,-0.0084747,0.0085767,0.0120800,0.0085767,0.0120800,0.0061463,-0.0103871,0.0061463,0.0000000*
4,1,4,-0.0116151,0.0033080,-0.0103871,0.0061463,0.0120800,0.0061463,0.0120800,0.0033080,-0.0116151,0.0033080,0.0000000*
4,1,4,-0.0120800,-0.0000001,-0.0116151,0.0033080,0.0120800,0.0033080,0.0120800,-0.0000001,-0.0120800,-0.0000001,0.0000000*
4,1,4,-0.0116816,-0.0030669,-0.0120800,-0.0000001,0.0120800,-0.0000001,0.0120800,-0.0030669,-0.0116816,-0.0030669,0.0000000*
4,1,4,-0.0105130,-0.0059302,-0.0116816,-0.0030669,0.0120800,-0.0030669,0.0120800,-0.0059302,-0.0105130,-0.0059302,0.0000000*
4,1,4,-0.0086517,-0.0083998,-0.0105130,-0.0059302,0.0120800,-0.0059302,0.0120800,-0.0083998,-0.0086517,-0.0083998,0.0000000*
4,1,4,-0.0062213,-0.0103122,-0.0086517,-0.0083998,0.0120800,-0.0083998,0.0120800,-0.0103122,-0.0062213,-0.0103122,0.0000000*
4,1,4,-0.0033830,-0.0115402,-0.0062213,-0.0103122,0.0120800,-0.0103122,0.0120800,-0.0115402,-0.0033830,-0.0115402,0.0000000*
4,1,4,-0.0000750,-0.0120050,-0.0033830,-0.0115402,0.0120800,-0.0115402,0.0120800,-0.0120050,-0.0000750,-0.0120050,0.0000000*
%
%AMCUSTOM_22_L1*
4,1,4,-0.0285000,0.0322000,-0.0285000,0.0325000,0.0000000,0.0325000,0.0039000,0.0322000,-0.0285000,0.0322000,0.0000000*
4,1,4,-0.0285000,0.0312000,-0.0285000,0.0322000,0.0039000,0.0322000,0.0086000,0.0312000,-0.0285000,0.0312000,0.0000000*
4,1,4,-0.0285000,0.0300000,-0.0285000,0.0312000,0.0086000,0.0312000,0.0119000,0.0300000,-0.0285000,0.0300000,0.0000000*
4,1,4,-0.0285000,0.0284000,-0.0285000,0.0300000,0.0119000,0.0300000,0.0148000,0.0284000,-0.0285000,0.0284000,0.0000000*
4,1,4,-0.0285000,0.0259000,-0.0285000,0.0284000,0.0148000,0.0284000,0.0183000,0.0259000,-0.0285000,0.0259000,0.0000000*
4,1,4,-0.0285000,0.0230000,-0.0285000,0.0259000,0.0183000,0.0259000,0.0213000,0.0230000,-0.0285000,0.0230000,0.0000000*
4,1,4,-0.0285000,0.0202000,-0.0285000,0.0230000,0.0213000,0.0230000,0.0235000,0.0202000,-0.0285000,0.0202000,0.0000000*
4,1,4,-0.0285000,0.0166000,-0.0285000,0.0202000,0.0235000,0.0202000,0.0255000,0.0166000,-0.0285000,0.0166000,0.0000000*
4,1,4,-0.0285000,0.0128000,-0.0285000,0.0166000,0.0255000,0.0166000,0.0271000,0.0128000,-0.0285000,0.0128000,0.0000000*
4,1,4,-0.0285000,0.0097000,-0.0285000,0.0128000,0.0271000,0.0128000,0.0280000,0.0097000,-0.0285000,0.0097000,0.0000000*
4,1,4,-0.0285000,0.0068000,-0.0285000,0.0097000,0.0280000,0.0097000,0.0284000,0.0068000,-0.0285000,0.0068000,0.0000000*
4,1,4,-0.0285000,0.0041000,-0.0285000,0.0068000,0.0284000,0.0068000,0.0285000,0.0041000,-0.0285000,0.0041000,0.0000000*
4,1,4,-0.0285000,-0.0041000,-0.0285000,0.0041000,0.0285000,0.0041000,0.0285000,-0.0041000,-0.0285000,-0.0041000,0.0000000*
4,1,4,-0.0285000,-0.0059000,-0.0285000,-0.0041000,0.0285000,-0.0041000,0.0284000,-0.0059000,-0.0285000,-0.0059000,0.0000000*
4,1,4,-0.0285000,-0.0073000,-0.0285000,-0.0059000,0.0284000,-0.0059000,0.0283000,-0.0073000,-0.0285000,-0.0073000,0.0000000*
4,1,4,-0.0285000,-0.0098000,-0.0285000,-0.0073000,0.0283000,-0.0073000,0.0279000,-0.0098000,-0.0285000,-0.0098000,0.0000000*
4,1,4,-0.0285000,-0.0121000,-0.0285000,-0.0098000,0.0279000,-0.0098000,0.0273000,-0.0121000,-0.0285000,-0.0121000,0.0000000*
4,1,4,-0.0285000,-0.0139000,-0.0285000,-0.0121000,0.0273000,-0.0121000,0.0267000,-0.0139000,-0.0285000,-0.0139000,0.0000000*
4,1,4,-0.0285000,-0.0159000,-0.0285000,-0.0139000,0.0267000,-0.0139000,0.0259000,-0.0159000,-0.0285000,-0.0159000,0.0000000*
4,1,4,-0.0285000,-0.0182000,-0.0285000,-0.0159000,0.0259000,-0.0159000,0.0247000,-0.0182000,-0.0285000,-0.0182000,0.0000000*
4,1,4,-0.0285000,-0.0205000,-0.0285000,-0.0182000,0.0247000,-0.0182000,0.0232000,-0.0205000,-0.0285000,-0.0205000,0.0000000*
4,1,4,-0.0285000,-0.0228000,-0.0285000,-0.0205000,0.0232000,-0.0205000,0.0214000,-0.0228000,-0.0285000,-0.0228000,0.0000000*
4,1,4,-0.0285000,-0.0252000,-0.0285000,-0.0228000,0.0214000,-0.0228000,0.0190000,-0.0252000,-0.0285000,-0.0252000,0.0000000*
4,1,4,-0.0285000,-0.0271000,-0.0285000,-0.0252000,0.0190000,-0.0252000,0.0167000,-0.0271000,-0.0285000,-0.0271000,0.0000000*
4,1,4,-0.0285000,-0.0287000,-0.0285000,-0.0271000,0.0167000,-0.0271000,0.0142000,-0.0287000,-0.0285000,-0.0287000,0.0000000*
4,1,4,-0.0285000,-0.0301000,-0.0285000,-0.0287000,0.0142000,-0.0287000,0.0115000,-0.0301000,-0.0285000,-0.0301000,0.0000000*
4,1,4,-0.0285000,-0.0311000,-0.0285000,-0.0301000,0.0115000,-0.0301000,0.0088000,-0.0311000,-0.0285000,-0.0311000,0.0000000*
4,1,4,-0.0285000,-0.0319000,-0.0285000,-0.0311000,0.0088000,-0.0311000,0.0059000,-0.0319000,-0.0285000,-0.0319000,0.0000000*
4,1,4,-0.0285000,-0.0323000,-0.0285000,-0.0319000,0.0059000,-0.0319000,0.0032000,-0.0323000,-0.0285000,-0.0323000,0.0000000*
4,1,4,-0.0285000,-0.0325000,-0.0285000,-0.0323000,0.0032000,-0.0323000,0.0000000,-0.0325000,-0.0285000,-0.0325000,0.0000000*
%
%AMCUSTOM_68_L1*
4,1,4,-0.0032000,0.0323000,0.0000000,0.0325000,0.0285000,0.0325000,0.0285000,0.0323000,-0.0032000,0.0323000,0.0000000*
4,1,4,-0.0059000,0.0319000,-0.0032000,0.0323000,0.0285000,0.0323000,0.0285000,0.0319000,-0.0059000,0.0319000,0.0000000*
4,1,4,-0.0088000,0.0311000,-0.0059000,0.0319000,0.0285000,0.0319000,0.0285000,0.0311000,-0.0088000,0.0311000,0.0000000*
4,1,4,-0.0115000,0.0301000,-0.0088000,0.0311000,0.0285000,0.0311000,0.0285000,0.0301000,-0.0115000,0.0301000,0.0000000*
4,1,4,-0.0142000,0.0287000,-0.0115000,0.0301000,0.0285000,0.0301000,0.0285000,0.0287000,-0.0142000,0.0287000,0.0000000*
4,1,4,-0.0167000,0.0271000,-0.0142000,0.0287000,0.0285000,0.0287000,0.0285000,0.0271000,-0.0167000,0.0271000,0.0000000*
4,1,4,-0.0190000,0.0252000,-0.0167000,0.0271000,0.0285000,0.0271000,0.0285000,0.0252000,-0.0190000,0.0252000,0.0000000*
4,1,4,-0.0214000,0.0228000,-0.0190000,0.0252000,0.0285000,0.0252000,0.0285000,0.0228000,-0.0214000,0.0228000,0.0000000*
4,1,4,-0.0232000,0.0205000,-0.0214000,0.0228000,0.0285000,0.0228000,0.0285000,0.0205000,-0.0232000,0.0205000,0.0000000*
4,1,4,-0.0247000,0.0182000,-0.0232000,0.0205000,0.0285000,0.0205000,0.0285000,0.0182000,-0.0247000,0.0182000,0.0000000*
4,1,4,-0.0259000,0.0159000,-0.0247000,0.0182000,0.0285000,0.0182000,0.0285000,0.0159000,-0.0259000,0.0159000,0.0000000*
4,1,4,-0.0267000,0.0139000,-0.0259000,0.0159000,0.0285000,0.0159000,0.0285000,0.0139000,-0.0267000,0.0139000,0.0000000*
4,1,4,-0.0273000,0.0121000,-0.0267000,0.0139000,0.0285000,0.0139000,0.0285000,0.0121000,-0.0273000,0.0121000,0.0000000*
4,1,4,-0.0279000,0.0098000,-0.0273000,0.0121000,0.0285000,0.0121000,0.0285000,0.0098000,-0.0279000,0.0098000,0.0000000*
4,1,4,-0.0283000,0.0073000,-0.0279000,0.0098000,0.0285000,0.0098000,0.0285000,0.0073000,-0.0283000,0.0073000,0.0000000*
4,1,4,-0.0284000,0.0059000,-0.0283000,0.0073000,0.0285000,0.0073000,0.0285000,0.0059000,-0.0284000,0.0059000,0.0000000*
4,1,4,-0.0285000,0.0041000,-0.0284000,0.0059000,0.0285000,0.0059000,0.0285000,0.0041000,-0.0285000,0.0041000,0.0000000*
4,1,4,-0.0285000,-0.0041000,-0.0285000,0.0041000,0.0285000,0.0041000,0.0285000,-0.0041000,-0.0285000,-0.0041000,0.0000000*
4,1,4,-0.0284000,-0.0068000,-0.0285000,-0.0041000,0.0285000,-0.0041000,0.0285000,-0.0068000,-0.0284000,-0.0068000,0.0000000*
4,1,4,-0.0280000,-0.0097000,-0.0284000,-0.0068000,0.0285000,-0.0068000,0.0285000,-0.0097000,-0.0280000,-0.0097000,0.0000000*
4,1,4,-0.0271000,-0.0128000,-0.0280000,-0.0097000,0.0285000,-0.0097000,0.0285000,-0.0128000,-0.0271000,-0.0128000,0.0000000*
4,1,4,-0.0255000,-0.0166000,-0.0271000,-0.0128000,0.0285000,-0.0128000,0.0285000,-0.0166000,-0.0255000,-0.0166000,0.0000000*
4,1,4,-0.0235000,-0.0202000,-0.0255000,-0.0166000,0.0285000,-0.0166000,0.0285000,-0.0202000,-0.0235000,-0.0202000,0.0000000*
4,1,4,-0.0213000,-0.0230000,-0.0235000,-0.0202000,0.0285000,-0.0202000,0.0285000,-0.0230000,-0.0213000,-0.0230000,0.0000000*
4,1,4,-0.0183000,-0.0259000,-0.0213000,-0.0230000,0.0285000,-0.0230000,0.0285000,-0.0259000,-0.0183000,-0.0259000,0.0000000*
4,1,4,-0.0148000,-0.0284000,-0.0183000,-0.0259000,0.0285000,-0.0259000,0.0285000,-0.0284000,-0.0148000,-0.0284000,0.0000000*
4,1,4,-0.0119000,-0.0300000,-0.0148000,-0.0284000,0.0285000,-0.0284000,0.0285000,-0.0300000,-0.0119000,-0.0300000,0.0000000*
4,1,4,-0.0086000,-0.0312000,-0.0119000,-0.0300000,0.0285000,-0.0300000,0.0285000,-0.0312000,-0.0086000,-0.0312000,0.0000000*
4,1,4,-0.0039000,-0.0322000,-0.0086000,-0.0312000,0.0285000,-0.0312000,0.0285000,-0.0322000,-0.0039000,-0.0322000,0.0000000*
4,1,4,0.0000000,-0.0325000,-0.0039000,-0.0322000,0.0285000,-0.0322000,0.0285000,-0.0325000,0.0000000,-0.0325000,0.0000000*
%
%AMRECTANGLE_23_L1*
4,1,4,0.0210000,0.0200000,0.0210000,-0.0200000,-0.0210000,-0.0200000,-0.0210000,0.0200000,0.0210000,0.0200000,0.0000000*
%
%AMCUSTOM_21_L1*
4,1,4,-0.0041000,0.0276000,-0.0010000,0.0280000,0.0200000,0.0280000,0.0200000,0.0276000,-0.0041000,0.0276000,0.0000000*
4,1,4,-0.0073000,0.0267000,-0.0041000,0.0276000,0.0200000,0.0276000,0.0200000,0.0267000,-0.0073000,0.0267000,0.0000000*
4,1,4,-0.0095000,0.0256000,-0.0073000,0.0267000,0.0200000,0.0267000,0.0200000,0.0256000,-0.0095000,0.0256000,0.0000000*
4,1,4,-0.0114000,0.0244000,-0.0095000,0.0256000,0.0200000,0.0256000,0.0200000,0.0244000,-0.0114000,0.0244000,0.0000000*
4,1,4,-0.0130000,0.0232000,-0.0114000,0.0244000,0.0200000,0.0244000,0.0200000,0.0232000,-0.0130000,0.0232000,0.0000000*
4,1,4,-0.0146000,0.0216000,-0.0130000,0.0232000,0.0200000,0.0232000,0.0200000,0.0216000,-0.0146000,0.0216000,0.0000000*
4,1,4,-0.0160000,0.0200000,-0.0146000,0.0216000,0.0200000,0.0216000,0.0200000,0.0200000,-0.0160000,0.0200000,0.0000000*
4,1,4,-0.0173000,0.0180000,-0.0160000,0.0200000,0.0200000,0.0200000,0.0200000,0.0180000,-0.0173000,0.0180000,0.0000000*
4,1,4,-0.0183000,0.0163000,-0.0173000,0.0180000,0.0200000,0.0180000,0.0200000,0.0163000,-0.0183000,0.0163000,0.0000000*
4,1,4,-0.0191000,0.0140000,-0.0183000,0.0163000,0.0200000,0.0163000,0.0200000,0.0140000,-0.0191000,0.0140000,0.0000000*
4,1,4,-0.0196000,0.0121000,-0.0191000,0.0140000,0.0200000,0.0140000,0.0200000,0.0121000,-0.0196000,0.0121000,0.0000000*
4,1,4,-0.0199000,0.0101000,-0.0196000,0.0121000,0.0200000,0.0121000,0.0200000,0.0101000,-0.0199000,0.0101000,0.0000000*
4,1,4,-0.0200000,0.0082000,-0.0199000,0.0101000,0.0200000,0.0101000,0.0200000,0.0082000,-0.0200000,0.0082000,0.0000000*
4,1,4,-0.0200000,-0.0082000,-0.0200000,0.0082000,0.0200000,0.0082000,0.0200000,-0.0082000,-0.0200000,-0.0082000,0.0000000*
4,1,4,-0.0199000,-0.0101000,-0.0200000,-0.0082000,0.0200000,-0.0082000,0.0200000,-0.0101000,-0.0199000,-0.0101000,0.0000000*
4,1,4,-0.0194000,-0.0130000,-0.0199000,-0.0101000,0.0200000,-0.0101000,0.0200000,-0.0130000,-0.0194000,-0.0130000,0.0000000*
4,1,4,-0.0184000,-0.0160000,-0.0194000,-0.0130000,0.0200000,-0.0130000,0.0200000,-0.0160000,-0.0184000,-0.0160000,0.0000000*
4,1,4,-0.0173000,-0.0180000,-0.0184000,-0.0160000,0.0200000,-0.0160000,0.0200000,-0.0180000,-0.0173000,-0.0180000,0.0000000*
4,1,4,-0.0160000,-0.0201000,-0.0173000,-0.0180000,0.0200000,-0.0180000,0.0200000,-0.0201000,-0.0160000,-0.0201000,0.0000000*
4,1,4,-0.0135000,-0.0228000,-0.0160000,-0.0201000,0.0200000,-0.0201000,0.0200000,-0.0228000,-0.0135000,-0.0228000,0.0000000*
4,1,4,-0.0096000,-0.0256000,-0.0135000,-0.0228000,0.0200000,-0.0228000,0.0200000,-0.0256000,-0.0096000,-0.0256000,0.0000000*
4,1,4,-0.0066000,-0.0269000,-0.0096000,-0.0256000,0.0200000,-0.0256000,0.0200000,-0.0269000,-0.0066000,-0.0269000,0.0000000*
4,1,4,-0.0042000,-0.0275000,-0.0066000,-0.0269000,0.0200000,-0.0269000,0.0200000,-0.0275000,-0.0042000,-0.0275000,0.0000000*
4,1,4,-0.0010000,-0.0280000,-0.0042000,-0.0275000,0.0200000,-0.0275000,0.0200000,-0.0280000,-0.0010000,-0.0280000,0.0000000*
%
%AMRECTANGLE_60_L1*
4,1,4,0.0160000,0.0395000,0.0160000,-0.0395000,-0.0160000,-0.0395000,-0.0160000,0.0395000,0.0160000,0.0395000,0.0000000*
%
%AMRECTANGLE_73_L1*
4,1,4,0.0630000,0.0295000,0.0630000,-0.0295000,-0.0630000,-0.0295000,-0.0630000,0.0295000,0.0630000,0.0295000,0.0000000*
%
%AMRECTANGLE_52_L1*
4,1,4,0.0435000,0.0295000,0.0435000,-0.0295000,-0.0435000,-0.0295000,-0.0435000,0.0295000,0.0435000,0.0295000,0.0000000*
%
%AMRECTANGLE_71_L1*
4,1,4,0.0125000,0.0325000,0.0125000,-0.0325000,-0.0125000,-0.0325000,-0.0125000,0.0325000,0.0125000,0.0325000,0.0000000*
%
%AMRECTANGLE_39_L1*
4,1,4,0.0170000,0.0060000,0.0170000,-0.0060000,-0.0170000,-0.0060000,-0.0170000,0.0060000,0.0170000,0.0060000,0.0000000*
%
%AMRECTANGLE_43_L1*
4,1,4,0.0130000,0.0165000,0.0130000,-0.0165000,-0.0130000,-0.0165000,-0.0130000,0.0165000,0.0130000,0.0165000,0.0000000*
%
%AMCUSTOM_66_L1*
4,1,4,-0.0008891,0.0108829,0.0020750,0.0110000,0.0100250,0.0110000,0.0100250,0.0108829,-0.0008891,0.0108829,0.0000000*
4,1,4,-0.0037153,0.0099815,-0.0008891,0.0108829,0.0100250,0.0108829,0.0100250,0.0099815,-0.0037153,0.0099815,0.0000000*
4,1,4,-0.0061998,0.0083607,-0.0037153,0.0099815,0.0100250,0.0099815,0.0100250,0.0083607,-0.0061998,0.0083607,0.0000000*
4,1,4,-0.0081637,0.0061374,-0.0061998,0.0083607,0.0100250,0.0083607,0.0100250,0.0061374,-0.0081637,0.0061374,0.0000000*
4,1,4,-0.0094654,0.0034717,-0.0081637,0.0061374,0.0100250,0.0061374,0.0100250,0.0034717,-0.0094654,0.0034717,0.0000000*
4,1,4,-0.0100178,0.0003967,-0.0094654,0.0034717,0.0100250,0.0034717,0.0100250,0.0003967,-0.0100178,0.0003967,0.0000000*
4,1,4,-0.0100231,0.0001974,-0.0100178,0.0003967,0.0100250,0.0003967,0.0100250,0.0001974,-0.0100231,0.0001974,0.0000000*
4,1,4,-0.0100249,0.0000000,-0.0100231,0.0001974,0.0100250,0.0001974,0.0100250,0.0000000,-0.0100249,0.0000000,0.0000000*
4,1,4,-0.0096266,-0.0029396,-0.0100249,0.0000000,0.0100250,0.0000000,0.0100250,-0.0029396,-0.0096266,-0.0029396,0.0000000*
4,1,4,-0.0084608,-0.0056673,-0.0096266,-0.0029396,0.0100250,-0.0029396,0.0100250,-0.0056673,-0.0084608,-0.0056673,0.0000000*
4,1,4,-0.0078685,-0.0064099,-0.0084608,-0.0056673,0.0100250,-0.0056673,0.0100250,-0.0064099,-0.0078685,-0.0064099,0.0000000*
4,1,4,-0.0066112,-0.0079866,-0.0078685,-0.0064099,0.0100250,-0.0064099,0.0100250,-0.0079866,-0.0066112,-0.0079866,0.0000000*
4,1,4,-0.0042113,-0.0097303,-0.0066112,-0.0079866,0.0100250,-0.0079866,0.0100250,-0.0097303,-0.0042113,-0.0097303,0.0000000*
4,1,4,-0.0014340,-0.0107728,-0.0042113,-0.0097303,0.0100250,-0.0097303,0.0100250,-0.0107728,-0.0014340,-0.0107728,0.0000000*
4,1,4,0.0010902,-0.0110000,-0.0014340,-0.0107728,0.0100250,-0.0107728,0.0100250,-0.0110000,0.0010902,-0.0110000,0.0000000*
4,1,3,0.0015204,-0.0110387,0.0010902,-0.0110000,0.0020750,-0.0110000,0.0015204,-0.0110387,0.0000000*
%
%AMCUSTOM_65_L1*
4,1,3,-0.0023287,0.0097478,0.0003968,0.0100178,0.0024592,0.0097478,-0.0023287,0.0097478,0.0000000*
4,1,4,-0.0025552,0.0097254,-0.0023287,0.0097478,0.0024592,0.0097478,0.0025191,0.0097254,-0.0025552,0.0097254,0.0000000*
4,1,4,-0.0052008,0.0087054,-0.0025552,0.0097254,0.0025191,0.0097254,0.0052365,0.0087054,-0.0052008,0.0087054,0.0000000*
4,1,4,-0.0053231,0.0086582,-0.0052008,0.0087054,0.0052365,0.0087054,0.0053014,0.0086582,-0.0053231,0.0086582,0.0000000*
4,1,4,-0.0076148,0.0069617,-0.0053231,0.0086582,0.0053014,0.0086582,0.0076364,0.0069617,-0.0076148,0.0069617,0.0000000*
4,1,4,-0.0077073,0.0068931,-0.0076148,0.0069617,0.0076364,0.0069617,0.0076910,0.0068931,-0.0077073,0.0068931,0.0000000*
4,1,4,-0.0094696,0.0046424,-0.0077073,0.0068931,0.0076910,0.0068931,0.0094859,0.0046424,-0.0094696,0.0046424,0.0000000*
4,1,4,-0.0095361,0.0045574,-0.0094696,0.0046424,0.0094859,0.0046424,0.0095223,0.0045574,-0.0095361,0.0045574,0.0000000*
4,1,4,-0.0106379,0.0019146,-0.0095361,0.0045574,0.0095223,0.0045574,0.0106517,0.0019146,-0.0106379,0.0019146,0.0000000*
4,1,4,-0.0106776,0.0018194,-0.0106379,0.0019146,0.0106517,0.0019146,0.0106646,0.0018194,-0.0106776,0.0018194,0.0000000*
4,1,4,-0.0110500,-0.0010250,-0.0106776,0.0018194,0.0106646,0.0018194,0.0110500,-0.0010250,-0.0110500,-0.0010250,0.0000000*
4,1,4,-0.0110375,-0.0015506,-0.0110499,-0.0010250,0.0110500,-0.0010250,0.0110375,-0.0015506,-0.0110375,-0.0015506,0.0000000*
4,1,4,-0.0110000,-0.0020750,-0.0110375,-0.0015506,0.0110375,-0.0015506,0.0110000,-0.0020750,-0.0110000,-0.0020750,0.0000000*
4,1,4,-0.0110000,-0.0100250,-0.0110000,-0.0020750,0.0110000,-0.0020750,0.0110000,-0.0100250,-0.0110000,-0.0100250,0.0000000*
%
%AMRECTANGLE_64_L1*
4,1,4,0.0040000,0.0120000,0.0040000,-0.0120000,-0.0040000,-0.0120000,-0.0040000,0.0120000,0.0040000,0.0120000,0.0000000*
%
%AMCUSTOM_62_L1*
4,1,3,-0.0541336,0.1204942,-0.0541336,0.1220500,-0.0444578,0.1204942,-0.0541336,0.1204942,0.0000000*
4,1,4,-0.0541336,0.1181411,-0.0541336,0.1204942,-0.0444578,0.1204942,-0.0348264,0.1181411,-0.0541336,0.1181411,0.0000000*
4,1,4,-0.0541336,0.1150194,-0.0541336,0.1181411,-0.0348264,0.1181411,-0.0254159,0.1150194,-0.0541336,0.1150194,0.0000000*
4,1,4,-0.0541336,0.1111495,-0.0541336,0.1150194,-0.0254159,0.1150194,-0.0162876,0.1111495,-0.0541336,0.1111495,0.0000000*
4,1,4,-0.0541336,0.1065565,-0.0541336,0.1111495,-0.0162876,0.1111495,-0.0075009,0.1065565,-0.0541336,0.1065565,0.0000000*
4,1,4,-0.0541336,0.1012704,-0.0541336,0.1065565,-0.0075009,0.1065565,0.0008870,0.1012704,-0.0541336,0.1012704,0.0000000*
4,1,4,-0.0541336,0.0953255,-0.0541336,0.1012704,0.0008870,0.1012704,0.0088217,0.0953255,-0.0541336,0.0953255,0.0000000*
4,1,4,-0.0541336,0.0887605,-0.0541336,0.0953255,0.0088217,0.0953255,0.0162515,0.0887605,-0.0541336,0.0887605,0.0000000*
4,1,4,-0.0541336,0.0816180,-0.0541336,0.0887605,0.0162515,0.0887605,0.0231280,0.0816180,-0.0541336,0.0816180,0.0000000*
4,1,4,-0.0541336,0.0739446,-0.0541336,0.0816180,0.0231280,0.0816180,0.0294066,0.0739446,-0.0541336,0.0739446,0.0000000*
4,1,4,-0.0541336,0.0657902,-0.0541336,0.0739446,0.0294066,0.0739446,0.0350464,0.0657902,-0.0541336,0.0657902,0.0000000*
4,1,4,-0.0541336,0.0572077,-0.0541336,0.0657902,0.0350464,0.0657902,0.0400106,0.0572077,-0.0541336,0.0572077,0.0000000*
4,1,4,-0.0541336,0.0482531,-0.0541336,0.0572077,0.0400106,0.0572077,0.0442671,0.0482531,-0.0541336,0.0482531,0.0000000*
4,1,4,-0.0541336,0.0389847,-0.0541336,0.0482531,0.0442671,0.0482531,0.0477880,0.0389847,-0.0541336,0.0389847,0.0000000*
4,1,4,-0.0541336,0.0294626,-0.0541336,0.0389847,0.0477880,0.0389847,0.0505506,0.0294626,-0.0541336,0.0294626,0.0000000*
4,1,4,-0.0541336,0.0197489,-0.0541336,0.0294626,0.0505506,0.0294626,0.0525369,0.0197489,-0.0541336,0.0197489,0.0000000*
4,1,4,-0.0541336,0.0099067,-0.0541336,0.0197489,0.0525369,0.0197489,0.0537337,0.0099067,-0.0541336,0.0099067,0.0000000*
4,1,4,-0.0541336,0.0000001,-0.0541336,0.0099067,0.0537337,0.0099067,0.0541336,0.0000001,-0.0541336,0.0000001,0.0000000*
4,1,4,-0.0541336,-0.0003516,-0.0541336,0.0000001,0.0541336,0.0000001,0.0541331,-0.0003516,-0.0541336,-0.0003516,0.0000000*
4,1,4,-0.0541336,-0.0097923,-0.0541336,-0.0003516,0.0541331,-0.0003516,0.0537430,-0.0097923,-0.0541336,-0.0097923,0.0000000*
4,1,4,-0.0541336,-0.0196356,-0.0541336,-0.0097923,0.0537430,-0.0097923,0.0525553,-0.0196356,-0.0541336,-0.0196356,0.0000000*
4,1,4,-0.0541336,-0.0293512,-0.0541336,-0.0196356,0.0525553,-0.0196356,0.0505781,-0.0293512,-0.0541336,-0.0293512,0.0000000*
4,1,4,-0.0541336,-0.0388758,-0.0541336,-0.0293512,0.0505781,-0.0293512,0.0478245,-0.0388758,-0.0541336,-0.0388758,0.0000000*
4,1,4,-0.0541336,-0.0481476,-0.0541336,-0.0388758,0.0478245,-0.0388758,0.0443121,-0.0481476,-0.0541336,-0.0481476,0.0000000*
4,1,4,-0.0541336,-0.0571061,-0.0541336,-0.0481476,0.0443121,-0.0481476,0.0400640,-0.0571061,-0.0541336,-0.0571061,0.0000000*
4,1,4,-0.0541336,-0.0656932,-0.0541336,-0.0571061,0.0400640,-0.0571061,0.0351078,-0.0656932,-0.0541336,-0.0656932,0.0000000*
4,1,4,-0.0541336,-0.0738529,-0.0541336,-0.0656932,0.0351078,-0.0656932,0.0294757,-0.0738529,-0.0541336,-0.0738529,0.0000000*
4,1,4,-0.0541336,-0.0815322,-0.0541336,-0.0738529,0.0294757,-0.0738529,0.0232043,-0.0815322,-0.0541336,-0.0815322,0.0000000*
4,1,4,-0.0541336,-0.0886810,-0.0541336,-0.0815322,0.0232043,-0.0815322,0.0163344,-0.0886810,-0.0541336,-0.0886810,0.0000000*
4,1,4,-0.0541336,-0.0952531,-0.0541336,-0.0886810,0.0163344,-0.0886810,0.0089107,-0.0952531,-0.0541336,-0.0952531,0.0000000*
4,1,4,-0.0541336,-0.1012054,-0.0541336,-0.0952531,0.0089107,-0.0952531,0.0009816,-0.1012054,-0.0541336,-0.1012054,0.0000000*
4,1,4,-0.0541336,-0.1064994,-0.0541336,-0.1012054,0.0009816,-0.1012054,-0.0074014,-0.1064994,-0.0541336,-0.1064994,0.0000000*
4,1,4,-0.0541336,-0.1111006,-0.0541336,-0.1064994,-0.0074014,-0.1064994,-0.0161839,-0.1111006,-0.0541336,-0.1111006,0.0000000*
4,1,4,-0.0541336,-0.1149790,-0.0541336,-0.1111006,-0.0161839,-0.1111006,-0.0253085,-0.1149790,-0.0541336,-0.1149790,0.0000000*
4,1,4,-0.0541336,-0.1181094,-0.0541336,-0.1149790,-0.0253085,-0.1149790,-0.0347161,-0.1181094,-0.0541336,-0.1181094,0.0000000*
4,1,4,-0.0541336,-0.1204715,-0.0541336,-0.1181094,-0.0347161,-0.1181094,-0.0443453,-0.1204715,-0.0541336,-0.1204715,0.0000000*
4,1,3,-0.0541336,-0.1220500,-0.0541336,-0.1204715,-0.0443453,-0.1204715,-0.0541336,-0.1220500,0.0000000*
%
%AMRECTANGLE_56_L1*
4,1,4,0.0205000,0.0195000,0.0205000,-0.0195000,-0.0205000,-0.0195000,-0.0205000,0.0195000,0.0205000,0.0195000,0.0000000*
%
%AMCUSTOM_49_L1*
4,1,3,0.0443453,0.1204715,0.0541336,0.1220500,0.0541336,0.1204715,0.0443453,0.1204715,0.0000000*
4,1,4,0.0347161,0.1181094,0.0443453,0.1204715,0.0541336,0.1204715,0.0541336,0.1181094,0.0347161,0.1181094,0.0000000*
4,1,4,0.0253085,0.1149790,0.0347161,0.1181094,0.0541336,0.1181094,0.0541336,0.1149790,0.0253085,0.1149790,0.0000000*
4,1,4,0.0161839,0.1111006,0.0253085,0.1149790,0.0541336,0.1149790,0.0541336,0.1111006,0.0161839,0.1111006,0.0000000*
4,1,4,0.0074014,0.1064994,0.0161839,0.1111006,0.0541336,0.1111006,0.0541336,0.1064994,0.0074014,0.1064994,0.0000000*
4,1,4,-0.0009816,0.1012054,0.0074014,0.1064994,0.0541336,0.1064994,0.0541336,0.1012054,-0.0009816,0.1012054,0.0000000*
4,1,4,-0.0089107,0.0952531,-0.0009816,0.1012054,0.0541336,0.1012054,0.0541336,0.0952531,-0.0089107,0.0952531,0.0000000*
4,1,4,-0.0163344,0.0886810,-0.0089107,0.0952531,0.0541336,0.0952531,0.0541336,0.0886810,-0.0163344,0.0886810,0.0000000*
4,1,4,-0.0232043,0.0815322,-0.0163344,0.0886810,0.0541336,0.0886810,0.0541336,0.0815322,-0.0232043,0.0815322,0.0000000*
4,1,4,-0.0294757,0.0738529,-0.0232043,0.0815322,0.0541336,0.0815322,0.0541336,0.0738529,-0.0294757,0.0738529,0.0000000*
4,1,4,-0.0351078,0.0656932,-0.0294757,0.0738529,0.0541336,0.0738529,0.0541336,0.0656932,-0.0351078,0.0656932,0.0000000*
4,1,4,-0.0400640,0.0571061,-0.0351078,0.0656932,0.0541336,0.0656932,0.0541336,0.0571061,-0.0400640,0.0571061,0.0000000*
4,1,4,-0.0443121,0.0481476,-0.0400640,0.0571061,0.0541336,0.0571061,0.0541336,0.0481476,-0.0443121,0.0481476,0.0000000*
4,1,4,-0.0478245,0.0388758,-0.0443121,0.0481476,0.0541336,0.0481476,0.0541336,0.0388758,-0.0478245,0.0388758,0.0000000*
4,1,4,-0.0505781,0.0293512,-0.0478245,0.0388758,0.0541336,0.0388758,0.0541336,0.0293512,-0.0505781,0.0293512,0.0000000*
4,1,4,-0.0525553,0.0196356,-0.0505781,0.0293512,0.0541336,0.0293512,0.0541336,0.0196356,-0.0525553,0.0196356,0.0000000*
4,1,4,-0.0537430,0.0097923,-0.0525553,0.0196356,0.0541336,0.0196356,0.0541336,0.0097923,-0.0537430,0.0097923,0.0000000*
4,1,4,-0.0541331,0.0003516,-0.0537430,0.0097923,0.0541336,0.0097923,0.0541336,0.0003516,-0.0541331,0.0003516,0.0000000*
4,1,4,-0.0541336,-0.0000001,-0.0541331,0.0003516,0.0541336,0.0003516,0.0541336,-0.0000001,-0.0541336,-0.0000001,0.0000000*
4,1,4,-0.0537337,-0.0099067,-0.0541336,-0.0000001,0.0541336,-0.0000001,0.0541336,-0.0099067,-0.0537337,-0.0099067,0.0000000*
4,1,4,-0.0525369,-0.0197489,-0.0537337,-0.0099067,0.0541336,-0.0099067,0.0541336,-0.0197489,-0.0525369,-0.0197489,0.0000000*
4,1,4,-0.0505506,-0.0294626,-0.0525369,-0.0197489,0.0541336,-0.0197489,0.0541336,-0.0294626,-0.0505506,-0.0294626,0.0000000*
4,1,4,-0.0477880,-0.0389847,-0.0505506,-0.0294626,0.0541336,-0.0294626,0.0541336,-0.0389847,-0.0477880,-0.0389847,0.0000000*
4,1,4,-0.0442671,-0.0482531,-0.0477880,-0.0389847,0.0541336,-0.0389847,0.0541336,-0.0482531,-0.0442671,-0.0482531,0.0000000*
4,1,4,-0.0400106,-0.0572077,-0.0442671,-0.0482531,0.0541336,-0.0482531,0.0541336,-0.0572077,-0.0400106,-0.0572077,0.0000000*
4,1,4,-0.0350464,-0.0657902,-0.0400106,-0.0572077,0.0541336,-0.0572077,0.0541336,-0.0657902,-0.0350464,-0.0657902,0.0000000*
4,1,4,-0.0294066,-0.0739446,-0.0350464,-0.0657902,0.0541336,-0.0657902,0.0541336,-0.0739446,-0.0294066,-0.0739446,0.0000000*
4,1,4,-0.0231280,-0.0816180,-0.0294066,-0.0739446,0.0541336,-0.0739446,0.0541336,-0.0816180,-0.0231280,-0.0816180,0.0000000*
4,1,4,-0.0162515,-0.0887605,-0.0231280,-0.0816180,0.0541336,-0.0816180,0.0541336,-0.0887605,-0.0162515,-0.0887605,0.0000000*
4,1,4,-0.0088217,-0.0953255,-0.0162515,-0.0887605,0.0541336,-0.0887605,0.0541336,-0.0953255,-0.0088217,-0.0953255,0.0000000*
4,1,4,-0.0008870,-0.1012704,-0.0088217,-0.0953255,0.0541336,-0.0953255,0.0541336,-0.1012704,-0.0008870,-0.1012704,0.0000000*
4,1,4,0.0075009,-0.1065565,-0.0008870,-0.1012704,0.0541336,-0.1012704,0.0541336,-0.1065565,0.0075009,-0.1065565,0.0000000*
4,1,4,0.0162876,-0.1111495,0.0075009,-0.1065565,0.0541336,-0.1065565,0.0541336,-0.1111495,0.0162876,-0.1111495,0.0000000*
4,1,4,0.0254159,-0.1150194,0.0162876,-0.1111495,0.0541336,-0.1111495,0.0541336,-0.1150194,0.0254159,-0.1150194,0.0000000*
4,1,4,0.0348264,-0.1181411,0.0254159,-0.1150194,0.0541336,-0.1150194,0.0541336,-0.1181411,0.0348264,-0.1181411,0.0000000*
4,1,4,0.0444578,-0.1204942,0.0348264,-0.1181411,0.0541336,-0.1181411,0.0541336,-0.1204942,0.0444578,-0.1204942,0.0000000*
4,1,3,0.0541336,-0.1220500,0.0444578,-0.1204942,0.0541336,-0.1204942,0.0541336,-0.1220500,0.0000000*
%
%AMRECTANGLE_ROUNDED_32_L1*
4,1,4,-0.0100000,-0.0011400,-0.0100000,0.0090000,0.0100000,0.0090000,0.0100000,-0.0011400,-0.0100000,-0.0011400,0.0000000*
4,1,4,-0.0096339,-0.0034124,-0.0100000,-0.0011400,0.0100000,-0.0011400,0.0096643,-0.0034124,-0.0096339,-0.0034124,0.0000000*
4,1,4,-0.0096025,-0.0036078,-0.0096339,-0.0034124,0.0096643,-0.0034124,0.0095691,-0.0036078,-0.0096025,-0.0036078,0.0000000*
4,1,4,-0.0085365,-0.0056599,-0.0096025,-0.0036078,0.0095691,-0.0036078,0.0085703,-0.0056599,-0.0085365,-0.0056599,0.0000000*
4,1,4,-0.0084503,-0.0058260,-0.0085365,-0.0056599,0.0085703,-0.0056599,0.0084085,-0.0058260,-0.0084503,-0.0058260,0.0000000*
4,1,4,-0.0067831,-0.0074503,-0.0084503,-0.0058260,0.0084085,-0.0058260,0.0068260,-0.0074503,-0.0067831,-0.0074503,0.0000000*
4,1,4,-0.0066599,-0.0075703,-0.0067831,-0.0074503,0.0068260,-0.0074503,0.0065950,-0.0075703,-0.0066599,-0.0075703,0.0000000*
4,1,4,-0.0045392,-0.0086025,-0.0066599,-0.0075703,0.0065950,-0.0075703,0.0046078,-0.0086025,-0.0045392,-0.0086025,0.0000000*
4,1,4,-0.0044124,-0.0086643,-0.0045392,-0.0086025,0.0046078,-0.0086025,0.0042245,-0.0086643,-0.0044124,-0.0086643,0.0000000*
4,1,4,-0.0021400,-0.0090000,-0.0044124,-0.0086643,0.0042245,-0.0086643,0.0021400,-0.0090000,-0.0021400,-0.0090000,0.0000000*
%
%AMRECTANGLE_26_L1*
4,1,4,0.0335000,0.0180000,0.0335000,-0.0180000,-0.0335000,-0.0180000,-0.0335000,0.0180000,0.0335000,0.0180000,0.0000000*
%
%ADD10SQUARE_84_L1*%
%ADD11RECTANGLE_51_L1*%
%ADD12CUSTOM_17_L1*%
%ADD13CUSTOM_14_L1*%
%ADD14RECTANGLE_ROUNDED_36_L1*%
%ADD15CUSTOM_35_L1*%
%ADD16CUSTOM_19_L1*%
%ADD17RECTANGLE_83_L1*%
%ADD18C,0.01400*%
%ADD19C,0.02000*%
%ADD70RECTANGLE_61_L1*%
%ADD71CUSTOM_24_L1*%
%ADD20RECTANGLE_47_L1*%
%ADD21RECTANGLE_34_L1*%
%ADD22RECTANGLE_82_L1*%
%ADD23RECTANGLE_ROUNDED_76_L1*%
%ADD24CUSTOM_57_L1*%
%ADD25CUSTOM_59_L1*%
%ADD26RECTANGLE_81_L1*%
%ADD27CUSTOM_27_L1*%
%ADD28CUSTOM_30_L1*%
%ADD29RECTANGLE_67_L1*%
%ADD72RECTANGLE_50_L1*%
%ADD73RECTANGLE_ROUNDED_37_L1*%
%ADD30RECTANGLE_63_L1*%
%ADD31CUSTOM_28_L1*%
%ADD32RECTANGLE_16_L1*%
%ADD33RECTANGLE_29_L1*%
%ADD34RECTANGLE_33_L1*%
%ADD35RECTANGLE_ROUNDED_74_L1*%
%ADD36RECTANGLE_40_L1*%
%ADD37RECTANGLE_58_L1*%
%ADD38RECTANGLE_25_L1*%
%ADD39C,0.01000*%
%ADD40OBLONG_80_L1*%
%ADD41OBLONG_79_L1*%
%ADD42RECTANGLE_78_L1*%
%ADD43RECTANGLE_38_L1*%
%ADD44CUSTOM_48_L1*%
%ADD45RECTANGLE_70_L1*%
%ADD46RECTANGLE_46_L1*%
%ADD47RECTANGLE_77_L1*%
%ADD48RECTANGLE_44_L1*%
%ADD49RECTANGLE_18_L1*%
%ADD50RECTANGLE_15_L1*%
%ADD51RECTANGLE_ROUNDED_75_L1*%
%ADD52RECTANGLE_53_L1*%
%ADD53RECTANGLE_20_L1*%
%ADD54CUSTOM_11_L1*%
%ADD55CUSTOM_12_L1*%
%ADD56RECTANGLE_72_L1*%
%ADD57RECTANGLE_42_L1*%
%ADD58RECTANGLE_31_L1*%
%ADD59RECTANGLE_54_L1*%
%ADD60RECTANGLE_55_L1*%
%ADD61RECTANGLE_ROUNDED_45_L1*%
%ADD62RECTANGLE_ROUNDED_41_L1*%
%ADD63CUSTOM_22_L1*%
%ADD64CUSTOM_68_L1*%
%ADD65RECTANGLE_23_L1*%
%ADD66CUSTOM_21_L1*%
%ADD67RECTANGLE_60_L1*%
%ADD68RECTANGLE_73_L1*%
%ADD69RECTANGLE_52_L1*%
%ADD74RECTANGLE_71_L1*%
%ADD75RECTANGLE_39_L1*%
%ADD76RECTANGLE_43_L1*%
%ADD77CUSTOM_66_L1*%
%ADD78CUSTOM_65_L1*%
%ADD79RECTANGLE_64_L1*%
%ADD80CUSTOM_62_L1*%
%ADD81RECTANGLE_56_L1*%
%ADD82CUSTOM_49_L1*%
%ADD83RECTANGLE_ROUNDED_32_L1*%
%ADD84RECTANGLE_26_L1*%
%ADD300C,0.00600*%
%LN0*%
%LPD*%
G36*
X-22460Y22504D02*
G01Y22561D01*
X-22421*
Y22504*
X-22460*
G37*
G36*
Y22435D02*
G01Y22492D01*
X-22421*
Y22435*
X-22460*
G37*
G36*
Y17740D02*
G01Y17797D01*
X-22421*
Y17740*
X-22460*
G37*
G36*
Y17671D02*
G01Y17728D01*
X-22421*
Y17671*
X-22460*
G37*
G36*
X-22512Y22504D02*
G01Y22561D01*
X-22472*
Y22504*
X-22512*
G37*
G36*
Y22435D02*
G01Y22492D01*
X-22472*
Y22435*
X-22512*
G37*
G36*
Y17740D02*
G01Y17797D01*
X-22472*
Y17740*
X-22512*
G37*
G36*
Y17671D02*
G01Y17728D01*
X-22472*
Y17671*
X-22512*
G37*
G36*
X-24804Y24590D02*
G01Y24668D01*
X-24726*
Y24590*
X-24804*
G37*
G36*
Y24500D02*
G01Y24578D01*
X-24726*
Y24500*
X-24804*
G37*
G36*
Y19827D02*
G01Y19905D01*
X-24726*
Y19827*
X-24804*
G37*
G36*
Y19737D02*
G01Y19815D01*
X-24726*
Y19737*
X-24804*
G37*
G36*
X-24894Y24590D02*
G01Y24668D01*
X-24816*
Y24590*
X-24894*
G37*
G36*
Y24500D02*
G01Y24578D01*
X-24816*
Y24500*
X-24894*
G37*
G36*
Y19827D02*
G01Y19905D01*
X-24816*
Y19827*
X-24894*
G37*
G36*
Y19737D02*
G01Y19815D01*
X-24816*
Y19737*
X-24894*
G37*
G54D10*
X-25084Y18047D03*
X-25179D03*
X-25084Y18142D03*
X-25179D03*
G54D11*
X-23954Y20637D03*
G54D12*
X-24012Y20636D03*
G54D13*
X-23583Y20593D03*
G54D14*
Y20635D03*
G54D15*
X-23631Y20644D03*
G54D16*
X-23673Y20668D03*
G54D11*
X-23732Y20688D03*
G54D17*
X-23783Y21231D03*
G54D13*
X-23666Y20746D03*
Y20781D03*
Y20816D03*
G54D18*
X-23428Y17698D03*
G54D19*
X-23360Y18877D03*
G54D18*
X-24066Y17698D03*
X-23302Y17667D03*
G54D70*
X-24074Y17451D03*
G54D19*
X-23518Y18956D03*
G54D18*
X-23940Y17667D03*
G54D19*
X-23439Y18877D03*
G54D18*
X-23302Y17761D03*
G54D71*
X-24173Y17430D03*
G54D18*
X-23940Y17761D03*
X-23302Y17635D03*
G54D19*
X-23518Y18996D03*
G54D70*
X-23971Y17453D03*
G54D18*
X-23940Y17635D03*
X-23302Y17698D03*
G54D19*
X-23557Y18877D03*
G54D70*
X-24113Y17451D03*
G54D18*
X-23940Y17698D03*
X-23428Y17604D03*
G54D19*
X-23321Y18956D03*
G54D18*
X-24066Y17604D03*
X-23302D03*
G54D19*
X-23557Y18956D03*
G54D70*
X-23932Y17453D03*
G54D18*
X-23940Y17604D03*
G54D19*
X-23478Y18956D03*
G54D18*
X-23302Y17730D03*
X-23940D03*
X-23428Y17667D03*
X-24066D03*
G54D19*
X-23360Y18996D03*
G54D18*
X-23459Y17698D03*
G54D19*
X-23400Y18956D03*
G54D18*
X-24097Y17698D03*
G54D70*
X-24054Y17451D03*
G54D19*
X-23478Y18838D03*
G54D18*
X-23270Y17667D03*
X-23908D03*
X-23459D03*
G54D19*
X-23360Y18838D03*
G54D18*
X-24097Y17667D03*
G54D19*
X-23557Y18838D03*
G54D18*
X-23270Y17635D03*
G54D70*
X-23952Y17453D03*
G54D18*
X-23908Y17635D03*
X-23459D03*
G54D19*
X-23360Y18956D03*
G54D18*
X-24097Y17635D03*
X-23270Y17604D03*
G54D19*
X-23557Y18996D03*
G54D70*
X-23912Y17453D03*
G54D18*
X-23908Y17604D03*
X-23428Y17635D03*
G54D19*
X-23321Y18996D03*
G54D18*
X-24066Y17635D03*
X-23459Y17730D03*
G54D19*
X-23400Y18877D03*
G54D18*
X-24097Y17730D03*
G54D70*
X-24094Y17451D03*
G54D18*
X-23270Y17698D03*
G54D19*
X-23478Y18996D03*
G54D18*
X-23908Y17698D03*
X-23428Y17730D03*
G54D19*
X-23400Y18838D03*
G54D18*
X-24066Y17730D03*
G54D12*
X-24270Y17835D03*
G54D19*
X-23597Y18838D03*
G54D16*
X-23704Y18330D03*
G54D18*
X-23877Y17793D03*
G54D19*
X-23321Y18838D03*
G54D18*
X-23239Y17793D03*
G54D13*
X-23038Y17725D03*
G54D16*
X-23614Y18430D03*
X-23344Y18603D03*
G54D18*
X-23302Y17824D03*
X-23940D03*
G54D19*
X-23872Y18877D03*
G54D18*
X-24066Y17950D03*
G54D19*
X-23793Y18838D03*
G54D18*
X-23940Y17919D03*
G54D19*
X-23911Y18956D03*
G54D18*
X-23908Y18013D03*
G54D19*
X-23754Y18956D03*
G54D18*
X-24097Y18013D03*
G54D19*
X-23872Y18956D03*
G54D18*
X-23940Y18076D03*
G54D19*
X-23715Y18956D03*
G54D18*
X-24097Y18076D03*
G54D19*
X-23911Y18996D03*
G54D18*
X-23908Y18045D03*
G54D19*
X-23793Y18996D03*
G54D18*
X-24066Y18076D03*
G54D19*
X-23203Y18996D03*
G54D18*
X-23428Y17950D03*
G54D19*
X-23124Y18996D03*
G54D18*
X-23302Y17919D03*
G54D19*
X-23203Y18956D03*
G54D18*
X-23459Y17919D03*
G54D19*
X-23085Y18996D03*
G54D18*
X-23270Y17919D03*
G54D19*
X-23911Y18838D03*
G54D18*
X-24097Y17919D03*
G54D19*
X-23124Y18956D03*
G54D18*
X-23428Y17856D03*
G54D19*
X-23045Y18996D03*
G54D18*
X-23270Y17856D03*
G54D19*
X-23242Y18956D03*
G54D18*
X-23459Y17887D03*
G54D19*
X-23045Y18956D03*
G54D18*
X-23302Y17856D03*
Y17982D03*
G54D19*
X-23163Y18838D03*
X-23045Y18877D03*
G54D18*
X-23428Y18013D03*
X-23270D03*
G54D19*
X-23203Y18877D03*
X-23045Y18838D03*
G54D18*
X-23459Y18013D03*
G54D19*
X-23163Y18877D03*
G54D18*
X-23302Y18076D03*
G54D19*
X-23085Y18838D03*
G54D18*
X-23459Y18076D03*
G54D19*
X-23754Y18838D03*
G54D18*
X-23908Y17919D03*
X-23270Y18045D03*
G54D19*
X-23203Y18838D03*
X-23085Y18877D03*
G54D18*
X-23428Y18076D03*
G54D19*
X-23793Y18877D03*
G54D18*
X-24066Y17856D03*
G54D19*
X-23715Y18838D03*
G54D18*
X-23908Y17856D03*
G54D19*
X-23911Y18877D03*
G54D18*
X-24097Y17887D03*
G54D19*
X-23715Y18877D03*
G54D18*
X-23940Y17856D03*
G54D19*
X-23872Y18996D03*
G54D18*
X-23940Y17982D03*
G54D19*
X-23793Y18956D03*
G54D18*
X-24066Y18013D03*
G54D19*
X-23754Y18877D03*
G54D18*
X-23940Y17950D03*
G54D19*
X-23754Y18996D03*
G54D18*
X-24066Y17982D03*
G54D19*
X-23085Y18956D03*
G54D18*
X-23302Y17950D03*
G54D19*
X-23006Y18838D03*
G54D18*
X-23428Y17982D03*
G54D19*
X-23833Y18838D03*
G54D18*
X-24066Y17919D03*
G54D19*
X-23833Y18996D03*
G54D18*
X-23940Y18013D03*
G54D19*
X-23163Y18956D03*
G54D18*
X-23428Y17919D03*
G54D19*
X-23124Y18838D03*
G54D18*
X-23302Y18013D03*
G54D12*
X-24270Y17740D03*
G54D19*
X-23597Y18956D03*
G54D18*
X-24129Y17793D03*
G54D19*
X-23282Y18956D03*
G54D13*
X-23038Y17683D03*
G54D18*
X-23491Y17793D03*
G54D16*
X-23557Y18329D03*
G54D13*
X-24640Y19942D03*
G54D20*
X-24740Y19937D03*
G54D19*
X-23675Y19783D03*
X-23557Y19704D03*
G54D21*
X-24694Y19907D03*
G54D13*
X-24576Y19904D03*
G54D19*
X-23675Y19744D03*
G54D16*
X-24743Y19608D03*
G54D20*
X-24787Y19704D03*
G54D19*
X-23557Y19822D03*
G54D21*
X-24694Y19813D03*
G54D19*
X-23557Y19783D03*
G54D21*
X-24694Y19829D03*
G54D13*
X-24640Y19831D03*
G54D71*
X-24785Y19623D03*
G54D20*
X-24803Y19704D03*
G54D70*
X-24882Y19620D03*
G54D20*
X-24881Y19704D03*
G54D70*
X-24862Y19620D03*
G54D20*
X-24850Y19704D03*
G54D70*
X-24843Y19620D03*
G54D20*
X-24834Y19704D03*
G54D70*
X-24823Y19620D03*
G54D20*
X-24818Y19704D03*
G54D12*
X-24988Y19627D03*
G54D71*
X-24954D03*
X-24919D03*
G54D20*
X-24897Y19704D03*
G54D13*
X-24665Y20018D03*
Y19983D03*
G54D16*
X-24700D03*
G54D20*
X-24755Y19937D03*
G54D13*
X-24709Y19620D03*
G54D20*
X-24755Y19704D03*
G54D13*
X-24611Y19732D03*
G54D21*
X-24694Y19766D03*
G54D71*
X-24979Y19699D03*
G54D21*
X-24927Y19734D03*
G54D20*
X-25187Y17958D03*
X-25045Y18231D03*
G54D22*
X-25019Y17430D03*
X-25405D03*
G54D23*
X-22586Y19774D03*
G54D22*
X-25019Y17533D03*
X-25405D03*
G54D24*
X-25236Y17723D03*
G54D71*
X-22556Y19753D03*
G54D24*
X-25069Y17728D03*
G54D25*
X-25146Y17541D03*
G54D12*
X-22418Y19320D03*
X-24829Y18016D03*
G54D26*
X-24039Y21231D03*
G54D27*
X-23726Y21053D03*
G54D28*
Y21123D03*
G54D29*
X-23105Y20880D03*
G54D12*
X-22894Y20782D03*
G54D13*
X-23100Y20783D03*
G54D71*
X-23465Y20749D03*
G54D72*
X-23536Y20767D03*
X-23511D03*
G54D73*
X-21863Y19136D03*
G54D14*
X-21917D03*
G54D15*
X-22066Y20418D03*
G54D13*
X-22471Y20458D03*
G54D28*
X-22072Y20161D03*
X-22155D03*
G54D71*
X-21957Y20045D03*
X-21919D03*
X-22015Y20133D03*
G54D13*
X-22634Y20016D03*
G54D71*
X-23442Y20066D03*
G54D12*
X-24749Y20008D03*
G54D13*
X-22207Y19845D03*
G54D16*
X-21833Y19873D03*
G54D30*
X-22074Y19954D03*
G54D13*
X-22210Y19889D03*
G54D31*
X-22400Y19911D03*
G54D13*
X-22634Y19981D03*
G54D28*
X-22378Y19785D03*
X-22464Y19783D03*
G54D71*
X-22520Y19753D03*
G54D27*
X-22377Y19577D03*
X-22465D03*
G54D16*
X-22520Y19607D03*
G54D73*
X-22275Y19366D03*
G54D32*
X-22397Y19381D03*
X-22492Y19452D03*
G54D13*
X-22005Y19266D03*
G54D12*
X-22297Y19288D03*
G54D16*
X-22427Y18947D03*
G54D12*
X-22803Y18868D03*
G54D19*
X-23951Y18956D03*
Y18917D03*
G54D31*
X-22577Y18725D03*
G54D27*
X-22201Y18524D03*
G54D16*
X-22260Y18545D03*
G54D15*
X-22410Y18543D03*
X-22464D03*
G54D73*
X-25402Y18347D03*
G54D15*
X-25333Y18344D03*
G54D14*
X-25553Y18347D03*
G54D31*
X-22007Y18234D03*
G54D73*
X-25402Y18299D03*
G54D14*
X-25553D03*
G54D13*
X-25536Y18253D03*
G54D33*
X-21777Y18061D03*
G54D13*
X-21859Y18099D03*
X-24833Y18114D03*
G54D14*
X-24838Y18156D03*
G54D31*
X-22633Y17879D03*
G54D71*
X-22675Y17861D03*
G54D34*
X-22567Y17759D03*
G54D35*
X-22626Y17763D03*
G54D12*
X-22641Y17700D03*
G54D14*
X-22893Y17739D03*
G54D73*
X-22984Y17775D03*
X-22482Y17604D03*
G54D12*
X-22497Y17563D03*
G54D14*
X-22651Y17606D03*
G54D36*
X-22933Y16715D03*
G54D16*
X-22304Y17660D03*
G54D12*
X-22497Y17529D03*
G54D13*
X-22637Y17530D03*
X-22636Y17565D03*
X-24852Y17791D03*
G54D37*
X-24893Y17854D03*
G54D24*
X-25111Y17797D03*
G54D38*
X-21930Y20544D03*
G54D12*
X-22498Y17495D03*
G54D13*
X-22637Y17496D03*
G54D12*
X-22297Y19323D03*
Y19253D03*
G54D39*
X-24937Y19048D03*
X-24976Y19087D03*
X-24799Y19126D03*
X-24878Y19107D03*
X-25055Y19126D03*
X-24838Y19166D03*
X-24917Y19146D03*
X-24956D03*
X-25035D03*
X-25055Y19166D03*
X-25035Y19205D03*
G54D29*
X-23223Y20880D03*
X-23282D03*
X-23341D03*
X-23400D03*
G54D40*
X-23528Y20906D03*
G54D41*
Y21141D03*
G54D40*
X-22957Y20906D03*
G54D41*
Y21141D03*
G54D12*
X-22528Y20829D03*
X-23634Y20816D03*
G54D73*
X-22404Y20822D03*
G54D12*
X-22528Y20792D03*
G54D42*
X-23254Y20758D03*
Y20721D03*
X-23383Y20758D03*
Y20721D03*
G54D31*
X-23631Y20698D03*
G54D71*
X-23673Y20700D03*
G54D13*
X-24585Y20705D03*
G54D12*
X-24482D03*
G54D73*
X-23529Y20635D03*
G54D11*
X-23954Y20611D03*
Y20534D03*
G54D16*
X-24012Y20528D03*
G54D15*
X-24054Y20506D03*
G54D14*
X-24202Y20556D03*
Y20604D03*
G54D16*
X-23828Y20439D03*
G54D31*
X-24041Y20441D03*
G54D43*
X-24186Y20493D03*
G54D31*
X-24089Y20441D03*
G54D13*
X-24309Y20383D03*
G54D16*
X-21966Y20201D03*
Y20276D03*
G54D44*
X-22232Y20197D03*
G54D71*
X-23049Y19984D03*
X-23084D03*
X-23429D03*
X-23395D03*
X-24700Y20015D03*
G54D45*
X-24753Y20068D03*
G54D13*
X-24856Y20008D03*
G54D45*
X-24852Y20142D03*
G54D46*
X-22491Y19895D03*
G54D71*
X-22442Y19890D03*
G54D13*
X-23494Y19953D03*
X-23503Y20014D03*
G54D19*
X-23754Y19822D03*
X-23636D03*
X-23911D03*
G54D12*
X-24527Y19831D03*
X-24544Y19904D03*
X-25030Y20057D03*
G54D13*
X-25126D03*
X-25380D03*
G54D12*
X-25284D03*
G54D47*
X-21756Y19628D03*
G54D12*
X-22587Y19811D03*
G54D71*
X-22729Y19703D03*
G54D16*
X-22835Y19736D03*
G54D71*
Y19703D03*
G54D19*
X-23124Y19744D03*
X-23085D03*
X-23006D03*
X-22967Y19783D03*
X-23242Y19744D03*
X-23203D03*
X-23439Y19783D03*
X-23400D03*
X-23360D03*
X-23321Y19744D03*
X-23282D03*
X-23518Y19783D03*
X-23478D03*
X-23872Y19704D03*
X-23911Y19744D03*
X-23833Y19704D03*
Y19744D03*
X-23951Y19783D03*
X-23911D03*
G54D13*
X-24112Y19764D03*
G54D12*
X-24579Y19766D03*
G54D48*
X-21907Y19528D03*
G54D33*
X-22709Y19518D03*
G54D19*
X-22967Y19586D03*
G54D49*
X-22796Y19547D03*
G54D16*
X-22835Y19593D03*
G54D19*
X-23321Y19625D03*
X-23400D03*
Y19665D03*
X-23360Y19547D03*
X-23400D03*
X-23360Y19468D03*
X-23282Y19625D03*
Y19665D03*
Y19547D03*
X-23321D03*
X-23557D03*
X-23597D03*
X-23518D03*
X-23754Y19586D03*
X-23675Y19507D03*
X-23833Y19625D03*
Y19665D03*
X-23872D03*
Y19547D03*
Y19507D03*
X-23911Y19665D03*
G54D13*
X-24112Y19570D03*
Y19514D03*
G54D16*
X-24954Y19595D03*
G54D12*
X-22297Y19408D03*
G54D13*
X-22514Y19320D03*
G54D37*
X-22652Y19291D03*
G54D19*
X-22967Y19429D03*
G54D71*
X-22834Y19402D03*
G54D16*
X-22835Y19470D03*
G54D19*
X-23242Y19429D03*
Y19468D03*
X-23400Y19350D03*
Y19389D03*
X-23439Y19350D03*
Y19389D03*
X-23360Y19429D03*
X-23321Y19468D03*
Y19429D03*
X-23518Y19389D03*
X-23557Y19468D03*
Y19429D03*
X-23518Y19350D03*
X-23478Y19389D03*
Y19350D03*
X-23675D03*
Y19429D03*
X-23597Y19468D03*
Y19429D03*
X-23833D03*
X-23872D03*
Y19468D03*
G54D47*
X-21756Y19212D03*
G54D48*
X-21907Y19312D03*
G54D12*
X-22804Y19325D03*
G54D71*
X-22800Y19292D03*
G54D16*
Y19196D03*
G54D37*
X-22727Y19193D03*
G54D19*
X-23242Y19311D03*
Y19271D03*
X-23360Y19232D03*
Y19192D03*
X-23400Y19311D03*
Y19271D03*
X-23439D03*
X-23321Y19232D03*
Y19192D03*
X-23518Y19311D03*
X-23557Y19192D03*
Y19232D03*
X-23518Y19271D03*
X-23439Y19311D03*
X-23478Y19271D03*
Y19311D03*
X-23675Y19232D03*
X-23597D03*
Y19192D03*
X-23675Y19153D03*
X-23951Y19311D03*
Y19192D03*
G54D23*
X-24542Y19219D03*
G54D12*
X-24546Y19255D03*
G54D16*
X-21866Y19055D03*
G54D12*
X-22329Y19088D03*
X-22567Y19057D03*
G54D50*
X-22504Y19040D03*
G54D12*
X-22800Y19152D03*
G54D19*
X-22967Y19114D03*
G54D16*
X-22835Y19084D03*
G54D19*
X-23242Y19114D03*
Y19153D03*
X-23282Y19114D03*
X-23242Y19035D03*
X-23400D03*
X-23360D03*
X-23400Y18996D03*
Y19114D03*
X-23557Y19035D03*
X-23518Y19114D03*
X-23675Y19035D03*
Y19114D03*
X-23636D03*
X-23793Y19035D03*
G54D16*
X-21902Y18983D03*
G54D19*
X-23045Y18917D03*
X-23085D03*
X-23124D03*
X-22967D03*
X-23006D03*
X-23163D03*
X-23203D03*
X-23242D03*
X-23282D03*
X-23360D03*
X-23321D03*
X-23400D03*
X-23439D03*
X-23518D03*
X-23557D03*
X-23478D03*
X-23675Y18996D03*
Y18956D03*
Y18917D03*
X-23715D03*
X-23597D03*
X-23636Y18956D03*
Y18917D03*
Y18996D03*
X-23911Y18917D03*
X-23872D03*
X-23793D03*
X-23833D03*
X-23754D03*
X-23911Y19035D03*
X-23951Y18996D03*
G54D16*
X-21926Y18755D03*
X-21891D03*
Y18855D03*
G54D51*
X-22510Y18762D03*
G54D44*
X-21855Y18642D03*
G54D12*
X-21879Y18588D03*
G54D13*
X-21809Y18576D03*
G54D52*
X-22346Y18583D03*
G54D16*
X-22509Y18562D03*
X-22544D03*
X-24010Y18643D03*
G54D71*
X-21789Y18416D03*
G54D31*
X-21868Y18431D03*
X-21921D03*
G54D53*
X-21915Y18498D03*
G54D71*
X-21825Y18416D03*
X-22244Y18478D03*
G54D13*
X-22358Y18430D03*
Y18465D03*
G54D71*
X-23557Y18361D03*
X-23704Y18362D03*
X-23759Y18363D03*
X-23612Y18361D03*
X-23614Y18463D03*
X-24940Y18309D03*
X-24979D03*
X-25182Y18325D03*
X-25255D03*
X-25219D03*
G54D13*
X-25148Y18345D03*
G54D71*
X-25360Y18255D03*
X-21965Y18218D03*
G54D21*
X-24996Y18181D03*
G54D20*
X-25171Y18231D03*
G54D71*
X-25325Y18255D03*
G54D13*
X-25355Y18184D03*
X-25356Y18144D03*
G54D18*
X-23239Y18045D03*
Y18076D03*
X-23428Y18045D03*
X-23491D03*
X-23877Y18076D03*
Y18045D03*
X-24066D03*
X-24129D03*
G54D13*
X-24302Y18035D03*
G54D20*
X-25077Y17958D03*
G54D16*
X-25405Y18057D03*
G54D13*
X-25356Y18070D03*
X-25355Y17970D03*
X-25356Y18019D03*
G54D12*
X-23006Y17870D03*
G54D18*
X-23239Y17919D03*
X-23270Y17950D03*
X-23239Y17887D03*
X-23270Y17982D03*
Y17887D03*
X-23491D03*
Y17982D03*
Y17950D03*
X-23459D03*
X-23908Y17982D03*
Y17887D03*
Y17950D03*
X-23877Y17919D03*
Y17887D03*
X-24129D03*
X-24097Y17950D03*
X-24129D03*
Y17982D03*
G54D13*
X-24302Y17952D03*
G54D14*
X-24329Y17905D03*
G54D54*
X-25065Y17907D03*
G54D20*
X-25092Y17958D03*
G54D55*
X-25090Y17822D03*
X-25253Y17816D03*
X-25168Y17822D03*
G54D20*
X-25171Y17958D03*
G54D54*
X-25196Y17907D03*
X-25228Y17908D03*
G54D24*
X-25278Y17791D03*
G54D55*
X-25337Y17816D03*
G54D54*
X-25363Y17908D03*
G54D25*
X-25313Y17791D03*
G54D12*
X-23006Y17820D03*
G54D18*
X-23270Y17824D03*
X-23239Y17730D03*
X-23491D03*
X-23459Y17824D03*
X-23908D03*
X-23877Y17730D03*
X-24129D03*
Y17667D03*
G54D12*
X-24270Y17790D03*
G54D18*
X-24097Y17824D03*
G54D12*
X-22847Y17642D03*
X-23006Y17596D03*
G54D18*
X-23239Y17667D03*
Y17604D03*
X-23491Y17667D03*
Y17604D03*
X-23877Y17667D03*
Y17604D03*
X-24129D03*
G54D12*
X-24270Y17618D03*
Y17670D03*
G54D71*
X-23427Y17421D03*
X-23875Y17408D03*
G54D12*
X-24280Y17510D03*
G54D73*
X-24265Y17441D03*
G54D56*
X-23472Y17092D03*
X-23739D03*
G54D12*
X-23865Y16945D03*
G54D73*
X-23843Y16902D03*
G54D12*
X-24454Y18974D03*
G54D25*
X-25146Y17797D03*
G54D71*
X-25027Y18322D03*
G54D12*
X-25049Y18345D03*
G54D16*
X-23931Y20441D03*
X-23896D03*
G54D37*
X-24818Y17952D03*
G54D25*
X-25313Y17541D03*
G54D16*
X-21919Y20013D03*
X-21957D03*
G54D71*
X-21921Y19980D03*
X-21957D03*
G54D21*
X-22010Y19936D03*
G54D19*
X-23242Y19625D03*
Y19665D03*
X-23203D03*
X-23321D03*
X-23045Y19586D03*
G54D12*
X-23054Y20575D03*
G54D57*
Y20627D03*
G54D19*
X-23163Y19665D03*
X-23124D03*
G54D16*
X-25395Y18223D03*
X-25360D03*
X-25325D03*
G54D21*
X-25268Y18197D03*
G54D19*
X-23085Y19586D03*
X-22967Y19350D03*
G54D48*
X-21907Y19410D03*
G54D13*
X-25035Y17891D03*
G54D55*
X-25065Y17890D03*
X-25091D03*
G54D20*
X-25108Y17958D03*
G54D55*
X-25168Y17890D03*
X-25196D03*
X-25255Y17891D03*
X-25228D03*
X-25335D03*
X-25363D03*
G54D71*
X-25397D03*
G54D20*
X-25203Y17958D03*
G54D19*
X-23085Y19625D03*
G54D16*
X-21826Y18027D03*
G54D12*
X-21888Y20233D03*
X-21887Y20192D03*
G54D58*
X-24060Y16991D03*
G54D13*
X-21919Y20192D03*
G54D57*
X-21810Y18256D03*
G54D71*
X-24009Y16989D03*
G54D16*
X-21789Y18384D03*
X-21825D03*
G54D13*
X-21774Y18345D03*
G54D15*
X-21868Y18377D03*
X-21921D03*
G54D59*
X-22047Y18361D03*
G54D13*
X-21774Y18309D03*
G54D51*
X-21902Y18262D03*
G54D12*
X-21712Y18540D03*
Y18576D03*
G54D54*
X-25091Y17907D03*
X-25117D03*
G54D20*
X-25124Y17958D03*
X-25218D03*
G54D54*
X-25255Y17908D03*
X-25282D03*
X-25168Y17907D03*
X-25142D03*
G54D20*
X-25140Y17958D03*
X-25234D03*
G54D54*
X-25335Y17908D03*
X-25307D03*
G54D29*
X-23301Y20880D03*
G54D71*
X-23298Y20673D03*
G54D20*
X-23294Y20721D03*
Y20758D03*
G54D29*
X-23262Y20880D03*
G54D71*
X-23264Y20673D03*
G54D20*
X-23274Y20721D03*
Y20758D03*
G54D29*
X-23361Y20880D03*
G54D71*
X-23366Y20673D03*
G54D20*
X-23364Y20758D03*
Y20721D03*
G54D29*
X-23321Y20880D03*
G54D71*
X-23332Y20673D03*
G54D20*
X-23344Y20758D03*
Y20721D03*
G54D29*
X-23420Y20880D03*
G54D71*
X-23434Y20673D03*
G54D20*
X-23423Y20758D03*
Y20721D03*
G54D29*
X-23380Y20880D03*
G54D71*
X-23400Y20673D03*
G54D20*
X-23403Y20758D03*
Y20721D03*
G54D29*
X-23242Y20880D03*
G54D20*
X-23235Y20758D03*
G54D71*
X-23230Y20673D03*
G54D20*
X-23235Y20721D03*
G54D29*
X-23203Y20880D03*
G54D20*
X-23215Y20758D03*
G54D71*
X-23196Y20673D03*
G54D20*
X-23215Y20721D03*
G54D71*
X-21854Y18819D03*
G54D48*
X-21907Y19449D03*
G54D19*
X-23163Y19311D03*
G54D71*
X-21855Y18919D03*
G54D19*
X-23124Y19311D03*
G54D48*
X-21907Y19489D03*
G54D19*
X-23793Y19625D03*
Y19704D03*
Y19744D03*
Y19665D03*
G54D18*
X-23302Y17887D03*
X-23491Y17919D03*
X-23239Y18013D03*
Y17950D03*
G54D15*
X-22577Y18671D03*
G54D60*
X-22397Y18668D03*
G54D31*
X-22464Y18597D03*
X-22410D03*
G54D71*
X-22544Y18594D03*
X-22509D03*
G54D61*
X-22510Y18657D03*
G54D18*
X-24129Y17635D03*
X-23877Y18013D03*
X-23908Y18076D03*
X-23239Y17982D03*
X-23491Y18013D03*
X-23459Y17982D03*
X-23239Y17856D03*
G54D19*
X-23085Y19035D03*
X-23124D03*
X-23163D03*
X-23321Y19114D03*
X-23203Y19035D03*
X-23439D03*
X-23478D03*
Y19114D03*
X-23439D03*
X-23360D03*
X-23557D03*
X-23597D03*
X-23518Y19035D03*
X-23715D03*
X-23754D03*
X-23951D03*
X-23636Y18877D03*
X-23675D03*
X-23715Y18996D03*
X-23636Y18838D03*
X-23675D03*
G54D18*
X-23270Y18076D03*
X-23459Y18045D03*
X-23491Y18076D03*
X-24129D03*
X-24097Y18045D03*
X-24129Y18013D03*
G54D12*
X-24270Y18035D03*
G54D18*
X-23459Y17856D03*
X-23877Y17982D03*
X-23940Y17887D03*
X-23877Y17856D03*
Y17950D03*
X-24097Y17856D03*
Y17982D03*
X-24129Y17919D03*
G54D13*
X-24302Y17992D03*
G54D73*
X-22839Y17739D03*
G54D18*
X-23270Y17793D03*
X-23239Y17698D03*
X-23459Y17793D03*
X-23491Y17698D03*
X-23908Y17793D03*
X-23877Y17698D03*
X-24097Y17793D03*
X-24129Y17698D03*
G54D13*
X-24302Y17790D03*
G54D18*
X-23239Y17635D03*
X-23491D03*
X-23877D03*
G54D16*
X-22285Y18374D03*
X-22244D03*
G54D71*
X-21839Y19979D03*
G54D15*
X-22633Y17825D03*
G54D34*
X-22567Y17809D03*
G54D16*
X-22675Y17829D03*
G54D35*
X-22673Y17762D03*
G54D13*
X-22358Y18395D03*
X-22619Y19811D03*
G54D62*
X-22622Y19774D03*
G54D46*
X-22598Y19857D03*
G54D19*
X-23833Y19547D03*
Y19586D03*
X-23754Y19429D03*
X-23793D03*
G54D27*
X-22072Y20091D03*
G54D16*
X-22015Y20101D03*
G54D27*
X-22155Y20091D03*
G54D63*
X-22883Y20711D03*
G54D43*
X-24149Y20386D03*
G54D15*
X-24089Y20387D03*
X-24041D03*
G54D13*
X-22560Y20829D03*
Y20792D03*
G54D64*
X-22317Y20451D03*
G54D65*
X-22306Y20316D03*
G54D12*
X-22439Y20458D03*
G54D66*
X-22302Y20197D03*
G54D30*
X-22047Y19954D03*
G54D71*
X-21877Y19979D03*
G54D28*
X-22201Y18594D03*
G54D71*
X-22260Y18577D03*
G54D52*
X-22307Y18583D03*
G54D16*
X-23465Y20717D03*
G54D72*
X-23511Y20688D03*
G54D12*
X-23865Y16980D03*
G54D21*
X-24996Y18039D03*
G54D20*
X-25045Y17958D03*
G54D12*
X-24801Y18114D03*
G54D73*
X-24784Y18156D03*
G54D67*
X-24814Y18239D03*
G54D20*
X-25061Y17958D03*
X-25077Y18231D03*
G54D12*
X-25324Y18019D03*
G54D21*
X-25268Y18071D03*
X-24996Y18102D03*
G54D20*
X-25155Y17958D03*
G54D19*
X-22967Y19153D03*
X-23006D03*
X-23124D03*
X-23163D03*
X-23124Y19074D03*
X-23163Y19114D03*
G54D16*
X-24940Y18102D03*
G54D21*
X-24996Y18118D03*
G54D12*
X-25503Y18253D03*
G54D13*
X-25357Y18105D03*
G54D71*
X-25405Y18089D03*
G54D13*
X-25430Y18125D03*
G54D71*
X-25403Y18190D03*
G54D73*
X-25499Y18347D03*
G54D14*
X-25456Y18299D03*
Y18347D03*
G54D73*
X-25499Y18299D03*
G54D66*
X-25460Y18411D03*
G54D71*
X-25395Y18255D03*
G54D16*
X-24979Y18277D03*
X-24940D03*
G54D20*
X-25029Y18231D03*
G54D71*
X-25292Y18325D03*
G54D21*
X-25268Y18087D03*
G54D12*
X-25324Y18070D03*
G54D20*
X-25029Y17958D03*
G54D16*
X-24868Y18071D03*
G54D12*
X-24910Y18053D03*
G54D21*
X-24996Y18024D03*
G54D16*
X-25397Y17859D03*
G54D12*
X-25003Y17891D03*
G54D20*
X-25124Y18231D03*
G54D19*
X-23518Y19744D03*
X-23478D03*
X-23360D03*
X-23439D03*
X-23400D03*
X-23833Y19035D03*
X-23872D03*
X-23282D03*
X-23321D03*
X-23597D03*
X-23006Y18956D03*
X-23636Y19035D03*
G54D12*
X-24270Y17992D03*
G54D73*
X-24275Y17905D03*
G54D12*
X-24270Y17952D03*
G54D18*
X-23908Y17730D03*
X-24129Y17856D03*
G54D13*
X-23038Y17870D03*
G54D18*
X-23491Y17856D03*
G54D13*
X-23038Y17820D03*
G54D14*
Y17775D03*
G54D18*
X-23270Y17730D03*
G54D13*
X-22530Y17495D03*
G54D12*
X-22605Y17496D03*
G54D13*
X-22529Y17563D03*
G54D14*
X-22536Y17604D03*
G54D73*
X-22597Y17606D03*
G54D34*
X-22567Y17659D03*
G54D13*
X-22529Y17529D03*
G54D12*
X-22604Y17565D03*
X-22605Y17530D03*
X-23006Y17725D03*
Y17683D03*
Y17639D03*
G54D13*
X-22879Y17642D03*
G54D16*
X-23427Y17389D03*
G54D13*
X-24312Y17510D03*
G54D16*
X-23875Y17376D03*
G54D70*
X-23912Y17407D03*
X-23932D03*
G54D13*
X-24302Y17618D03*
Y17740D03*
Y17835D03*
Y17670D03*
G54D14*
X-24319Y17441D03*
G54D16*
X-24218Y17398D03*
X-24173D03*
G54D70*
X-23971Y17407D03*
X-23952D03*
X-24113Y17405D03*
X-24094D03*
X-24074D03*
X-24054D03*
G54D19*
X-23124Y19114D03*
G54D16*
X-25255Y18293D03*
G54D20*
X-25203Y18231D03*
G54D16*
X-25182Y18293D03*
G54D20*
X-25155Y18231D03*
G54D71*
X-22557Y19137D03*
G54D37*
X-22652Y19193D03*
G54D71*
X-22800Y19228D03*
G54D19*
X-22967Y19232D03*
G54D16*
X-22835Y19228D03*
G54D19*
X-23911Y19311D03*
Y19271D03*
G54D39*
X-24799Y19185D03*
G54D13*
X-24501Y19179D03*
G54D19*
X-23911Y19350D03*
G54D39*
X-24799Y19166D03*
G54D13*
X-24501Y19133D03*
G54D19*
X-23951Y19350D03*
G54D39*
X-24799Y19146D03*
G54D13*
X-24500Y19091D03*
G54D19*
X-23754Y19350D03*
G54D39*
X-24819Y19205D03*
G54D13*
X-24579Y19179D03*
G54D19*
X-23754Y19311D03*
G54D39*
X-24819Y19185D03*
G54D13*
X-24579Y19138D03*
G54D19*
X-23754Y19389D03*
G54D39*
X-24819Y19166D03*
G54D19*
X-23793Y19311D03*
G54D13*
X-24579Y19097D03*
G54D39*
X-24819Y19146D03*
G54D19*
X-23833Y19311D03*
G54D13*
X-24580Y19056D03*
G54D39*
X-24819Y19126D03*
G54D19*
X-23793Y19350D03*
G54D13*
X-24505Y19039D03*
G54D29*
X-23164Y20880D03*
G54D68*
X-23789Y20869D03*
G54D69*
X-24045Y20889D03*
G54D74*
X-25182Y20141D03*
X-25232D03*
Y20478D03*
X-25182D03*
G54D39*
X-24976Y18969D03*
X-24996D03*
X-25016D03*
X-25035D03*
X-25055D03*
X-24976Y19008D03*
Y18989D03*
X-24996Y19008D03*
Y18989D03*
X-25016Y19008D03*
Y18989D03*
X-25035Y19008D03*
Y18989D03*
X-25055Y19008D03*
Y18989D03*
X-24976Y19048D03*
X-25016D03*
Y19028D03*
X-25035Y19048D03*
Y19028D03*
X-25055Y19048D03*
Y19028D03*
X-25016Y19067D03*
X-25035D03*
X-25055D03*
X-25016Y19087D03*
X-25035D03*
X-25055D03*
X-24976Y19126D03*
Y19107D03*
X-25016D03*
X-25035Y19126D03*
Y19107D03*
X-25055D03*
X-24976Y19205D03*
Y19185D03*
X-24996Y19205D03*
Y19185D03*
X-25016Y19205D03*
Y19185D03*
X-25035D03*
X-25055Y19205D03*
X-24976Y19225D03*
X-24996D03*
X-25016D03*
X-25035D03*
X-25055D03*
X-24878Y18969D03*
X-24897D03*
X-24917D03*
X-24937D03*
X-24956D03*
X-24878Y19008D03*
Y18989D03*
X-24897Y19008D03*
Y18989D03*
X-24917Y19008D03*
Y18989D03*
X-24937Y19008D03*
Y18989D03*
X-24956Y19008D03*
Y18989D03*
X-24878Y19048D03*
X-24897D03*
X-24917D03*
X-24878Y19067D03*
X-24858Y19166D03*
X-24878Y19087D03*
Y19146D03*
X-24937D03*
X-24858Y19205D03*
Y19185D03*
Y19225D03*
X-24878Y19205D03*
Y19185D03*
X-24897Y19205D03*
Y19185D03*
X-24917Y19205D03*
Y19185D03*
X-24937Y19205D03*
Y19185D03*
X-24956Y19205D03*
Y19185D03*
X-24878Y19225D03*
X-24897D03*
X-24917D03*
X-24937D03*
X-24956D03*
X-24799Y18969D03*
X-24819D03*
X-24838D03*
X-24858D03*
X-24799Y19008D03*
Y18989D03*
X-24819Y19008D03*
Y18989D03*
X-24838Y19008D03*
Y18989D03*
X-24858Y19008D03*
Y18989D03*
X-24799Y19048D03*
Y19028D03*
X-24819Y19048D03*
Y19028D03*
X-24838Y19048D03*
Y19028D03*
X-24799Y19067D03*
X-24819D03*
X-24838D03*
X-24799Y19087D03*
X-24819D03*
X-24838D03*
X-24799Y19107D03*
X-24819D03*
X-24838D03*
Y19146D03*
X-24799Y19205D03*
X-24838Y19185D03*
X-24799Y19225D03*
X-24819D03*
X-24838D03*
G54D21*
X-24927Y19766D03*
Y19781D03*
Y19797D03*
Y19813D03*
Y19876D03*
G54D20*
X-24881Y19937D03*
X-24850D03*
X-24834D03*
G54D21*
X-24996Y18150D03*
Y18071D03*
Y18087D03*
G54D20*
X-25140Y18231D03*
G54D21*
X-25268Y18181D03*
Y18150D03*
Y18134D03*
G54D20*
X-25234Y18231D03*
G54D21*
X-25268Y18024D03*
Y18039D03*
Y17992D03*
Y18008D03*
G54D19*
X-23872Y19074D03*
X-23951Y19114D03*
X-23911Y19192D03*
Y19232D03*
X-23872D03*
Y19271D03*
Y19311D03*
Y19350D03*
X-23911Y19468D03*
Y19507D03*
X-23951Y19468D03*
Y19507D03*
X-23911Y19547D03*
Y19586D03*
X-23951Y19547D03*
Y19586D03*
X-23872Y19783D03*
Y19822D03*
X-23793Y19153D03*
X-23833Y19232D03*
Y19271D03*
X-23793Y19232D03*
Y19271D03*
X-23833Y19350D03*
Y19507D03*
X-23793Y19783D03*
X-23833Y19822D03*
X-23793D03*
X-23754Y19074D03*
Y19153D03*
Y19232D03*
Y19271D03*
Y19507D03*
Y19547D03*
X-23675Y19625D03*
X-23715D03*
X-23754D03*
X-23675Y19665D03*
Y19704D03*
X-23754Y19665D03*
Y19704D03*
X-23715Y19665D03*
Y19704D03*
X-23754Y19744D03*
Y19783D03*
X-23715Y19744D03*
Y19783D03*
X-23518Y18838D03*
Y18877D03*
X-23478D03*
X-23518Y19625D03*
Y19665D03*
Y19704D03*
X-23478D03*
X-23518Y19822D03*
X-23478D03*
X-23360Y19625D03*
Y19665D03*
X-23439Y19822D03*
X-23282Y18838D03*
Y18877D03*
X-23242Y18996D03*
X-23163Y19232D03*
Y19271D03*
Y19350D03*
Y19389D03*
Y19429D03*
Y19468D03*
Y19507D03*
Y19547D03*
X-23045Y19232D03*
X-23085Y19271D03*
X-23045D03*
X-23124D03*
X-23045Y19311D03*
X-23085D03*
Y19350D03*
X-23045D03*
X-23124D03*
X-23045Y19389D03*
X-23124D03*
X-23085D03*
Y19429D03*
X-23045D03*
X-23124D03*
X-23045Y19468D03*
X-23124D03*
X-23085D03*
Y19507D03*
X-23045D03*
X-23124D03*
X-23085Y19547D03*
X-23045D03*
X-23124D03*
Y19625D03*
X-23045Y19704D03*
X-23085Y19783D03*
X-23045D03*
X-23124D03*
X-23085Y19822D03*
X-23045D03*
X-23124D03*
X-23006Y18877D03*
X-22967D03*
X-23006Y18996D03*
X-22967Y19271D03*
X-23006Y19311D03*
X-22967D03*
X-23006Y19350D03*
Y19389D03*
Y19429D03*
Y19468D03*
Y19507D03*
X-22967Y19468D03*
Y19507D03*
X-23006Y19547D03*
Y19586D03*
Y19625D03*
X-22967Y19704D03*
X-23006Y19783D03*
X-22967Y19744D03*
X-23006Y19822D03*
G54D18*
X-23877Y17761D03*
X-24129D03*
X-23877Y17824D03*
X-24129D03*
X-23239Y17761D03*
X-23491D03*
X-23239Y17824D03*
X-23491D03*
G54D46*
X-22598Y19932D03*
G54D71*
X-23828Y20471D03*
G54D19*
X-23163Y19625D03*
G54D11*
X-23732Y20560D03*
G54D71*
X-23344Y18635D03*
G54D19*
X-23242Y18838D03*
G54D71*
X-23299Y18635D03*
G54D19*
X-23242Y18877D03*
G54D12*
X-23471Y20014D03*
X-23634Y20781D03*
G54D72*
X-23562Y20767D03*
G54D19*
X-23400Y19822D03*
G54D12*
X-23462Y19953D03*
G54D21*
X-24927Y19844D03*
G54D12*
X-25348Y20057D03*
G54D74*
X-25382Y20141D03*
G54D21*
X-24927Y19860D03*
G54D13*
X-25316Y20057D03*
G54D74*
X-25282Y20141D03*
G54D21*
X-24927Y19892D03*
G54D74*
X-25132Y20141D03*
G54D12*
X-25094Y20057D03*
G54D21*
X-24927Y19907D03*
G54D74*
X-25032Y20141D03*
G54D13*
X-25062Y20057D03*
G54D19*
X-23439Y18996D03*
G54D18*
X-23428Y17793D03*
X-24066D03*
G54D16*
X-23299Y18603D03*
G54D18*
X-23940Y17793D03*
X-23302D03*
G54D19*
X-23597Y18996D03*
G54D18*
X-24097Y17761D03*
G54D19*
X-23321Y18877D03*
G54D13*
X-23038Y17639D03*
G54D16*
X-23612Y18329D03*
G54D18*
X-23459Y17761D03*
G54D19*
X-23833Y18877D03*
G54D18*
X-24066Y17887D03*
G54D19*
X-23833Y18956D03*
G54D18*
X-23940Y18045D03*
G54D19*
X-23163Y18996D03*
G54D18*
X-23428Y17887D03*
G54D19*
X-23124Y18877D03*
G54D18*
X-23302Y18045D03*
X-23428Y17824D03*
G54D19*
X-23439Y18838D03*
G54D18*
X-24066Y17824D03*
G54D19*
X-23597Y18877D03*
G54D16*
X-23759Y18330D03*
G54D71*
X-24218Y17430D03*
G54D18*
X-24097Y17604D03*
G54D19*
X-23282Y18996D03*
G54D18*
X-23459Y17604D03*
X-23428Y17761D03*
G54D19*
X-23439Y18956D03*
G54D18*
X-24066Y17761D03*
G54D75*
X-24633Y19629D03*
G54D20*
X-24740Y19704D03*
G54D75*
X-24633Y19648D03*
G54D20*
X-24724Y19704D03*
G54D75*
X-24633Y19668D03*
G54D21*
X-24694Y19734D03*
G54D75*
X-24633Y19688D03*
G54D21*
X-24694Y19750D03*
G54D19*
X-23872Y19389D03*
G54D74*
X-25382Y20478D03*
X-25282D03*
X-25132D03*
X-25032D03*
G54D71*
X-22729Y19636D03*
G54D16*
Y19671D03*
X-22764D03*
G54D19*
X-23045Y19625D03*
G54D13*
X-22800Y19598D03*
Y19633D03*
G54D19*
X-22967Y19625D03*
G54D71*
X-22835D03*
G54D49*
X-23231Y20051D03*
G54D19*
X-23242Y19783D03*
G54D49*
X-23262Y20051D03*
G54D19*
X-23242Y19822D03*
G54D49*
X-23295Y20051D03*
G54D19*
X-23282Y19783D03*
G54D49*
X-23326Y20051D03*
G54D19*
X-23282Y19822D03*
G54D49*
X-23359Y20051D03*
G54D19*
X-23321Y19783D03*
G54D49*
X-23390Y20051D03*
G54D19*
X-23321Y19822D03*
G54D49*
X-23167Y20051D03*
G54D19*
X-23203Y19783D03*
G54D49*
X-23198Y20051D03*
G54D19*
X-23203Y19822D03*
X-23163D03*
Y19783D03*
G54D12*
X-22961Y20782D03*
G54D13*
X-22926D03*
G54D19*
X-23163Y19744D03*
G54D71*
X-24868Y18103D03*
G54D21*
X-24996Y18165D03*
G54D19*
X-23085Y19665D03*
G54D16*
X-23975Y16882D03*
X-24010D03*
G54D75*
X-21980Y19412D03*
G54D48*
X-21907Y19430D03*
G54D19*
X-23045Y19035D03*
G54D75*
X-21980Y19373D03*
G54D48*
X-21907Y19371D03*
G54D19*
X-23085Y19074D03*
G54D75*
X-21980Y19353D03*
G54D19*
X-23045Y19074D03*
G54D48*
X-21907Y19351D03*
G54D75*
X-21980Y19392D03*
G54D48*
X-21907Y19390D03*
G54D19*
X-22967Y19035D03*
G54D48*
X-21907Y19331D03*
G54D19*
X-23006Y19035D03*
G54D12*
X-21973Y19301D03*
Y19266D03*
G54D71*
X-21974Y19486D03*
G54D56*
X-23739Y16935D03*
X-23472D03*
G54D48*
X-21907Y19469D03*
G54D69*
X-23769Y20955D03*
G54D21*
X-24927Y19829D03*
G54D20*
X-24787Y19937D03*
X-24866D03*
G54D74*
X-25332Y20478D03*
X-25082D03*
X-25332Y20141D03*
X-25082D03*
G54D12*
X-24977Y19749D03*
G54D21*
X-24927Y19750D03*
G54D13*
X-24640Y19869D03*
G54D21*
X-24694Y19860D03*
G54D45*
X-24852Y20068D03*
G54D20*
X-24818Y19937D03*
G54D12*
X-24824Y20008D03*
G54D20*
X-24803Y19937D03*
G54D45*
X-24753Y20142D03*
G54D13*
X-24781Y20008D03*
G54D20*
X-24771Y19937D03*
G54D13*
X-24611Y19766D03*
G54D21*
X-24694Y19781D03*
G54D20*
X-24897Y19937D03*
G54D19*
X-23242Y19704D03*
X-23203D03*
X-23282D03*
X-23321D03*
G54D16*
X-23084Y19952D03*
G54D19*
X-23163Y19704D03*
G54D16*
X-23442Y20034D03*
X-23429Y19952D03*
G54D19*
X-23360Y19704D03*
G54D12*
X-23634Y20746D03*
G54D72*
X-23562Y20688D03*
G54D57*
X-23093Y20717D03*
G54D29*
X-23183Y20880D03*
X-23144D03*
X-23124D03*
G54D19*
X-23439Y19665D03*
G54D16*
X-23674Y20538D03*
G54D71*
X-23931Y20473D03*
G54D11*
X-23954Y20509D03*
G54D12*
X-23732Y20462D03*
G54D11*
Y20509D03*
Y20534D03*
G54D13*
X-23764Y20462D03*
G54D71*
X-23896Y20473D03*
G54D11*
X-23954Y20586D03*
G54D13*
X-24044Y20636D03*
G54D31*
X-24054Y20560D03*
G54D71*
X-24012D03*
G54D11*
X-23954D03*
Y20662D03*
Y20688D03*
G54D19*
X-23636Y19547D03*
X-23675D03*
Y19822D03*
X-23715D03*
X-23597Y19704D03*
G54D12*
X-24579Y19732D03*
G54D19*
X-23597Y19744D03*
G54D12*
X-24677Y19620D03*
G54D19*
X-23833Y19783D03*
X-23006Y19192D03*
X-22967D03*
X-23163D03*
Y19074D03*
X-23124Y19192D03*
X-23872Y18838D03*
X-23951Y18877D03*
G54D71*
X-24010Y18675D03*
G54D13*
X-22835Y18868D03*
G54D19*
X-22967Y18956D03*
G54D18*
X-23908Y17761D03*
G54D13*
X-23038Y17596D03*
G54D18*
X-23270Y17761D03*
G54D16*
X-23049Y19952D03*
G54D19*
X-23045Y19744D03*
X-23124Y19232D03*
G54D16*
X-22797Y19370D03*
X-22834D03*
G54D37*
X-22727Y19291D03*
G54D16*
X-22800Y19260D03*
G54D19*
X-23006Y19232D03*
G54D71*
X-22835Y19260D03*
G54D33*
X-22709Y19558D03*
G54D16*
X-22729Y19604D03*
G54D13*
X-22752Y19463D03*
G54D49*
X-22777Y19500D03*
G54D76*
X-22264Y16765D03*
G54D12*
X-22720Y19463D03*
G54D76*
X-22298Y16765D03*
G54D13*
X-22690Y19479D03*
G54D12*
X-22658D03*
G54D33*
X-22662Y19538D03*
G54D49*
X-22757Y19547D03*
G54D12*
X-22768Y19598D03*
G54D71*
X-22835Y19116D03*
X-22800D03*
G54D19*
X-23006Y19114D03*
G54D13*
X-22836Y19325D03*
G54D19*
X-23085Y19232D03*
G54D13*
X-22832Y19152D03*
G54D19*
X-23085Y19114D03*
G54D12*
X-24080Y19514D03*
G54D19*
X-23833Y19468D03*
G54D12*
X-24080Y19764D03*
G54D19*
X-23872Y19744D03*
G54D12*
X-24080Y19570D03*
G54D19*
X-23872Y19625D03*
Y19586D03*
G54D29*
X-23065Y20880D03*
G54D13*
X-22993Y20782D03*
G54D64*
X-22988Y20711D03*
G54D12*
X-23068Y20783D03*
G54D29*
X-23085Y20880D03*
G54D19*
X-23557Y19744D03*
G54D16*
X-24979Y19667D03*
G54D53*
X-21856Y18537D03*
G54D13*
X-21809Y18540D03*
G54D52*
X-22307Y18524D03*
G54D71*
X-22285Y18478D03*
G54D77*
X-21810Y18501D03*
G54D53*
X-21856Y18498D03*
G54D52*
X-22346Y18524D03*
G54D78*
X-22399Y18465D03*
G54D71*
X-22800Y19768D03*
X-22835D03*
G54D19*
X-23006Y19665D03*
G54D71*
X-21891Y18787D03*
G54D16*
X-21926Y18855D03*
G54D71*
Y18787D03*
G54D16*
X-21854D03*
G54D71*
X-21866Y19087D03*
X-21902D03*
G54D16*
X-21855Y18887D03*
G54D71*
X-21891D03*
G54D16*
X-21909Y19725D03*
G54D79*
X-22061Y19905D03*
X-22085D03*
G54D30*
X-22061Y19855D03*
X-22088D03*
G54D80*
X-22043Y19678D03*
G54D15*
X-21957Y19725D03*
G54D70*
X-24823Y19574D03*
G54D19*
X-23636Y19665D03*
Y19704D03*
G54D70*
X-24843Y19574D03*
G54D19*
X-23636Y19744D03*
G54D70*
X-24862Y19574D03*
G54D19*
X-23636Y19783D03*
G54D70*
X-24882Y19574D03*
G54D19*
X-23597Y19665D03*
G54D16*
X-24919Y19595D03*
G54D12*
X-24633Y19983D03*
G54D19*
X-23636Y19625D03*
G54D16*
X-24785Y19591D03*
G54D19*
X-23597Y19625D03*
G54D13*
X-24942Y18053D03*
G54D21*
X-24996Y18055D03*
G54D67*
X-24893Y18239D03*
G54D21*
X-24996Y18197D03*
G54D54*
X-25337Y17833D03*
X-25309D03*
G54D25*
X-25303Y17865D03*
G54D55*
X-25307Y17891D03*
G54D54*
X-25253Y17833D03*
X-25281D03*
G54D24*
X-25286Y17865D03*
G54D55*
X-25282Y17891D03*
G54D54*
X-25295Y17765D03*
G54D25*
Y17791D03*
G54D24*
X-25296D03*
G54D55*
X-25309Y17816D03*
X-25281D03*
G54D16*
X-25081Y18280D03*
G54D20*
X-25092Y18231D03*
G54D16*
X-25116Y18280D03*
G54D20*
X-25108Y18231D03*
G54D25*
X-25253Y17723D03*
G54D24*
X-25278D03*
G54D54*
X-25295Y17695D03*
G54D25*
Y17723D03*
G54D55*
Y17748D03*
G54D16*
X-25027Y18290D03*
G54D20*
X-25061Y18231D03*
G54D12*
X-25325Y18105D03*
G54D21*
X-25268Y18102D03*
G54D12*
X-25398Y18125D03*
X-25324Y18144D03*
G54D21*
X-25268Y18118D03*
G54D16*
X-25403Y18158D03*
G54D12*
X-25323Y18184D03*
G54D21*
X-25268Y18165D03*
G54D55*
X-25295Y17568D03*
G54D24*
X-25296Y17541D03*
G54D81*
X-25345Y17481D03*
G54D16*
X-25292Y18293D03*
G54D20*
X-25218Y18231D03*
G54D16*
X-25219Y18293D03*
G54D20*
X-25187Y18231D03*
G54D54*
X-25090Y17839D03*
X-25116D03*
G54D24*
X-25121Y17865D03*
G54D55*
X-25117Y17890D03*
G54D54*
X-25168Y17839D03*
X-25142D03*
G54D25*
X-25138Y17865D03*
G54D55*
X-25142Y17890D03*
G54D25*
X-25128Y17797D03*
G54D24*
X-25129D03*
G54D55*
X-25142Y17822D03*
X-25116D03*
G54D54*
X-25128Y17771D03*
Y17702D03*
G54D25*
Y17728D03*
G54D55*
Y17754D03*
G54D24*
X-25111Y17728D03*
G54D25*
X-25086D03*
G54D12*
X-24819Y17791D03*
G54D37*
X-24818Y17854D03*
G54D16*
X-24952Y17912D03*
G54D71*
Y17944D03*
G54D21*
X-24996Y17992D03*
G54D13*
X-24862Y18016D03*
G54D37*
X-24893Y17952D03*
G54D21*
X-24996Y18008D03*
G54D55*
X-25128Y17568D03*
G54D24*
X-25129Y17541D03*
G54D81*
X-25079Y17481D03*
G54D12*
X-25323Y17970D03*
G54D21*
X-25268Y18055D03*
G54D16*
X-22800Y19671D03*
X-22835D03*
G54D19*
X-22967Y19665D03*
G54D71*
X-22835Y19502D03*
G54D19*
X-23203Y19625D03*
X-23793Y19389D03*
X-23833D03*
G54D39*
X-24976Y19146D03*
X-25016D03*
Y19126D03*
G54D16*
X-25630Y19363D03*
G54D19*
X-23911Y19389D03*
G54D16*
X-25595Y19364D03*
G54D19*
X-23951Y19389D03*
X-23911Y19429D03*
G54D16*
X-25477Y19364D03*
X-25442D03*
G54D19*
X-23951Y19429D03*
G54D71*
X-25630Y19395D03*
X-25595Y19396D03*
X-25477D03*
X-25442D03*
X-22557Y19229D03*
G54D50*
X-22504Y19262D03*
G54D16*
X-22557Y19105D03*
G54D50*
X-22478Y19040D03*
X-22453D03*
G54D12*
X-22459Y18982D03*
G54D13*
X-22599Y19057D03*
G54D12*
X-22656Y19127D03*
G54D13*
X-22491Y18982D03*
X-22386Y18978D03*
G54D71*
X-22427Y18979D03*
G54D50*
Y19040D03*
G54D52*
X-22326Y18583D03*
G54D60*
X-22323Y18668D03*
G54D71*
X-22435Y18465D03*
G54D53*
X-21915Y18517D03*
G54D59*
X-22047Y18490D03*
G54D12*
X-21713Y18501D03*
G54D13*
X-22438Y19948D03*
G54D46*
X-22491Y19932D03*
G54D12*
X-22602Y20016D03*
Y19981D03*
G54D33*
X-21730Y18080D03*
G54D12*
X-21742Y18345D03*
Y18309D03*
G54D57*
X-21732Y18256D03*
G54D13*
X-21745Y18501D03*
G54D12*
X-21778D03*
X-21777Y18540D03*
G54D13*
X-21744D03*
Y18576D03*
G54D12*
X-21777D03*
G54D53*
X-21856Y18517D03*
G54D16*
X-22399Y18433D03*
X-22435D03*
X-22285Y18446D03*
G54D71*
Y18406D03*
G54D16*
X-22244Y18446D03*
G54D71*
Y18406D03*
G54D12*
X-22326Y18465D03*
Y18430D03*
Y18395D03*
G54D52*
Y18524D03*
G54D14*
X-22458Y20822D03*
G54D19*
X-23478Y19625D03*
G54D21*
X-24694Y19876D03*
G54D13*
X-24640Y19904D03*
G54D21*
X-24694Y19892D03*
G54D13*
X-24559Y19831D03*
G54D21*
X-24694Y19844D03*
G54D13*
X-22688Y19127D03*
G54D19*
X-23006Y19271D03*
X-23045Y19114D03*
G54D21*
X-24694Y19797D03*
G54D69*
X-24045Y21105D03*
G54D11*
X-23732Y20611D03*
G54D19*
X-23439Y19704D03*
G54D11*
X-23732Y20637D03*
G54D19*
X-23478Y19665D03*
G54D11*
X-23732Y20662D03*
G54D19*
X-23439Y19625D03*
G54D71*
X-23674Y20570D03*
G54D11*
X-23732Y20586D03*
G54D71*
X-24278Y20492D03*
G54D43*
X-24224Y20493D03*
G54D19*
X-23163Y19586D03*
G54D43*
X-24224Y20386D03*
G54D12*
X-24277Y20424D03*
Y20383D03*
G54D19*
X-23124Y19586D03*
G54D13*
X-24514Y20705D03*
G54D72*
X-24518Y20597D03*
Y20664D03*
G54D19*
X-23911Y19704D03*
G54D71*
X-25116Y18312D03*
G54D12*
Y18345D03*
G54D19*
X-23911Y19625D03*
X-23951Y19704D03*
G54D12*
X-24553Y20705D03*
G54D72*
X-24551Y20597D03*
Y20664D03*
G54D19*
X-23951Y19625D03*
G54D71*
X-25081Y18312D03*
G54D13*
Y18345D03*
G54D19*
X-23951Y19744D03*
G54D27*
X-24209Y20668D03*
G54D12*
X-22175Y19845D03*
G54D21*
X-22125Y19873D03*
G54D82*
X-22202Y19678D03*
G54D27*
X-22464Y19713D03*
X-22378Y19715D03*
G54D28*
X-22377Y19647D03*
X-22465D03*
G54D16*
X-22520Y19721D03*
G54D71*
Y19639D03*
G54D16*
X-22556Y19721D03*
G54D19*
X-23124Y19704D03*
X-23793Y19586D03*
Y19507D03*
Y19547D03*
X-23321Y19350D03*
X-23360Y19389D03*
X-23321D03*
X-23400Y19429D03*
X-23439D03*
X-23518D03*
X-23478D03*
X-23400Y19468D03*
X-23557Y19389D03*
X-23597D03*
X-23557Y19350D03*
X-23478Y19468D03*
X-23518D03*
X-23793D03*
X-23754D03*
X-23321Y19311D03*
Y19271D03*
X-23360Y19311D03*
Y19350D03*
X-23439Y19232D03*
X-23400D03*
X-23439Y19192D03*
X-23400D03*
X-23360Y19271D03*
X-23557Y19311D03*
X-23478Y19192D03*
X-23557Y19271D03*
X-23597D03*
Y19311D03*
Y19350D03*
X-23518Y19192D03*
Y19232D03*
X-23478D03*
X-23439Y19468D03*
G54D12*
X-21882Y19805D03*
G54D13*
X-21823D03*
G54D27*
X-22352Y19137D03*
G54D44*
X-25390Y18411D03*
G54D31*
X-25333Y18398D03*
G54D34*
X-22366Y17709D03*
G54D71*
X-22304Y17692D03*
G54D12*
X-22354Y18978D03*
G54D13*
X-22361Y19088D03*
G54D57*
X-21771Y18166D03*
G54D39*
X-24956Y19048D03*
X-24976Y19067D03*
X-24838Y19126D03*
X-24878D03*
X-24897Y19146D03*
X-25016Y19166D03*
X-25035D03*
X-25055Y19146D03*
Y19185D03*
G54D19*
X-23951Y19074D03*
G54D12*
X-24547Y19097D03*
G54D13*
X-25020Y19627D03*
X-25009Y19749D03*
G54D20*
X-24866Y19704D03*
G54D71*
X-24743Y19640D03*
G54D20*
X-24771Y19704D03*
G54D12*
X-24608Y19869D03*
Y19904D03*
Y19942D03*
Y19831D03*
G54D20*
X-24724Y19937D03*
G54D12*
X-24633Y20018D03*
G54D13*
X-24309Y20424D03*
G54D16*
X-24278Y20460D03*
G54D19*
X-23400Y19704D03*
X-23242Y19547D03*
Y19507D03*
X-23478Y19547D03*
X-23439D03*
X-23242Y19350D03*
Y19389D03*
Y19192D03*
Y19232D03*
X-23675Y19192D03*
Y19271D03*
Y19389D03*
Y19468D03*
Y19311D03*
X-23951Y19232D03*
Y19271D03*
G54D12*
X-24547Y19179D03*
X-24469D03*
Y19133D03*
X-24547Y19138D03*
X-24473Y19039D03*
X-24548Y19056D03*
G54D16*
X-22800Y19084D03*
G54D19*
X-22967Y19547D03*
Y19389D03*
G54D71*
X-22797Y19402D03*
G54D19*
X-22967Y19074D03*
G54D13*
X-22005Y19301D03*
G54D16*
X-22442Y19858D03*
G54D15*
X-22400Y19857D03*
G54D12*
X-22406Y19948D03*
G54D46*
X-22491Y19857D03*
G54D75*
X-22026Y19392D03*
Y19412D03*
G54D16*
X-21974Y19454D03*
G54D71*
X-21902Y19015D03*
G54D16*
Y19055D03*
X-21965Y18186D03*
G54D15*
X-22007Y18180D03*
G54D61*
X-21902Y18157D03*
G54D71*
X-21926Y18887D03*
G54D48*
X-21907Y19509D03*
G54D75*
X-22026Y19373D03*
Y19353D03*
G54D76*
X-22298Y16708D03*
X-22264D03*
G54D12*
X-24468Y19091D03*
G54D13*
X-24486Y18974D03*
G54D71*
X-21800Y19979D03*
G54D13*
X-23086Y20575D03*
G54D12*
X-23551Y20593D03*
G54D57*
X-23132Y20627D03*
G54D71*
X-22800Y19703D03*
G54D16*
Y19736D03*
G54D71*
X-22764Y19703D03*
G54D19*
X-23085Y19704D03*
X-23006D03*
G54D12*
X-22768Y19633D03*
G54D71*
X-23975Y16914D03*
G54D16*
X-24009Y16957D03*
G54D13*
X-23897Y16980D03*
Y16945D03*
G54D14*
Y16902D03*
G54D39*
X-24838Y19205D03*
G54D62*
X-24579Y19219D03*
G54D13*
X-24578Y19255D03*
G54D21*
X-24996Y18134D03*
G54D71*
X-24940D03*
X-24906Y18121D03*
G54D19*
X-23045Y19665D03*
G54D16*
X-24906Y18089D03*
G54D58*
X-24060Y16913D03*
G54D71*
X-24010Y16914D03*
G54D16*
X-24202Y16921D03*
G54D36*
X-22987Y16715D03*
G54D19*
X-23557Y19665D03*
G54D75*
X-24587Y19688D03*
G54D19*
X-23557Y19625D03*
G54D75*
X-24587Y19668D03*
G54D19*
X-23597Y19822D03*
G54D75*
X-24587Y19648D03*
G54D19*
X-23597Y19783D03*
G54D75*
X-24587Y19629D03*
G54D28*
X-24209Y20738D03*
G54D43*
X-24149Y20493D03*
G54D73*
X-24148Y20604D03*
Y20556D03*
G54D19*
X-23793Y19074D03*
X-23911D03*
X-23754Y19114D03*
X-23911D03*
X-23833Y19153D03*
X-23872D03*
X-23911D03*
X-23951D03*
X-23754Y19192D03*
X-23793D03*
X-23833D03*
X-23872D03*
X-23833Y19074D03*
X-23793Y19114D03*
X-23872D03*
X-23833D03*
G54D34*
X-22366Y17659D03*
Y17759D03*
Y17809D03*
G54D21*
X-22125Y19936D03*
Y19905D03*
G54D28*
X-22352Y19207D03*
G54D50*
X-22427Y19262D03*
G54D13*
X-22329Y19253D03*
G54D16*
X-22557Y19197D03*
G54D13*
X-22329Y19288D03*
Y19323D03*
Y19408D03*
G54D14*
Y19366D03*
G54D71*
X-24202Y16953D03*
G54D58*
X-24150Y16952D03*
G54D16*
X-21800Y19947D03*
X-21839D03*
X-21877D03*
X-21921Y19948D03*
G54D21*
X-22010Y19921D03*
G54D16*
X-21957Y19948D03*
X-23395Y19952D03*
G54D19*
X-23360Y19822D03*
G54D21*
X-22125Y19889D03*
G54D12*
X-22178D03*
G54D21*
X-22125Y19921D03*
X-22010Y19889D03*
Y19905D03*
G54D13*
X-21960D03*
G54D71*
X-21791D03*
X-21833D03*
G54D12*
X-21928D03*
G54D31*
X-21885D03*
G54D12*
X-21791Y19805D03*
G54D16*
Y19873D03*
G54D71*
X-21909Y19757D03*
G54D15*
X-21885Y19851D03*
G54D13*
X-21914Y19805D03*
G54D21*
X-22010Y19873D03*
G54D71*
X-21961Y19856D03*
G54D31*
X-21957Y19779D03*
G54D16*
X-21961Y19824D03*
G54D13*
X-22673Y17700D03*
G54D83*
Y17732D03*
G54D34*
X-22567Y17709D03*
G54D83*
X-22626Y17733D03*
G54D16*
X-22182Y20315D03*
X-22147D03*
G54D58*
X-22111Y20272D03*
G54D65*
X-22233Y20279D03*
G54D58*
X-22021Y20311D03*
G54D71*
X-21966Y20308D03*
G54D13*
X-21920Y20233D03*
G54D58*
X-22021D03*
G54D71*
X-21966D03*
G54D84*
X-22092Y20785D03*
G54D28*
X-22186Y20767D03*
G54D71*
X-21826Y18059D03*
G54D33*
X-21777Y18100D03*
G54D12*
X-21827Y18099D03*
G54D31*
X-22066Y20472D03*
G54D27*
X-22186Y20697D03*
G54D84*
X-22092Y20671D03*
G54D38*
X-22066Y20544D03*
G54D71*
X-22182Y20347D03*
X-22147D03*
G54D65*
X-22233Y20354D03*
G54D63*
X-22212Y20451D03*
G54D66*
X-21925Y18642D03*
G54D13*
X-21911Y18588D03*
G54D53*
X-21915Y18537D03*
G54D49*
X-23262Y20124D03*
G54D16*
X-23298Y20641D03*
G54D49*
X-23231Y20124D03*
G54D16*
X-23264Y20641D03*
G54D49*
X-23326Y20124D03*
G54D16*
X-23366Y20641D03*
G54D49*
X-23295Y20124D03*
G54D16*
X-23332Y20641D03*
G54D49*
X-23390Y20124D03*
G54D16*
X-23434Y20641D03*
G54D49*
X-23359Y20124D03*
G54D16*
X-23400Y20641D03*
X-23230D03*
G54D49*
X-23198Y20124D03*
G54D16*
X-23196Y20641D03*
G54D49*
X-23167Y20124D03*
G54D19*
X-23951Y19665D03*
G54D32*
X-22492Y19381D03*
G54D50*
X-22478Y19262D03*
G54D12*
X-22482Y19320D03*
G54D32*
X-22397Y19452D03*
G54D50*
X-22453Y19262D03*
G54D13*
X-22450Y19320D03*
G54D19*
X-23006Y19074D03*
X-22967Y18996D03*
G54D54*
X-25295Y17585D03*
G54D55*
Y17678D03*
X-25128Y17685D03*
G54D54*
Y17585D03*
G54D10*
X-25084Y22811D03*
X-25179D03*
X-25084Y22906D03*
X-25179D03*
G54D11*
X-23954Y25400D03*
G54D12*
X-24012D03*
G54D13*
X-23583Y25357D03*
G54D14*
Y25399D03*
G54D15*
X-23631Y25408D03*
G54D16*
X-23673Y25432D03*
G54D11*
X-23732Y25452D03*
G54D17*
X-23783Y25995D03*
G54D13*
X-23666Y25510D03*
Y25545D03*
Y25580D03*
G54D18*
X-23428Y22462D03*
G54D19*
X-23360Y23641D03*
G54D18*
X-24066Y22462D03*
X-23302Y22431D03*
G54D70*
X-24074Y22215D03*
G54D19*
X-23518Y23720D03*
G54D18*
X-23940Y22430D03*
G54D19*
X-23439Y23641D03*
G54D18*
X-23302Y22525D03*
G54D71*
X-24173Y22194D03*
G54D18*
X-23940Y22525D03*
X-23302Y22399D03*
G54D19*
X-23518Y23759D03*
G54D70*
X-23971Y22217D03*
G54D18*
X-23940Y22399D03*
X-23302Y22462D03*
G54D19*
X-23557Y23641D03*
G54D70*
X-24113Y22215D03*
G54D18*
X-23940Y22462D03*
X-23428Y22368D03*
G54D19*
X-23321Y23720D03*
G54D18*
X-24066Y22367D03*
X-23302Y22368D03*
G54D19*
X-23557Y23720D03*
G54D70*
X-23932Y22217D03*
G54D18*
X-23940Y22367D03*
G54D19*
X-23478Y23720D03*
G54D18*
X-23302Y22494D03*
X-23940Y22493D03*
X-23428Y22431D03*
X-24066Y22430D03*
G54D19*
X-23360Y23759D03*
G54D18*
X-23459Y22462D03*
G54D19*
X-23400Y23720D03*
G54D18*
X-24097Y22462D03*
G54D70*
X-24054Y22215D03*
G54D19*
X-23478Y23602D03*
G54D18*
X-23270Y22431D03*
X-23908Y22430D03*
X-23459Y22431D03*
G54D19*
X-23360Y23602D03*
G54D18*
X-24097Y22430D03*
G54D19*
X-23557Y23602D03*
G54D18*
X-23270Y22399D03*
G54D70*
X-23952Y22217D03*
G54D18*
X-23908Y22399D03*
X-23459D03*
G54D19*
X-23360Y23720D03*
G54D18*
X-24097Y22399D03*
X-23270Y22368D03*
G54D19*
X-23557Y23759D03*
G54D70*
X-23912Y22217D03*
G54D18*
X-23908Y22367D03*
X-23428Y22399D03*
G54D19*
X-23321Y23759D03*
G54D18*
X-24066Y22399D03*
X-23459Y22494D03*
G54D19*
X-23400Y23641D03*
G54D18*
X-24097Y22493D03*
G54D70*
X-24094Y22215D03*
G54D18*
X-23270Y22462D03*
G54D19*
X-23478Y23759D03*
G54D18*
X-23908Y22462D03*
X-23428Y22494D03*
G54D19*
X-23400Y23602D03*
G54D18*
X-24066Y22493D03*
G54D12*
X-24270Y22599D03*
G54D19*
X-23597Y23602D03*
G54D16*
X-23704Y23094D03*
G54D18*
X-23877Y22556D03*
G54D19*
X-23321Y23602D03*
G54D18*
X-23239Y22557D03*
G54D13*
X-23038Y22489D03*
G54D16*
X-23614Y23194D03*
X-23344Y23367D03*
G54D18*
X-23302Y22588D03*
X-23940D03*
G54D19*
X-23872Y23641D03*
G54D18*
X-24066Y22714D03*
G54D19*
X-23793Y23602D03*
G54D18*
X-23940Y22682D03*
G54D19*
X-23911Y23720D03*
G54D18*
X-23908Y22777D03*
G54D19*
X-23754Y23720D03*
G54D18*
X-24097Y22777D03*
G54D19*
X-23872Y23720D03*
G54D18*
X-23940Y22840D03*
G54D19*
X-23715Y23720D03*
G54D18*
X-24097Y22840D03*
G54D19*
X-23911Y23759D03*
G54D18*
X-23908Y22808D03*
G54D19*
X-23793Y23759D03*
G54D18*
X-24066Y22840D03*
G54D19*
X-23203Y23759D03*
G54D18*
X-23428Y22714D03*
G54D19*
X-23124Y23759D03*
G54D18*
X-23302Y22683D03*
G54D19*
X-23203Y23720D03*
G54D18*
X-23459Y22683D03*
G54D19*
X-23085Y23759D03*
G54D18*
X-23270Y22683D03*
G54D19*
X-23911Y23602D03*
G54D18*
X-24097Y22682D03*
G54D19*
X-23124Y23720D03*
G54D18*
X-23428Y22620D03*
G54D19*
X-23045Y23759D03*
G54D18*
X-23270Y22620D03*
G54D19*
X-23242Y23720D03*
G54D18*
X-23459Y22651D03*
G54D19*
X-23045Y23720D03*
G54D18*
X-23302Y22620D03*
Y22746D03*
G54D19*
X-23163Y23602D03*
X-23045Y23641D03*
G54D18*
X-23428Y22777D03*
X-23270D03*
G54D19*
X-23203Y23641D03*
X-23045Y23602D03*
G54D18*
X-23459Y22777D03*
G54D19*
X-23163Y23641D03*
G54D18*
X-23302Y22840D03*
G54D19*
X-23085Y23602D03*
G54D18*
X-23459Y22840D03*
G54D19*
X-23754Y23602D03*
G54D18*
X-23908Y22682D03*
X-23270Y22809D03*
G54D19*
X-23203Y23602D03*
X-23085Y23641D03*
G54D18*
X-23428Y22840D03*
G54D19*
X-23793Y23641D03*
G54D18*
X-24066Y22619D03*
G54D19*
X-23715Y23602D03*
G54D18*
X-23908Y22619D03*
G54D19*
X-23911Y23641D03*
G54D18*
X-24097Y22651D03*
G54D19*
X-23715Y23641D03*
G54D18*
X-23940Y22619D03*
G54D19*
X-23872Y23759D03*
G54D18*
X-23940Y22745D03*
G54D19*
X-23793Y23720D03*
G54D18*
X-24066Y22777D03*
G54D19*
X-23754Y23641D03*
G54D18*
X-23940Y22714D03*
G54D19*
X-23754Y23759D03*
G54D18*
X-24066Y22745D03*
G54D19*
X-23085Y23720D03*
G54D18*
X-23302Y22714D03*
G54D19*
X-23006Y23602D03*
G54D18*
X-23428Y22746D03*
G54D19*
X-23833Y23602D03*
G54D18*
X-24066Y22682D03*
G54D19*
X-23833Y23759D03*
G54D18*
X-23940Y22777D03*
G54D19*
X-23163Y23720D03*
G54D18*
X-23428Y22683D03*
G54D19*
X-23124Y23602D03*
G54D18*
X-23302Y22777D03*
G54D12*
X-24270Y22504D03*
G54D19*
X-23597Y23720D03*
G54D18*
X-24129Y22556D03*
G54D19*
X-23282Y23720D03*
G54D13*
X-23038Y22446D03*
G54D18*
X-23491Y22557D03*
G54D16*
X-23557Y23093D03*
G54D13*
X-24640Y24706D03*
G54D20*
X-24740Y24701D03*
G54D19*
X-23675Y24547D03*
X-23557Y24468D03*
G54D21*
X-24694Y24671D03*
G54D13*
X-24576Y24668D03*
G54D19*
X-23675Y24507D03*
G54D16*
X-24743Y24372D03*
G54D20*
X-24787Y24468D03*
G54D19*
X-23557Y24586D03*
G54D21*
X-24694Y24577D03*
G54D19*
X-23557Y24547D03*
G54D21*
X-24694Y24592D03*
G54D13*
X-24640Y24595D03*
G54D71*
X-24785Y24387D03*
G54D20*
X-24803Y24468D03*
G54D70*
X-24882Y24384D03*
G54D20*
X-24881Y24468D03*
G54D70*
X-24862Y24384D03*
G54D20*
X-24850Y24468D03*
G54D70*
X-24843Y24384D03*
G54D20*
X-24834Y24468D03*
G54D70*
X-24823Y24384D03*
G54D20*
X-24818Y24468D03*
G54D12*
X-24988Y24391D03*
G54D71*
X-24954D03*
X-24919D03*
G54D20*
X-24897Y24468D03*
G54D13*
X-24665Y24782D03*
Y24747D03*
G54D16*
X-24700D03*
G54D20*
X-24755Y24701D03*
G54D13*
X-24709Y24384D03*
G54D20*
X-24755Y24468D03*
G54D13*
X-24611Y24496D03*
G54D21*
X-24694Y24529D03*
G54D71*
X-24979Y24463D03*
G54D21*
X-24927Y24498D03*
G54D20*
X-25187Y22722D03*
X-25045Y22994D03*
G54D22*
X-25019Y22194D03*
X-25405D03*
G54D23*
X-22586Y24537D03*
G54D22*
X-25019Y22297D03*
X-25405D03*
G54D24*
X-25236Y22487D03*
G54D71*
X-22556Y24517D03*
G54D24*
X-25069Y22492D03*
G54D25*
X-25146Y22305D03*
G54D12*
X-22418Y24084D03*
X-24829Y22780D03*
G54D26*
X-24039Y25995D03*
G54D27*
X-23726Y25817D03*
G54D28*
Y25887D03*
G54D29*
X-23105Y25643D03*
G54D12*
X-22894Y25546D03*
G54D13*
X-23100Y25547D03*
G54D71*
X-23465Y25513D03*
G54D72*
X-23536Y25531D03*
X-23511D03*
G54D73*
X-21863Y23900D03*
G54D14*
X-21917D03*
G54D15*
X-22066Y25182D03*
G54D13*
X-22471Y25222D03*
G54D28*
X-22072Y24925D03*
X-22155D03*
G54D71*
X-21957Y24809D03*
X-21919D03*
X-22015Y24897D03*
G54D13*
X-22634Y24780D03*
G54D71*
X-23442Y24830D03*
G54D12*
X-24749Y24772D03*
G54D13*
X-22207Y24609D03*
G54D16*
X-21833Y24637D03*
G54D30*
X-22074Y24718D03*
G54D13*
X-22210Y24653D03*
G54D31*
X-22400Y24674D03*
G54D13*
X-22634Y24745D03*
G54D28*
X-22378Y24549D03*
X-22464Y24547D03*
G54D71*
X-22520Y24517D03*
G54D27*
X-22377Y24341D03*
X-22465D03*
G54D16*
X-22520Y24371D03*
G54D73*
X-22275Y24130D03*
G54D32*
X-22397Y24145D03*
X-22492Y24215D03*
G54D13*
X-22005Y24030D03*
G54D12*
X-22297Y24052D03*
G54D16*
X-22427Y23711D03*
G54D12*
X-22803Y23632D03*
G54D19*
X-23951Y23720D03*
Y23681D03*
G54D31*
X-22577Y23488D03*
G54D27*
X-22201Y23288D03*
G54D16*
X-22260Y23309D03*
G54D15*
X-22410Y23307D03*
X-22464D03*
G54D73*
X-25402Y23111D03*
G54D15*
X-25333Y23108D03*
G54D14*
X-25553Y23111D03*
G54D31*
X-22007Y22998D03*
G54D73*
X-25402Y23063D03*
G54D14*
X-25553D03*
G54D13*
X-25536Y23017D03*
G54D33*
X-21777Y22824D03*
G54D13*
X-21859Y22863D03*
X-24833Y22878D03*
G54D14*
X-24838Y22920D03*
G54D31*
X-22633Y22643D03*
G54D71*
X-22675Y22625D03*
G54D34*
X-22567Y22523D03*
G54D35*
X-22626Y22526D03*
G54D12*
X-22641Y22464D03*
G54D14*
X-22893Y22503D03*
G54D73*
X-22984Y22539D03*
X-22482Y22368D03*
G54D12*
X-22497Y22327D03*
G54D14*
X-22651Y22370D03*
G54D36*
X-22933Y21479D03*
G54D16*
X-22304Y22424D03*
G54D12*
X-22497Y22293D03*
G54D13*
X-22637Y22294D03*
X-22636Y22329D03*
X-24852Y22555D03*
G54D37*
X-24893Y22617D03*
G54D24*
X-25111Y22561D03*
G54D38*
X-21930Y25308D03*
G54D12*
X-22498Y22258D03*
G54D13*
X-22637Y22260D03*
G54D12*
X-22297Y24087D03*
Y24017D03*
G54D39*
X-24937Y23811D03*
X-24976Y23851D03*
X-24799Y23890D03*
X-24878Y23870D03*
X-25055Y23890D03*
X-24838Y23930D03*
X-24917Y23910D03*
X-24956D03*
X-25035D03*
X-25055Y23930D03*
X-25035Y23969D03*
G54D29*
X-23223Y25643D03*
X-23282D03*
X-23341D03*
X-23400D03*
G54D40*
X-23528Y25670D03*
G54D41*
Y25905D03*
G54D40*
X-22957Y25670D03*
G54D41*
Y25905D03*
G54D12*
X-22528Y25593D03*
X-23634Y25580D03*
G54D73*
X-22404Y25586D03*
G54D12*
X-22528Y25556D03*
G54D42*
X-23254Y25522D03*
Y25484D03*
X-23383Y25522D03*
Y25484D03*
G54D31*
X-23631Y25462D03*
G54D71*
X-23673Y25464D03*
G54D13*
X-24585Y25469D03*
G54D12*
X-24482D03*
G54D73*
X-23529Y25399D03*
G54D11*
X-23954Y25375D03*
Y25298D03*
G54D16*
X-24012Y25292D03*
G54D15*
X-24054Y25270D03*
G54D14*
X-24202Y25320D03*
Y25368D03*
G54D16*
X-23828Y25203D03*
G54D31*
X-24041Y25205D03*
G54D43*
X-24186Y25257D03*
G54D31*
X-24089Y25205D03*
G54D13*
X-24309Y25147D03*
G54D16*
X-21966Y24965D03*
Y25040D03*
G54D44*
X-22232Y24960D03*
G54D71*
X-23049Y24748D03*
X-23084D03*
X-23429D03*
X-23395D03*
X-24700Y24779D03*
G54D45*
X-24753Y24831D03*
G54D13*
X-24856Y24772D03*
G54D45*
X-24852Y24906D03*
G54D46*
X-22491Y24658D03*
G54D71*
X-22442Y24653D03*
G54D13*
X-23494Y24717D03*
X-23503Y24778D03*
G54D19*
X-23754Y24586D03*
X-23636D03*
X-23911D03*
G54D12*
X-24527Y24595D03*
X-24544Y24668D03*
X-25030Y24821D03*
G54D13*
X-25126D03*
X-25380D03*
G54D12*
X-25284D03*
G54D47*
X-21756Y24391D03*
G54D12*
X-22587Y24574D03*
G54D71*
X-22729Y24467D03*
G54D16*
X-22835Y24500D03*
G54D71*
Y24467D03*
G54D19*
X-23124Y24507D03*
X-23085D03*
X-23006D03*
X-22967Y24547D03*
X-23242Y24507D03*
X-23203D03*
X-23439Y24547D03*
X-23400D03*
X-23360D03*
X-23321Y24507D03*
X-23282D03*
X-23518Y24547D03*
X-23478D03*
X-23872Y24468D03*
X-23911Y24507D03*
X-23833Y24468D03*
Y24507D03*
X-23951Y24547D03*
X-23911D03*
G54D13*
X-24112Y24528D03*
G54D12*
X-24579Y24530D03*
G54D48*
X-21907Y24292D03*
G54D33*
X-22709Y24282D03*
G54D19*
X-22967Y24350D03*
G54D49*
X-22796Y24311D03*
G54D16*
X-22835Y24357D03*
G54D19*
X-23321Y24389D03*
X-23400D03*
Y24429D03*
X-23360Y24311D03*
X-23400D03*
X-23360Y24232D03*
X-23282Y24389D03*
Y24429D03*
Y24311D03*
X-23321D03*
X-23557D03*
X-23597D03*
X-23518D03*
X-23754Y24350D03*
X-23675Y24271D03*
X-23833Y24389D03*
Y24429D03*
X-23872D03*
Y24311D03*
Y24271D03*
X-23911Y24429D03*
G54D13*
X-24112Y24334D03*
Y24278D03*
G54D16*
X-24954Y24359D03*
G54D12*
X-22297Y24172D03*
G54D13*
X-22514Y24084D03*
G54D37*
X-22652Y24055D03*
G54D19*
X-22967Y24192D03*
G54D71*
X-22834Y24166D03*
G54D16*
X-22835Y24234D03*
G54D19*
X-23242Y24192D03*
Y24232D03*
X-23400Y24114D03*
Y24153D03*
X-23439Y24114D03*
Y24153D03*
X-23360Y24192D03*
X-23321Y24232D03*
Y24192D03*
X-23518Y24153D03*
X-23557Y24232D03*
Y24192D03*
X-23518Y24114D03*
X-23478Y24153D03*
Y24114D03*
X-23675D03*
Y24192D03*
X-23597Y24232D03*
Y24192D03*
X-23833D03*
X-23872D03*
Y24232D03*
G54D47*
X-21756Y23976D03*
G54D48*
X-21907Y24075D03*
G54D12*
X-22804Y24089D03*
G54D71*
X-22800Y24056D03*
G54D16*
Y23960D03*
G54D37*
X-22727Y23957D03*
G54D19*
X-23242Y24074D03*
Y24035D03*
X-23360Y23996D03*
Y23956D03*
X-23400Y24074D03*
Y24035D03*
X-23439D03*
X-23321Y23996D03*
Y23956D03*
X-23518Y24074D03*
X-23557Y23956D03*
Y23996D03*
X-23518Y24035D03*
X-23439Y24074D03*
X-23478Y24035D03*
Y24074D03*
X-23675Y23996D03*
X-23597D03*
Y23956D03*
X-23675Y23917D03*
X-23951Y24074D03*
Y23956D03*
G54D23*
X-24542Y23983D03*
G54D12*
X-24546Y24019D03*
G54D16*
X-21866Y23819D03*
G54D12*
X-22329Y23852D03*
X-22567Y23821D03*
G54D50*
X-22504Y23804D03*
G54D12*
X-22800Y23916D03*
G54D19*
X-22967Y23877D03*
G54D16*
X-22835Y23848D03*
G54D19*
X-23242Y23877D03*
Y23917D03*
X-23282Y23877D03*
X-23242Y23799D03*
X-23400D03*
X-23360D03*
X-23400Y23759D03*
Y23877D03*
X-23557Y23799D03*
X-23518Y23877D03*
X-23675Y23799D03*
Y23877D03*
X-23636D03*
X-23793Y23799D03*
G54D16*
X-21902Y23747D03*
G54D19*
X-23045Y23681D03*
X-23085D03*
X-23124D03*
X-22967D03*
X-23006D03*
X-23163D03*
X-23203D03*
X-23242D03*
X-23282D03*
X-23360D03*
X-23321D03*
X-23400D03*
X-23439D03*
X-23518D03*
X-23557D03*
X-23478D03*
X-23675Y23759D03*
Y23720D03*
Y23681D03*
X-23715D03*
X-23597D03*
X-23636Y23720D03*
Y23681D03*
Y23759D03*
X-23911Y23681D03*
X-23872D03*
X-23793D03*
X-23833D03*
X-23754D03*
X-23911Y23799D03*
X-23951Y23759D03*
G54D16*
X-21926Y23519D03*
X-21891D03*
Y23619D03*
G54D51*
X-22510Y23526D03*
G54D44*
X-21855Y23406D03*
G54D12*
X-21879Y23352D03*
G54D13*
X-21809Y23340D03*
G54D52*
X-22346Y23347D03*
G54D16*
X-22509Y23326D03*
X-22544D03*
X-24010Y23407D03*
G54D71*
X-21789Y23180D03*
G54D31*
X-21868Y23195D03*
X-21921D03*
G54D53*
X-21915Y23261D03*
G54D71*
X-21825Y23180D03*
X-22244Y23242D03*
G54D13*
X-22358Y23194D03*
Y23229D03*
G54D71*
X-23557Y23125D03*
X-23704Y23126D03*
X-23759D03*
X-23612Y23125D03*
X-23614Y23226D03*
X-24940Y23073D03*
X-24979D03*
X-25182Y23089D03*
X-25255D03*
X-25219D03*
G54D13*
X-25148Y23109D03*
G54D71*
X-25360Y23019D03*
X-21965Y22982D03*
G54D21*
X-24996Y22945D03*
G54D20*
X-25171Y22994D03*
G54D71*
X-25325Y23019D03*
G54D13*
X-25355Y22948D03*
X-25356Y22908D03*
G54D18*
X-23239Y22809D03*
Y22840D03*
X-23428Y22809D03*
X-23491D03*
X-23877Y22840D03*
Y22808D03*
X-24066D03*
X-24129D03*
G54D13*
X-24302Y22799D03*
G54D20*
X-25077Y22722D03*
G54D16*
X-25405Y22821D03*
G54D13*
X-25356Y22834D03*
X-25355Y22734D03*
X-25356Y22783D03*
G54D12*
X-23006Y22634D03*
G54D18*
X-23239Y22683D03*
X-23270Y22714D03*
X-23239Y22651D03*
X-23270Y22746D03*
Y22651D03*
X-23491D03*
Y22746D03*
Y22714D03*
X-23459D03*
X-23908Y22745D03*
Y22651D03*
Y22714D03*
X-23877Y22682D03*
Y22651D03*
X-24129D03*
X-24097Y22714D03*
X-24129D03*
Y22745D03*
G54D13*
X-24302Y22716D03*
G54D14*
X-24329Y22669D03*
G54D54*
X-25065Y22671D03*
G54D20*
X-25092Y22722D03*
G54D55*
X-25090Y22586D03*
X-25253Y22580D03*
X-25168Y22586D03*
G54D20*
X-25171Y22722D03*
G54D54*
X-25196Y22671D03*
X-25228Y22672D03*
G54D24*
X-25278Y22555D03*
G54D55*
X-25337Y22580D03*
G54D54*
X-25363Y22672D03*
G54D25*
X-25313Y22555D03*
G54D12*
X-23006Y22584D03*
G54D18*
X-23270Y22588D03*
X-23239Y22494D03*
X-23491D03*
X-23459Y22588D03*
X-23908D03*
X-23877Y22493D03*
X-24129D03*
Y22430D03*
G54D12*
X-24270Y22554D03*
G54D18*
X-24097Y22588D03*
G54D12*
X-22847Y22405D03*
X-23006Y22360D03*
G54D18*
X-23239Y22431D03*
Y22368D03*
X-23491Y22431D03*
Y22368D03*
X-23877Y22430D03*
Y22367D03*
X-24129D03*
G54D12*
X-24270Y22382D03*
Y22434D03*
G54D71*
X-23427Y22184D03*
X-23875Y22171D03*
G54D12*
X-24280Y22273D03*
G54D73*
X-24265Y22204D03*
G54D56*
X-23472Y21856D03*
X-23739D03*
G54D12*
X-23865Y21709D03*
G54D73*
X-23843Y21666D03*
G54D12*
X-24454Y23738D03*
G54D25*
X-25146Y22561D03*
G54D71*
X-25027Y23086D03*
G54D12*
X-25049Y23109D03*
G54D16*
X-23931Y25205D03*
X-23896D03*
G54D37*
X-24818Y22716D03*
G54D25*
X-25313Y22305D03*
G54D16*
X-21919Y24777D03*
X-21957D03*
G54D71*
X-21921Y24744D03*
X-21957D03*
G54D21*
X-22010Y24700D03*
G54D19*
X-23242Y24389D03*
Y24429D03*
X-23203D03*
X-23321D03*
X-23045Y24350D03*
G54D12*
X-23054Y25339D03*
G54D57*
Y25391D03*
G54D19*
X-23163Y24429D03*
X-23124D03*
G54D16*
X-25395Y22987D03*
X-25360D03*
X-25325D03*
G54D21*
X-25268Y22961D03*
G54D19*
X-23085Y24350D03*
X-22967Y24114D03*
G54D48*
X-21907Y24174D03*
G54D13*
X-25035Y22655D03*
G54D55*
X-25065Y22654D03*
X-25091D03*
G54D20*
X-25108Y22722D03*
G54D55*
X-25168Y22654D03*
X-25196D03*
X-25255Y22655D03*
X-25228D03*
X-25335D03*
X-25363D03*
G54D71*
X-25397D03*
G54D20*
X-25203Y22722D03*
G54D19*
X-23085Y24389D03*
G54D16*
X-21826Y22791D03*
G54D12*
X-21888Y24997D03*
X-21887Y24956D03*
G54D58*
X-24060Y21755D03*
G54D13*
X-21919Y24956D03*
G54D57*
X-21810Y23020D03*
G54D71*
X-24009Y21753D03*
G54D16*
X-21789Y23148D03*
X-21825D03*
G54D13*
X-21774Y23109D03*
G54D15*
X-21868Y23141D03*
X-21921D03*
G54D59*
X-22047Y23124D03*
G54D13*
X-21774Y23073D03*
G54D51*
X-21902Y23026D03*
G54D12*
X-21712Y23304D03*
Y23340D03*
G54D54*
X-25091Y22671D03*
X-25117D03*
G54D20*
X-25124Y22722D03*
X-25218D03*
G54D54*
X-25255Y22672D03*
X-25282D03*
X-25168Y22671D03*
X-25142D03*
G54D20*
X-25140Y22722D03*
X-25234D03*
G54D54*
X-25335Y22672D03*
X-25307D03*
G54D29*
X-23301Y25643D03*
G54D71*
X-23298Y25437D03*
G54D20*
X-23294Y25484D03*
Y25522D03*
G54D29*
X-23262Y25643D03*
G54D71*
X-23264Y25437D03*
G54D20*
X-23274Y25484D03*
Y25522D03*
G54D29*
X-23361Y25643D03*
G54D71*
X-23366Y25437D03*
G54D20*
X-23364Y25522D03*
Y25484D03*
G54D29*
X-23321Y25643D03*
G54D71*
X-23332Y25437D03*
G54D20*
X-23344Y25522D03*
Y25484D03*
G54D29*
X-23420Y25643D03*
G54D71*
X-23434Y25437D03*
G54D20*
X-23423Y25522D03*
Y25484D03*
G54D29*
X-23380Y25643D03*
G54D71*
X-23400Y25437D03*
G54D20*
X-23403Y25522D03*
Y25484D03*
G54D29*
X-23242Y25643D03*
G54D20*
X-23235Y25522D03*
G54D71*
X-23230Y25437D03*
G54D20*
X-23235Y25484D03*
G54D29*
X-23203Y25643D03*
G54D20*
X-23215Y25522D03*
G54D71*
X-23196Y25437D03*
G54D20*
X-23215Y25484D03*
G54D71*
X-21854Y23583D03*
G54D48*
X-21907Y24213D03*
G54D19*
X-23163Y24074D03*
G54D71*
X-21855Y23683D03*
G54D19*
X-23124Y24074D03*
G54D48*
X-21907Y24253D03*
G54D19*
X-23793Y24389D03*
Y24468D03*
Y24507D03*
Y24429D03*
G54D18*
X-23302Y22651D03*
X-23491Y22683D03*
X-23239Y22777D03*
Y22714D03*
G54D15*
X-22577Y23434D03*
G54D60*
X-22397Y23432D03*
G54D31*
X-22464Y23361D03*
X-22410D03*
G54D71*
X-22544Y23358D03*
X-22509D03*
G54D61*
X-22510Y23421D03*
G54D18*
X-24129Y22399D03*
X-23877Y22777D03*
X-23908Y22840D03*
X-23239Y22746D03*
X-23491Y22777D03*
X-23459Y22746D03*
X-23239Y22620D03*
G54D19*
X-23085Y23799D03*
X-23124D03*
X-23163D03*
X-23321Y23877D03*
X-23203Y23799D03*
X-23439D03*
X-23478D03*
Y23877D03*
X-23439D03*
X-23360D03*
X-23557D03*
X-23597D03*
X-23518Y23799D03*
X-23715D03*
X-23754D03*
X-23951D03*
X-23636Y23641D03*
X-23675D03*
X-23715Y23759D03*
X-23636Y23602D03*
X-23675D03*
G54D18*
X-23270Y22840D03*
X-23459Y22809D03*
X-23491Y22840D03*
X-24129D03*
X-24097Y22808D03*
X-24129Y22777D03*
G54D12*
X-24270Y22799D03*
G54D18*
X-23459Y22620D03*
X-23877Y22745D03*
X-23940Y22651D03*
X-23877Y22619D03*
Y22714D03*
X-24097Y22619D03*
Y22745D03*
X-24129Y22682D03*
G54D13*
X-24302Y22756D03*
G54D73*
X-22839Y22503D03*
G54D18*
X-23270Y22557D03*
X-23239Y22462D03*
X-23459Y22557D03*
X-23491Y22462D03*
X-23908Y22556D03*
X-23877Y22462D03*
X-24097Y22556D03*
X-24129Y22462D03*
G54D13*
X-24302Y22554D03*
G54D18*
X-23239Y22399D03*
X-23491D03*
X-23877D03*
G54D16*
X-22285Y23138D03*
X-22244D03*
G54D71*
X-21839Y24743D03*
G54D15*
X-22633Y22589D03*
G54D34*
X-22567Y22573D03*
G54D16*
X-22675Y22592D03*
G54D35*
X-22673Y22526D03*
G54D13*
X-22358Y23159D03*
X-22619Y24574D03*
G54D62*
X-22622Y24537D03*
G54D46*
X-22598Y24621D03*
G54D19*
X-23833Y24311D03*
Y24350D03*
X-23754Y24192D03*
X-23793D03*
G54D27*
X-22072Y24855D03*
G54D16*
X-22015Y24865D03*
G54D27*
X-22155Y24855D03*
G54D63*
X-22883Y25475D03*
G54D43*
X-24149Y25150D03*
G54D15*
X-24089Y25151D03*
X-24041D03*
G54D13*
X-22560Y25593D03*
Y25556D03*
G54D64*
X-22317Y25215D03*
G54D65*
X-22306Y25080D03*
G54D12*
X-22439Y25222D03*
G54D66*
X-22302Y24960D03*
G54D30*
X-22047Y24718D03*
G54D71*
X-21877Y24743D03*
G54D28*
X-22201Y23358D03*
G54D71*
X-22260Y23341D03*
G54D52*
X-22307Y23347D03*
G54D16*
X-23465Y25481D03*
G54D72*
X-23511Y25452D03*
G54D12*
X-23865Y21744D03*
G54D21*
X-24996Y22803D03*
G54D20*
X-25045Y22722D03*
G54D12*
X-24801Y22878D03*
G54D73*
X-24784Y22920D03*
G54D67*
X-24814Y23003D03*
G54D20*
X-25061Y22722D03*
X-25077Y22994D03*
G54D12*
X-25324Y22783D03*
G54D21*
X-25268Y22835D03*
X-24996Y22866D03*
G54D20*
X-25155Y22722D03*
G54D19*
X-22967Y23917D03*
X-23006D03*
X-23124D03*
X-23163D03*
X-23124Y23838D03*
X-23163Y23877D03*
G54D16*
X-24940Y22866D03*
G54D21*
X-24996Y22882D03*
G54D12*
X-25503Y23017D03*
G54D13*
X-25357Y22869D03*
G54D71*
X-25405Y22853D03*
G54D13*
X-25430Y22889D03*
G54D71*
X-25403Y22954D03*
G54D73*
X-25499Y23111D03*
G54D14*
X-25456Y23063D03*
Y23111D03*
G54D73*
X-25499Y23063D03*
G54D66*
X-25460Y23175D03*
G54D71*
X-25395Y23019D03*
G54D16*
X-24979Y23041D03*
X-24940D03*
G54D20*
X-25029Y22994D03*
G54D71*
X-25292Y23089D03*
G54D21*
X-25268Y22850D03*
G54D12*
X-25324Y22834D03*
G54D20*
X-25029Y22722D03*
G54D16*
X-24868Y22835D03*
G54D12*
X-24910Y22817D03*
G54D21*
X-24996Y22787D03*
G54D16*
X-25397Y22623D03*
G54D12*
X-25003Y22655D03*
G54D20*
X-25124Y22994D03*
G54D19*
X-23518Y24507D03*
X-23478D03*
X-23360D03*
X-23439D03*
X-23400D03*
X-23833Y23799D03*
X-23872D03*
X-23282D03*
X-23321D03*
X-23597D03*
X-23006Y23720D03*
X-23636Y23799D03*
G54D12*
X-24270Y22756D03*
G54D73*
X-24275Y22669D03*
G54D12*
X-24270Y22716D03*
G54D18*
X-23908Y22493D03*
X-24129Y22619D03*
G54D13*
X-23038Y22634D03*
G54D18*
X-23491Y22620D03*
G54D13*
X-23038Y22584D03*
G54D14*
Y22539D03*
G54D18*
X-23270Y22494D03*
G54D13*
X-22530Y22258D03*
G54D12*
X-22605Y22260D03*
G54D13*
X-22529Y22327D03*
G54D14*
X-22536Y22368D03*
G54D73*
X-22597Y22370D03*
G54D34*
X-22567Y22423D03*
G54D13*
X-22529Y22293D03*
G54D12*
X-22604Y22329D03*
X-22605Y22294D03*
X-23006Y22489D03*
Y22446D03*
Y22403D03*
G54D13*
X-22879Y22405D03*
G54D16*
X-23427Y22152D03*
G54D13*
X-24312Y22273D03*
G54D16*
X-23875Y22139D03*
G54D70*
X-23912Y22171D03*
X-23932D03*
G54D13*
X-24302Y22382D03*
Y22504D03*
Y22599D03*
Y22434D03*
G54D14*
X-24319Y22204D03*
G54D16*
X-24218Y22162D03*
X-24173D03*
G54D70*
X-23971Y22171D03*
X-23952D03*
X-24113Y22169D03*
X-24094D03*
X-24074D03*
X-24054D03*
G54D19*
X-23124Y23877D03*
G54D16*
X-25255Y23057D03*
G54D20*
X-25203Y22994D03*
G54D16*
X-25182Y23057D03*
G54D20*
X-25155Y22994D03*
G54D71*
X-22557Y23901D03*
G54D37*
X-22652Y23957D03*
G54D71*
X-22800Y23992D03*
G54D19*
X-22967Y23996D03*
G54D16*
X-22835Y23992D03*
G54D19*
X-23911Y24074D03*
Y24035D03*
G54D39*
X-24799Y23949D03*
G54D13*
X-24501Y23943D03*
G54D19*
X-23911Y24114D03*
G54D39*
X-24799Y23930D03*
G54D13*
X-24501Y23897D03*
G54D19*
X-23951Y24114D03*
G54D39*
X-24799Y23910D03*
G54D13*
X-24500Y23855D03*
G54D19*
X-23754Y24114D03*
G54D39*
X-24819Y23969D03*
G54D13*
X-24579Y23943D03*
G54D19*
X-23754Y24074D03*
G54D39*
X-24819Y23949D03*
G54D13*
X-24579Y23902D03*
G54D19*
X-23754Y24153D03*
G54D39*
X-24819Y23930D03*
G54D19*
X-23793Y24074D03*
G54D13*
X-24579Y23861D03*
G54D39*
X-24819Y23910D03*
G54D19*
X-23833Y24074D03*
G54D13*
X-24580Y23820D03*
G54D39*
X-24819Y23890D03*
G54D19*
X-23793Y24114D03*
G54D13*
X-24505Y23803D03*
G54D29*
X-23164Y25643D03*
G54D68*
X-23789Y25633D03*
G54D69*
X-24045Y25652D03*
G54D74*
X-25182Y24905D03*
X-25232D03*
Y25242D03*
X-25182D03*
G54D39*
X-24976Y23733D03*
X-24996D03*
X-25016D03*
X-25035D03*
X-25055D03*
X-24976Y23772D03*
Y23752D03*
X-24996Y23772D03*
Y23752D03*
X-25016Y23772D03*
Y23752D03*
X-25035Y23772D03*
Y23752D03*
X-25055Y23772D03*
Y23752D03*
X-24976Y23811D03*
X-25016D03*
Y23792D03*
X-25035Y23811D03*
Y23792D03*
X-25055Y23811D03*
Y23792D03*
X-25016Y23831D03*
X-25035D03*
X-25055D03*
X-25016Y23851D03*
X-25035D03*
X-25055D03*
X-24976Y23890D03*
Y23870D03*
X-25016D03*
X-25035Y23890D03*
Y23870D03*
X-25055D03*
X-24976Y23969D03*
Y23949D03*
X-24996Y23969D03*
Y23949D03*
X-25016Y23969D03*
Y23949D03*
X-25035D03*
X-25055Y23969D03*
X-24976Y23989D03*
X-24996D03*
X-25016D03*
X-25035D03*
X-25055D03*
X-24878Y23733D03*
X-24897D03*
X-24917D03*
X-24937D03*
X-24956D03*
X-24878Y23772D03*
Y23752D03*
X-24897Y23772D03*
Y23752D03*
X-24917Y23772D03*
Y23752D03*
X-24937Y23772D03*
Y23752D03*
X-24956Y23772D03*
Y23752D03*
X-24878Y23811D03*
X-24897D03*
X-24917D03*
X-24878Y23831D03*
X-24858Y23930D03*
X-24878Y23851D03*
Y23910D03*
X-24937D03*
X-24858Y23969D03*
Y23949D03*
Y23989D03*
X-24878Y23969D03*
Y23949D03*
X-24897Y23969D03*
Y23949D03*
X-24917Y23969D03*
Y23949D03*
X-24937Y23969D03*
Y23949D03*
X-24956Y23969D03*
Y23949D03*
X-24878Y23989D03*
X-24897D03*
X-24917D03*
X-24937D03*
X-24956D03*
X-24799Y23733D03*
X-24819D03*
X-24838D03*
X-24858D03*
X-24799Y23772D03*
Y23752D03*
X-24819Y23772D03*
Y23752D03*
X-24838Y23772D03*
Y23752D03*
X-24858Y23772D03*
Y23752D03*
X-24799Y23811D03*
Y23792D03*
X-24819Y23811D03*
Y23792D03*
X-24838Y23811D03*
Y23792D03*
X-24799Y23831D03*
X-24819D03*
X-24838D03*
X-24799Y23851D03*
X-24819D03*
X-24838D03*
X-24799Y23870D03*
X-24819D03*
X-24838D03*
Y23910D03*
X-24799Y23969D03*
X-24838Y23949D03*
X-24799Y23989D03*
X-24819D03*
X-24838D03*
G54D21*
X-24927Y24529D03*
Y24545D03*
Y24561D03*
Y24577D03*
Y24640D03*
G54D20*
X-24881Y24701D03*
X-24850D03*
X-24834D03*
G54D21*
X-24996Y22913D03*
Y22835D03*
Y22850D03*
G54D20*
X-25140Y22994D03*
G54D21*
X-25268Y22945D03*
Y22913D03*
Y22898D03*
G54D20*
X-25234Y22994D03*
G54D21*
X-25268Y22787D03*
Y22803D03*
Y22756D03*
Y22772D03*
G54D19*
X-23872Y23838D03*
X-23951Y23877D03*
X-23911Y23956D03*
Y23996D03*
X-23872D03*
Y24035D03*
Y24074D03*
Y24114D03*
X-23911Y24232D03*
Y24271D03*
X-23951Y24232D03*
Y24271D03*
X-23911Y24311D03*
Y24350D03*
X-23951Y24311D03*
Y24350D03*
X-23872Y24547D03*
Y24586D03*
X-23793Y23917D03*
X-23833Y23996D03*
Y24035D03*
X-23793Y23996D03*
Y24035D03*
X-23833Y24114D03*
Y24271D03*
X-23793Y24547D03*
X-23833Y24586D03*
X-23793D03*
X-23754Y23838D03*
Y23917D03*
Y23996D03*
Y24035D03*
Y24271D03*
Y24311D03*
X-23675Y24389D03*
X-23715D03*
X-23754D03*
X-23675Y24429D03*
Y24468D03*
X-23754Y24429D03*
Y24468D03*
X-23715Y24429D03*
Y24468D03*
X-23754Y24507D03*
Y24547D03*
X-23715Y24507D03*
Y24547D03*
X-23518Y23602D03*
Y23641D03*
X-23478D03*
X-23518Y24389D03*
Y24429D03*
Y24468D03*
X-23478D03*
X-23518Y24586D03*
X-23478D03*
X-23360Y24389D03*
Y24429D03*
X-23439Y24586D03*
X-23282Y23602D03*
Y23641D03*
X-23242Y23759D03*
X-23163Y23996D03*
Y24035D03*
Y24114D03*
Y24153D03*
Y24192D03*
Y24232D03*
Y24271D03*
Y24311D03*
X-23045Y23996D03*
X-23085Y24035D03*
X-23045D03*
X-23124D03*
X-23045Y24074D03*
X-23085D03*
Y24114D03*
X-23045D03*
X-23124D03*
X-23045Y24153D03*
X-23124D03*
X-23085D03*
Y24192D03*
X-23045D03*
X-23124D03*
X-23045Y24232D03*
X-23124D03*
X-23085D03*
Y24271D03*
X-23045D03*
X-23124D03*
X-23085Y24311D03*
X-23045D03*
X-23124D03*
Y24389D03*
X-23045Y24468D03*
X-23085Y24547D03*
X-23045D03*
X-23124D03*
X-23085Y24586D03*
X-23045D03*
X-23124D03*
X-23006Y23641D03*
X-22967D03*
X-23006Y23759D03*
X-22967Y24035D03*
X-23006Y24074D03*
X-22967D03*
X-23006Y24114D03*
Y24153D03*
Y24192D03*
Y24232D03*
Y24271D03*
X-22967Y24232D03*
Y24271D03*
X-23006Y24311D03*
Y24350D03*
Y24389D03*
X-22967Y24468D03*
X-23006Y24547D03*
X-22967Y24507D03*
X-23006Y24586D03*
G54D18*
X-23877Y22525D03*
X-24129D03*
X-23877Y22588D03*
X-24129D03*
X-23239Y22525D03*
X-23491D03*
X-23239Y22588D03*
X-23491D03*
G54D46*
X-22598Y24696D03*
G54D71*
X-23828Y25235D03*
G54D19*
X-23163Y24389D03*
G54D11*
X-23732Y25324D03*
G54D71*
X-23344Y23399D03*
G54D19*
X-23242Y23602D03*
G54D71*
X-23299Y23399D03*
G54D19*
X-23242Y23641D03*
G54D12*
X-23471Y24778D03*
X-23634Y25545D03*
G54D72*
X-23562Y25531D03*
G54D19*
X-23400Y24586D03*
G54D12*
X-23462Y24717D03*
G54D21*
X-24927Y24608D03*
G54D12*
X-25348Y24821D03*
G54D74*
X-25382Y24905D03*
G54D21*
X-24927Y24624D03*
G54D13*
X-25316Y24821D03*
G54D74*
X-25282Y24905D03*
G54D21*
X-24927Y24655D03*
G54D74*
X-25132Y24905D03*
G54D12*
X-25094Y24821D03*
G54D21*
X-24927Y24671D03*
G54D74*
X-25032Y24905D03*
G54D13*
X-25062Y24821D03*
G54D19*
X-23439Y23759D03*
G54D18*
X-23428Y22557D03*
X-24066Y22556D03*
G54D16*
X-23299Y23367D03*
G54D18*
X-23940Y22556D03*
X-23302Y22557D03*
G54D19*
X-23597Y23759D03*
G54D18*
X-24097Y22525D03*
G54D19*
X-23321Y23641D03*
G54D13*
X-23038Y22403D03*
G54D16*
X-23612Y23093D03*
G54D18*
X-23459Y22525D03*
G54D19*
X-23833Y23641D03*
G54D18*
X-24066Y22651D03*
G54D19*
X-23833Y23720D03*
G54D18*
X-23940Y22808D03*
G54D19*
X-23163Y23759D03*
G54D18*
X-23428Y22651D03*
G54D19*
X-23124Y23641D03*
G54D18*
X-23302Y22809D03*
X-23428Y22588D03*
G54D19*
X-23439Y23602D03*
G54D18*
X-24066Y22588D03*
G54D19*
X-23597Y23641D03*
G54D16*
X-23759Y23094D03*
G54D71*
X-24218Y22194D03*
G54D18*
X-24097Y22367D03*
G54D19*
X-23282Y23759D03*
G54D18*
X-23459Y22368D03*
X-23428Y22525D03*
G54D19*
X-23439Y23720D03*
G54D18*
X-24066Y22525D03*
G54D75*
X-24633Y24393D03*
G54D20*
X-24740Y24468D03*
G54D75*
X-24633Y24412D03*
G54D20*
X-24724Y24468D03*
G54D75*
X-24633Y24432D03*
G54D21*
X-24694Y24498D03*
G54D75*
X-24633Y24452D03*
G54D21*
X-24694Y24514D03*
G54D19*
X-23872Y24153D03*
G54D74*
X-25382Y25242D03*
X-25282D03*
X-25132D03*
X-25032D03*
G54D71*
X-22729Y24400D03*
G54D16*
Y24435D03*
X-22764D03*
G54D19*
X-23045Y24389D03*
G54D13*
X-22800Y24362D03*
Y24397D03*
G54D19*
X-22967Y24389D03*
G54D71*
X-22835D03*
G54D49*
X-23231Y24815D03*
G54D19*
X-23242Y24547D03*
G54D49*
X-23262Y24815D03*
G54D19*
X-23242Y24586D03*
G54D49*
X-23295Y24815D03*
G54D19*
X-23282Y24547D03*
G54D49*
X-23326Y24815D03*
G54D19*
X-23282Y24586D03*
G54D49*
X-23359Y24815D03*
G54D19*
X-23321Y24547D03*
G54D49*
X-23390Y24815D03*
G54D19*
X-23321Y24586D03*
G54D49*
X-23167Y24815D03*
G54D19*
X-23203Y24547D03*
G54D49*
X-23198Y24815D03*
G54D19*
X-23203Y24586D03*
X-23163D03*
Y24547D03*
G54D12*
X-22961Y25546D03*
G54D13*
X-22926D03*
G54D19*
X-23163Y24507D03*
G54D71*
X-24868Y22867D03*
G54D21*
X-24996Y22929D03*
G54D19*
X-23085Y24429D03*
G54D16*
X-23975Y21646D03*
X-24010D03*
G54D75*
X-21980Y24176D03*
G54D48*
X-21907Y24194D03*
G54D19*
X-23045Y23799D03*
G54D75*
X-21980Y24136D03*
G54D48*
X-21907Y24134D03*
G54D19*
X-23085Y23838D03*
G54D75*
X-21980Y24117D03*
G54D19*
X-23045Y23838D03*
G54D48*
X-21907Y24115D03*
G54D75*
X-21980Y24156D03*
G54D48*
X-21907Y24154D03*
G54D19*
X-22967Y23799D03*
G54D48*
X-21907Y24095D03*
G54D19*
X-23006Y23799D03*
G54D12*
X-21973Y24065D03*
Y24030D03*
G54D71*
X-21974Y24249D03*
G54D56*
X-23739Y21699D03*
X-23472D03*
G54D48*
X-21907Y24233D03*
G54D69*
X-23769Y25719D03*
G54D21*
X-24927Y24592D03*
G54D20*
X-24787Y24701D03*
X-24866D03*
G54D74*
X-25332Y25242D03*
X-25082D03*
X-25332Y24905D03*
X-25082D03*
G54D12*
X-24977Y24513D03*
G54D21*
X-24927Y24514D03*
G54D13*
X-24640Y24633D03*
G54D21*
X-24694Y24624D03*
G54D45*
X-24852Y24831D03*
G54D20*
X-24818Y24701D03*
G54D12*
X-24824Y24772D03*
G54D20*
X-24803Y24701D03*
G54D45*
X-24753Y24906D03*
G54D13*
X-24781Y24772D03*
G54D20*
X-24771Y24701D03*
G54D13*
X-24611Y24530D03*
G54D21*
X-24694Y24545D03*
G54D20*
X-24897Y24701D03*
G54D19*
X-23242Y24468D03*
X-23203D03*
X-23282D03*
X-23321D03*
G54D16*
X-23084Y24716D03*
G54D19*
X-23163Y24468D03*
G54D16*
X-23442Y24798D03*
X-23429Y24716D03*
G54D19*
X-23360Y24468D03*
G54D12*
X-23634Y25510D03*
G54D72*
X-23562Y25452D03*
G54D57*
X-23093Y25481D03*
G54D29*
X-23183Y25643D03*
X-23144D03*
X-23124D03*
G54D19*
X-23439Y24429D03*
G54D16*
X-23674Y25302D03*
G54D71*
X-23931Y25237D03*
G54D11*
X-23954Y25273D03*
G54D12*
X-23732Y25226D03*
G54D11*
Y25273D03*
Y25298D03*
G54D13*
X-23764Y25226D03*
G54D71*
X-23896Y25237D03*
G54D11*
X-23954Y25349D03*
G54D13*
X-24044Y25400D03*
G54D31*
X-24054Y25324D03*
G54D71*
X-24012D03*
G54D11*
X-23954D03*
Y25426D03*
Y25452D03*
G54D19*
X-23636Y24311D03*
X-23675D03*
Y24586D03*
X-23715D03*
X-23597Y24468D03*
G54D12*
X-24579Y24496D03*
G54D19*
X-23597Y24507D03*
G54D12*
X-24677Y24384D03*
G54D19*
X-23833Y24547D03*
X-23006Y23956D03*
X-22967D03*
X-23163D03*
Y23838D03*
X-23124Y23956D03*
X-23872Y23602D03*
X-23951Y23641D03*
G54D71*
X-24010Y23439D03*
G54D13*
X-22835Y23632D03*
G54D19*
X-22967Y23720D03*
G54D18*
X-23908Y22525D03*
G54D13*
X-23038Y22360D03*
G54D18*
X-23270Y22525D03*
G54D16*
X-23049Y24716D03*
G54D19*
X-23045Y24507D03*
X-23124Y23996D03*
G54D16*
X-22797Y24134D03*
X-22834D03*
G54D37*
X-22727Y24055D03*
G54D16*
X-22800Y24024D03*
G54D19*
X-23006Y23996D03*
G54D71*
X-22835Y24024D03*
G54D33*
X-22709Y24321D03*
G54D16*
X-22729Y24368D03*
G54D13*
X-22752Y24227D03*
G54D49*
X-22777Y24263D03*
G54D76*
X-22264Y21529D03*
G54D12*
X-22720Y24227D03*
G54D76*
X-22298Y21529D03*
G54D13*
X-22690Y24243D03*
G54D12*
X-22658D03*
G54D33*
X-22662Y24302D03*
G54D49*
X-22757Y24311D03*
G54D12*
X-22768Y24362D03*
G54D71*
X-22835Y23880D03*
X-22800D03*
G54D19*
X-23006Y23877D03*
G54D13*
X-22836Y24089D03*
G54D19*
X-23085Y23996D03*
G54D13*
X-22832Y23916D03*
G54D19*
X-23085Y23877D03*
G54D12*
X-24080Y24278D03*
G54D19*
X-23833Y24232D03*
G54D12*
X-24080Y24528D03*
G54D19*
X-23872Y24507D03*
G54D12*
X-24080Y24334D03*
G54D19*
X-23872Y24389D03*
Y24350D03*
G54D29*
X-23065Y25643D03*
G54D13*
X-22993Y25546D03*
G54D64*
X-22988Y25475D03*
G54D12*
X-23068Y25547D03*
G54D29*
X-23085Y25643D03*
G54D19*
X-23557Y24507D03*
G54D16*
X-24979Y24431D03*
G54D53*
X-21856Y23301D03*
G54D13*
X-21809Y23304D03*
G54D52*
X-22307Y23288D03*
G54D71*
X-22285Y23242D03*
G54D77*
X-21810Y23265D03*
G54D53*
X-21856Y23261D03*
G54D52*
X-22346Y23288D03*
G54D78*
X-22399Y23229D03*
G54D71*
X-22800Y24532D03*
X-22835D03*
G54D19*
X-23006Y24429D03*
G54D71*
X-21891Y23551D03*
G54D16*
X-21926Y23619D03*
G54D71*
Y23551D03*
G54D16*
X-21854D03*
G54D71*
X-21866Y23851D03*
X-21902D03*
G54D16*
X-21855Y23651D03*
G54D71*
X-21891D03*
G54D16*
X-21909Y24489D03*
G54D79*
X-22061Y24669D03*
X-22085D03*
G54D30*
X-22061Y24619D03*
X-22088D03*
G54D80*
X-22043Y24442D03*
G54D15*
X-21957Y24489D03*
G54D70*
X-24823Y24338D03*
G54D19*
X-23636Y24429D03*
Y24468D03*
G54D70*
X-24843Y24338D03*
G54D19*
X-23636Y24507D03*
G54D70*
X-24862Y24338D03*
G54D19*
X-23636Y24547D03*
G54D70*
X-24882Y24338D03*
G54D19*
X-23597Y24429D03*
G54D16*
X-24919Y24359D03*
G54D12*
X-24633Y24747D03*
G54D19*
X-23636Y24389D03*
G54D16*
X-24785Y24355D03*
G54D19*
X-23597Y24389D03*
G54D13*
X-24942Y22817D03*
G54D21*
X-24996Y22819D03*
G54D67*
X-24893Y23003D03*
G54D21*
X-24996Y22961D03*
G54D54*
X-25337Y22597D03*
X-25309D03*
G54D25*
X-25303Y22629D03*
G54D55*
X-25307Y22655D03*
G54D54*
X-25253Y22597D03*
X-25281D03*
G54D24*
X-25286Y22629D03*
G54D55*
X-25282Y22655D03*
G54D54*
X-25295Y22529D03*
G54D25*
Y22555D03*
G54D24*
X-25296D03*
G54D55*
X-25309Y22580D03*
X-25281D03*
G54D16*
X-25081Y23044D03*
G54D20*
X-25092Y22994D03*
G54D16*
X-25116Y23044D03*
G54D20*
X-25108Y22994D03*
G54D25*
X-25253Y22487D03*
G54D24*
X-25278D03*
G54D54*
X-25295Y22459D03*
G54D25*
Y22487D03*
G54D55*
Y22512D03*
G54D16*
X-25027Y23054D03*
G54D20*
X-25061Y22994D03*
G54D12*
X-25325Y22869D03*
G54D21*
X-25268Y22866D03*
G54D12*
X-25398Y22889D03*
X-25324Y22908D03*
G54D21*
X-25268Y22882D03*
G54D16*
X-25403Y22922D03*
G54D12*
X-25323Y22948D03*
G54D21*
X-25268Y22929D03*
G54D55*
X-25295Y22332D03*
G54D24*
X-25296Y22305D03*
G54D81*
X-25345Y22245D03*
G54D16*
X-25292Y23057D03*
G54D20*
X-25218Y22994D03*
G54D16*
X-25219Y23057D03*
G54D20*
X-25187Y22994D03*
G54D54*
X-25090Y22603D03*
X-25116D03*
G54D24*
X-25121Y22629D03*
G54D55*
X-25117Y22654D03*
G54D54*
X-25168Y22603D03*
X-25142D03*
G54D25*
X-25138Y22629D03*
G54D55*
X-25142Y22654D03*
G54D25*
X-25128Y22561D03*
G54D24*
X-25129D03*
G54D55*
X-25142Y22586D03*
X-25116D03*
G54D54*
X-25128Y22535D03*
Y22466D03*
G54D25*
Y22492D03*
G54D55*
Y22518D03*
G54D24*
X-25111Y22492D03*
G54D25*
X-25086D03*
G54D12*
X-24819Y22555D03*
G54D37*
X-24818Y22617D03*
G54D16*
X-24952Y22676D03*
G54D71*
Y22708D03*
G54D21*
X-24996Y22756D03*
G54D13*
X-24862Y22780D03*
G54D37*
X-24893Y22716D03*
G54D21*
X-24996Y22772D03*
G54D55*
X-25128Y22331D03*
G54D24*
X-25129Y22305D03*
G54D81*
X-25079Y22245D03*
G54D12*
X-25323Y22734D03*
G54D21*
X-25268Y22819D03*
G54D16*
X-22800Y24435D03*
X-22835D03*
G54D19*
X-22967Y24429D03*
G54D71*
X-22835Y24266D03*
G54D19*
X-23203Y24389D03*
X-23793Y24153D03*
X-23833D03*
G54D39*
X-24976Y23910D03*
X-25016D03*
Y23890D03*
G54D16*
X-25630Y24126D03*
G54D19*
X-23911Y24153D03*
G54D16*
X-25595Y24127D03*
G54D19*
X-23951Y24153D03*
X-23911Y24192D03*
G54D16*
X-25477Y24127D03*
X-25442D03*
G54D19*
X-23951Y24192D03*
G54D71*
X-25630Y24158D03*
X-25595Y24159D03*
X-25477D03*
X-25442D03*
X-22557Y23993D03*
G54D50*
X-22504Y24026D03*
G54D16*
X-22557Y23869D03*
G54D50*
X-22478Y23804D03*
X-22453D03*
G54D12*
X-22459Y23746D03*
G54D13*
X-22599Y23821D03*
G54D12*
X-22656Y23891D03*
G54D13*
X-22491Y23746D03*
X-22386Y23742D03*
G54D71*
X-22427Y23743D03*
G54D50*
Y23804D03*
G54D52*
X-22326Y23347D03*
G54D60*
X-22323Y23432D03*
G54D71*
X-22435Y23229D03*
G54D53*
X-21915Y23281D03*
G54D59*
X-22047Y23254D03*
G54D12*
X-21713Y23265D03*
G54D13*
X-22438Y24711D03*
G54D46*
X-22491Y24696D03*
G54D12*
X-22602Y24780D03*
Y24745D03*
G54D33*
X-21730Y22844D03*
G54D12*
X-21742Y23109D03*
Y23073D03*
G54D57*
X-21732Y23020D03*
G54D13*
X-21745Y23265D03*
G54D12*
X-21778D03*
X-21777Y23304D03*
G54D13*
X-21744D03*
Y23340D03*
G54D12*
X-21777D03*
G54D53*
X-21856Y23281D03*
G54D16*
X-22399Y23197D03*
X-22435D03*
X-22285Y23210D03*
G54D71*
Y23170D03*
G54D16*
X-22244Y23210D03*
G54D71*
Y23170D03*
G54D12*
X-22326Y23229D03*
Y23194D03*
Y23159D03*
G54D52*
Y23288D03*
G54D14*
X-22458Y25586D03*
G54D19*
X-23478Y24389D03*
G54D21*
X-24694Y24640D03*
G54D13*
X-24640Y24668D03*
G54D21*
X-24694Y24655D03*
G54D13*
X-24559Y24595D03*
G54D21*
X-24694Y24608D03*
G54D13*
X-22688Y23891D03*
G54D19*
X-23006Y24035D03*
X-23045Y23877D03*
G54D21*
X-24694Y24561D03*
G54D69*
X-24045Y25869D03*
G54D11*
X-23732Y25375D03*
G54D19*
X-23439Y24468D03*
G54D11*
X-23732Y25400D03*
G54D19*
X-23478Y24429D03*
G54D11*
X-23732Y25426D03*
G54D19*
X-23439Y24389D03*
G54D71*
X-23674Y25334D03*
G54D11*
X-23732Y25349D03*
G54D71*
X-24278Y25256D03*
G54D43*
X-24224Y25257D03*
G54D19*
X-23163Y24350D03*
G54D43*
X-24224Y25150D03*
G54D12*
X-24277Y25188D03*
Y25147D03*
G54D19*
X-23124Y24350D03*
G54D13*
X-24514Y25469D03*
G54D72*
X-24518Y25361D03*
Y25428D03*
G54D19*
X-23911Y24468D03*
G54D71*
X-25116Y23076D03*
G54D12*
Y23109D03*
G54D19*
X-23911Y24389D03*
X-23951Y24468D03*
G54D12*
X-24553Y25469D03*
G54D72*
X-24551Y25361D03*
Y25428D03*
G54D19*
X-23951Y24389D03*
G54D71*
X-25081Y23076D03*
G54D13*
Y23109D03*
G54D19*
X-23951Y24507D03*
G54D27*
X-24209Y25432D03*
G54D12*
X-22175Y24609D03*
G54D21*
X-22125Y24637D03*
G54D82*
X-22202Y24442D03*
G54D27*
X-22464Y24477D03*
X-22378Y24479D03*
G54D28*
X-22377Y24411D03*
X-22465D03*
G54D16*
X-22520Y24485D03*
G54D71*
Y24403D03*
G54D16*
X-22556Y24485D03*
G54D19*
X-23124Y24468D03*
X-23793Y24350D03*
Y24271D03*
Y24311D03*
X-23321Y24114D03*
X-23360Y24153D03*
X-23321D03*
X-23400Y24192D03*
X-23439D03*
X-23518D03*
X-23478D03*
X-23400Y24232D03*
X-23557Y24153D03*
X-23597D03*
X-23557Y24114D03*
X-23478Y24232D03*
X-23518D03*
X-23793D03*
X-23754D03*
X-23321Y24074D03*
Y24035D03*
X-23360Y24074D03*
Y24114D03*
X-23439Y23996D03*
X-23400D03*
X-23439Y23956D03*
X-23400D03*
X-23360Y24035D03*
X-23557Y24074D03*
X-23478Y23956D03*
X-23557Y24035D03*
X-23597D03*
Y24074D03*
Y24114D03*
X-23518Y23956D03*
Y23996D03*
X-23478D03*
X-23439Y24232D03*
G54D12*
X-21882Y24569D03*
G54D13*
X-21823D03*
G54D27*
X-22352Y23901D03*
G54D44*
X-25390Y23175D03*
G54D31*
X-25333Y23162D03*
G54D34*
X-22366Y22473D03*
G54D71*
X-22304Y22456D03*
G54D12*
X-22354Y23742D03*
G54D13*
X-22361Y23852D03*
G54D57*
X-21771Y22930D03*
G54D39*
X-24956Y23811D03*
X-24976Y23831D03*
X-24838Y23890D03*
X-24878D03*
X-24897Y23910D03*
X-25016Y23930D03*
X-25035D03*
X-25055Y23910D03*
Y23949D03*
G54D19*
X-23951Y23838D03*
G54D12*
X-24547Y23861D03*
G54D13*
X-25020Y24391D03*
X-25009Y24513D03*
G54D20*
X-24866Y24468D03*
G54D71*
X-24743Y24404D03*
G54D20*
X-24771Y24468D03*
G54D12*
X-24608Y24633D03*
Y24668D03*
Y24706D03*
Y24595D03*
G54D20*
X-24724Y24701D03*
G54D12*
X-24633Y24782D03*
G54D13*
X-24309Y25188D03*
G54D16*
X-24278Y25224D03*
G54D19*
X-23400Y24468D03*
X-23242Y24311D03*
Y24271D03*
X-23478Y24311D03*
X-23439D03*
X-23242Y24114D03*
Y24153D03*
Y23956D03*
Y23996D03*
X-23675Y23956D03*
Y24035D03*
Y24153D03*
Y24232D03*
Y24074D03*
X-23951Y23996D03*
Y24035D03*
G54D12*
X-24547Y23943D03*
X-24469D03*
Y23897D03*
X-24547Y23902D03*
X-24473Y23803D03*
X-24548Y23820D03*
G54D16*
X-22800Y23848D03*
G54D19*
X-22967Y24311D03*
Y24153D03*
G54D71*
X-22797Y24166D03*
G54D19*
X-22967Y23838D03*
G54D13*
X-22005Y24065D03*
G54D16*
X-22442Y24621D03*
G54D15*
X-22400Y24620D03*
G54D12*
X-22406Y24711D03*
G54D46*
X-22491Y24621D03*
G54D75*
X-22026Y24156D03*
Y24176D03*
G54D16*
X-21974Y24217D03*
G54D71*
X-21902Y23779D03*
G54D16*
Y23819D03*
X-21965Y22950D03*
G54D15*
X-22007Y22944D03*
G54D61*
X-21902Y22921D03*
G54D71*
X-21926Y23651D03*
G54D48*
X-21907Y24272D03*
G54D75*
X-22026Y24136D03*
Y24117D03*
G54D76*
X-22298Y21472D03*
X-22264D03*
G54D12*
X-24468Y23855D03*
G54D13*
X-24486Y23738D03*
G54D71*
X-21800Y24743D03*
G54D13*
X-23086Y25339D03*
G54D12*
X-23551Y25357D03*
G54D57*
X-23132Y25391D03*
G54D71*
X-22800Y24467D03*
G54D16*
Y24500D03*
G54D71*
X-22764Y24467D03*
G54D19*
X-23085Y24468D03*
X-23006D03*
G54D12*
X-22768Y24397D03*
G54D71*
X-23975Y21678D03*
G54D16*
X-24009Y21721D03*
G54D13*
X-23897Y21744D03*
Y21709D03*
G54D14*
Y21666D03*
G54D39*
X-24838Y23969D03*
G54D62*
X-24579Y23983D03*
G54D13*
X-24578Y24019D03*
G54D21*
X-24996Y22898D03*
G54D71*
X-24940D03*
X-24906Y22885D03*
G54D19*
X-23045Y24429D03*
G54D16*
X-24906Y22853D03*
G54D58*
X-24060Y21677D03*
G54D71*
X-24010Y21678D03*
G54D16*
X-24202Y21684D03*
G54D36*
X-22987Y21479D03*
G54D19*
X-23557Y24429D03*
G54D75*
X-24587Y24452D03*
G54D19*
X-23557Y24389D03*
G54D75*
X-24587Y24432D03*
G54D19*
X-23597Y24586D03*
G54D75*
X-24587Y24412D03*
G54D19*
X-23597Y24547D03*
G54D75*
X-24587Y24393D03*
G54D28*
X-24209Y25502D03*
G54D43*
X-24149Y25257D03*
G54D73*
X-24148Y25368D03*
Y25320D03*
G54D19*
X-23793Y23838D03*
X-23911D03*
X-23754Y23877D03*
X-23911D03*
X-23833Y23917D03*
X-23872D03*
X-23911D03*
X-23951D03*
X-23754Y23956D03*
X-23793D03*
X-23833D03*
X-23872D03*
X-23833Y23838D03*
X-23793Y23877D03*
X-23872D03*
X-23833D03*
G54D34*
X-22366Y22423D03*
Y22523D03*
Y22573D03*
G54D21*
X-22125Y24700D03*
Y24669D03*
G54D28*
X-22352Y23971D03*
G54D50*
X-22427Y24026D03*
G54D13*
X-22329Y24017D03*
G54D16*
X-22557Y23961D03*
G54D13*
X-22329Y24052D03*
Y24087D03*
Y24172D03*
G54D14*
Y24130D03*
G54D71*
X-24202Y21716D03*
G54D58*
X-24150D03*
G54D16*
X-21800Y24711D03*
X-21839D03*
X-21877D03*
X-21921Y24712D03*
G54D21*
X-22010Y24684D03*
G54D16*
X-21957Y24712D03*
X-23395Y24716D03*
G54D19*
X-23360Y24586D03*
G54D21*
X-22125Y24653D03*
G54D12*
X-22178D03*
G54D21*
X-22125Y24684D03*
X-22010Y24653D03*
Y24669D03*
G54D13*
X-21960D03*
G54D71*
X-21791D03*
X-21833D03*
G54D12*
X-21928D03*
G54D31*
X-21885D03*
G54D12*
X-21791Y24569D03*
G54D16*
Y24637D03*
G54D71*
X-21909Y24521D03*
G54D15*
X-21885Y24615D03*
G54D13*
X-21914Y24569D03*
G54D21*
X-22010Y24637D03*
G54D71*
X-21961Y24620D03*
G54D31*
X-21957Y24543D03*
G54D16*
X-21961Y24588D03*
G54D13*
X-22673Y22464D03*
G54D83*
Y22496D03*
G54D34*
X-22567Y22473D03*
G54D83*
X-22626Y22496D03*
G54D16*
X-22182Y25079D03*
X-22147D03*
G54D58*
X-22111Y25036D03*
G54D65*
X-22233Y25043D03*
G54D58*
X-22021Y25075D03*
G54D71*
X-21966Y25072D03*
G54D13*
X-21920Y24997D03*
G54D58*
X-22021D03*
G54D71*
X-21966D03*
G54D84*
X-22092Y25549D03*
G54D28*
X-22186Y25531D03*
G54D71*
X-21826Y22823D03*
G54D33*
X-21777Y22864D03*
G54D12*
X-21827Y22863D03*
G54D31*
X-22066Y25236D03*
G54D27*
X-22186Y25461D03*
G54D84*
X-22092Y25435D03*
G54D38*
X-22066Y25308D03*
G54D71*
X-22182Y25111D03*
X-22147D03*
G54D65*
X-22233Y25118D03*
G54D63*
X-22212Y25215D03*
G54D66*
X-21925Y23406D03*
G54D13*
X-21911Y23352D03*
G54D53*
X-21915Y23301D03*
G54D49*
X-23262Y24888D03*
G54D16*
X-23298Y25405D03*
G54D49*
X-23231Y24888D03*
G54D16*
X-23264Y25405D03*
G54D49*
X-23326Y24888D03*
G54D16*
X-23366Y25405D03*
G54D49*
X-23295Y24888D03*
G54D16*
X-23332Y25405D03*
G54D49*
X-23390Y24888D03*
G54D16*
X-23434Y25405D03*
G54D49*
X-23359Y24888D03*
G54D16*
X-23400Y25405D03*
X-23230D03*
G54D49*
X-23198Y24888D03*
G54D16*
X-23196Y25405D03*
G54D49*
X-23167Y24888D03*
G54D19*
X-23951Y24429D03*
G54D32*
X-22492Y24145D03*
G54D50*
X-22478Y24026D03*
G54D12*
X-22482Y24084D03*
G54D32*
X-22397Y24215D03*
G54D50*
X-22453Y24026D03*
G54D13*
X-22450Y24084D03*
G54D19*
X-23006Y23838D03*
X-22967Y23759D03*
G54D54*
X-25295Y22349D03*
G54D55*
Y22442D03*
X-25128Y22449D03*
G54D54*
Y22348D03*
G54D300*
X-24484Y16879D02*
G01X-24473D01*
X-24478Y16910D02*
G01X-24484Y16904D01*
X-24478Y16879D02*
G01Y16910D01*
X-24519Y16924D02*
G01X-24439D01*
X-24519Y16864D02*
G01Y16924D01*
X-24439Y16864D02*
G01X-24519D01*
X-24439Y16924D02*
G01Y16864D01*
X-24484Y21643D02*
G01X-24473D01*
X-24478Y21674D02*
G01X-24484Y21668D01*
X-24478Y21643D02*
G01Y21674D01*
X-24519Y21688D02*
G01X-24439D01*
X-24519Y21628D02*
G01Y21688D01*
X-24439Y21628D02*
G01X-24519D01*
X-24439Y21688D02*
G01Y21628D01*
M02*
