G04 CAM350/DFMSTREAM V12.1 (Build 1022) Date:  Wed Dec 23 16:03:05 2020 *
G04 Database: c:\users\quang\downloads\ubn2304t10-new v4.cam *
G04 Layer 5: SOLDERMASKBOTTOM_GDO *
%FSLAX23Y23*%
%MOIN*%
%SFA1.000B1.000*%

%MIA0B0*%
%IPPOS*%
%AMOBLONG_222_L1*
4,1,72,-0.1023600,0.0000000,-0.1021502,0.0048040,-0.1015226,0.0095715,-0.1004818,0.0142661,-0.0990358,0.0188521,-0.0971957,0.0232947,-0.0949754,0.0275600,-0.0923917,0.0316155,-0.0894643,0.0354305,-0.0862157,0.0389757,-0.0826705,0.0422243,-0.0788555,0.0451517,-0.0748000,0.0477354,-0.0705347,0.0499557,-0.0660921,0.0517958,-0.0615061,0.0532418,-0.0568115,0.0542826,-0.0520440,0.0549102,-0.0472400,0.0551200,-0.0424360,0.0549102,-0.0376685,0.0542826,-0.0329739,0.0532418,-0.0283879,0.0517958,-0.0239453,0.0499557,-0.0196800,0.0477354,-0.0156245,0.0451517,-0.0118095,0.0422243,-0.0082643,0.0389757,-0.0050157,0.0354305,-0.0020883,0.0316155,0.0004954,0.0275600,0.0027157,0.0232947,0.0045558,0.0188521,0.0060018,0.0142661,0.0070426,0.0095715,0.0076702,0.0048040,0.0078800,0.0000000,0.0076702,-0.0048040,0.0070426,-0.0095715,0.0060018,-0.0142661,0.0045558,-0.0188521,0.0027157,-0.0232947,0.0004954,-0.0275600,-0.0020883,-0.0316155,-0.0050157,-0.0354305,-0.0082643,-0.0389757,-0.0118095,-0.0422243,-0.0156245,-0.0451517,-0.0196800,-0.0477354,-0.0239453,-0.0499557,-0.0283879,-0.0517958,-0.0329739,-0.0532418,-0.0376685,-0.0542826,-0.0424360,-0.0549102,-0.0472400,-0.0551200,-0.0520440,-0.0549102,-0.0568115,-0.0542826,-0.0615061,-0.0532418,-0.0660921,-0.0517958,-0.0705347,-0.0499557,-0.0748000,-0.0477354,-0.0788555,-0.0451517,-0.0826705,-0.0422243,-0.0862157,-0.0389757,-0.0894643,-0.0354305,-0.0923917,-0.0316155,-0.0949754,-0.0275600,-0.0971957,-0.0232947,-0.0990358,-0.0188521,-0.1004818,-0.0142661,-0.1015226,-0.0095715,-0.1021502,-0.0048040,-0.1023600,0.0000000,0.0000000*
4,1,72,-0.0078800,0.0000000,-0.0076702,0.0048040,-0.0070426,0.0095715,-0.0060018,0.0142661,-0.0045558,0.0188521,-0.0027157,0.0232947,-0.0004954,0.0275600,0.0020883,0.0316155,0.0050157,0.0354305,0.0082643,0.0389757,0.0118095,0.0422243,0.0156245,0.0451517,0.0196800,0.0477354,0.0239453,0.0499557,0.0283879,0.0517958,0.0329739,0.0532418,0.0376685,0.0542826,0.0424360,0.0549102,0.0472400,0.0551200,0.0520440,0.0549102,0.0568115,0.0542826,0.0615061,0.0532418,0.0660921,0.0517958,0.0705347,0.0499557,0.0748000,0.0477354,0.0788555,0.0451517,0.0826705,0.0422243,0.0862157,0.0389757,0.0894643,0.0354305,0.0923917,0.0316155,0.0949754,0.0275600,0.0971957,0.0232947,0.0990358,0.0188521,0.1004818,0.0142661,0.1015226,0.0095715,0.1021502,0.0048040,0.1023600,0.0000000,0.1021502,-0.0048040,0.1015226,-0.0095715,0.1004818,-0.0142661,0.0990358,-0.0188521,0.0971957,-0.0232947,0.0949754,-0.0275600,0.0923917,-0.0316155,0.0894643,-0.0354305,0.0862157,-0.0389757,0.0826705,-0.0422243,0.0788555,-0.0451517,0.0748000,-0.0477354,0.0705347,-0.0499557,0.0660921,-0.0517958,0.0615061,-0.0532418,0.0568115,-0.0542826,0.0520440,-0.0549102,0.0472400,-0.0551200,0.0424360,-0.0549102,0.0376685,-0.0542826,0.0329739,-0.0532418,0.0283879,-0.0517958,0.0239453,-0.0499557,0.0196800,-0.0477354,0.0156245,-0.0451517,0.0118095,-0.0422243,0.0082643,-0.0389757,0.0050157,-0.0354305,0.0020883,-0.0316155,-0.0004954,-0.0275600,-0.0027157,-0.0232947,-0.0045558,-0.0188521,-0.0060018,-0.0142661,-0.0070426,-0.0095715,-0.0076702,-0.0048040,-0.0078800,0.0000000,0.0000000*
4,1,4,0.0472400,-0.0551200,-0.0472400,-0.0551200,-0.0472400,0.0551200,0.0472400,0.0551200,0.0472400,-0.0551200,0.0000000*
%
%AMOBLONG_221_L1*
4,1,72,-0.0551200,-0.0413350,-0.0549102,-0.0365309,-0.0542826,-0.0317635,-0.0532418,-0.0270688,-0.0517958,-0.0224828,-0.0499557,-0.0180402,-0.0477354,-0.0137750,-0.0451517,-0.0097194,-0.0422243,-0.0059045,-0.0389757,-0.0023592,-0.0354305,0.0008894,-0.0316155,0.0038167,-0.0275600,0.0064004,-0.0232947,0.0086207,-0.0188521,0.0104609,-0.0142661,0.0119069,-0.0095715,0.0129476,-0.0048040,0.0135753,0.0000000,0.0137850,0.0048040,0.0135753,0.0095715,0.0129476,0.0142661,0.0119069,0.0188521,0.0104609,0.0232947,0.0086207,0.0275600,0.0064004,0.0316155,0.0038167,0.0354305,0.0008894,0.0389757,-0.0023592,0.0422243,-0.0059045,0.0451517,-0.0097194,0.0477354,-0.0137750,0.0499557,-0.0180402,0.0517958,-0.0224828,0.0532418,-0.0270688,0.0542826,-0.0317635,0.0549102,-0.0365309,0.0551200,-0.0413350,0.0549102,-0.0461390,0.0542826,-0.0509065,0.0532418,-0.0556011,0.0517958,-0.0601871,0.0499557,-0.0646297,0.0477354,-0.0688950,0.0451517,-0.0729505,0.0422243,-0.0767654,0.0389757,-0.0803107,0.0354305,-0.0835593,0.0316155,-0.0864866,0.0275600,-0.0890703,0.0232947,-0.0912906,0.0188521,-0.0931308,0.0142661,-0.0945768,0.0095715,-0.0956176,0.0048040,-0.0962452,0.0000000,-0.0964550,-0.0048040,-0.0962452,-0.0095715,-0.0956176,-0.0142661,-0.0945768,-0.0188521,-0.0931308,-0.0232947,-0.0912906,-0.0275600,-0.0890703,-0.0316155,-0.0864866,-0.0354305,-0.0835593,-0.0389757,-0.0803107,-0.0422243,-0.0767654,-0.0451517,-0.0729505,-0.0477354,-0.0688950,-0.0499557,-0.0646297,-0.0517958,-0.0601871,-0.0532418,-0.0556011,-0.0542826,-0.0509065,-0.0549102,-0.0461390,-0.0551200,-0.0413350,0.0000000*
4,1,72,-0.0551200,0.0413350,-0.0549102,0.0461390,-0.0542826,0.0509065,-0.0532418,0.0556011,-0.0517958,0.0601871,-0.0499557,0.0646297,-0.0477354,0.0688950,-0.0451517,0.0729505,-0.0422243,0.0767654,-0.0389757,0.0803107,-0.0354305,0.0835593,-0.0316155,0.0864866,-0.0275600,0.0890703,-0.0232947,0.0912906,-0.0188521,0.0931308,-0.0142661,0.0945768,-0.0095715,0.0956176,-0.0048040,0.0962452,0.0000000,0.0964550,0.0048040,0.0962452,0.0095715,0.0956176,0.0142661,0.0945768,0.0188521,0.0931308,0.0232947,0.0912906,0.0275600,0.0890703,0.0316155,0.0864866,0.0354305,0.0835593,0.0389757,0.0803107,0.0422243,0.0767654,0.0451517,0.0729505,0.0477354,0.0688950,0.0499557,0.0646297,0.0517958,0.0601871,0.0532418,0.0556011,0.0542826,0.0509065,0.0549102,0.0461390,0.0551200,0.0413350,0.0549102,0.0365309,0.0542826,0.0317635,0.0532418,0.0270688,0.0517958,0.0224828,0.0499557,0.0180402,0.0477354,0.0137750,0.0451517,0.0097194,0.0422243,0.0059045,0.0389757,0.0023592,0.0354305,-0.0008894,0.0316155,-0.0038167,0.0275600,-0.0064004,0.0232947,-0.0086207,0.0188521,-0.0104609,0.0142661,-0.0119069,0.0095715,-0.0129476,0.0048040,-0.0135753,0.0000000,-0.0137850,-0.0048040,-0.0135753,-0.0095715,-0.0129476,-0.0142661,-0.0119069,-0.0188521,-0.0104609,-0.0232947,-0.0086207,-0.0275600,-0.0064004,-0.0316155,-0.0038167,-0.0354305,-0.0008894,-0.0389757,0.0023592,-0.0422243,0.0059045,-0.0451517,0.0097194,-0.0477354,0.0137750,-0.0499557,0.0180402,-0.0517958,0.0224828,-0.0532418,0.0270688,-0.0542826,0.0317635,-0.0549102,0.0365309,-0.0551200,0.0413350,0.0000000*
4,1,4,0.0551200,0.0413350,0.0551200,-0.0413350,-0.0551200,-0.0413350,-0.0551200,0.0413350,0.0551200,0.0413350,0.0000000*
%
%AMOBLONG_223_L1*
4,1,72,-0.0551200,-0.0531500,-0.0549102,-0.0483460,-0.0542826,-0.0435785,-0.0532418,-0.0388839,-0.0517958,-0.0342978,-0.0499557,-0.0298553,-0.0477354,-0.0255900,-0.0451517,-0.0215344,-0.0422243,-0.0177195,-0.0389757,-0.0141743,-0.0354305,-0.0109256,-0.0316155,-0.0079983,-0.0275600,-0.0054146,-0.0232947,-0.0031943,-0.0188521,-0.0013541,-0.0142661,0.0000919,-0.0095715,0.0011326,-0.0048040,0.0017603,0.0000000,0.0019700,0.0048040,0.0017603,0.0095715,0.0011326,0.0142661,0.0000919,0.0188521,-0.0013541,0.0232947,-0.0031943,0.0275600,-0.0054146,0.0316155,-0.0079983,0.0354305,-0.0109256,0.0389757,-0.0141743,0.0422243,-0.0177195,0.0451517,-0.0215344,0.0477354,-0.0255900,0.0499557,-0.0298553,0.0517958,-0.0342978,0.0532418,-0.0388839,0.0542826,-0.0435785,0.0549102,-0.0483460,0.0551200,-0.0531500,0.0549102,-0.0579540,0.0542826,-0.0627215,0.0532418,-0.0674161,0.0517958,-0.0720021,0.0499557,-0.0764447,0.0477354,-0.0807100,0.0451517,-0.0847655,0.0422243,-0.0885804,0.0389757,-0.0921257,0.0354305,-0.0953743,0.0316155,-0.0983017,0.0275600,-0.1008853,0.0232947,-0.1031057,0.0188521,-0.1049458,0.0142661,-0.1063918,0.0095715,-0.1074326,0.0048040,-0.1080602,0.0000000,-0.1082700,-0.0048040,-0.1080602,-0.0095715,-0.1074326,-0.0142661,-0.1063918,-0.0188521,-0.1049458,-0.0232947,-0.1031057,-0.0275600,-0.1008853,-0.0316155,-0.0983017,-0.0354305,-0.0953743,-0.0389757,-0.0921257,-0.0422243,-0.0885804,-0.0451517,-0.0847655,-0.0477354,-0.0807100,-0.0499557,-0.0764447,-0.0517958,-0.0720021,-0.0532418,-0.0674161,-0.0542826,-0.0627215,-0.0549102,-0.0579540,-0.0551200,-0.0531500,0.0000000*
4,1,72,-0.0551200,0.0531500,-0.0549102,0.0579540,-0.0542826,0.0627215,-0.0532418,0.0674161,-0.0517958,0.0720021,-0.0499557,0.0764447,-0.0477354,0.0807100,-0.0451517,0.0847655,-0.0422243,0.0885804,-0.0389757,0.0921257,-0.0354305,0.0953743,-0.0316155,0.0983017,-0.0275600,0.1008853,-0.0232947,0.1031057,-0.0188521,0.1049458,-0.0142661,0.1063918,-0.0095715,0.1074326,-0.0048040,0.1080602,0.0000000,0.1082700,0.0048040,0.1080602,0.0095715,0.1074326,0.0142661,0.1063918,0.0188521,0.1049458,0.0232947,0.1031057,0.0275600,0.1008853,0.0316155,0.0983017,0.0354305,0.0953743,0.0389757,0.0921257,0.0422243,0.0885804,0.0451517,0.0847655,0.0477354,0.0807100,0.0499557,0.0764447,0.0517958,0.0720021,0.0532418,0.0674161,0.0542826,0.0627215,0.0549102,0.0579540,0.0551200,0.0531500,0.0549102,0.0483460,0.0542826,0.0435785,0.0532418,0.0388839,0.0517958,0.0342978,0.0499557,0.0298553,0.0477354,0.0255900,0.0451517,0.0215344,0.0422243,0.0177195,0.0389757,0.0141743,0.0354305,0.0109256,0.0316155,0.0079983,0.0275600,0.0054146,0.0232947,0.0031943,0.0188521,0.0013541,0.0142661,-0.0000919,0.0095715,-0.0011326,0.0048040,-0.0017603,0.0000000,-0.0019700,-0.0048040,-0.0017603,-0.0095715,-0.0011326,-0.0142661,-0.0000919,-0.0188521,0.0013541,-0.0232947,0.0031943,-0.0275600,0.0054146,-0.0316155,0.0079983,-0.0354305,0.0109256,-0.0389757,0.0141743,-0.0422243,0.0177195,-0.0451517,0.0215344,-0.0477354,0.0255900,-0.0499557,0.0298553,-0.0517958,0.0342978,-0.0532418,0.0388839,-0.0542826,0.0435785,-0.0549102,0.0483460,-0.0551200,0.0531500,0.0000000*
4,1,4,0.0551200,0.0531500,0.0551200,-0.0531500,-0.0551200,-0.0531500,-0.0551200,0.0531500,0.0551200,0.0531500,0.0000000*
%
%AMOBLONG_220_L1*
4,1,72,-0.0334649,0.0000000,-0.0333825,0.0018873,-0.0331359,0.0037603,-0.0327270,0.0056047,-0.0321590,0.0074065,-0.0314360,0.0091517,-0.0305637,0.0108275,-0.0295487,0.0124208,-0.0283986,0.0139195,-0.0271224,0.0153124,-0.0257295,0.0165887,-0.0242307,0.0177387,-0.0226375,0.0187537,-0.0209617,0.0196261,-0.0192164,0.0203490,-0.0174146,0.0209171,-0.0155703,0.0213260,-0.0136973,0.0215725,-0.0118100,0.0216550,-0.0099226,0.0215725,-0.0080496,0.0213260,-0.0062053,0.0209171,-0.0044035,0.0203490,-0.0026582,0.0196261,-0.0009825,0.0187537,0.0006108,0.0177387,0.0021095,0.0165887,0.0035024,0.0153124,0.0047787,0.0139195,0.0059287,0.0124208,0.0069438,0.0108275,0.0078161,0.0091517,0.0085390,0.0074065,0.0091071,0.0056047,0.0095160,0.0037603,0.0097625,0.0018873,0.0098450,0.0000000,0.0097625,-0.0018873,0.0095160,-0.0037603,0.0091071,-0.0056047,0.0085390,-0.0074065,0.0078161,-0.0091517,0.0069438,-0.0108275,0.0059287,-0.0124208,0.0047787,-0.0139195,0.0035024,-0.0153124,0.0021095,-0.0165887,0.0006108,-0.0177387,-0.0009825,-0.0187537,-0.0026582,-0.0196261,-0.0044035,-0.0203490,-0.0062053,-0.0209171,-0.0080496,-0.0213260,-0.0099226,-0.0215725,-0.0118100,-0.0216550,-0.0136973,-0.0215725,-0.0155703,-0.0213260,-0.0174146,-0.0209171,-0.0192164,-0.0203490,-0.0209617,-0.0196261,-0.0226375,-0.0187537,-0.0242307,-0.0177387,-0.0257295,-0.0165887,-0.0271224,-0.0153124,-0.0283986,-0.0139195,-0.0295487,-0.0124208,-0.0305637,-0.0108275,-0.0314360,-0.0091517,-0.0321590,-0.0074065,-0.0327270,-0.0056047,-0.0331359,-0.0037603,-0.0333825,-0.0018873,-0.0334649,0.0000000,0.0000000*
4,1,72,-0.0098450,0.0000000,-0.0097625,0.0018873,-0.0095160,0.0037603,-0.0091071,0.0056047,-0.0085390,0.0074065,-0.0078161,0.0091517,-0.0069438,0.0108275,-0.0059287,0.0124208,-0.0047787,0.0139195,-0.0035024,0.0153124,-0.0021095,0.0165887,-0.0006108,0.0177387,0.0009825,0.0187537,0.0026582,0.0196261,0.0044035,0.0203490,0.0062053,0.0209171,0.0080496,0.0213260,0.0099226,0.0215725,0.0118100,0.0216550,0.0136973,0.0215725,0.0155703,0.0213260,0.0174146,0.0209171,0.0192164,0.0203490,0.0209617,0.0196261,0.0226375,0.0187537,0.0242307,0.0177387,0.0257295,0.0165887,0.0271224,0.0153124,0.0283986,0.0139195,0.0295487,0.0124208,0.0305637,0.0108275,0.0314360,0.0091517,0.0321590,0.0074065,0.0327270,0.0056047,0.0331359,0.0037603,0.0333825,0.0018873,0.0334649,0.0000000,0.0333825,-0.0018873,0.0331359,-0.0037603,0.0327270,-0.0056047,0.0321590,-0.0074065,0.0314360,-0.0091517,0.0305637,-0.0108275,0.0295487,-0.0124208,0.0283986,-0.0139195,0.0271224,-0.0153124,0.0257295,-0.0165887,0.0242307,-0.0177387,0.0226375,-0.0187537,0.0209617,-0.0196261,0.0192164,-0.0203490,0.0174146,-0.0209171,0.0155703,-0.0213260,0.0136973,-0.0215725,0.0118100,-0.0216550,0.0099226,-0.0215725,0.0080496,-0.0213260,0.0062053,-0.0209171,0.0044035,-0.0203490,0.0026582,-0.0196261,0.0009825,-0.0187537,-0.0006108,-0.0177387,-0.0021095,-0.0165887,-0.0035024,-0.0153124,-0.0047787,-0.0139195,-0.0059287,-0.0124208,-0.0069438,-0.0108275,-0.0078161,-0.0091517,-0.0085390,-0.0074065,-0.0091071,-0.0056047,-0.0095160,-0.0037603,-0.0097625,-0.0018873,-0.0098450,0.0000000,0.0000000*
4,1,4,0.0118100,-0.0216550,-0.0118100,-0.0216550,-0.0118100,0.0216550,0.0118100,0.0216550,0.0118100,-0.0216550,0.0000000*
%
%AMROUND_14_L1*
1,1,0.0275600,0.0000000,0.0000000*
%
%AMROUND_214_L1*
1,1,0.0550000,0.0000000,0.0000000*
%
%AMROUND_213_L1*
1,1,0.0472400,0.0000000,0.0000000*
%
%AMROUND_96_L1*
1,1,0.0826800,0.0000000,0.0000000*
%
%AMROUND_217_L1*
1,1,0.0866099,0.0000000,0.0000000*
%
%AMROUND_80_L1*
1,1,0.0708699,0.0000000,0.0000000*
%
%AMROUND_216_L1*
1,1,0.0748000,0.0000000,0.0000000*
%
%AMROUND_11_L1*
1,1,0.0393699,0.0000000,0.0000000*
%
%AMROUND_219_L1*
1,1,0.2834600,0.0000000,0.0000000*
%
%AMROUND_218_L1*
1,1,0.2440899,0.0000000,0.0000000*
%
%AMROUND_215_L1*
1,1,0.0700000,0.0000000,0.0000000*
%
%AMCUSTOM_246_L1*
4,1,3,-0.0557040,0.0566286,-0.0551702,0.0568791,-0.0539630,0.0566286,-0.0557040,0.0566286,0.0000000*
4,1,3,-0.0539630,0.0566286,-0.0539523,0.0566393,-0.0539352,0.0566286,-0.0539630,0.0566286,0.0000000*
4,1,4,-0.0562863,0.0563554,-0.0557040,0.0566286,-0.0539352,0.0566286,-0.0535010,0.0563554,-0.0562863,0.0563554,0.0000000*
4,1,4,-0.0568653,0.0552668,-0.0562863,0.0563554,-0.0535010,0.0563554,-0.0517713,0.0552668,-0.0568653,0.0552668,0.0000000*
4,1,4,-0.0568924,0.0549424,-0.0568653,0.0552668,-0.0517713,0.0552668,-0.0512558,0.0549424,-0.0568924,0.0549424,0.0000000*
4,1,4,-0.0568253,0.0544352,-0.0568924,0.0549424,-0.0512558,0.0549424,-0.0504498,0.0544352,-0.0568253,0.0544352,0.0000000*
4,1,4,-0.0566286,0.0539630,-0.0568253,0.0544352,-0.0504498,0.0544352,-0.0496994,0.0539630,-0.0566286,0.0539630,0.0000000*
4,1,4,-0.0566393,0.0539523,-0.0566286,0.0539630,-0.0496994,0.0539630,-0.0496824,0.0539523,-0.0566393,0.0539523,0.0000000*
4,1,4,-0.0343901,0.0185969,-0.0566393,0.0539523,-0.0496824,0.0539523,0.0064994,0.0185969,-0.0343901,0.0185969,0.0000000*
4,1,4,-0.0331722,0.0166617,-0.0343901,0.0185969,0.0064994,0.0185969,0.0105108,0.0166617,-0.0331722,0.0166617,0.0000000*
4,1,4,-0.0316354,0.0142195,-0.0331722,0.0166617,0.0105108,0.0166617,0.0136343,0.0142195,-0.0316354,0.0142195,0.0000000*
4,1,4,-0.0297361,0.0112014,-0.0316354,0.0142195,0.0136343,0.0142195,0.0162054,0.0112014,-0.0297361,0.0112014,0.0000000*
4,1,4,-0.0275513,0.0077296,-0.0297361,0.0112014,0.0162054,0.0112014,0.0181202,0.0077296,-0.0275513,0.0077296,0.0000000*
4,1,4,-0.0251694,0.0039446,-0.0275513,0.0077296,0.0181202,0.0077296,0.0193009,0.0039446,-0.0251694,0.0039446,0.0000000*
4,1,4,-0.0226870,0.0000000,-0.0251694,0.0039446,0.0193009,0.0039446,0.0197000,0.0000000,-0.0226870,0.0000000,0.0000000*
4,1,4,-0.0204123,-0.0036146,-0.0226870,0.0000000,0.0197000,0.0000000,0.0193655,-0.0036146,-0.0204123,-0.0036146,0.0000000*
4,1,4,-0.0185969,-0.0064994,-0.0204123,-0.0036146,0.0193655,-0.0036146,0.0185192,-0.0064994,-0.0185969,-0.0064994,0.0000000*
4,1,4,-0.0181672,-0.0074192,-0.0185969,-0.0064994,0.0185192,-0.0064994,0.0182494,-0.0074192,-0.0181672,-0.0074192,0.0000000*
4,1,4,-0.0169188,-0.0100917,-0.0181672,-0.0074192,0.0182494,-0.0074192,0.0168344,-0.0100917,-0.0169188,-0.0100917,0.0000000*
4,1,4,-0.0163014,-0.0109231,-0.0169188,-0.0100917,0.0168344,-0.0100917,0.0163942,-0.0109231,-0.0163014,-0.0109231,0.0000000*
4,1,4,-0.0145554,-0.0132750,-0.0163014,-0.0109231,0.0163942,-0.0109231,0.0144588,-0.0132750,-0.0145554,-0.0132750,0.0000000*
4,1,4,-0.0137632,-0.0139847,-0.0145554,-0.0132750,0.0144588,-0.0132750,0.0138749,-0.0139847,-0.0137632,-0.0139847,0.0000000*
4,1,4,-0.0116024,-0.0159208,-0.0137632,-0.0139847,0.0138749,-0.0139847,0.0114839,-0.0159208,-0.0116024,-0.0159208,0.0000000*
4,1,4,-0.0106459,-0.0164798,-0.0116024,-0.0159208,0.0114839,-0.0159208,0.0107935,-0.0164798,-0.0106459,-0.0164798,0.0000000*
4,1,4,-0.0081794,-0.0179216,-0.0106459,-0.0164798,0.0107935,-0.0164798,0.0080177,-0.0179216,-0.0081794,-0.0179216,0.0000000*
4,1,4,-0.0070434,-0.0183073,-0.0081794,-0.0179216,0.0080177,-0.0179216,0.0072750,-0.0183073,-0.0070434,-0.0183073,0.0000000*
4,1,4,-0.0044251,-0.0191965,-0.0070434,-0.0183073,0.0072750,-0.0183073,0.0041530,-0.0191965,-0.0044251,-0.0191965,0.0000000*
4,1,4,-0.0028679,-0.0193933,-0.0044251,-0.0191965,0.0041530,-0.0191965,0.0034618,-0.0193933,-0.0028679,-0.0193933,0.0000000*
4,1,3,-0.0004916,-0.0196937,-0.0028679,-0.0193933,0.0034618,-0.0193933,-0.0004916,-0.0196937,0.0000000*
%
%AMCUSTOM_247_L1*
4,1,3,-0.0039446,0.0193009,0.0000000,0.0197000,0.0038690,0.0193009,-0.0039446,0.0193009,0.0000000*
4,1,4,-0.0039949,0.0192853,-0.0039446,0.0193009,0.0038690,0.0193009,0.0040209,0.0192853,-0.0039949,0.0192853,0.0000000*
4,1,4,-0.0077296,0.0181202,-0.0039949,0.0192853,0.0040209,0.0192853,0.0077043,0.0181202,-0.0077296,0.0181202,0.0000000*
4,1,4,-0.0077852,0.0180895,-0.0077296,0.0181202,0.0077043,0.0181202,0.0078011,0.0180895,-0.0077852,0.0180895,0.0000000*
4,1,4,-0.0112014,0.0162054,-0.0077852,0.0180895,0.0078011,0.0180895,0.0111859,0.0162054,-0.0112014,0.0162054,0.0000000*
4,1,4,-0.0112534,0.0161611,-0.0112014,0.0162054,0.0111859,0.0162054,0.0112654,0.0161611,-0.0112534,0.0161611,0.0000000*
4,1,4,-0.0142195,0.0136342,-0.0112534,0.0161611,0.0112654,0.0161611,0.0142079,0.0136342,-0.0142195,0.0136342,0.0000000*
4,1,4,-0.0142635,0.0135780,-0.0142195,0.0136342,0.0142079,0.0136342,0.0142733,0.0135780,-0.0142635,0.0135780,0.0000000*
4,1,4,-0.0166617,0.0105107,-0.0142635,0.0135780,0.0142733,0.0135780,0.0166520,0.0105107,-0.0166617,0.0105107,0.0000000*
4,1,4,-0.0166945,0.0104449,-0.0166617,0.0105107,0.0166520,0.0105107,0.0167031,0.0104449,-0.0166945,0.0104449,0.0000000*
4,1,4,-0.0184288,0.0069615,-0.0166945,0.0104449,0.0167031,0.0104449,0.0184203,0.0069615,-0.0184288,0.0069615,0.0000000*
4,1,4,-0.0184483,0.0068887,-0.0184288,0.0069615,0.0184203,0.0069615,0.0184562,0.0068887,-0.0184483,0.0068887,0.0000000*
4,1,4,-0.0194496,0.0031303,-0.0184483,0.0068887,0.0184562,0.0068887,0.0194418,0.0031303,-0.0194496,0.0031303,0.0000000*
4,1,4,-0.0194542,0.0030535,-0.0194496,0.0031303,0.0194418,0.0031303,0.0194619,0.0030535,-0.0194542,0.0030535,0.0000000*
4,1,4,-0.0196825,-0.0008276,-0.0194542,0.0030535,0.0194619,0.0030535,0.0196749,-0.0008276,-0.0196825,-0.0008276,0.0000000*
4,1,4,-0.0196713,-0.0009054,-0.0196825,-0.0008276,0.0196749,-0.0008276,0.0196791,-0.0009054,-0.0196713,-0.0009054,0.0000000*
4,1,4,-0.0191181,-0.0047520,-0.0196713,-0.0009054,0.0196791,-0.0009054,0.0191104,-0.0047520,-0.0191181,-0.0047520,0.0000000*
4,1,4,-0.0190908,-0.0048276,-0.0191181,-0.0047520,0.0191104,-0.0047520,0.0190993,-0.0048276,-0.0190908,-0.0048276,0.0000000*
4,1,4,-0.0177458,-0.0085543,-0.0190908,-0.0048276,0.0190993,-0.0048276,0.0177458,-0.0085543,-0.0177458,-0.0085543,0.0000000*
4,1,4,-0.0019000,-0.0782000,-0.0177458,-0.0085543,0.0177458,-0.0085543,0.0019000,-0.0782000,-0.0019000,-0.0782000,0.0000000*
4,1,4,-0.0012081,-0.0792306,-0.0018848,-0.0782000,0.0018848,-0.0782000,0.0011896,-0.0792306,-0.0012081,-0.0792306,0.0000000*
4,1,4,-0.0011226,-0.0792602,-0.0012081,-0.0792306,0.0011896,-0.0792306,0.0011696,-0.0792602,-0.0011226,-0.0792602,0.0000000*
4,1,3,0.0000000,-0.0796500,-0.0011226,-0.0792602,0.0011696,-0.0792602,0.0000000,-0.0796500,0.0000000*
%
%AMCUSTOM_234_L1*
4,1,4,-0.0145650,-0.0120100,-0.0145650,0.0120100,0.0145650,0.0120100,0.0145650,-0.0120100,-0.0145650,-0.0120100,0.0000000*
%
%AMCUSTOM_234_1_L1*
4,1,4,-0.0145650,-0.0120100,-0.0145650,0.0120100,0.0145650,0.0120100,0.0145650,-0.0120100,-0.0145650,-0.0120100,0.0000000*
%
%AMCUSTOM_231_L1*
4,1,3,-0.0154504,0.0004172,0.0004172,0.0162847,0.0162847,0.0004172,-0.0154504,0.0004172,0.0000000*
4,1,4,-0.0162847,-0.0004172,-0.0154504,0.0004172,0.0162847,0.0004172,0.0154504,-0.0004172,-0.0162847,-0.0004172,0.0000000*
4,1,3,-0.0004172,-0.0162847,-0.0162847,-0.0004172,0.0154504,-0.0004172,-0.0004172,-0.0162847,0.0000000*
%
%AMCUSTOM_238_L1*
4,1,4,-0.0295300,-0.0216550,-0.0295300,0.0216550,0.0295300,0.0216550,0.0295300,-0.0216550,-0.0295300,-0.0216550,0.0000000*
%
%AMCUSTOM_237_L1*
4,1,4,-0.0216550,-0.0295300,-0.0216550,0.0295300,0.0216550,0.0295300,0.0216550,-0.0295300,-0.0216550,-0.0295300,0.0000000*
%
%AMCUSTOM_250_L1*
4,1,3,-0.0050000,0.0311006,0.0000000,0.0315000,0.0046002,0.0311006,-0.0050000,0.0311006,0.0000000*
4,1,4,-0.0052953,0.0310286,-0.0050000,0.0311006,0.0046002,0.0311006,0.0054289,0.0310286,-0.0052953,0.0310286,0.0000000*
4,1,4,-0.0098733,0.0299126,-0.0052953,0.0310286,0.0054289,0.0310286,0.0097467,0.0299126,-0.0098733,0.0299126,0.0000000*
4,1,4,-0.0102039,0.0297734,-0.0098733,0.0299126,0.0097467,0.0299126,0.0102853,0.0297734,-0.0102039,0.0297734,0.0000000*
4,1,4,-0.0144961,0.0279661,-0.0102039,0.0297734,0.0102853,0.0297734,0.0144172,0.0279661,-0.0144961,0.0279661,0.0000000*
4,1,4,-0.0148212,0.0277633,-0.0144961,0.0279661,0.0144172,0.0279661,0.0148809,0.0277633,-0.0148212,0.0277633,0.0000000*
4,1,4,-0.0187515,0.0253106,-0.0148212,0.0277633,0.0148809,0.0277633,0.0186930,0.0253106,-0.0187515,0.0253106,0.0000000*
4,1,4,-0.0190470,0.0250492,-0.0187515,0.0253106,0.0186930,0.0253106,0.0190991,0.0250492,-0.0190470,0.0250492,0.0000000*
4,1,4,-0.0228331,0.0217000,-0.0190470,0.0250492,0.0190991,0.0250492,0.0228331,0.0217000,-0.0228331,0.0217000,0.0000000*
4,1,4,-0.0610000,-0.0217000,-0.0610000,0.0217000,0.0610000,0.0217000,0.0610000,-0.0217000,-0.0610000,-0.0217000,0.0000000*
4,1,4,-0.0190993,-0.0250492,-0.0228333,-0.0217000,0.0228333,-0.0217000,0.0190470,-0.0250492,-0.0190993,-0.0250492,0.0000000*
4,1,4,-0.0186930,-0.0253106,-0.0190993,-0.0250492,0.0190470,-0.0250492,0.0187515,-0.0253106,-0.0186930,-0.0253106,0.0000000*
4,1,4,-0.0148810,-0.0277633,-0.0186930,-0.0253106,0.0187515,-0.0253106,0.0148212,-0.0277633,-0.0148810,-0.0277633,0.0000000*
4,1,4,-0.0144172,-0.0279661,-0.0148810,-0.0277633,0.0148212,-0.0277633,0.0144962,-0.0279661,-0.0144172,-0.0279661,0.0000000*
4,1,4,-0.0102854,-0.0297734,-0.0144172,-0.0279661,0.0144962,-0.0279661,0.0102039,-0.0297734,-0.0102854,-0.0297734,0.0000000*
4,1,4,-0.0097468,-0.0299126,-0.0102854,-0.0297734,0.0102039,-0.0297734,0.0098733,-0.0299126,-0.0097468,-0.0299126,0.0000000*
4,1,4,-0.0054291,-0.0310286,-0.0097468,-0.0299126,0.0098733,-0.0299126,0.0052955,-0.0310286,-0.0054291,-0.0310286,0.0000000*
4,1,4,-0.0045993,-0.0311006,-0.0054291,-0.0310286,0.0052955,-0.0310286,0.0050000,-0.0311006,-0.0045993,-0.0311006,0.0000000*
4,1,3,0.0000000,-0.0315000,-0.0045993,-0.0311006,0.0050000,-0.0311006,0.0000000,-0.0315000,0.0000000*
%
%AMCUSTOM_249_L1*
4,1,4,-0.0217000,0.0229000,-0.0217000,0.0610000,0.0217000,0.0610000,0.0217000,0.0229000,-0.0217000,0.0229000,0.0000000*
4,1,4,-0.0217000,0.0228333,-0.0217000,0.0229000,0.0217000,0.0229000,0.0217000,0.0228333,-0.0217000,0.0228333,0.0000000*
4,1,4,-0.0250492,0.0190993,-0.0217002,0.0228331,0.0217000,0.0228331,0.0250029,0.0190993,-0.0250492,0.0190993,0.0000000*
4,1,4,-0.0252730,0.0187515,-0.0250492,0.0190993,0.0250029,0.0190993,0.0253106,0.0187515,-0.0252730,0.0187515,0.0000000*
4,1,4,-0.0277633,0.0148810,-0.0252730,0.0187515,0.0253106,0.0187515,0.0277260,0.0148810,-0.0277633,0.0148810,0.0000000*
4,1,4,-0.0279317,0.0144961,-0.0277633,0.0148810,0.0277260,0.0148810,0.0279661,0.0144961,-0.0279317,0.0144961,0.0000000*
4,1,4,-0.0297734,0.0102854,-0.0279317,0.0144961,0.0279661,0.0144961,0.0297391,0.0102854,-0.0297734,0.0102854,0.0000000*
4,1,4,-0.0298799,0.0098733,-0.0297734,0.0102854,0.0297391,0.0102854,0.0299126,0.0098733,-0.0298799,0.0098733,0.0000000*
4,1,4,-0.0310286,0.0054291,-0.0298799,0.0098733,0.0299126,0.0098733,0.0309960,0.0054291,-0.0310286,0.0054291,0.0000000*
4,1,4,-0.0310659,0.0050000,-0.0310286,0.0054291,0.0309960,0.0054291,0.0311006,0.0050000,-0.0310659,0.0050000,0.0000000*
4,1,4,-0.0315000,0.0000000,-0.0310659,0.0050000,0.0311006,0.0050000,0.0315000,0.0000000,-0.0315000,0.0000000,0.0000000*
4,1,4,-0.0311006,-0.0050000,-0.0315000,0.0000000,0.0315000,0.0000000,0.0310657,-0.0050000,-0.0311006,-0.0050000,0.0000000*
4,1,4,-0.0309961,-0.0054289,-0.0311006,-0.0050000,0.0310657,-0.0050000,0.0310286,-0.0054289,-0.0309961,-0.0054289,0.0000000*
4,1,4,-0.0299126,-0.0098733,-0.0309961,-0.0054289,0.0310286,-0.0054289,0.0298798,-0.0098733,-0.0299126,-0.0098733,0.0000000*
4,1,4,-0.0297391,-0.0102853,-0.0299126,-0.0098733,0.0298798,-0.0098733,0.0297734,-0.0102853,-0.0297391,-0.0102853,0.0000000*
4,1,4,-0.0279661,-0.0144962,-0.0297391,-0.0102853,0.0297734,-0.0102853,0.0279315,-0.0144962,-0.0279661,-0.0144962,0.0000000*
4,1,4,-0.0277261,-0.0148809,-0.0279661,-0.0144962,0.0279315,-0.0144962,0.0277633,-0.0148809,-0.0277261,-0.0148809,0.0000000*
4,1,4,-0.0253106,-0.0187515,-0.0277261,-0.0148809,0.0277633,-0.0148809,0.0252728,-0.0187515,-0.0253106,-0.0187515,0.0000000*
4,1,4,-0.0250031,-0.0190991,-0.0253106,-0.0187515,0.0252728,-0.0187515,0.0250492,-0.0190991,-0.0250031,-0.0190991,0.0000000*
4,1,4,-0.0217001,-0.0228331,-0.0250031,-0.0190991,0.0250492,-0.0190991,0.0217000,-0.0228331,-0.0217001,-0.0228331,0.0000000*
4,1,4,-0.0217000,-0.0229000,-0.0217000,-0.0228333,0.0217000,-0.0228333,0.0217000,-0.0229000,-0.0217000,-0.0229000,0.0000000*
4,1,4,-0.0217000,-0.0610000,-0.0217000,-0.0229000,0.0217000,-0.0229000,0.0217000,-0.0610000,-0.0217000,-0.0610000,0.0000000*
%
%AMCUSTOM_248_L1*
4,1,3,-0.0050000,0.0311006,0.0000000,0.0315000,0.0046002,0.0311006,-0.0050000,0.0311006,0.0000000*
4,1,4,-0.0052953,0.0310286,-0.0050000,0.0311006,0.0046002,0.0311006,0.0054289,0.0310286,-0.0052953,0.0310286,0.0000000*
4,1,4,-0.0098733,0.0299126,-0.0052953,0.0310286,0.0054289,0.0310286,0.0097467,0.0299126,-0.0098733,0.0299126,0.0000000*
4,1,4,-0.0102039,0.0297734,-0.0098733,0.0299126,0.0097467,0.0299126,0.0102853,0.0297734,-0.0102039,0.0297734,0.0000000*
4,1,4,-0.0144961,0.0279661,-0.0102039,0.0297734,0.0102853,0.0297734,0.0144172,0.0279661,-0.0144961,0.0279661,0.0000000*
4,1,4,-0.0148212,0.0277633,-0.0144961,0.0279661,0.0144172,0.0279661,0.0148809,0.0277633,-0.0148212,0.0277633,0.0000000*
4,1,4,-0.0187515,0.0253106,-0.0148212,0.0277633,0.0148809,0.0277633,0.0186930,0.0253106,-0.0187515,0.0253106,0.0000000*
4,1,4,-0.0190470,0.0250492,-0.0187515,0.0253106,0.0186930,0.0253106,0.0190991,0.0250492,-0.0190470,0.0250492,0.0000000*
4,1,4,-0.0228331,0.0217000,-0.0190470,0.0250492,0.0190991,0.0250492,0.0228331,0.0217000,-0.0228331,0.0217000,0.0000000*
4,1,4,-0.0610000,-0.0217000,-0.0610000,0.0217000,0.0610000,0.0217000,0.0610000,-0.0217000,-0.0610000,-0.0217000,0.0000000*
4,1,4,-0.0190993,-0.0250492,-0.0228333,-0.0217000,0.0228333,-0.0217000,0.0190470,-0.0250492,-0.0190993,-0.0250492,0.0000000*
4,1,4,-0.0186930,-0.0253106,-0.0190993,-0.0250492,0.0190470,-0.0250492,0.0187515,-0.0253106,-0.0186930,-0.0253106,0.0000000*
4,1,4,-0.0148810,-0.0277633,-0.0186930,-0.0253106,0.0187515,-0.0253106,0.0148212,-0.0277633,-0.0148810,-0.0277633,0.0000000*
4,1,4,-0.0144172,-0.0279661,-0.0148810,-0.0277633,0.0148212,-0.0277633,0.0144962,-0.0279661,-0.0144172,-0.0279661,0.0000000*
4,1,4,-0.0102854,-0.0297734,-0.0144172,-0.0279661,0.0144962,-0.0279661,0.0102039,-0.0297734,-0.0102854,-0.0297734,0.0000000*
4,1,4,-0.0097468,-0.0299126,-0.0102854,-0.0297734,0.0102039,-0.0297734,0.0098733,-0.0299126,-0.0097468,-0.0299126,0.0000000*
4,1,4,-0.0054291,-0.0310286,-0.0097468,-0.0299126,0.0098733,-0.0299126,0.0052955,-0.0310286,-0.0054291,-0.0310286,0.0000000*
4,1,4,-0.0045993,-0.0311006,-0.0054291,-0.0310286,0.0052955,-0.0310286,0.0050000,-0.0311006,-0.0045993,-0.0311006,0.0000000*
4,1,3,0.0000000,-0.0315000,-0.0045993,-0.0311006,0.0050000,-0.0311006,0.0000000,-0.0315000,0.0000000*
%
%AMCUSTOM_228_L1*
4,1,4,-0.0354350,-0.0354350,-0.0354350,0.0354350,0.0354350,0.0354350,0.0354350,-0.0354350,-0.0354350,-0.0354350,0.0000000*
%
%AMCUSTOM_242_L1*
4,1,4,-0.0521650,-0.0374000,-0.0521650,0.0374000,0.0521650,0.0374000,0.0521650,-0.0374000,-0.0521650,-0.0374000,0.0000000*
%
%AMCUSTOM_245_L1*
4,1,3,0.0542569,0.0567678,0.0554890,0.0568140,0.0555557,0.0567678,0.0542569,0.0567678,0.0000000*
4,1,4,0.0539630,0.0566286,0.0542569,0.0567678,0.0555557,0.0567678,0.0557568,0.0566286,0.0539630,0.0566286,0.0000000*
4,1,3,0.0539352,0.0566286,0.0539523,0.0566393,0.0539630,0.0566286,0.0539352,0.0566286,0.0000000*
4,1,4,0.0531144,0.0561120,0.0539352,0.0566286,0.0557568,0.0566286,0.0565025,0.0561120,0.0531144,0.0561120,0.0000000*
4,1,4,0.0512558,0.0549424,0.0531144,0.0561120,0.0565025,0.0561120,0.0568924,0.0549424,0.0512558,0.0549424,0.0000000*
4,1,4,0.0504498,0.0544352,0.0512558,0.0549424,0.0568924,0.0549424,0.0568253,0.0544352,0.0504498,0.0544352,0.0000000*
4,1,4,0.0496994,0.0539630,0.0504498,0.0544352,0.0568253,0.0544352,0.0566286,0.0539630,0.0496994,0.0539630,0.0000000*
4,1,4,0.0496824,0.0539523,0.0496994,0.0539630,0.0566286,0.0539630,0.0566393,0.0539523,0.0496824,0.0539523,0.0000000*
4,1,4,-0.0064995,0.0185969,0.0496824,0.0539523,0.0566393,0.0539523,0.0343901,0.0185969,-0.0064995,0.0185969,0.0000000*
4,1,4,-0.0100917,0.0169188,-0.0064995,0.0185969,0.0343901,0.0185969,0.0333340,0.0169188,-0.0100917,0.0169188,0.0000000*
4,1,4,-0.0132751,0.0145554,-0.0100917,0.0169188,0.0333340,0.0169188,0.0318467,0.0145554,-0.0132751,0.0145554,0.0000000*
4,1,4,-0.0159209,0.0116024,-0.0132751,0.0145554,0.0318467,0.0145554,0.0299883,0.0116024,-0.0159209,0.0116024,0.0000000*
4,1,4,-0.0179217,0.0081794,-0.0159209,0.0116024,0.0299883,0.0116024,0.0278343,0.0081794,-0.0179217,0.0081794,0.0000000*
4,1,4,-0.0191965,0.0044251,-0.0179217,0.0081794,0.0278343,0.0081794,0.0254717,0.0044251,-0.0191965,0.0044251,0.0000000*
4,1,4,-0.0197000,0.0000000,-0.0191965,0.0044251,0.0254717,0.0044251,0.0226870,0.0000000,-0.0197000,0.0000000,0.0000000*
4,1,4,-0.0193009,-0.0039446,-0.0197000,0.0000000,0.0226870,0.0000000,0.0202046,-0.0039446,-0.0193009,-0.0039446,0.0000000*
4,1,4,-0.0185039,-0.0064994,-0.0193009,-0.0039446,0.0202046,-0.0039446,0.0185969,-0.0064994,-0.0185039,-0.0064994,0.0000000*
4,1,4,-0.0181202,-0.0077296,-0.0185039,-0.0064994,0.0185969,-0.0064994,0.0180350,-0.0077296,-0.0181202,-0.0077296,0.0000000*
4,1,4,-0.0169775,-0.0098015,-0.0181202,-0.0077296,0.0180350,-0.0077296,0.0170886,-0.0098015,-0.0169775,-0.0098015,0.0000000*
4,1,4,-0.0162054,-0.0112014,-0.0169775,-0.0098015,0.0170886,-0.0098015,0.0160858,-0.0112014,-0.0162054,-0.0112014,0.0000000*
4,1,4,-0.0146520,-0.0130248,-0.0162054,-0.0112014,0.0160858,-0.0112014,0.0147798,-0.0130248,-0.0146520,-0.0130248,0.0000000*
4,1,4,-0.0136343,-0.0142195,-0.0146520,-0.0130248,0.0147798,-0.0130248,0.0134912,-0.0142195,-0.0136343,-0.0142195,0.0000000*
4,1,4,-0.0117144,-0.0157206,-0.0136343,-0.0142195,0.0134912,-0.0142195,0.0118724,-0.0157206,-0.0117144,-0.0157206,0.0000000*
4,1,4,-0.0105108,-0.0166617,-0.0117144,-0.0157206,0.0118724,-0.0157206,0.0103235,-0.0166617,-0.0105108,-0.0166617,0.0000000*
4,1,4,-0.0082658,-0.0177794,-0.0105108,-0.0166617,0.0103235,-0.0166617,0.0084840,-0.0177794,-0.0082658,-0.0177794,0.0000000*
4,1,4,-0.0069616,-0.0184289,-0.0082658,-0.0177794,0.0084840,-0.0177794,0.0066735,-0.0184289,-0.0069616,-0.0184289,0.0000000*
4,1,4,-0.0043745,-0.0191182,-0.0069616,-0.0184289,0.0066735,-0.0184289,0.0047520,-0.0191182,-0.0043745,-0.0191182,0.0000000*
4,1,4,-0.0031303,-0.0194497,-0.0043745,-0.0191182,0.0047520,-0.0191182,0.0024470,-0.0194497,-0.0031303,-0.0194497,0.0000000*
4,1,3,0.0008276,-0.0196826,-0.0031303,-0.0194497,0.0024470,-0.0194497,0.0008276,-0.0196826,0.0000000*
%
%AMCUSTOM_229_L1*
4,1,3,-0.0750948,0.0000000,0.0000000,0.0750948,0.0750948,0.0000000,-0.0750948,0.0000000,0.0000000*
4,1,3,0.0000000,-0.0750948,-0.0750948,0.0000000,0.0750948,0.0000000,0.0000000,-0.0750948,0.0000000*
%
%AMCUSTOM_240_L1*
4,1,4,-0.0295000,-0.0270000,-0.0295000,0.0270000,0.0295000,0.0270000,0.0295000,-0.0270000,-0.0295000,-0.0270000,0.0000000*
%
%AMCUSTOM_243_L1*
4,1,4,-0.0384250,-0.0344900,-0.0384250,0.0344900,0.0384250,0.0344900,0.0384250,-0.0344900,-0.0384250,-0.0344900,0.0000000*
%
%AMCUSTOM_227_L1*
4,1,4,-0.0170000,-0.0170000,-0.0170000,0.0170000,0.0170000,0.0170000,0.0170000,-0.0170000,-0.0170000,-0.0170000,0.0000000*
%
%AMCUSTOM_244_L1*
4,1,4,-0.0344900,-0.0384250,-0.0344900,0.0384250,0.0344900,0.0384250,0.0344900,-0.0384250,-0.0344900,-0.0384250,0.0000000*
%
%AMCUSTOM_236_L1*
4,1,4,-0.0120100,-0.0145650,-0.0120100,0.0145650,0.0120100,0.0145650,0.0120100,-0.0145650,-0.0120100,-0.0145650,0.0000000*
%
%AMCUSTOM_226_L1*
4,1,4,-0.0088600,-0.0088600,-0.0088600,0.0088600,0.0088600,0.0088600,0.0088600,-0.0088600,-0.0088600,-0.0088600,0.0000000*
%
%AMCUSTOM_225_L1*
4,1,3,-0.0097439,0.0000000,0.0000000,0.0097439,0.0097439,0.0000000,-0.0097439,0.0000000,0.0000000*
4,1,3,0.0000000,-0.0097439,-0.0097439,0.0000000,0.0097439,0.0000000,0.0000000,-0.0097439,0.0000000*
%
%AMCUSTOM_241_L1*
4,1,4,-0.0374000,-0.0177150,-0.0374000,0.0177150,0.0374000,0.0177150,0.0374000,-0.0177150,-0.0374000,-0.0177150,0.0000000*
%
%AMCUSTOM_233_L1*
4,1,3,-0.0162847,0.0004172,-0.0004172,0.0162847,0.0154504,0.0004172,-0.0162847,0.0004172,0.0000000*
4,1,4,-0.0154504,-0.0004172,-0.0162847,0.0004172,0.0154504,0.0004172,0.0162847,-0.0004172,-0.0154504,-0.0004172,0.0000000*
4,1,3,0.0004172,-0.0162847,-0.0154504,-0.0004172,0.0162847,-0.0004172,0.0004172,-0.0162847,0.0000000*
%
%AMCUSTOM_239_L1*
4,1,4,-0.0270000,-0.0295000,-0.0270000,0.0295000,0.0270000,0.0295000,0.0270000,-0.0295000,-0.0270000,-0.0295000,0.0000000*
%
%AMCUSTOM_232_L1*
4,1,4,-0.0112200,-0.0118100,-0.0112200,0.0118100,0.0112200,0.0118100,0.0112200,-0.0118100,-0.0112200,-0.0118100,0.0000000*
%
%AMCUSTOM_232_1_L1*
4,1,4,-0.0112200,-0.0118100,-0.0112200,0.0118100,0.0112200,0.0118100,0.0112200,-0.0118100,-0.0112200,-0.0118100,0.0000000*
%
%AMCUSTOM_232_2_L1*
4,1,4,-0.0112200,-0.0118100,-0.0112200,0.0118100,0.0112200,0.0118100,0.0112200,-0.0118100,-0.0112200,-0.0118100,0.0000000*
%
%AMCUSTOM_232_3_L1*
4,1,4,-0.0112200,-0.0118100,-0.0112200,0.0118100,0.0112200,0.0118100,0.0112200,-0.0118100,-0.0112200,-0.0118100,0.0000000*
%
%AMCUSTOM_235_L1*
4,1,3,-0.0151781,0.0018066,0.0018066,0.0187913,0.0187913,0.0018066,-0.0151781,0.0018066,0.0000000*
4,1,4,-0.0187913,-0.0018066,-0.0151781,0.0018066,0.0187913,0.0018066,0.0151781,-0.0018066,-0.0187913,-0.0018066,0.0000000*
4,1,3,-0.0018066,-0.0187913,-0.0187913,-0.0018066,0.0151781,-0.0018066,-0.0018066,-0.0187913,0.0000000*
%
%AMCUSTOM_230_L1*
4,1,4,-0.0118100,-0.0112200,-0.0118100,0.0112200,0.0118100,0.0112200,0.0118100,-0.0112200,-0.0118100,-0.0112200,0.0000000*
%
%AMCUSTOM_230_1_L1*
4,1,4,-0.0118100,-0.0112200,-0.0118100,0.0112200,0.0118100,0.0112200,0.0118100,-0.0112200,-0.0118100,-0.0112200,0.0000000*
%
%AMCUSTOM_230_2_L1*
4,1,4,-0.0118100,-0.0112200,-0.0118100,0.0112200,0.0118100,0.0112200,0.0118100,-0.0112200,-0.0118100,-0.0112200,0.0000000*
%
%AMCUSTOM_224_L1*
4,1,4,-0.0068900,-0.0068900,-0.0068900,0.0068900,0.0068900,0.0068900,0.0068900,-0.0068900,-0.0068900,-0.0068900,0.0000000*
%
%AMCUSTOM_224_1_L1*
4,1,4,-0.0068900,-0.0068900,-0.0068900,0.0068900,0.0068900,0.0068900,0.0068900,-0.0068900,-0.0068900,-0.0068900,0.0000000*
%
%AMROUND_11_1_L1*
1,1,0.0393699,0.0000000,0.0000000*
%
%AMROUND_11_2_L1*
1,1,0.0393699,0.0000000,0.0000000*
%
%ADD73OBLONG_222_L1*%
%ADD30OBLONG_221_L1*%
%ADD31OBLONG_223_L1*%
%ADD40OBLONG_220_L1*%
%ADD43ROUND_14_L1*%
%ADD47ROUND_214_L1*%
%ADD50ROUND_213_L1*%
%ADD67ROUND_96_L1*%
%ADD77ROUND_217_L1*%
%ADD78ROUND_80_L1*%
%ADD97ROUND_216_L1*%
%ADD98ROUND_11_L1*%
%ADD113ROUND_219_L1*%
%ADD164ROUND_218_L1*%
%ADD165ROUND_215_L1*%
%ADD166CUSTOM_246_L1*%
%ADD167CUSTOM_247_L1*%
%ADD168CUSTOM_234_L1*%
%ADD169CUSTOM_234_1_L1*%
%ADD170CUSTOM_231_L1*%
%ADD171CUSTOM_238_L1*%
%ADD172CUSTOM_237_L1*%
%ADD173CUSTOM_250_L1*%
%ADD174CUSTOM_249_L1*%
%ADD175CUSTOM_248_L1*%
%ADD176CUSTOM_228_L1*%
%ADD177CUSTOM_242_L1*%
%ADD178CUSTOM_245_L1*%
%ADD179CUSTOM_229_L1*%
%ADD180CUSTOM_240_L1*%
%ADD181CUSTOM_243_L1*%
%ADD182CUSTOM_227_L1*%
%ADD183CUSTOM_244_L1*%
%ADD184CUSTOM_236_L1*%
%ADD185CUSTOM_226_L1*%
%ADD186CUSTOM_225_L1*%
%ADD187CUSTOM_241_L1*%
%ADD188CUSTOM_233_L1*%
%ADD189CUSTOM_239_L1*%
%ADD190CUSTOM_232_L1*%
%ADD191CUSTOM_232_1_L1*%
%ADD192CUSTOM_232_2_L1*%
%ADD193CUSTOM_232_3_L1*%
%ADD194CUSTOM_235_L1*%
%ADD195CUSTOM_230_L1*%
%ADD196CUSTOM_230_1_L1*%
%ADD197CUSTOM_230_2_L1*%
%ADD198CUSTOM_224_L1*%
%ADD199CUSTOM_224_1_L1*%
%ADD200ROUND_11_1_L1*%
%ADD201ROUND_11_2_L1*%
%ADD358C,0.00394*%
%LNSOLDERMASKBOTTOM_GDO*%
%LPD*%
G36*
X701Y2968D02*
G01Y3078D01*
X740*
Y2968*
X701*
G37*
G36*
X114Y256D02*
G01Y909D01*
X382*
Y256*
X114*
G37*
G36*
X2893Y6102D02*
G01Y6835D01*
X5955*
Y6102*
X2893*
G37*
G54D166*
X3267Y665D03*
G54D167*
X3300Y572D03*
G54D168*
X5657Y4982D03*
G54D169*
X5656Y5012D03*
G54D168*
Y5043D03*
X5614Y4982D03*
G54D169*
X5613Y5012D03*
G54D168*
Y5043D03*
X2729Y2968D03*
X2686D03*
X2653Y1102D03*
X2610D03*
X2458Y2710D03*
X2415D03*
X2411Y2822D03*
X2396Y2885D03*
X2368Y2822D03*
X2353Y2885D03*
X2325Y2947D03*
X2282D03*
X2088Y3248D03*
X2045D03*
X1992Y3464D03*
X1990Y2741D03*
Y2817D03*
X1986Y2781D03*
X1982Y2866D03*
X1949Y3464D03*
X1947Y2741D03*
Y2817D03*
X1943Y2781D03*
X1939Y2866D03*
X1910Y3093D03*
Y3127D03*
X1874Y3396D03*
X1867Y3093D03*
Y3127D03*
X1831Y3396D03*
G54D170*
X3083Y3911D03*
X3057Y3938D03*
X2877Y3109D03*
X2850Y3135D03*
G54D73*
X307Y1697D03*
G54D30*
X189Y1882D03*
G54D31*
X433D03*
G54D171*
X2468Y6978D03*
Y6849D03*
G54D172*
X2082Y6853D03*
X2042Y6963D03*
X2003Y6853D03*
G54D40*
X253Y3200D03*
Y2863D03*
X67Y3200D03*
Y2863D03*
G54D43*
X299Y3142D03*
Y3110D03*
Y3079D03*
Y3047D03*
Y3016D03*
Y2984D03*
Y2953D03*
Y2921D03*
X271Y3126D03*
Y3094D03*
Y3063D03*
Y3000D03*
Y2968D03*
Y2937D03*
G54D47*
X446Y5954D03*
Y5864D03*
Y5334D03*
Y5244D03*
Y4714D03*
Y4624D03*
Y4094D03*
Y4004D03*
G54D50*
X264Y6513D03*
Y6433D03*
X257Y5825D03*
Y5744D03*
Y5664D03*
Y5584D03*
Y5205D03*
Y5124D03*
Y5044D03*
Y4964D03*
Y4585D03*
Y4504D03*
Y4424D03*
Y4344D03*
Y3964D03*
Y3884D03*
Y3804D03*
Y3723D03*
X194Y6473D03*
Y6393D03*
X187Y5785D03*
Y5704D03*
Y5624D03*
Y5544D03*
Y5164D03*
Y5084D03*
Y5004D03*
Y4923D03*
Y4544D03*
Y4464D03*
Y4384D03*
Y4303D03*
Y3924D03*
Y3844D03*
Y3764D03*
Y3683D03*
G54D173*
X3701Y428D03*
X2717Y1322D03*
G54D174*
X3470Y2852D03*
X1704Y4097D03*
G54D175*
X5715Y4635D03*
X3043Y6950D03*
G54D67*
X791Y2600D03*
X689Y2532D03*
Y2413D03*
X563Y2532D03*
Y2413D03*
X437Y2532D03*
Y2413D03*
X335Y2345D03*
G54D77*
X6299Y1693D03*
Y1417D03*
Y984D03*
Y709D03*
X696Y1480D03*
Y1116D03*
X354Y7110D03*
Y6835D03*
X178Y1480D03*
Y1116D03*
G54D78*
X6398Y1644D03*
Y1467D03*
Y935D03*
Y758D03*
X256Y7061D03*
Y6884D03*
G54D176*
X6250Y2782D03*
Y2682D03*
Y2582D03*
Y2482D03*
Y2382D03*
Y2282D03*
Y2182D03*
Y2082D03*
Y1982D03*
Y1882D03*
X6150Y2782D03*
Y2682D03*
Y2582D03*
Y2482D03*
Y2382D03*
Y2282D03*
Y2182D03*
Y2082D03*
Y1982D03*
Y1882D03*
X5805Y2831D03*
Y2731D03*
X5705Y2831D03*
Y2731D03*
X5527Y398D03*
Y162D03*
X5427Y398D03*
Y162D03*
X5327Y398D03*
Y162D03*
X5227Y398D03*
Y162D03*
X5127Y398D03*
Y162D03*
G54D177*
X1576Y6317D03*
Y6192D03*
X1431Y6317D03*
Y6192D03*
G54D97*
X4889Y365D03*
X4692D03*
X4367D03*
X4170D03*
X1832D03*
X1635D03*
G54D178*
X3333Y665D03*
G54D179*
X2737Y815D03*
G54D113*
X6154Y7146D03*
Y177D03*
X878Y7146D03*
Y177D03*
G54D180*
X2110Y2507D03*
Y2433D03*
X1992Y2528D03*
Y2453D03*
X1847Y2633D03*
Y2558D03*
X1692Y6318D03*
Y6243D03*
G54D181*
X2180Y3373D03*
Y3263D03*
X1971Y3398D03*
Y3288D03*
X1860Y3327D03*
Y3217D03*
G54D182*
X2553Y2898D03*
Y2835D03*
X2455Y3516D03*
X2442Y3712D03*
X2392Y3516D03*
X2379Y3712D03*
X2091Y3363D03*
Y3300D03*
X2050Y3193D03*
X2018Y3118D03*
X1987Y3193D03*
X1955Y3118D03*
G54D183*
X2302Y3738D03*
X2192D03*
X2036Y3025D03*
X1926D03*
X1902Y6278D03*
X1792D03*
X1247Y6253D03*
X1137D03*
X1136Y3721D03*
X1106Y5942D03*
X1095Y4724D03*
X1093Y4916D03*
X1026Y3721D03*
X996Y5942D03*
X985Y4724D03*
X983Y4916D03*
G54D184*
X2977Y2620D03*
Y2577D03*
X2945Y2618D03*
Y2575D03*
X2863Y2613D03*
Y2570D03*
X2855Y2432D03*
Y2389D03*
X2818Y2431D03*
Y2388D03*
X2654Y2892D03*
Y2849D03*
X2651Y2775D03*
Y2732D03*
X2210Y2414D03*
Y2371D03*
X2050Y2459D03*
Y2416D03*
X1939Y3219D03*
Y3176D03*
X1935Y2477D03*
Y2434D03*
X1864Y2740D03*
Y2697D03*
X1825Y2739D03*
Y2696D03*
X1787Y3259D03*
Y3216D03*
G54D185*
X5116Y5076D03*
X5029Y3908D03*
X4514Y3923D03*
X4011Y3316D03*
X3686Y5347D03*
X3677Y5278D03*
X2316Y3039D03*
X2176Y2654D03*
X2053Y6658D03*
G54D186*
X3862Y5329D03*
X3848Y5342D03*
X3618Y5650D03*
X3604Y5664D03*
X3528Y5577D03*
X3514Y5591D03*
X2399Y2670D03*
X2386Y2656D03*
G54D187*
X2560Y3417D03*
Y3358D03*
X2439Y3417D03*
Y3358D03*
X2319Y3417D03*
Y3358D03*
G54D188*
X5472Y5150D03*
X5446Y5123D03*
X4033Y5349D03*
X4007Y5322D03*
X3362Y3089D03*
X3336Y3114D03*
Y3063D03*
X3313Y3141D03*
X3310Y3087D03*
X3304Y3184D03*
X3287Y3114D03*
X3277Y3158D03*
X2827Y805D03*
X2800Y778D03*
X2764Y742D03*
X2738Y716D03*
X2686Y895D03*
X2661Y944D03*
X2659Y869D03*
X2636Y970D03*
X2634Y918D03*
X2609Y944D03*
G54D189*
X2450Y3587D03*
X2375D03*
X2331Y2484D03*
X2256D03*
X2142Y3536D03*
X2067D03*
X2024Y2664D03*
X1950D03*
X1927Y2341D03*
X1852D03*
G54D190*
X5905Y6917D03*
X5867D03*
X5530Y5434D03*
Y5402D03*
X5492Y5434D03*
Y5402D03*
X5489Y5042D03*
X5452D03*
X5115Y5184D03*
X5114Y5243D03*
X5077Y5184D03*
X5076Y5243D03*
G54D191*
X5062Y5014D03*
G54D192*
X5035Y5434D03*
G54D193*
X5024Y5014D03*
G54D192*
X5022Y5296D03*
G54D190*
X5009Y5377D03*
X4997Y5434D03*
X4985Y5296D03*
X4971Y5377D03*
X4965Y5456D03*
X4928D03*
X4899Y5403D03*
X4862D03*
X4732Y5533D03*
X4694D03*
X4088Y5594D03*
Y5628D03*
X4051Y5594D03*
X4050Y5628D03*
X4049Y5236D03*
X4012D03*
X3921Y3162D03*
X3913Y5653D03*
X3883Y3162D03*
X3876Y5653D03*
X3727Y3216D03*
X3689D03*
X3673Y5382D03*
X3672Y5437D03*
X3635Y5382D03*
X3634Y5437D03*
X3620Y5207D03*
X3582D03*
X3460Y5591D03*
X3423D03*
X3330Y5995D03*
X3302Y2950D03*
X3293Y5995D03*
X3264Y2950D03*
X3228Y5700D03*
X3191D03*
X3179Y3756D03*
X3141D03*
X3119Y2392D03*
X3082D03*
X3050Y2435D03*
X3036Y6894D03*
X3013Y2435D03*
X2999Y6894D03*
X2962Y2710D03*
X2952Y796D03*
X2951Y2382D03*
X2924Y2710D03*
X2915Y796D03*
X2914Y2382D03*
X2889Y2726D03*
X2884Y2208D03*
X2869Y2998D03*
X2867Y2869D03*
X2861Y2500D03*
X2852Y2726D03*
X2847Y2208D03*
X2832Y2998D03*
X2830Y2869D03*
X2823Y2500D03*
X2815Y3187D03*
Y3154D03*
X2813Y2466D03*
X2778Y3187D03*
Y3154D03*
X2776Y2466D03*
X2740Y2908D03*
X2738Y2344D03*
X2710Y2668D03*
X2703Y2908D03*
X2701Y2344D03*
X2673Y2668D03*
X2634Y3468D03*
X2616Y2981D03*
X2597Y3468D03*
X2592Y786D03*
X2578Y2981D03*
X2574Y3585D03*
Y3549D03*
X2554Y786D03*
X2537Y3585D03*
Y3549D03*
X2522Y857D03*
X2521Y890D03*
G54D192*
X2486Y3108D03*
G54D190*
X2484Y858D03*
X2483Y891D03*
X2460Y3075D03*
X2449Y3108D03*
X2446Y3470D03*
X2439Y3012D03*
Y2979D03*
X2427Y3757D03*
X2423Y3075D03*
X2410Y2854D03*
X2408Y3470D03*
X2402Y2979D03*
Y3012D03*
X2393Y2769D03*
X2390Y3757D03*
X2389Y3175D03*
X2373Y2854D03*
X2366Y6848D03*
X2365Y3224D03*
X2356Y2769D03*
X2352Y3175D03*
X2347Y3523D03*
X2329Y6848D03*
X2328Y3224D03*
X2310Y3557D03*
Y3523D03*
X2283Y4242D03*
Y4176D03*
Y4143D03*
Y4110D03*
Y4077D03*
Y4045D03*
Y3946D03*
Y3912D03*
Y3879D03*
Y3846D03*
Y4209D03*
Y3980D03*
X2281Y3813D03*
X2273Y3557D03*
X2264Y3523D03*
X2246Y4242D03*
Y4176D03*
Y4143D03*
Y4110D03*
Y4077D03*
Y4045D03*
Y3946D03*
Y3912D03*
Y3879D03*
Y4209D03*
Y3980D03*
Y3846D03*
X2243Y3813D03*
X2226Y3523D03*
X2213Y3910D03*
X2184Y477D03*
X2176Y3910D03*
X2147Y477D03*
X2118Y2724D03*
X2099Y547D03*
X2097Y3636D03*
Y3603D03*
X2094Y3672D03*
X2082Y2881D03*
X2080Y2724D03*
X2068Y2817D03*
Y2784D03*
X2061Y547D03*
X2059Y3636D03*
Y3603D03*
X2057Y3672D03*
X2045Y2881D03*
X2031Y2817D03*
Y2784D03*
X1894Y2867D03*
X1856D03*
X1651Y6529D03*
X1646Y6801D03*
X1613Y6529D03*
X1608Y6801D03*
X1593Y6494D03*
X1555D03*
X1231Y6346D03*
X1196Y4657D03*
X1195Y4014D03*
Y4536D03*
X1194Y4136D03*
Y4417D03*
X1193Y6346D03*
Y3788D03*
X1192Y3894D03*
X1188Y4296D03*
X1183Y5866D03*
Y5744D03*
Y5625D03*
Y5505D03*
Y5342D03*
Y5223D03*
Y5103D03*
Y4983D03*
X1158Y4657D03*
Y4014D03*
X1157Y4536D03*
Y4136D03*
X1156Y4417D03*
X1155Y3788D03*
Y3894D03*
X1151Y4296D03*
X1146Y5866D03*
Y5744D03*
Y5625D03*
Y5505D03*
Y5342D03*
Y5223D03*
Y5103D03*
Y4983D03*
X1100Y2424D03*
X1062D03*
X953Y4135D03*
Y4012D03*
Y3893D03*
Y3771D03*
X952Y4658D03*
Y4537D03*
Y4415D03*
Y4293D03*
X951Y5866D03*
Y5745D03*
Y5623D03*
Y5500D03*
Y5344D03*
Y5218D03*
Y5107D03*
Y4983D03*
X915Y4135D03*
Y4012D03*
Y3893D03*
Y3771D03*
X914Y4658D03*
Y4537D03*
Y4415D03*
Y4293D03*
Y5866D03*
Y5745D03*
Y5623D03*
Y5500D03*
Y5344D03*
Y5218D03*
Y5107D03*
Y4983D03*
X883Y2933D03*
X846D03*
X744Y2945D03*
X707D03*
G54D194*
X4187Y5245D03*
X4172Y5279D03*
X4169Y5183D03*
X4156Y5215D03*
X4141Y5249D03*
X4138Y5153D03*
G54D195*
X5994Y6066D03*
Y6028D03*
X5931Y3567D03*
Y3529D03*
X5752Y1749D03*
Y1711D03*
X5661Y5111D03*
Y5074D03*
X5527Y5156D03*
Y5119D03*
X5460Y5448D03*
Y5410D03*
X5457Y4996D03*
Y4959D03*
X5427Y5448D03*
Y5410D03*
X5424Y4942D03*
Y4905D03*
X5399Y5197D03*
Y5160D03*
X5238Y5455D03*
Y5418D03*
G54D196*
X5189Y5038D03*
G54D197*
Y5001D03*
G54D195*
X5165Y5356D03*
Y5318D03*
X5163Y5243D03*
Y5205D03*
X5156Y5044D03*
Y5006D03*
X5118Y5466D03*
Y5428D03*
X5083Y5464D03*
Y5427D03*
X5078Y5098D03*
Y5061D03*
X5044Y5098D03*
Y5061D03*
X4136Y5351D03*
Y5314D03*
X4094Y3363D03*
Y3325D03*
X4085Y5350D03*
Y5312D03*
X4018Y5641D03*
Y5604D03*
X4017Y5187D03*
Y5149D03*
X3985Y5641D03*
Y5604D03*
X3981Y5136D03*
Y5099D03*
X3976Y2966D03*
Y2929D03*
X3975Y3432D03*
Y3395D03*
X3956Y5389D03*
Y5352D03*
X3941Y3431D03*
Y3394D03*
X3847Y3235D03*
Y3198D03*
X3808Y3444D03*
Y3407D03*
X3747Y5232D03*
Y5195D03*
X3714Y5237D03*
Y5200D03*
X3710Y3316D03*
Y3278D03*
X3683Y5657D03*
Y5620D03*
X3650Y5657D03*
Y5620D03*
X3613Y5311D03*
Y5274D03*
X3582Y5638D03*
Y5601D03*
X3580Y5311D03*
Y5274D03*
X3549Y5638D03*
Y5600D03*
X3545Y5521D03*
Y5483D03*
X3229Y2987D03*
Y2950D03*
X3222Y3935D03*
Y3898D03*
X3010Y2643D03*
Y2606D03*
X2913Y2620D03*
Y2582D03*
X2909Y914D03*
Y876D03*
X2904Y3980D03*
Y3943D03*
X2876Y943D03*
Y906D03*
X2865Y3990D03*
Y3953D03*
X2856Y3067D03*
Y3030D03*
X2832Y2610D03*
Y2573D03*
X2809Y3980D03*
Y3943D03*
X2724Y984D03*
Y947D03*
X2723Y2414D03*
Y2376D03*
X2718Y3077D03*
Y3040D03*
X2683Y2768D03*
Y2731D03*
X2653Y1170D03*
Y1133D03*
X2648Y2963D03*
Y2925D03*
Y4348D03*
Y4310D03*
X2622Y2489D03*
Y2452D03*
X2621Y2892D03*
Y2855D03*
X2619Y2769D03*
Y2731D03*
X2618Y4420D03*
Y4383D03*
X2601Y2698D03*
Y2660D03*
X2584Y4351D03*
Y4420D03*
Y4383D03*
Y4314D03*
X2551Y2550D03*
G54D197*
Y2513D03*
G54D195*
X2547Y4351D03*
Y4314D03*
X2540Y2788D03*
Y2751D03*
X2526Y3020D03*
Y2983D03*
X2511Y4351D03*
Y4314D03*
X2494Y2696D03*
Y2659D03*
X2483Y4420D03*
Y4383D03*
X2478Y4351D03*
Y4314D03*
X2460Y2937D03*
Y2900D03*
X2450Y4420D03*
Y4383D03*
X2449Y2381D03*
Y2343D03*
X2444Y4351D03*
Y4314D03*
X2425Y2640D03*
Y2603D03*
X2421Y3178D03*
Y3140D03*
X2420Y2529D03*
G54D196*
Y2491D03*
G54D195*
X2417Y2381D03*
Y2343D03*
X2415Y4420D03*
Y4383D03*
X2411Y4351D03*
Y4314D03*
X2401Y6885D03*
Y6847D03*
X2384Y3087D03*
Y3049D03*
X2378Y4420D03*
Y4383D03*
X2369Y2611D03*
Y2573D03*
X2366Y3903D03*
Y3866D03*
Y3834D03*
Y3797D03*
X2359Y3009D03*
Y2971D03*
X2357Y2737D03*
Y2700D03*
X2336Y2667D03*
Y2630D03*
X2314Y2907D03*
Y2869D03*
X2218Y2253D03*
Y2216D03*
X2157Y444D03*
Y406D03*
X2122Y2275D03*
Y2237D03*
Y2204D03*
Y2167D03*
X2087Y2204D03*
Y2167D03*
X2083Y505D03*
Y468D03*
X1809Y2469D03*
Y2432D03*
X1746Y2438D03*
Y2400D03*
X1709Y2438D03*
Y2400D03*
X881Y3028D03*
Y2991D03*
X860Y3141D03*
Y3103D03*
X855Y2893D03*
Y2856D03*
X848Y3028D03*
Y2991D03*
X822Y2893D03*
Y2856D03*
X814Y3028D03*
Y2991D03*
X776Y2870D03*
Y2833D03*
X736Y2868D03*
Y2830D03*
X699Y2886D03*
Y2849D03*
X697Y3164D03*
Y3126D03*
X665Y2907D03*
Y2870D03*
X663Y3164D03*
Y3126D03*
X632Y2907D03*
Y2870D03*
G54D198*
X5796Y3314D03*
Y3295D03*
X5795Y3664D03*
Y3644D03*
X5791Y3923D03*
Y3903D03*
X5632Y5104D03*
Y5084D03*
X5584Y5372D03*
Y5353D03*
X5499Y5130D03*
Y5110D03*
X5488Y5481D03*
Y5462D03*
X5452Y5258D03*
Y5236D03*
X5432Y5258D03*
Y5236D03*
G54D199*
X5429Y5016D03*
G54D198*
Y4969D03*
X5423Y5075D03*
Y5055D03*
X5422Y5306D03*
Y5287D03*
X5413Y5125D03*
Y5105D03*
Y5374D03*
G54D199*
X5410Y5016D03*
G54D198*
X5409Y4969D03*
X5408Y5348D03*
Y5328D03*
X5401Y5061D03*
Y5042D03*
X5400Y5437D03*
Y5417D03*
X5393Y5374D03*
X5387Y4977D03*
Y4958D03*
X5386Y5322D03*
Y5302D03*
X5381Y4917D03*
Y5131D03*
X5379Y5072D03*
X5378Y5094D03*
X5372Y5232D03*
Y5212D03*
X5361Y4917D03*
Y5131D03*
X5359Y5072D03*
X5358Y5094D03*
X5357Y5045D03*
X5355Y5412D03*
Y5342D03*
X5354Y5434D03*
Y5194D03*
X5353Y5389D03*
X5352Y5367D03*
X5341Y4974D03*
Y4954D03*
X5337Y5045D03*
X5335Y5412D03*
Y5342D03*
Y5434D03*
X5334Y5194D03*
X5333Y5389D03*
X5332Y5367D03*
X5331Y5293D03*
Y5273D03*
X5330Y5247D03*
Y5223D03*
X5329Y5171D03*
X5310Y5247D03*
Y5223D03*
Y5293D03*
Y5273D03*
X5309Y5171D03*
Y5405D03*
Y5386D03*
X5298Y5357D03*
Y5337D03*
X5297Y4923D03*
Y4903D03*
X5286Y5149D03*
Y5129D03*
Y5280D03*
Y5261D03*
X5281Y5238D03*
X5279Y4994D03*
X5278Y5019D03*
X5277Y5046D03*
Y5196D03*
X5276Y5171D03*
X5275Y5076D03*
X5269Y4923D03*
Y4904D03*
Y5108D03*
Y5359D03*
X5264Y5337D03*
X5261Y5238D03*
X5260Y4994D03*
X5259Y5019D03*
X5258Y5259D03*
X5257Y5046D03*
Y5196D03*
Y5381D03*
Y5171D03*
X5256Y5315D03*
Y5076D03*
X5253Y5217D03*
X5250Y5108D03*
Y5359D03*
X5248Y5281D03*
X5244Y5337D03*
Y4952D03*
Y4932D03*
X5238Y5259D03*
X5237Y5381D03*
Y5315D03*
X5233Y5217D03*
X5229Y5281D03*
X5226Y5075D03*
X5225Y5178D03*
Y5158D03*
X5224Y5095D03*
X5220Y5123D03*
X5219Y5052D03*
Y5032D03*
X5218Y5362D03*
Y5343D03*
X5216Y4953D03*
Y4933D03*
X5213Y5259D03*
Y5239D03*
X5211Y5414D03*
Y5395D03*
X5206Y5075D03*
Y5173D03*
Y5153D03*
X5204Y5459D03*
Y5095D03*
X5201Y5123D03*
X5193Y5356D03*
Y5337D03*
X5191Y5233D03*
Y5214D03*
X5188Y5414D03*
Y5395D03*
Y4974D03*
X5185Y5459D03*
X5178Y5172D03*
X5176Y5270D03*
Y5291D03*
X5168Y4974D03*
X5167Y5388D03*
X5161Y5469D03*
Y5449D03*
X5158Y5172D03*
X5156Y5270D03*
Y5291D03*
X5147Y5388D03*
X5125Y5285D03*
Y5356D03*
Y5337D03*
X5123Y5314D03*
G54D199*
X5113Y5029D03*
G54D198*
X5107Y5214D03*
X5106Y5285D03*
X5104Y5314D03*
X5103Y5358D03*
Y5338D03*
G54D199*
X5093Y5029D03*
G54D198*
X5087Y5214D03*
X5084Y4948D03*
X5065D03*
X5053Y5481D03*
Y5461D03*
X5039Y5344D03*
Y5324D03*
X5038Y5386D03*
Y5366D03*
X4993Y5118D03*
Y5098D03*
X4979Y5405D03*
X4964Y5427D03*
X4959Y5405D03*
X4945Y5427D03*
X4860Y5310D03*
X4840D03*
X4165Y5333D03*
Y5313D03*
X4142Y5566D03*
Y5546D03*
X4057Y5323D03*
Y5303D03*
X4049Y5676D03*
Y5656D03*
X4012Y5451D03*
X4011Y5429D03*
X3992Y5451D03*
X3991Y5429D03*
X3988Y5210D03*
X3987Y5165D03*
X3981Y5268D03*
Y5249D03*
Y5500D03*
Y5480D03*
X3973Y5312D03*
Y5293D03*
X3969Y5543D03*
Y5523D03*
X3968Y5210D03*
Y5165D03*
X3959Y5255D03*
Y5235D03*
X3958Y5623D03*
Y5603D03*
X3946Y5518D03*
Y5498D03*
Y5170D03*
Y5150D03*
X3940Y3254D03*
Y3234D03*
X3939Y5110D03*
X3938Y5323D03*
X3937Y5265D03*
X3936Y5609D03*
Y5589D03*
Y5284D03*
X3928Y5426D03*
Y5406D03*
X3924Y5217D03*
Y5197D03*
X3919Y5110D03*
X3918Y5323D03*
X3917Y5265D03*
X3916Y5284D03*
X3915Y5239D03*
X3914Y5384D03*
X3913Y5554D03*
X3912Y5619D03*
X3910Y5533D03*
X3899Y5168D03*
Y5148D03*
X3898Y5597D03*
Y5576D03*
X3895Y5239D03*
Y5384D03*
X3893Y5554D03*
X3892Y5619D03*
X3890Y5533D03*
X3889Y5486D03*
Y5467D03*
X3888Y5440D03*
Y5417D03*
X3887Y5362D03*
X3879Y5597D03*
Y5576D03*
X3876Y5220D03*
Y5200D03*
X3868Y5440D03*
Y5417D03*
Y5362D03*
X3867Y5482D03*
Y5462D03*
X3856Y5550D03*
Y5531D03*
Y5117D03*
Y5097D03*
X3844Y5475D03*
Y5456D03*
X3839Y5602D03*
X3838Y5386D03*
Y5188D03*
X3837Y5212D03*
X3836Y5432D03*
X3835Y5239D03*
Y5364D03*
X3834Y5271D03*
Y5552D03*
X3832Y5531D03*
X3830Y5302D03*
X3828Y5117D03*
Y5097D03*
X3820Y5602D03*
X3818Y5386D03*
Y5188D03*
X3817Y5576D03*
Y5212D03*
Y5432D03*
X3816Y5454D03*
X3815Y5239D03*
Y5364D03*
X3814Y5271D03*
Y5552D03*
X3813Y5509D03*
X3812Y5531D03*
X3811Y5302D03*
X3810Y5408D03*
X3807Y5475D03*
X3802Y5146D03*
Y5126D03*
X3797Y5576D03*
Y3218D03*
Y3198D03*
X3796Y5454D03*
X3794Y5509D03*
X3790Y5408D03*
X3788Y5553D03*
Y5534D03*
X3787Y5475D03*
X3783Y5286D03*
Y5264D03*
X3782Y5371D03*
Y5352D03*
Y5317D03*
X3781Y5242D03*
Y5222D03*
X3775Y5580D03*
Y5450D03*
Y5430D03*
Y5147D03*
Y5127D03*
X3764Y5554D03*
Y5534D03*
Y5669D03*
X3763Y5286D03*
Y5264D03*
X3762Y5317D03*
X3757Y5371D03*
Y5351D03*
X3756Y5580D03*
X3750Y5620D03*
Y5601D03*
X3746Y5167D03*
X3745Y5428D03*
Y5408D03*
X3744Y5669D03*
X3743Y5555D03*
Y5535D03*
X3734Y5461D03*
X3733Y5381D03*
Y5361D03*
X3729Y5483D03*
X3727Y5167D03*
X3724Y5439D03*
Y5419D03*
X3715Y5663D03*
Y5643D03*
X3714Y5461D03*
X3710Y5483D03*
X3708Y5525D03*
Y5505D03*
X3687Y5482D03*
X3681Y5551D03*
Y5531D03*
X3679Y5509D03*
X3671Y5223D03*
X3667Y5482D03*
X3663Y5409D03*
X3659Y5509D03*
X3658Y5551D03*
Y5531D03*
X3651Y5223D03*
X3644Y5409D03*
X3643Y5142D03*
X3623D03*
X3622Y5572D03*
Y5552D03*
X3593Y5529D03*
X3591Y5574D03*
X3574Y5529D03*
X3572Y5574D03*
X3551Y5311D03*
Y5292D03*
X3510Y5623D03*
X3491D03*
X3418Y5504D03*
X3399D03*
X3195Y4056D03*
Y4037D03*
X3192Y4183D03*
Y4164D03*
Y3835D03*
Y3815D03*
X3190Y3930D03*
Y3911D03*
X3138Y3920D03*
X3118D03*
X2949Y3858D03*
X2930D03*
X2920Y3763D03*
X2904Y3849D03*
Y3829D03*
Y4166D03*
Y4146D03*
X2901Y3763D03*
X2873Y4102D03*
Y4082D03*
X2860Y3926D03*
X2840D03*
X2837Y3972D03*
Y3952D03*
X2830Y901D03*
X2820Y2657D03*
Y2637D03*
X2810Y901D03*
X2809Y2972D03*
X2801Y3102D03*
X2789Y2972D03*
X2782Y3102D03*
X2779Y2565D03*
X2770Y2529D03*
Y2509D03*
X2760Y2565D03*
X2756Y974D03*
Y954D03*
X2755Y2627D03*
Y2607D03*
X2744Y3149D03*
Y3130D03*
X2733Y2626D03*
Y2607D03*
X2712Y2589D03*
Y2570D03*
X2707Y2858D03*
X2695Y3134D03*
X2691Y2591D03*
Y2571D03*
X2690Y3100D03*
Y3080D03*
Y3050D03*
Y3030D03*
X2687Y2858D03*
X2681Y3904D03*
X2676Y3134D03*
X2675Y2820D03*
Y2800D03*
X2661Y3904D03*
X2648Y2692D03*
X2647Y4394D03*
Y4374D03*
X2638Y3951D03*
X2629Y2692D03*
X2628Y2802D03*
X2623Y2824D03*
X2618Y3951D03*
X2609Y2802D03*
X2603Y2824D03*
X2597Y2942D03*
Y2923D03*
X2590Y3009D03*
X2584Y3083D03*
Y3064D03*
X2575Y2936D03*
Y2791D03*
Y2772D03*
X2573Y2679D03*
Y2659D03*
X2570Y3009D03*
Y2748D03*
Y2728D03*
X2555Y2936D03*
X2541Y2690D03*
Y2671D03*
X2534Y2956D03*
Y2935D03*
X2514Y2956D03*
Y2935D03*
Y4397D03*
Y4378D03*
X2504Y2901D03*
Y2882D03*
X2497Y2747D03*
Y2727D03*
Y2798D03*
Y2778D03*
X2495Y2848D03*
Y2828D03*
X2493Y3977D03*
Y3954D03*
X2475Y2632D03*
Y2613D03*
X2474Y3977D03*
Y3954D03*
Y3932D03*
Y3912D03*
X2472Y2819D03*
Y2800D03*
X2458Y2872D03*
Y2853D03*
X2453Y2646D03*
Y2626D03*
X2450Y3887D03*
X2439Y3048D03*
X2438Y3962D03*
Y3943D03*
X2430Y3887D03*
X2419Y3048D03*
X2418Y2949D03*
Y2929D03*
X2397Y2606D03*
Y2587D03*
X2372Y4166D03*
Y4146D03*
X2371Y4103D03*
Y4083D03*
X2356Y3134D03*
X2350Y4402D03*
Y4383D03*
X2341Y2599D03*
X2338Y2816D03*
Y2797D03*
X2336Y3134D03*
X2328Y4402D03*
Y4383D03*
X2322Y2994D03*
Y2599D03*
X2317Y2760D03*
X2314Y3072D03*
X2313Y2843D03*
Y2824D03*
X2302Y2994D03*
Y3112D03*
X2301Y3139D03*
Y2574D03*
Y2554D03*
X2300Y2616D03*
Y2596D03*
X2298Y2801D03*
Y2782D03*
Y2760D03*
X2295Y3072D03*
X2293Y2738D03*
X2289Y2683D03*
X2283Y2892D03*
X2282Y4008D03*
Y3112D03*
Y3139D03*
X2281Y2659D03*
Y2640D03*
X2276Y2780D03*
X2273Y2738D03*
X2270Y2683D03*
X2266Y3008D03*
X2263Y2859D03*
Y2892D03*
Y4008D03*
Y2573D03*
X2262Y2551D03*
X2259Y3056D03*
Y3036D03*
X2257Y2985D03*
X2256Y2780D03*
X2254Y3081D03*
X2248Y2653D03*
X2247Y2674D03*
X2246Y3008D03*
X2244Y2859D03*
X2243Y2573D03*
Y2551D03*
X2237Y2985D03*
X2235Y3081D03*
X2228Y2653D03*
X2227Y2674D03*
X2225Y2698D03*
X2220Y2572D03*
X2209Y3130D03*
Y3110D03*
X2205Y2698D03*
X2200Y2572D03*
X2181Y2719D03*
Y2699D03*
X2179Y2974D03*
Y2954D03*
X2157Y2974D03*
Y2954D03*
X2129Y3088D03*
Y3069D03*
G54D98*
X6365Y5903D03*
X6250Y2782D03*
X6219Y3622D03*
X6175Y3973D03*
X6155Y6222D03*
X6154Y6431D03*
X6153Y6612D03*
Y6338D03*
X6152Y6143D03*
Y6524D03*
X6151Y6781D03*
X6150Y2182D03*
Y2782D03*
Y2382D03*
Y2682D03*
Y6692D03*
Y2482D03*
Y2581D03*
X6120Y3705D03*
X6065Y3478D03*
X6057Y4634D03*
X6033Y3396D03*
X6029Y3168D03*
X6007Y4167D03*
X5959Y1462D03*
X5930Y4048D03*
X5921Y3289D03*
X5913Y2256D03*
X5899Y3979D03*
X5858Y4419D03*
X5854Y2117D03*
X5820Y1852D03*
X5793Y5180D03*
X5737Y3547D03*
X5736Y3329D03*
X5705Y2731D03*
Y2831D03*
X5704Y4982D03*
X5669Y448D03*
X5630Y3871D03*
X5624Y3321D03*
X5608Y1725D03*
X5589Y4941D03*
X5530Y1779D03*
X5527Y4981D03*
Y399D03*
X5492Y1913D03*
X5481Y2413D03*
X5427Y398D03*
X5413Y1040D03*
X5400Y1856D03*
X5326Y2142D03*
X5311Y1742D03*
X5242Y1979D03*
X5227Y398D03*
X5226Y1834D03*
X5127Y398D03*
X5023Y4948D03*
G54D200*
X5009Y5161D03*
G54D98*
X4960Y3919D03*
X4959Y4279D03*
X4929Y5213D03*
X4913Y1732D03*
X4901Y5309D03*
X4887Y2446D03*
X4882Y4151D03*
X4865Y1913D03*
X4820Y2558D03*
X4800Y5106D03*
X4735Y4422D03*
X4707Y1764D03*
X4687Y2819D03*
X4669Y5301D03*
X4484Y5358D03*
X4445Y3934D03*
X4444Y4294D03*
X4422Y1494D03*
X4202Y4040D03*
X4157Y3816D03*
X4111Y2387D03*
X4030Y5106D03*
X3928Y4335D03*
X3787Y4439D03*
X3776Y893D03*
X3682Y1677D03*
X3680Y2971D03*
X3650Y2164D03*
X3632Y4464D03*
X3620Y2070D03*
X3609Y1934D03*
X3488Y5391D03*
X3474Y3016D03*
X3468Y5545D03*
X3463Y1157D03*
X3393Y1255D03*
X3342Y600D03*
Y600D03*
X3334Y1857D03*
X3332Y665D03*
X3268Y5573D03*
X3267Y665D03*
X3258Y600D03*
Y600D03*
X3182Y2953D03*
X3177Y1914D03*
X3075Y633D03*
X2946Y655D03*
Y655D03*
Y599D03*
Y599D03*
X2867Y598D03*
Y599D03*
Y655D03*
Y655D03*
X2852Y1183D03*
X2768Y2414D03*
X2724Y1825D03*
X2702Y1733D03*
X2700Y556D03*
X2694Y1611D03*
X2591Y1167D03*
X2574Y6690D03*
X2516Y3308D03*
X2496Y2165D03*
X2482Y6766D03*
X2481Y1670D03*
X2465Y1347D03*
X2442Y3310D03*
X2400Y2230D03*
X2391Y1632D03*
X2323Y3815D03*
X2302Y4351D03*
X2294Y2371D03*
X2276Y3182D03*
X2214Y3185D03*
X2173Y530D03*
X2170Y3125D03*
X2168Y1123D03*
X2142Y798D03*
X2134Y1218D03*
X2132Y6663D03*
X2125Y591D03*
X2116Y2840D03*
X2023Y787D03*
X2014Y2341D03*
X1943Y6505D03*
X1924Y2593D03*
X1783Y3167D03*
X1769Y1798D03*
X1697Y6530D03*
X1689Y6800D03*
X1558Y1402D03*
X1552Y2648D03*
X1535Y2135D03*
X1501Y1966D03*
X1467Y6617D03*
X1464Y6839D03*
X1436Y2081D03*
X1372Y2680D03*
X1305Y306D03*
X1284Y6346D03*
X1214Y2454D03*
X1192Y6389D03*
X1149Y5152D03*
G54D201*
X1145Y5026D03*
G54D98*
Y5268D03*
X1144Y5386D03*
X1090Y6661D03*
X1072Y5744D03*
Y5503D03*
Y5858D03*
X1071Y5624D03*
X1017Y2782D03*
X1005Y6662D03*
X951Y5804D03*
Y5046D03*
X925Y6591D03*
X908Y4937D03*
X907Y3087D03*
X906Y5263D03*
Y5152D03*
X904Y2846D03*
X881Y5666D03*
Y5907D03*
Y5788D03*
X880Y5543D03*
X875Y6284D03*
X837Y5341D03*
X821Y2188D03*
X796Y3203D03*
X747Y2275D03*
X678Y2112D03*
X629Y2721D03*
X590Y2986D03*
X565Y2767D03*
X563Y2413D03*
X446Y5864D03*
Y5244D03*
Y4624D03*
Y4004D03*
X437Y2414D03*
X434Y1881D03*
X264Y6433D03*
X257Y5825D03*
Y5744D03*
Y5664D03*
Y5584D03*
Y5205D03*
Y5124D03*
Y5044D03*
Y4964D03*
Y4585D03*
Y4504D03*
Y4424D03*
Y4344D03*
Y3964D03*
Y3884D03*
Y3804D03*
Y3723D03*
X256Y7061D03*
X194Y6473D03*
X189Y1884D03*
X187Y5785D03*
Y5704D03*
Y5624D03*
Y5544D03*
Y5164D03*
Y5084D03*
Y5004D03*
Y4923D03*
Y4544D03*
Y4464D03*
Y4384D03*
Y4303D03*
Y3924D03*
Y3844D03*
Y3764D03*
Y3683D03*
X63Y2933D03*
G54D164*
X2661Y5831D03*
G54D165*
X6299Y394D03*
X692Y6980D03*
G54D358*
X6516Y50D02*
G01X6466Y0D01*
X50*
X0Y50*
Y7273*
X50Y7323*
X6466*
X6516Y7273*
Y50*
M02*
