G04 CAM350/DFMSTREAM V12.1 (Build 1022) Date:  Tue Dec 08 10:41:01 2020 *
G04 Database: e:\xac nhan khuon in\u10c153t10\v055\new folder\u10c153t10-055 bot 9.5.cam *
G04 Layer 29: HPT102SS2004043 *
%FSLAX24Y24*%
%MOIN*%
%SFA1.000B1.000*%

%MIA0B0*%
%IPPOS*%
%AMSPECIAL874*
20,1,0.0281500,-0.0060435,0.0000000,0.0060435,0.0000000,0.0000000*
20,1,0.0320870,-0.0040750,0.0000000,0.0040750,0.0000000,0.0000000*
1,1,0.0039370,0.0040750,0.0140750*
1,1,0.0039370,0.0040750,-0.0140750*
1,1,0.0039370,-0.0040750,-0.0140750*
1,1,0.0039370,-0.0040750,0.0140750*
%
%AMSPECIAL875*
20,1,0.0281500,-0.0044880,0.0000000,0.0044880,0.0000000,0.0000000*
20,1,0.0320870,-0.0025194,0.0000000,0.0025194,0.0000000,0.0000000*
1,1,0.0039370,0.0025200,0.0140750*
1,1,0.0039370,0.0025200,-0.0140750*
1,1,0.0039370,-0.0025200,-0.0140750*
1,1,0.0039370,-0.0025200,0.0140750*
%
%AMSPECIAL930*
20,1,0.0439760,-0.0098425,0.0000000,0.0098425,0.0000000,0.0000000*
20,1,0.0479130,-0.0078740,0.0000000,0.0078740,0.0000000,0.0000000*
1,1,0.0039370,0.0078740,0.0219880*
1,1,0.0039370,0.0078740,-0.0219880*
1,1,0.0039370,-0.0078740,-0.0219880*
1,1,0.0039370,-0.0078740,0.0219880*
%
%AMSPECIAL952*
20,1,0.0078740,-0.0199805,0.0000000,0.0199805,0.0000000,0.0000000*
20,1,0.0118110,-0.0180120,0.0000000,0.0180120,0.0000000,0.0000000*
1,1,0.0039370,0.0180120,0.0039370*
1,1,0.0039370,0.0180120,-0.0039370*
1,1,0.0039370,-0.0180120,-0.0039370*
1,1,0.0039370,-0.0180120,0.0039370*
%
%AMSPECIAL955*
20,1,0.0118110,-0.0329530,0.0000000,0.0329530,0.0000000,0.0000000*
20,1,0.0157480,-0.0309845,0.0000000,0.0309845,0.0000000,0.0000000*
1,1,0.0039370,0.0309840,0.0059060*
1,1,0.0039370,0.0309840,-0.0059060*
1,1,0.0039370,-0.0309840,-0.0059060*
1,1,0.0039370,-0.0309840,0.0059060*
%
%AMSPECIAL956*
20,1,0.0039370,-0.0329530,0.0000000,0.0329530,0.0000000,0.0000000*
20,1,0.0078740,-0.0309845,0.0000000,0.0309845,0.0000000,0.0000000*
1,1,0.0039370,0.0309840,0.0019690*
1,1,0.0039370,0.0309840,-0.0019690*
1,1,0.0039370,-0.0309840,-0.0019690*
1,1,0.0039370,-0.0309840,0.0019690*
%
%ADD17C,0.04000*%
%ADD396C,0.00000*%
%ADD755C,0.00000*%
%ADD756C,0.00197*%
%ADD757C,0.00118*%
%ADD874SPECIAL874*%
%ADD875SPECIAL875*%
%ADD886C,0.01205*%
%ADD897R,0.01791X0.02000*%
%ADD928R,0.04500X0.04000*%
%ADD929R,0.05213X0.05516*%
%ADD930SPECIAL930*%
%ADD931R,0.03996X0.04201*%
%ADD951R,0.04201X0.04000*%
%ADD952SPECIAL952*%
%ADD953R,0.15000X0.07799*%
%ADD954R,0.04500X0.06000*%
%ADD955SPECIAL955*%
%ADD956SPECIAL956*%
%ADD957C,0.00512*%
%ADD959C,0.00394*%
%LNHPT102SS2004043*%
%LPD*%
G36*
X-17159Y-73816D02*
G01Y-73625D01*
X-16980*
Y-73816*
X-17159*
G37*
G36*
X-27695Y-77124D02*
G01Y-76931D01*
X-27517*
Y-77124*
X-27695*
G37*
G36*
X-51883Y-34007D02*
G01Y-33814D01*
X-51705*
Y-34007*
X-51883*
G37*
G36*
X-62420Y-37313D02*
G01Y-37122D01*
X-62240*
Y-37313*
X-62420*
G37*
G36*
X-17559Y-73816D02*
G01Y-73620D01*
X-17381*
Y-73816*
X-17559*
G37*
G36*
Y-74125D02*
G01Y-73929D01*
X-17381*
Y-74125*
X-17559*
G37*
G36*
X-62018Y-37009D02*
G01Y-36813D01*
X-61840*
Y-37009*
X-62018*
G37*
G36*
Y-37318D02*
G01Y-37122D01*
X-61840*
Y-37318*
X-62018*
G37*
G36*
X-51859Y-33704D02*
G01Y-33507D01*
X-51681*
Y-33704*
X-51859*
G37*
G36*
X-17159Y-74125D02*
G01Y-73929D01*
X-16980*
Y-74125*
X-17159*
G37*
G36*
X-27719Y-77431D02*
G01Y-77234D01*
X-27540*
Y-77431*
X-27719*
G37*
G36*
X-62420Y-37009D02*
G01Y-36813D01*
X-62240*
Y-37009*
X-62420*
G37*
G36*
X-15179Y-33824D02*
G01Y-33679D01*
X-15125Y-33624*
X-15001*
Y-33824*
X-15179*
G37*
G36*
X-15822Y-33894D02*
G01Y-33694D01*
X-15644*
Y-33894*
X-15822*
G37*
G36*
Y-34256D02*
G01Y-34056D01*
X-15644*
Y-34256*
X-15822*
G37*
G36*
X-17653Y-32031D02*
G01Y-31831D01*
X-17475*
Y-32031*
X-17653*
G37*
G36*
Y-32393D02*
G01Y-32193D01*
X-17475*
Y-32393*
X-17653*
G37*
G36*
X-20533Y-16500D02*
G01Y-16300D01*
X-20355*
Y-16500*
X-20533*
G37*
G36*
Y-16862D02*
G01Y-16662D01*
X-20355*
Y-16862*
X-20533*
G37*
G36*
X-21079Y-23948D02*
G01Y-23748D01*
X-20901*
Y-23948*
X-21079*
G37*
G36*
Y-24311D02*
G01Y-24111D01*
X-20901*
Y-24311*
X-21079*
G37*
G36*
X-43568Y-10603D02*
G01Y-10403D01*
X-43390*
Y-10603*
X-43568*
G37*
G36*
Y-10965D02*
G01Y-10765D01*
X-43390*
Y-10965*
X-43568*
G37*
G36*
X-43868Y-34719D02*
G01Y-34519D01*
X-43690*
Y-34719*
X-43868*
G37*
G36*
Y-35081D02*
G01Y-34881D01*
X-43690*
Y-35081*
X-43868*
G37*
G36*
X-44268Y-34719D02*
G01Y-34519D01*
X-44090*
Y-34719*
X-44268*
G37*
G36*
Y-35081D02*
G01Y-34881D01*
X-44090*
Y-35081*
X-44268*
G37*
G36*
X-44959Y-32141D02*
G01Y-31941D01*
X-44781*
Y-32141*
X-44959*
G37*
G36*
Y-32806D02*
G01Y-32606D01*
X-44781*
Y-32806*
X-44959*
G37*
G36*
Y-33159D02*
G01Y-32959D01*
X-44781*
Y-33159*
X-44959*
G37*
G36*
X-46120Y-24383D02*
G01Y-24183D01*
X-45942*
Y-24383*
X-46120*
G37*
G36*
Y-24745D02*
G01Y-24545D01*
X-45942*
Y-24745*
X-46120*
G37*
G36*
X-49809Y-39298D02*
G01Y-39098D01*
X-49631*
Y-39298*
X-49809*
G37*
G36*
Y-39660D02*
G01Y-39460D01*
X-49631*
Y-39660*
X-49809*
G37*
G36*
X-50596Y-35828D02*
G01Y-35628D01*
X-50418*
Y-35828*
X-50596*
G37*
G36*
Y-36190D02*
G01Y-35990D01*
X-50418*
Y-36190*
X-50596*
G37*
G36*
X-50609Y-39298D02*
G01Y-39098D01*
X-50431*
Y-39298*
X-50609*
G37*
G36*
Y-39660D02*
G01Y-39460D01*
X-50431*
Y-39660*
X-50609*
G37*
G36*
X-50668Y-38419D02*
G01Y-38219D01*
X-50490*
Y-38419*
X-50668*
G37*
G36*
Y-38781D02*
G01Y-38581D01*
X-50490*
Y-38781*
X-50668*
G37*
G36*
X-50833Y-32404D02*
G01Y-32204D01*
X-50655*
Y-32404*
X-50833*
G37*
G36*
Y-32766D02*
G01Y-32566D01*
X-50655*
Y-32766*
X-50833*
G37*
G36*
X-51353Y-31334D02*
G01Y-31134D01*
X-51175*
Y-31334*
X-51353*
G37*
G36*
Y-31696D02*
G01Y-31496D01*
X-51175*
Y-31696*
X-51353*
G37*
G36*
X-52216Y-30787D02*
G01Y-30587D01*
X-52038*
Y-30787*
X-52216*
G37*
G36*
Y-31106D02*
G01Y-30949D01*
X-52038*
Y-31149*
X-52126*
X-52216Y-31106*
G37*
G36*
X-52557Y-30787D02*
G01Y-30587D01*
X-52379*
Y-30787*
X-52557*
G37*
G36*
Y-31149D02*
G01Y-30949D01*
X-52379*
Y-31149*
X-52557*
G37*
G36*
X-62120Y-43273D02*
G01Y-43073D01*
X-61942*
Y-43273*
X-62120*
G37*
G36*
Y-43635D02*
G01Y-43435D01*
X-61942*
Y-43635*
X-62120*
G37*
G36*
X-62468Y-38019D02*
G01Y-37819D01*
X-62290*
Y-38019*
X-62468*
G37*
G36*
Y-38381D02*
G01Y-38181D01*
X-62290*
Y-38381*
X-62468*
G37*
G36*
X-66179Y-27789D02*
G01Y-27589D01*
X-66001*
Y-27789*
X-66179*
G37*
G36*
Y-28151D02*
G01Y-27951D01*
X-66001*
Y-28151*
X-66179*
G37*
G36*
X-66559Y-37802D02*
G01Y-37602D01*
X-66381*
Y-37802*
X-66559*
G37*
G36*
Y-38164D02*
G01Y-37964D01*
X-66381*
Y-38164*
X-66559*
G37*
G36*
X-67090Y-42751D02*
G01Y-42551D01*
X-66912*
Y-42751*
X-67090*
G37*
G36*
Y-43113D02*
G01Y-42913D01*
X-66912*
Y-43113*
X-67090*
G37*
G36*
X-11966Y-66537D02*
G01Y-66358D01*
X-11766*
Y-66537*
X-11966*
G37*
G36*
X-12254Y-72143D02*
G01Y-71964D01*
X-12054*
Y-72143*
X-12254*
G37*
G36*
X-12328Y-66537D02*
G01Y-66358D01*
X-12128*
Y-66537*
X-12328*
G37*
G36*
X-12458Y-68815D02*
G01Y-68636D01*
X-12258*
Y-68815*
X-12458*
G37*
G36*
X-12488Y-68025D02*
G01Y-67825D01*
X-12309*
Y-68025*
X-12488*
G37*
G36*
Y-68387D02*
G01Y-68187D01*
X-12309*
Y-68387*
X-12488*
G37*
G36*
X-12616Y-72143D02*
G01Y-71964D01*
X-12416*
Y-72143*
X-12616*
G37*
G36*
X-12820Y-68815D02*
G01Y-68636D01*
X-12620*
Y-68815*
X-12820*
G37*
G36*
X-13019Y-72974D02*
G01Y-72774D01*
X-12840*
Y-72974*
X-13019*
G37*
G36*
Y-73336D02*
G01Y-73136D01*
X-12840*
Y-73336*
X-13019*
G37*
G36*
X-13399Y-82987D02*
G01Y-82787D01*
X-13220*
Y-82987*
X-13399*
G37*
G36*
Y-83349D02*
G01Y-83149D01*
X-13220*
Y-83349*
X-13399*
G37*
G36*
X-13436Y-66531D02*
G01Y-66352D01*
X-13236*
Y-66531*
X-13436*
G37*
G36*
X-13799D02*
G01Y-66352D01*
X-13599*
Y-66531*
X-13799*
G37*
G36*
X-14103Y-31462D02*
G01Y-31262D01*
X-13924*
Y-31462*
X-14103*
G37*
G36*
Y-31824D02*
G01Y-31624D01*
X-13924*
Y-31824*
X-14103*
G37*
G36*
X-14379Y-74839D02*
G01Y-74639D01*
X-14200*
Y-74839*
X-14379*
G37*
G36*
Y-75201D02*
G01Y-75001D01*
X-14200*
Y-75201*
X-14379*
G37*
G36*
Y-80189D02*
G01Y-79989D01*
X-14200*
Y-80189*
X-14379*
G37*
G36*
Y-80551D02*
G01Y-80351D01*
X-14200*
Y-80551*
X-14379*
G37*
G36*
X-14502Y-68108D02*
G01Y-67908D01*
X-14323*
Y-68108*
X-14502*
G37*
G36*
Y-68470D02*
G01Y-68270D01*
X-14323*
Y-68470*
X-14502*
G37*
G36*
X-14504Y-67367D02*
G01Y-67167D01*
X-14325*
Y-67367*
X-14504*
G37*
G36*
Y-67729D02*
G01Y-67529D01*
X-14325*
Y-67729*
X-14504*
G37*
G36*
X-14729Y-74309D02*
G01Y-74109D01*
X-14550*
Y-74309*
X-14729*
G37*
G36*
Y-74672D02*
G01Y-74472D01*
X-14550*
Y-74672*
X-14729*
G37*
G36*
X-15039Y-79640D02*
G01Y-79440D01*
X-14860*
Y-79640*
X-15039*
G37*
G36*
Y-80002D02*
G01Y-79802D01*
X-14860*
Y-80002*
X-15039*
G37*
G36*
X-15129Y-36514D02*
G01Y-36335D01*
X-14929*
Y-36514*
X-15129*
G37*
G36*
X-15179Y-34186D02*
G01Y-33986D01*
X-15000*
Y-34186*
X-15179*
G37*
G36*
X-15490Y-36514D02*
G01Y-36335D01*
X-15290*
Y-36514*
X-15490*
G37*
G36*
X-15779Y-32964D02*
G01Y-32785D01*
X-15579*
Y-32964*
X-15779*
G37*
G36*
X-16140D02*
G01Y-32785D01*
X-15940*
Y-32964*
X-16140*
G37*
G36*
X-16312Y-66518D02*
G01Y-66339D01*
X-16112*
Y-66518*
X-16312*
G37*
G36*
X-16418Y-33894D02*
G01Y-33715D01*
X-16218*
Y-33894*
X-16418*
G37*
G36*
X-16637Y-67756D02*
G01Y-67577D01*
X-16437*
Y-67756*
X-16637*
G37*
G36*
X-16639Y-67329D02*
G01Y-67150D01*
X-16439*
Y-67329*
X-16639*
G37*
G36*
X-16644Y-31764D02*
G01Y-31585D01*
X-16444*
Y-31764*
X-16644*
G37*
G36*
X-16674Y-66518D02*
G01Y-66339D01*
X-16474*
Y-66518*
X-16674*
G37*
G36*
X-16762Y-69181D02*
G01Y-69002D01*
X-16562*
Y-69181*
X-16762*
G37*
G36*
X-16768Y-69607D02*
G01Y-69428D01*
X-16568*
Y-69607*
X-16768*
G37*
G36*
X-16779Y-78170D02*
G01Y-77970D01*
X-16600*
Y-78170*
X-16779*
G37*
G36*
Y-78532D02*
G01Y-78332D01*
X-16600*
Y-78532*
X-16779*
G37*
G36*
X-16781Y-33894D02*
G01Y-33715D01*
X-16581*
Y-33894*
X-16781*
G37*
G36*
X-16809Y-74665D02*
G01Y-74465D01*
X-16630*
Y-74665*
X-16809*
G37*
G36*
Y-75027D02*
G01Y-74827D01*
X-16630*
Y-75027*
X-16809*
G37*
G36*
X-16966Y-32681D02*
G01Y-32502D01*
X-16766*
Y-32681*
X-16966*
G37*
G36*
X-16986Y-16508D02*
G01Y-16308D01*
X-16807*
Y-16508*
X-16986*
G37*
G36*
Y-16870D02*
G01Y-16670D01*
X-16807*
Y-16870*
X-16986*
G37*
G36*
X-16999Y-67756D02*
G01Y-67577D01*
X-16799*
Y-67756*
X-16999*
G37*
G36*
X-17001Y-67329D02*
G01Y-67150D01*
X-16801*
Y-67329*
X-17001*
G37*
G36*
X-17007Y-31764D02*
G01Y-31585D01*
X-16807*
Y-31764*
X-17007*
G37*
G36*
X-17027Y-29534D02*
G01Y-29355D01*
X-16827*
Y-29534*
X-17027*
G37*
G36*
X-17110Y-72757D02*
G01Y-72557D01*
X-16931*
Y-72757*
X-17110*
G37*
G36*
Y-73119D02*
G01Y-72919D01*
X-16931*
Y-73119*
X-17110*
G37*
G36*
X-17125Y-69181D02*
G01Y-69002D01*
X-16925*
Y-69181*
X-17125*
G37*
G36*
X-17130Y-69607D02*
G01Y-69428D01*
X-16930*
Y-69607*
X-17130*
G37*
G36*
X-17329Y-32681D02*
G01Y-32502D01*
X-17129*
Y-32681*
X-17329*
G37*
G36*
X-17389Y-29534D02*
G01Y-29355D01*
X-17189*
Y-29534*
X-17389*
G37*
G36*
X-17456Y-75689D02*
G01Y-75510D01*
X-17256*
Y-75689*
X-17456*
G37*
G36*
X-17458Y-67503D02*
G01Y-67303D01*
X-17279*
Y-67503*
X-17458*
G37*
G36*
Y-67865D02*
G01Y-67665D01*
X-17279*
Y-67865*
X-17458*
G37*
G36*
X-17818Y-75689D02*
G01Y-75510D01*
X-17618*
Y-75689*
X-17818*
G37*
G36*
X-17879Y-67499D02*
G01Y-67299D01*
X-17700*
Y-67499*
X-17879*
G37*
G36*
Y-67861D02*
G01Y-67661D01*
X-17700*
Y-67861*
X-17879*
G37*
G36*
X-18049Y-32344D02*
G01Y-32144D01*
X-17870*
Y-32344*
X-18049*
G37*
G36*
Y-32706D02*
G01Y-32506D01*
X-17870*
Y-32706*
X-18049*
G37*
G36*
X-18175Y-16506D02*
G01Y-16306D01*
X-17996*
Y-16506*
X-18175*
G37*
G36*
Y-16868D02*
G01Y-16668D01*
X-17996*
Y-16868*
X-18175*
G37*
G36*
X-19291Y-65984D02*
G01Y-65805D01*
X-19091*
Y-65984*
X-19291*
G37*
G36*
X-19338Y-16500D02*
G01Y-16300D01*
X-19159*
Y-16500*
X-19338*
G37*
G36*
Y-16862D02*
G01Y-16662D01*
X-19159*
Y-16862*
X-19338*
G37*
G36*
X-19653Y-65984D02*
G01Y-65805D01*
X-19453*
Y-65984*
X-19653*
G37*
G36*
X-19859Y-27839D02*
G01Y-27660D01*
X-19659*
Y-27839*
X-19859*
G37*
G36*
X-20220D02*
G01Y-27660D01*
X-20020*
Y-27839*
X-20220*
G37*
G36*
X-20328Y-66673D02*
G01Y-66473D01*
X-20149*
Y-66673*
X-20328*
G37*
G36*
Y-67035D02*
G01Y-66835D01*
X-20149*
Y-67035*
X-20328*
G37*
G36*
X-20657Y-23946D02*
G01Y-23746D01*
X-20478*
Y-23946*
X-20657*
G37*
G36*
Y-24308D02*
G01Y-24108D01*
X-20478*
Y-24308*
X-20657*
G37*
G36*
X-20929Y-40639D02*
G01Y-40460D01*
X-20729*
Y-40639*
X-20929*
G37*
G36*
X-21290D02*
G01Y-40460D01*
X-21090*
Y-40639*
X-21290*
G37*
G36*
X-23613Y-82665D02*
G01Y-82486D01*
X-23413*
Y-82665*
X-23613*
G37*
G36*
X-23636Y-83038D02*
G01Y-82859D01*
X-23436*
Y-83038*
X-23636*
G37*
G36*
X-23975Y-82665D02*
G01Y-82486D01*
X-23775*
Y-82665*
X-23975*
G37*
G36*
X-23998Y-83038D02*
G01Y-82859D01*
X-23798*
Y-83038*
X-23998*
G37*
G36*
X-24257Y-73394D02*
G01Y-73194D01*
X-24078*
Y-73394*
X-24257*
G37*
G36*
Y-73756D02*
G01Y-73556D01*
X-24078*
Y-73756*
X-24257*
G37*
G36*
X-24456Y-82993D02*
G01Y-82814D01*
X-24256*
Y-82993*
X-24456*
G37*
G36*
X-24641Y-73394D02*
G01Y-73194D01*
X-24462*
Y-73394*
X-24641*
G37*
G36*
Y-73756D02*
G01Y-73556D01*
X-24462*
Y-73756*
X-24641*
G37*
G36*
X-24818Y-82993D02*
G01Y-82814D01*
X-24618*
Y-82993*
X-24818*
G37*
G36*
X-25167Y-83221D02*
G01Y-83042D01*
X-24967*
Y-83221*
X-25167*
G37*
G36*
X-25201Y-81130D02*
G01Y-80951D01*
X-25001*
Y-81130*
X-25201*
G37*
G36*
X-25422Y-78616D02*
G01Y-78416D01*
X-25243*
Y-78616*
X-25422*
G37*
G36*
Y-78978D02*
G01Y-78778D01*
X-25243*
Y-78978*
X-25422*
G37*
G36*
X-25529Y-83221D02*
G01Y-83042D01*
X-25329*
Y-83221*
X-25529*
G37*
G36*
X-25563Y-81130D02*
G01Y-80951D01*
X-25363*
Y-81130*
X-25563*
G37*
G36*
X-25574Y-79283D02*
G01Y-79083D01*
X-25395*
Y-79283*
X-25574*
G37*
G36*
Y-79645D02*
G01Y-79445D01*
X-25395*
Y-79645*
X-25574*
G37*
G36*
X-25634Y-72728D02*
G01Y-72549D01*
X-25434*
Y-72728*
X-25634*
G37*
G36*
X-25867Y-76533D02*
G01Y-76354D01*
X-25667*
Y-76533*
X-25867*
G37*
G36*
X-25996Y-72728D02*
G01Y-72549D01*
X-25796*
Y-72728*
X-25996*
G37*
G36*
X-26016Y-80154D02*
G01Y-79975D01*
X-25816*
Y-80154*
X-26016*
G37*
G36*
X-26229Y-76533D02*
G01Y-76354D01*
X-26029*
Y-76533*
X-26229*
G37*
G36*
X-26372Y-78503D02*
G01Y-78303D01*
X-26193*
Y-78503*
X-26372*
G37*
G36*
Y-78865D02*
G01Y-78665D01*
X-26193*
Y-78865*
X-26372*
G37*
G36*
X-26379Y-80154D02*
G01Y-79975D01*
X-26179*
Y-80154*
X-26379*
G37*
G36*
X-26530Y-81381D02*
G01Y-81202D01*
X-26330*
Y-81381*
X-26530*
G37*
G36*
X-26680Y-80004D02*
G01Y-79804D01*
X-26501*
Y-80004*
X-26680*
G37*
G36*
Y-80366D02*
G01Y-80166D01*
X-26501*
Y-80366*
X-26680*
G37*
G36*
X-26728Y-78563D02*
G01Y-78363D01*
X-26549*
Y-78563*
X-26728*
G37*
G36*
Y-78925D02*
G01Y-78725D01*
X-26549*
Y-78925*
X-26728*
G37*
G36*
X-26767Y-82505D02*
G01Y-82326D01*
X-26567*
Y-82505*
X-26767*
G37*
G36*
X-26849Y-83849D02*
G01Y-83670D01*
X-26649*
Y-83849*
X-26849*
G37*
G36*
X-26892Y-81381D02*
G01Y-81202D01*
X-26692*
Y-81381*
X-26892*
G37*
G36*
X-27021Y-79989D02*
G01Y-79789D01*
X-26842*
Y-79989*
X-27021*
G37*
G36*
Y-80351D02*
G01Y-80151D01*
X-26842*
Y-80351*
X-27021*
G37*
G36*
X-27129Y-82505D02*
G01Y-82326D01*
X-26929*
Y-82505*
X-27129*
G37*
G36*
X-27212Y-83849D02*
G01Y-83670D01*
X-27012*
Y-83849*
X-27212*
G37*
G36*
X-27230Y-77662D02*
G01Y-77462D01*
X-27051*
Y-77662*
X-27230*
G37*
G36*
Y-78024D02*
G01Y-77824D01*
X-27051*
Y-78024*
X-27230*
G37*
G36*
X-27362Y-79989D02*
G01Y-79789D01*
X-27274*
X-27183Y-79832*
Y-79989*
X-27362*
G37*
G36*
Y-80351D02*
G01Y-80151D01*
X-27183*
Y-80351*
X-27362*
G37*
G36*
X-27703Y-79989D02*
G01Y-79789D01*
X-27524*
Y-79989*
X-27703*
G37*
G36*
Y-80351D02*
G01Y-80151D01*
X-27524*
Y-80351*
X-27703*
G37*
G36*
X-27714Y-78532D02*
G01Y-78332D01*
X-27535*
Y-78532*
X-27714*
G37*
G36*
Y-78894D02*
G01Y-78694D01*
X-27535*
Y-78894*
X-27714*
G37*
G36*
X-28225Y-79442D02*
G01Y-79242D01*
X-28046*
Y-79442*
X-28225*
G37*
G36*
Y-79804D02*
G01Y-79604D01*
X-28046*
Y-79804*
X-28225*
G37*
G36*
X-28228Y-77336D02*
G01Y-77136D01*
X-28049*
Y-77336*
X-28228*
G37*
G36*
Y-77698D02*
G01Y-77498D01*
X-28049*
Y-77698*
X-28228*
G37*
G36*
X-28745Y-78372D02*
G01Y-78172D01*
X-28566*
Y-78372*
X-28745*
G37*
G36*
Y-78734D02*
G01Y-78534D01*
X-28566*
Y-78734*
X-28745*
G37*
G36*
X-28910Y-72357D02*
G01Y-72157D01*
X-28731*
Y-72357*
X-28910*
G37*
G36*
Y-72719D02*
G01Y-72519D01*
X-28731*
Y-72719*
X-28910*
G37*
G36*
X-28944Y-83883D02*
G01Y-83683D01*
X-28765*
Y-83883*
X-28944*
G37*
G36*
Y-84246D02*
G01Y-84046D01*
X-28765*
Y-84246*
X-28944*
G37*
G36*
X-28969Y-71478D02*
G01Y-71278D01*
X-28790*
Y-71478*
X-28969*
G37*
G36*
Y-71840D02*
G01Y-71640D01*
X-28790*
Y-71840*
X-28969*
G37*
G36*
X-28982Y-74948D02*
G01Y-74748D01*
X-28803*
Y-74948*
X-28982*
G37*
G36*
Y-75310D02*
G01Y-75110D01*
X-28803*
Y-75310*
X-28982*
G37*
G36*
X-29076Y-76505D02*
G01Y-76326D01*
X-28876*
Y-76505*
X-29076*
G37*
G36*
X-29257Y-76854D02*
G01Y-76654D01*
X-29078*
Y-76854*
X-29257*
G37*
G36*
Y-77216D02*
G01Y-77016D01*
X-29078*
Y-77216*
X-29257*
G37*
G36*
X-29264Y-78362D02*
G01Y-78162D01*
X-29085*
Y-78362*
X-29264*
G37*
G36*
Y-78724D02*
G01Y-78524D01*
X-29085*
Y-78724*
X-29264*
G37*
G36*
Y-79432D02*
G01Y-79232D01*
X-29085*
Y-79432*
X-29264*
G37*
G36*
Y-79794D02*
G01Y-79594D01*
X-29085*
Y-79794*
X-29264*
G37*
G36*
X-29398Y-72555D02*
G01Y-72376D01*
X-29198*
Y-72555*
X-29398*
G37*
G36*
X-29428Y-82310D02*
G01Y-82131D01*
X-29228*
Y-82310*
X-29428*
G37*
G36*
X-29438Y-76505D02*
G01Y-76326D01*
X-29238*
Y-76505*
X-29438*
G37*
G36*
X-29610Y-82962D02*
G01Y-82783D01*
X-29410*
Y-82962*
X-29610*
G37*
G36*
X-29613Y-80629D02*
G01Y-80450D01*
X-29413*
Y-80629*
X-29613*
G37*
G36*
X-29714Y-83867D02*
G01Y-83667D01*
X-29535*
Y-83867*
X-29714*
G37*
G36*
Y-84229D02*
G01Y-84029D01*
X-29535*
Y-84229*
X-29714*
G37*
G36*
X-29744Y-79472D02*
G01Y-79272D01*
X-29565*
Y-79472*
X-29744*
G37*
G36*
Y-79834D02*
G01Y-79634D01*
X-29565*
Y-79834*
X-29744*
G37*
G36*
X-29753Y-76716D02*
G01Y-76516D01*
X-29574*
Y-76716*
X-29753*
G37*
G36*
Y-77079D02*
G01Y-76879D01*
X-29574*
Y-77079*
X-29753*
G37*
G36*
X-29761Y-72555D02*
G01Y-72376D01*
X-29561*
Y-72555*
X-29761*
G37*
G36*
X-29764Y-77882D02*
G01Y-77682D01*
X-29585*
Y-77882*
X-29764*
G37*
G36*
Y-78244D02*
G01Y-78044D01*
X-29585*
Y-78244*
X-29764*
G37*
G36*
X-29769Y-71478D02*
G01Y-71278D01*
X-29590*
Y-71478*
X-29769*
G37*
G36*
Y-71840D02*
G01Y-71640D01*
X-29590*
Y-71840*
X-29769*
G37*
G36*
X-29790Y-82310D02*
G01Y-82131D01*
X-29590*
Y-82310*
X-29790*
G37*
G36*
X-29814Y-75946D02*
G01Y-75746D01*
X-29635*
Y-75946*
X-29814*
G37*
G36*
Y-76308D02*
G01Y-76108D01*
X-29635*
Y-76308*
X-29814*
G37*
G36*
X-29972Y-82962D02*
G01Y-82783D01*
X-29772*
Y-82962*
X-29972*
G37*
G36*
X-29975Y-80629D02*
G01Y-80450D01*
X-29775*
Y-80629*
X-29975*
G37*
G36*
X-30064Y-79989D02*
G01Y-79789D01*
X-29885*
Y-79989*
X-30064*
G37*
G36*
Y-80351D02*
G01Y-80151D01*
X-29885*
Y-80351*
X-30064*
G37*
G36*
X-30083Y-78551D02*
G01Y-78372D01*
X-29883*
Y-78551*
X-30083*
G37*
G36*
X-30169Y-81893D02*
G01Y-81714D01*
X-29969*
Y-81893*
X-30169*
G37*
G36*
X-30180Y-84247D02*
G01Y-84068D01*
X-29980*
Y-84247*
X-30180*
G37*
G36*
X-30193Y-77538D02*
G01Y-77359D01*
X-29993*
Y-77538*
X-30193*
G37*
G36*
X-30194Y-77192D02*
G01Y-77013D01*
X-29994*
Y-77192*
X-30194*
G37*
G36*
X-30209Y-77966D02*
G01Y-77787D01*
X-30009*
Y-77966*
X-30209*
G37*
G36*
X-30254Y-72508D02*
G01Y-72329D01*
X-30054*
Y-72508*
X-30254*
G37*
G36*
X-30320Y-78973D02*
G01Y-78773D01*
X-30141*
Y-78973*
X-30320*
G37*
G36*
Y-79335D02*
G01Y-79135D01*
X-30141*
Y-79335*
X-30320*
G37*
G36*
X-30354Y-84629D02*
G01Y-84429D01*
X-30175*
Y-84629*
X-30354*
G37*
G36*
Y-84991D02*
G01Y-84791D01*
X-30175*
Y-84991*
X-30354*
G37*
G36*
X-30445Y-78551D02*
G01Y-78372D01*
X-30245*
Y-78551*
X-30445*
G37*
G36*
X-30451Y-79792D02*
G01Y-79592D01*
X-30272*
Y-79792*
X-30451*
G37*
G36*
Y-80154D02*
G01Y-79954D01*
X-30272*
Y-80154*
X-30451*
G37*
G36*
X-30489Y-80800D02*
G01Y-80600D01*
X-30310*
Y-80800*
X-30489*
G37*
G36*
Y-81163D02*
G01Y-80963D01*
X-30310*
Y-81163*
X-30489*
G37*
G36*
X-30523Y-83607D02*
G01Y-83428D01*
X-30323*
Y-83607*
X-30523*
G37*
G36*
X-30531Y-81893D02*
G01Y-81714D01*
X-30331*
Y-81893*
X-30531*
G37*
G36*
X-30542Y-84247D02*
G01Y-84068D01*
X-30342*
Y-84247*
X-30542*
G37*
G36*
X-30555Y-77538D02*
G01Y-77359D01*
X-30355*
Y-77538*
X-30555*
G37*
G36*
X-30556Y-77192D02*
G01Y-77013D01*
X-30356*
Y-77192*
X-30556*
G37*
G36*
X-30572Y-77966D02*
G01Y-77787D01*
X-30372*
Y-77966*
X-30572*
G37*
G36*
X-30616Y-72508D02*
G01Y-72329D01*
X-30416*
Y-72508*
X-30616*
G37*
G36*
X-30661Y-78973D02*
G01Y-78773D01*
X-30482*
Y-78973*
X-30661*
G37*
G36*
Y-79335D02*
G01Y-79135D01*
X-30482*
Y-79335*
X-30661*
G37*
G36*
X-30704Y-84629D02*
G01Y-84429D01*
X-30525*
Y-84629*
X-30704*
G37*
G36*
Y-84991D02*
G01Y-84791D01*
X-30525*
Y-84991*
X-30704*
G37*
G36*
X-30885Y-83607D02*
G01Y-83428D01*
X-30685*
Y-83607*
X-30885*
G37*
G36*
X-31188Y-83598D02*
G01Y-83419D01*
X-30988*
Y-83598*
X-31188*
G37*
G36*
X-31212Y-72493D02*
G01Y-72314D01*
X-31012*
Y-72493*
X-31212*
G37*
G36*
X-31248Y-77813D02*
G01Y-77634D01*
X-31048*
Y-77813*
X-31248*
G37*
G36*
X-31252Y-75674D02*
G01Y-75474D01*
X-31073*
Y-75674*
X-31252*
G37*
G36*
Y-76036D02*
G01Y-75836D01*
X-31073*
Y-76036*
X-31252*
G37*
G36*
X-31264Y-71677D02*
G01Y-71477D01*
X-31085*
Y-71677*
X-31264*
G37*
G36*
Y-72039D02*
G01Y-71839D01*
X-31085*
Y-72039*
X-31264*
G37*
G36*
X-31282Y-77446D02*
G01Y-77267D01*
X-31082*
Y-77446*
X-31282*
G37*
G36*
X-31284Y-83143D02*
G01Y-82964D01*
X-31084*
Y-83143*
X-31284*
G37*
G36*
X-31294Y-80332D02*
G01Y-80132D01*
X-31115*
Y-80332*
X-31294*
G37*
G36*
Y-80694D02*
G01Y-80494D01*
X-31115*
Y-80694*
X-31294*
G37*
G36*
X-31384Y-63593D02*
G01Y-63414D01*
X-31184*
Y-63593*
X-31384*
G37*
G36*
X-31404Y-65564D02*
G01Y-65385D01*
X-31204*
Y-65564*
X-31404*
G37*
G36*
X-31550Y-83598D02*
G01Y-83419D01*
X-31350*
Y-83598*
X-31550*
G37*
G36*
X-31574Y-72493D02*
G01Y-72314D01*
X-31374*
Y-72493*
X-31574*
G37*
G36*
X-31611Y-77813D02*
G01Y-77634D01*
X-31411*
Y-77813*
X-31611*
G37*
G36*
X-31644Y-77446D02*
G01Y-77267D01*
X-31444*
Y-77446*
X-31644*
G37*
G36*
X-31646Y-83143D02*
G01Y-82964D01*
X-31446*
Y-83143*
X-31646*
G37*
G36*
X-31665Y-74952D02*
G01Y-74773D01*
X-31465*
Y-74952*
X-31665*
G37*
G36*
X-31746Y-63593D02*
G01Y-63414D01*
X-31546*
Y-63593*
X-31746*
G37*
G36*
X-31766Y-65564D02*
G01Y-65385D01*
X-31566*
Y-65564*
X-31766*
G37*
G36*
X-31811Y-76699D02*
G01Y-76499D01*
X-31632*
Y-76699*
X-31811*
G37*
G36*
Y-77061D02*
G01Y-76861D01*
X-31632*
Y-77061*
X-31811*
G37*
G36*
X-31988Y-83098D02*
G01Y-82919D01*
X-31788*
Y-83098*
X-31988*
G37*
G36*
X-32027Y-74952D02*
G01Y-74773D01*
X-31827*
Y-74952*
X-32027*
G37*
G36*
X-32219Y-76461D02*
G01Y-76282D01*
X-32019*
Y-76461*
X-32219*
G37*
G36*
X-32246Y-82678D02*
G01Y-82499D01*
X-32046*
Y-82678*
X-32246*
G37*
G36*
X-32287Y-78375D02*
G01Y-78196D01*
X-32087*
Y-78375*
X-32287*
G37*
G36*
X-32350Y-83098D02*
G01Y-82919D01*
X-32150*
Y-83098*
X-32350*
G37*
G36*
X-32384Y-74953D02*
G01Y-74774D01*
X-32184*
Y-74953*
X-32384*
G37*
G36*
X-32394Y-75393D02*
G01Y-75214D01*
X-32194*
Y-75393*
X-32394*
G37*
G36*
X-32399Y-75767D02*
G01Y-75588D01*
X-32199*
Y-75767*
X-32399*
G37*
G36*
X-32581Y-76461D02*
G01Y-76282D01*
X-32381*
Y-76461*
X-32581*
G37*
G36*
X-32608Y-82678D02*
G01Y-82499D01*
X-32408*
Y-82678*
X-32608*
G37*
G36*
X-32649Y-78375D02*
G01Y-78196D01*
X-32449*
Y-78375*
X-32649*
G37*
G36*
X-32746Y-74953D02*
G01Y-74774D01*
X-32546*
Y-74953*
X-32746*
G37*
G36*
X-32756Y-75393D02*
G01Y-75214D01*
X-32556*
Y-75393*
X-32756*
G37*
G36*
X-32761Y-75767D02*
G01Y-75588D01*
X-32561*
Y-75767*
X-32761*
G37*
G36*
X-32904Y-82443D02*
G01Y-82264D01*
X-32704*
Y-82443*
X-32904*
G37*
G36*
X-33266D02*
G01Y-82264D01*
X-33066*
Y-82443*
X-33266*
G37*
G36*
X-33333Y-83374D02*
G01Y-83195D01*
X-33133*
Y-83374*
X-33333*
G37*
G36*
X-33349Y-74678D02*
G01Y-74499D01*
X-33149*
Y-74678*
X-33349*
G37*
G36*
X-33350Y-101367D02*
G01Y-101167D01*
X-33171*
Y-101367*
X-33350*
G37*
G36*
Y-101729D02*
G01Y-101529D01*
X-33171*
Y-101729*
X-33350*
G37*
G36*
X-33458Y-86393D02*
G01Y-86193D01*
X-33279*
Y-86393*
X-33458*
G37*
G36*
Y-86755D02*
G01Y-86555D01*
X-33279*
Y-86755*
X-33458*
G37*
G36*
X-33566Y-82843D02*
G01Y-82664D01*
X-33366*
Y-82843*
X-33566*
G37*
G36*
X-33695Y-83374D02*
G01Y-83195D01*
X-33495*
Y-83374*
X-33695*
G37*
G36*
X-33711Y-74678D02*
G01Y-74499D01*
X-33511*
Y-74678*
X-33711*
G37*
G36*
X-33891Y-78303D02*
G01Y-78124D01*
X-33691*
Y-78303*
X-33891*
G37*
G36*
Y-78653D02*
G01Y-78474D01*
X-33691*
Y-78653*
X-33891*
G37*
G36*
X-33928Y-82843D02*
G01Y-82664D01*
X-33728*
Y-82843*
X-33928*
G37*
G36*
X-34253Y-78303D02*
G01Y-78124D01*
X-34053*
Y-78303*
X-34253*
G37*
G36*
Y-78653D02*
G01Y-78474D01*
X-34053*
Y-78653*
X-34253*
G37*
G36*
X-34619Y-77979D02*
G01Y-77779D01*
X-34440*
Y-77979*
X-34619*
G37*
G36*
Y-78332D02*
G01Y-78132D01*
X-34440*
Y-78332*
X-34619*
G37*
G36*
Y-78997D02*
G01Y-78797D01*
X-34440*
Y-78997*
X-34619*
G37*
G36*
X-35310Y-76057D02*
G01Y-75857D01*
X-35131*
Y-76057*
X-35310*
G37*
G36*
Y-76419D02*
G01Y-76219D01*
X-35131*
Y-76419*
X-35310*
G37*
G36*
X-35710Y-76057D02*
G01Y-75857D01*
X-35531*
Y-76057*
X-35710*
G37*
G36*
Y-76419D02*
G01Y-76219D01*
X-35531*
Y-76419*
X-35710*
G37*
G36*
X-36010Y-100173D02*
G01Y-99973D01*
X-35831*
Y-100173*
X-36010*
G37*
G36*
Y-100535D02*
G01Y-100335D01*
X-35831*
Y-100535*
X-36010*
G37*
G36*
X-38398Y-80294D02*
G01Y-80094D01*
X-38219*
Y-80294*
X-38398*
G37*
G36*
Y-80656D02*
G01Y-80456D01*
X-38219*
Y-80656*
X-38398*
G37*
G36*
X-39568Y-13839D02*
G01Y-13660D01*
X-39368*
Y-13839*
X-39568*
G37*
G36*
X-39669Y-97278D02*
G01Y-97099D01*
X-39469*
Y-97278*
X-39669*
G37*
G36*
X-39931Y-13839D02*
G01Y-13660D01*
X-39731*
Y-13839*
X-39931*
G37*
G36*
X-40031Y-97278D02*
G01Y-97099D01*
X-39831*
Y-97278*
X-40031*
G37*
G36*
X-41181Y-30482D02*
G01Y-30282D01*
X-41002*
Y-30482*
X-41181*
G37*
G36*
Y-30844D02*
G01Y-30644D01*
X-41002*
Y-30844*
X-41181*
G37*
G36*
X-45346Y-32464D02*
G01Y-32285D01*
X-45146*
Y-32464*
X-45346*
G37*
G36*
Y-32814D02*
G01Y-32635D01*
X-45146*
Y-32814*
X-45346*
G37*
G36*
X-45672Y-28274D02*
G01Y-28095D01*
X-45472*
Y-28274*
X-45672*
G37*
G36*
X-45709Y-32464D02*
G01Y-32285D01*
X-45509*
Y-32464*
X-45709*
G37*
G36*
Y-32814D02*
G01Y-32635D01*
X-45509*
Y-32814*
X-45709*
G37*
G36*
X-45889Y-36439D02*
G01Y-36260D01*
X-45689*
Y-36439*
X-45889*
G37*
G36*
X-45905Y-27743D02*
G01Y-27564D01*
X-45705*
Y-27743*
X-45905*
G37*
G36*
X-46033Y-28274D02*
G01Y-28095D01*
X-45833*
Y-28274*
X-46033*
G37*
G36*
X-46229Y-9409D02*
G01Y-9209D01*
X-46050*
Y-9409*
X-46229*
G37*
G36*
Y-9771D02*
G01Y-9571D01*
X-46050*
Y-9771*
X-46229*
G37*
G36*
X-46251Y-36439D02*
G01Y-36260D01*
X-46051*
Y-36439*
X-46251*
G37*
G36*
X-46266Y-27743D02*
G01Y-27564D01*
X-46066*
Y-27743*
X-46266*
G37*
G36*
X-46333Y-28674D02*
G01Y-28495D01*
X-46133*
Y-28674*
X-46333*
G37*
G36*
X-46696D02*
G01Y-28495D01*
X-46496*
Y-28674*
X-46696*
G37*
G36*
X-46839Y-35350D02*
G01Y-35171D01*
X-46639*
Y-35350*
X-46839*
G37*
G36*
X-46844Y-35724D02*
G01Y-35545D01*
X-46644*
Y-35724*
X-46844*
G37*
G36*
X-46853Y-36164D02*
G01Y-35985D01*
X-46653*
Y-36164*
X-46853*
G37*
G36*
X-46951Y-32742D02*
G01Y-32563D01*
X-46751*
Y-32742*
X-46951*
G37*
G36*
X-46992Y-28439D02*
G01Y-28260D01*
X-46792*
Y-28439*
X-46992*
G37*
G36*
X-47018Y-34656D02*
G01Y-34477D01*
X-46818*
Y-34656*
X-47018*
G37*
G36*
X-47201Y-35350D02*
G01Y-35171D01*
X-47001*
Y-35350*
X-47201*
G37*
G36*
X-47205Y-35724D02*
G01Y-35545D01*
X-47005*
Y-35724*
X-47205*
G37*
G36*
X-47216Y-36164D02*
G01Y-35985D01*
X-47016*
Y-36164*
X-47216*
G37*
G36*
X-47250Y-28019D02*
G01Y-27840D01*
X-47050*
Y-28019*
X-47250*
G37*
G36*
X-47313Y-32742D02*
G01Y-32563D01*
X-47113*
Y-32742*
X-47313*
G37*
G36*
X-47353Y-28439D02*
G01Y-28260D01*
X-47153*
Y-28439*
X-47353*
G37*
G36*
X-47381Y-34656D02*
G01Y-34477D01*
X-47181*
Y-34656*
X-47381*
G37*
G36*
X-47572Y-36165D02*
G01Y-35986D01*
X-47372*
Y-36165*
X-47572*
G37*
G36*
X-47612Y-28019D02*
G01Y-27840D01*
X-47412*
Y-28019*
X-47612*
G37*
G36*
X-47768Y-34077D02*
G01Y-33877D01*
X-47589*
Y-34077*
X-47768*
G37*
G36*
Y-34439D02*
G01Y-34239D01*
X-47589*
Y-34439*
X-47768*
G37*
G36*
X-47833Y-45553D02*
G01Y-45374D01*
X-47633*
Y-45553*
X-47833*
G37*
G36*
X-47853Y-47524D02*
G01Y-47345D01*
X-47653*
Y-47524*
X-47853*
G37*
G36*
X-47935Y-36165D02*
G01Y-35986D01*
X-47735*
Y-36165*
X-47935*
G37*
G36*
X-47953Y-27974D02*
G01Y-27795D01*
X-47753*
Y-27974*
X-47953*
G37*
G36*
X-47955Y-33671D02*
G01Y-33492D01*
X-47755*
Y-33671*
X-47955*
G37*
G36*
X-47989Y-33304D02*
G01Y-33125D01*
X-47789*
Y-33304*
X-47989*
G37*
G36*
X-48026Y-38624D02*
G01Y-38445D01*
X-47826*
Y-38624*
X-48026*
G37*
G36*
X-48050Y-27519D02*
G01Y-27340D01*
X-47850*
Y-27519*
X-48050*
G37*
G36*
X-48196Y-45553D02*
G01Y-45374D01*
X-47996*
Y-45553*
X-48196*
G37*
G36*
X-48216Y-47524D02*
G01Y-47345D01*
X-48016*
Y-47524*
X-48216*
G37*
G36*
X-48315Y-39099D02*
G01Y-38899D01*
X-48136*
Y-39099*
X-48315*
G37*
G36*
Y-39461D02*
G01Y-39261D01*
X-48136*
Y-39461*
X-48315*
G37*
G36*
X-48316Y-27974D02*
G01Y-27795D01*
X-48116*
Y-27974*
X-48316*
G37*
G36*
X-48318Y-33671D02*
G01Y-33492D01*
X-48118*
Y-33671*
X-48318*
G37*
G36*
X-48327Y-35102D02*
G01Y-34902D01*
X-48148*
Y-35102*
X-48327*
G37*
G36*
Y-35464D02*
G01Y-35264D01*
X-48148*
Y-35464*
X-48327*
G37*
G36*
X-48352Y-33304D02*
G01Y-33125D01*
X-48152*
Y-33304*
X-48352*
G37*
G36*
X-48388Y-38624D02*
G01Y-38445D01*
X-48188*
Y-38624*
X-48388*
G37*
G36*
X-48412Y-27519D02*
G01Y-27340D01*
X-48212*
Y-27519*
X-48412*
G37*
G36*
X-48715Y-27510D02*
G01Y-27331D01*
X-48515*
Y-27510*
X-48715*
G37*
G36*
X-48875Y-26147D02*
G01Y-25947D01*
X-48696*
Y-26147*
X-48875*
G37*
G36*
Y-26509D02*
G01Y-26309D01*
X-48696*
Y-26509*
X-48875*
G37*
G36*
X-48918Y-31803D02*
G01Y-31603D01*
X-48739*
Y-31803*
X-48918*
G37*
G36*
Y-32165D02*
G01Y-31965D01*
X-48739*
Y-32165*
X-48918*
G37*
G36*
X-48983Y-38609D02*
G01Y-38430D01*
X-48783*
Y-38609*
X-48983*
G37*
G36*
X-49028Y-33151D02*
G01Y-32972D01*
X-48828*
Y-33151*
X-49028*
G37*
G36*
X-49044Y-33579D02*
G01Y-33400D01*
X-48844*
Y-33579*
X-49044*
G37*
G36*
Y-33925D02*
G01Y-33746D01*
X-48844*
Y-33925*
X-49044*
G37*
G36*
X-49057Y-26870D02*
G01Y-26691D01*
X-48857*
Y-26870*
X-49057*
G37*
G36*
X-49068Y-29224D02*
G01Y-29045D01*
X-48868*
Y-29224*
X-49068*
G37*
G36*
X-49077Y-27510D02*
G01Y-27331D01*
X-48877*
Y-27510*
X-49077*
G37*
G36*
X-49090Y-29975D02*
G01Y-29775D01*
X-48911*
Y-29975*
X-49090*
G37*
G36*
Y-30338D02*
G01Y-30138D01*
X-48911*
Y-30338*
X-49090*
G37*
G36*
X-49128Y-30984D02*
G01Y-30784D01*
X-48949*
Y-30984*
X-49128*
G37*
G36*
Y-31346D02*
G01Y-31146D01*
X-48949*
Y-31346*
X-49128*
G37*
G36*
X-49155Y-32566D02*
G01Y-32387D01*
X-48955*
Y-32566*
X-49155*
G37*
G36*
X-49225Y-26147D02*
G01Y-25947D01*
X-49046*
Y-26147*
X-49225*
G37*
G36*
Y-26509D02*
G01Y-26309D01*
X-49046*
Y-26509*
X-49225*
G37*
G36*
X-49346Y-38609D02*
G01Y-38430D01*
X-49146*
Y-38609*
X-49346*
G37*
G36*
X-49390Y-33151D02*
G01Y-32972D01*
X-49190*
Y-33151*
X-49390*
G37*
G36*
X-49405Y-33925D02*
G01Y-33746D01*
X-49205*
Y-33925*
X-49405*
G37*
G36*
X-49407Y-33579D02*
G01Y-33400D01*
X-49207*
Y-33579*
X-49407*
G37*
G36*
X-49420Y-26870D02*
G01Y-26691D01*
X-49220*
Y-26870*
X-49420*
G37*
G36*
X-49431Y-29224D02*
G01Y-29045D01*
X-49231*
Y-29224*
X-49431*
G37*
G36*
X-49515Y-30787D02*
G01Y-30587D01*
X-49336*
Y-30787*
X-49515*
G37*
G36*
Y-31149D02*
G01Y-30949D01*
X-49336*
Y-31149*
X-49515*
G37*
G36*
X-49516Y-32566D02*
G01Y-32387D01*
X-49316*
Y-32566*
X-49516*
G37*
G36*
X-49625Y-30488D02*
G01Y-30309D01*
X-49425*
Y-30488*
X-49625*
G37*
G36*
X-49628Y-28155D02*
G01Y-27976D01*
X-49428*
Y-28155*
X-49628*
G37*
G36*
X-49765Y-34830D02*
G01Y-34630D01*
X-49586*
Y-34830*
X-49765*
G37*
G36*
Y-35192D02*
G01Y-34992D01*
X-49586*
Y-35192*
X-49765*
G37*
G36*
X-49809Y-28807D02*
G01Y-28628D01*
X-49609*
Y-28807*
X-49809*
G37*
G36*
X-49815Y-32894D02*
G01Y-32694D01*
X-49636*
Y-32894*
X-49815*
G37*
G36*
Y-33256D02*
G01Y-33056D01*
X-49636*
Y-33256*
X-49815*
G37*
G36*
X-49839Y-38562D02*
G01Y-38383D01*
X-49639*
Y-38562*
X-49839*
G37*
G36*
X-49865Y-26909D02*
G01Y-26709D01*
X-49686*
Y-26909*
X-49865*
G37*
G36*
Y-27271D02*
G01Y-27071D01*
X-49686*
Y-27271*
X-49865*
G37*
G36*
X-49987Y-30488D02*
G01Y-30309D01*
X-49787*
Y-30488*
X-49987*
G37*
G36*
X-49990Y-28155D02*
G01Y-27976D01*
X-49790*
Y-28155*
X-49990*
G37*
G36*
X-50162Y-34612D02*
G01Y-34433D01*
X-49962*
Y-34612*
X-50162*
G37*
G36*
X-50172Y-28807D02*
G01Y-28628D01*
X-49972*
Y-28807*
X-50172*
G37*
G36*
X-50202Y-38562D02*
G01Y-38383D01*
X-50002*
Y-38562*
X-50202*
G37*
G36*
X-50315Y-31344D02*
G01Y-31144D01*
X-50136*
Y-31344*
X-50315*
G37*
G36*
Y-31706D02*
G01Y-31506D01*
X-50136*
Y-31706*
X-50315*
G37*
G36*
Y-32414D02*
G01Y-32214D01*
X-50136*
Y-32414*
X-50315*
G37*
G36*
Y-32776D02*
G01Y-32576D01*
X-50136*
Y-32776*
X-50315*
G37*
G36*
X-50524Y-34612D02*
G01Y-34433D01*
X-50324*
Y-34612*
X-50524*
G37*
G36*
X-51351Y-33440D02*
G01Y-33240D01*
X-51172*
Y-33440*
X-51351*
G37*
G36*
Y-33802D02*
G01Y-33602D01*
X-51172*
Y-33802*
X-51351*
G37*
G36*
X-51355Y-32530D02*
G01Y-32330D01*
X-51176*
Y-32530*
X-51355*
G37*
G36*
Y-32892D02*
G01Y-32692D01*
X-51176*
Y-32892*
X-51355*
G37*
G36*
X-51865Y-32244D02*
G01Y-32044D01*
X-51686*
Y-32244*
X-51865*
G37*
G36*
Y-32606D02*
G01Y-32406D01*
X-51686*
Y-32606*
X-51865*
G37*
G36*
X-52349Y-33114D02*
G01Y-32914D01*
X-52170*
Y-33114*
X-52349*
G37*
G36*
Y-33476D02*
G01Y-33276D01*
X-52170*
Y-33476*
X-52349*
G37*
G36*
X-52388Y-27268D02*
G01Y-27089D01*
X-52188*
Y-27268*
X-52388*
G37*
G36*
X-52470Y-28612D02*
G01Y-28433D01*
X-52270*
Y-28612*
X-52470*
G37*
G36*
X-52707Y-29736D02*
G01Y-29557D01*
X-52507*
Y-29736*
X-52707*
G37*
G36*
X-52751Y-27268D02*
G01Y-27089D01*
X-52551*
Y-27268*
X-52751*
G37*
G36*
X-52833Y-28612D02*
G01Y-28433D01*
X-52633*
Y-28612*
X-52833*
G37*
G36*
X-52851Y-32213D02*
G01Y-32013D01*
X-52672*
Y-32213*
X-52851*
G37*
G36*
Y-32575D02*
G01Y-32375D01*
X-52672*
Y-32575*
X-52851*
G37*
G36*
X-52899Y-30772D02*
G01Y-30572D01*
X-52720*
Y-30772*
X-52899*
G37*
G36*
Y-31134D02*
G01Y-30934D01*
X-52720*
Y-31134*
X-52899*
G37*
G36*
X-53070Y-29736D02*
G01Y-29557D01*
X-52870*
Y-29736*
X-53070*
G37*
G36*
X-53207Y-32273D02*
G01Y-32073D01*
X-53028*
Y-32273*
X-53207*
G37*
G36*
Y-32635D02*
G01Y-32435D01*
X-53028*
Y-32635*
X-53207*
G37*
G36*
X-53220Y-30963D02*
G01Y-30784D01*
X-53020*
Y-30963*
X-53220*
G37*
G36*
X-53370Y-34584D02*
G01Y-34405D01*
X-53170*
Y-34584*
X-53370*
G37*
G36*
X-53583Y-30963D02*
G01Y-30784D01*
X-53383*
Y-30963*
X-53583*
G37*
G36*
X-53603Y-38389D02*
G01Y-38210D01*
X-53403*
Y-38389*
X-53603*
G37*
G36*
X-53733Y-34584D02*
G01Y-34405D01*
X-53533*
Y-34584*
X-53733*
G37*
G36*
X-53966Y-38389D02*
G01Y-38210D01*
X-53766*
Y-38389*
X-53966*
G37*
G36*
X-54005Y-31493D02*
G01Y-31293D01*
X-53826*
Y-31493*
X-54005*
G37*
G36*
Y-31855D02*
G01Y-31655D01*
X-53826*
Y-31855*
X-54005*
G37*
G36*
X-54037Y-29987D02*
G01Y-29808D01*
X-53837*
Y-29987*
X-54037*
G37*
G36*
X-54070Y-27896D02*
G01Y-27717D01*
X-53870*
Y-27896*
X-54070*
G37*
G36*
X-54157Y-32160D02*
G01Y-31960D01*
X-53978*
Y-32160*
X-54157*
G37*
G36*
Y-32522D02*
G01Y-32322D01*
X-53978*
Y-32522*
X-54157*
G37*
G36*
X-54399Y-29987D02*
G01Y-29808D01*
X-54199*
Y-29987*
X-54399*
G37*
G36*
X-54433Y-27896D02*
G01Y-27717D01*
X-54233*
Y-27896*
X-54433*
G37*
G36*
X-54781Y-28124D02*
G01Y-27945D01*
X-54581*
Y-28124*
X-54781*
G37*
G36*
X-54938Y-37382D02*
G01Y-37182D01*
X-54759*
Y-37382*
X-54938*
G37*
G36*
Y-37744D02*
G01Y-37544D01*
X-54759*
Y-37744*
X-54938*
G37*
G36*
X-55144Y-28124D02*
G01Y-27945D01*
X-54944*
Y-28124*
X-55144*
G37*
G36*
X-55602Y-28079D02*
G01Y-27900D01*
X-55402*
Y-28079*
X-55602*
G37*
G36*
X-55625Y-28452D02*
G01Y-28273D01*
X-55425*
Y-28452*
X-55625*
G37*
G36*
X-55964Y-28079D02*
G01Y-27900D01*
X-55764*
Y-28079*
X-55964*
G37*
G36*
X-55987Y-28452D02*
G01Y-28273D01*
X-55787*
Y-28452*
X-55987*
G37*
G36*
X-58309Y-70478D02*
G01Y-70299D01*
X-58109*
Y-70478*
X-58309*
G37*
G36*
X-58499Y-86827D02*
G01Y-86627D01*
X-58320*
Y-86827*
X-58499*
G37*
G36*
Y-87190D02*
G01Y-86990D01*
X-58320*
Y-87190*
X-58499*
G37*
G36*
X-58671Y-70478D02*
G01Y-70299D01*
X-58471*
Y-70478*
X-58671*
G37*
G36*
X-58679Y-63317D02*
G01Y-63117D01*
X-58500*
Y-63317*
X-58679*
G37*
G36*
Y-63679D02*
G01Y-63479D01*
X-58500*
Y-63679*
X-58679*
G37*
G36*
X-58922Y-86830D02*
G01Y-86630D01*
X-58743*
Y-86830*
X-58922*
G37*
G36*
Y-87192D02*
G01Y-86992D01*
X-58743*
Y-87192*
X-58922*
G37*
G36*
X-59045Y-94276D02*
G01Y-94076D01*
X-58866*
Y-94276*
X-59045*
G37*
G36*
Y-94638D02*
G01Y-94438D01*
X-58866*
Y-94638*
X-59045*
G37*
G36*
X-59090Y-63317D02*
G01Y-63117D01*
X-58911*
Y-63317*
X-59090*
G37*
G36*
Y-63679D02*
G01Y-63479D01*
X-58911*
Y-63679*
X-59090*
G37*
G36*
X-59129Y-64877D02*
G01Y-64677D01*
X-58950*
Y-64877*
X-59129*
G37*
G36*
Y-65239D02*
G01Y-65039D01*
X-58950*
Y-65239*
X-59129*
G37*
G36*
X-59251Y-44103D02*
G01Y-43903D01*
X-59072*
Y-44103*
X-59251*
G37*
G36*
Y-44465D02*
G01Y-44265D01*
X-59072*
Y-44465*
X-59251*
G37*
G36*
X-59379Y-83278D02*
G01Y-83099D01*
X-59179*
Y-83278*
X-59379*
G37*
G36*
X-59741D02*
G01Y-83099D01*
X-59541*
Y-83278*
X-59741*
G37*
G36*
X-59946Y-45133D02*
G01Y-44954D01*
X-59746*
Y-45133*
X-59946*
G37*
G36*
X-60241Y-94276D02*
G01Y-94076D01*
X-60062*
Y-94276*
X-60241*
G37*
G36*
Y-94638D02*
G01Y-94438D01*
X-60062*
Y-94638*
X-60241*
G37*
G36*
X-60309Y-45133D02*
G01Y-44954D01*
X-60109*
Y-45133*
X-60309*
G37*
G36*
X-60381Y-79366D02*
G01Y-79166D01*
X-60202*
Y-79366*
X-60381*
G37*
G36*
Y-79729D02*
G01Y-79529D01*
X-60202*
Y-79729*
X-60381*
G37*
G36*
X-61404Y-94270D02*
G01Y-94070D01*
X-61225*
Y-94270*
X-61404*
G37*
G36*
Y-94632D02*
G01Y-94432D01*
X-61225*
Y-94632*
X-61404*
G37*
G36*
X-61530Y-78432D02*
G01Y-78232D01*
X-61351*
Y-78432*
X-61530*
G37*
G36*
Y-78794D02*
G01Y-78594D01*
X-61351*
Y-78794*
X-61530*
G37*
G36*
X-61781Y-35428D02*
G01Y-35249D01*
X-61581*
Y-35428*
X-61781*
G37*
G36*
X-61925Y-78745D02*
G01Y-78545D01*
X-61746*
Y-78745*
X-61925*
G37*
G36*
Y-79107D02*
G01Y-78907D01*
X-61746*
Y-79107*
X-61925*
G37*
G36*
X-62144Y-35428D02*
G01Y-35249D01*
X-61944*
Y-35428*
X-62144*
G37*
G36*
X-62211Y-81583D02*
G01Y-81404D01*
X-62011*
Y-81583*
X-62211*
G37*
G36*
X-62271Y-78436D02*
G01Y-78257D01*
X-62071*
Y-78436*
X-62271*
G37*
G36*
X-62470Y-41510D02*
G01Y-41331D01*
X-62270*
Y-41510*
X-62470*
G37*
G36*
X-62475Y-41936D02*
G01Y-41757D01*
X-62275*
Y-41936*
X-62475*
G37*
G36*
X-62573Y-81583D02*
G01Y-81404D01*
X-62373*
Y-81583*
X-62573*
G37*
G36*
X-62593Y-79353D02*
G01Y-79174D01*
X-62393*
Y-79353*
X-62593*
G37*
G36*
Y-94268D02*
G01Y-94068D01*
X-62414*
Y-94268*
X-62593*
G37*
G36*
Y-94630D02*
G01Y-94430D01*
X-62414*
Y-94630*
X-62593*
G37*
G36*
X-62599Y-43788D02*
G01Y-43609D01*
X-62399*
Y-43788*
X-62599*
G37*
G36*
X-62601Y-43361D02*
G01Y-43182D01*
X-62401*
Y-43361*
X-62601*
G37*
G36*
X-62633Y-78436D02*
G01Y-78257D01*
X-62433*
Y-78436*
X-62633*
G37*
G36*
X-62819Y-77223D02*
G01Y-77044D01*
X-62619*
Y-77223*
X-62819*
G37*
G36*
X-62831Y-41510D02*
G01Y-41331D01*
X-62631*
Y-41510*
X-62831*
G37*
G36*
X-62838Y-41936D02*
G01Y-41757D01*
X-62638*
Y-41936*
X-62838*
G37*
G36*
X-62926Y-44599D02*
G01Y-44420D01*
X-62726*
Y-44599*
X-62926*
G37*
G36*
X-62955Y-79353D02*
G01Y-79174D01*
X-62755*
Y-79353*
X-62955*
G37*
G36*
X-62961Y-43788D02*
G01Y-43609D01*
X-62761*
Y-43788*
X-62961*
G37*
G36*
X-62963Y-43361D02*
G01Y-43182D01*
X-62763*
Y-43361*
X-62963*
G37*
G36*
X-63105Y-78687D02*
G01Y-78487D01*
X-62926*
Y-78687*
X-63105*
G37*
G36*
Y-79049D02*
G01Y-78849D01*
X-62926*
Y-79049*
X-63105*
G37*
G36*
X-63129Y-77817D02*
G01Y-77617D01*
X-62950*
Y-77817*
X-63129*
G37*
G36*
Y-78179D02*
G01Y-77979D01*
X-62950*
Y-78179*
X-63129*
G37*
G36*
X-63181Y-77223D02*
G01Y-77044D01*
X-62981*
Y-77223*
X-63181*
G37*
G36*
X-63288Y-44599D02*
G01Y-44420D01*
X-63088*
Y-44599*
X-63288*
G37*
G36*
X-63459Y-78153D02*
G01Y-77974D01*
X-63259*
Y-78153*
X-63459*
G37*
G36*
X-63756Y-76882D02*
G01Y-76682D01*
X-63577*
Y-76882*
X-63756*
G37*
G36*
Y-77244D02*
G01Y-77044D01*
X-63577*
Y-77244*
X-63756*
G37*
G36*
X-63779Y-79652D02*
G01Y-79452D01*
X-63600*
Y-79652*
X-63779*
G37*
G36*
Y-80014D02*
G01Y-79814D01*
X-63600*
Y-80014*
X-63779*
G37*
G36*
X-63796Y-78692D02*
G01Y-78492D01*
X-63617*
Y-78692*
X-63796*
G37*
G36*
Y-79055D02*
G01Y-78855D01*
X-63617*
Y-79055*
X-63796*
G37*
G36*
X-63821Y-78153D02*
G01Y-77974D01*
X-63621*
Y-78153*
X-63821*
G37*
G36*
X-64109Y-74603D02*
G01Y-74424D01*
X-63909*
Y-74603*
X-64109*
G37*
G36*
X-64140Y-76307D02*
G01Y-76107D01*
X-63961*
Y-76307*
X-64140*
G37*
G36*
Y-76669D02*
G01Y-76469D01*
X-63961*
Y-76669*
X-64140*
G37*
G36*
X-64194Y-77532D02*
G01Y-77395D01*
X-64132Y-77332*
X-64015*
Y-77532*
X-64194*
G37*
G36*
X-64399Y-77314D02*
G01Y-77114D01*
X-64220*
X-64221Y-77259*
X-64275Y-77314*
X-64399*
G37*
G36*
X-64400Y-76952D02*
G01Y-76752D01*
X-64221*
Y-76952*
X-64400*
G37*
G36*
X-64457Y-79763D02*
G01Y-79563D01*
X-64278*
Y-79763*
X-64457*
G37*
G36*
Y-80125D02*
G01Y-79925D01*
X-64278*
Y-80125*
X-64457*
G37*
G36*
X-64471Y-74603D02*
G01Y-74424D01*
X-64271*
Y-74603*
X-64471*
G37*
G36*
X-64540Y-31136D02*
G01Y-30936D01*
X-64361*
Y-31136*
X-64540*
G37*
G36*
Y-31498D02*
G01Y-31298D01*
X-64361*
Y-31498*
X-64540*
G37*
G36*
X-64777Y-81158D02*
G01Y-80958D01*
X-64598*
Y-81158*
X-64777*
G37*
G36*
Y-81520D02*
G01Y-81320D01*
X-64598*
Y-81520*
X-64777*
G37*
G36*
X-65075Y-43409D02*
G01Y-43209D01*
X-64896*
Y-43409*
X-65075*
G37*
G36*
Y-43771D02*
G01Y-43571D01*
X-64896*
Y-43771*
X-65075*
G37*
G36*
X-65077Y-42668D02*
G01Y-42468D01*
X-64898*
Y-42668*
X-65077*
G37*
G36*
Y-43030D02*
G01Y-42830D01*
X-64898*
Y-43030*
X-65077*
G37*
G36*
X-65476Y-79314D02*
G01Y-79114D01*
X-65297*
Y-79314*
X-65476*
G37*
G36*
Y-79676D02*
G01Y-79476D01*
X-65297*
Y-79676*
X-65476*
G37*
G36*
X-65801Y-44586D02*
G01Y-44407D01*
X-65601*
Y-44586*
X-65801*
G37*
G36*
X-66164D02*
G01Y-44407D01*
X-65964*
Y-44586*
X-66164*
G37*
G36*
X-66779Y-42302D02*
G01Y-42123D01*
X-66579*
Y-42302*
X-66779*
G37*
G36*
X-66983Y-38974D02*
G01Y-38795D01*
X-66783*
Y-38974*
X-66983*
G37*
G36*
X-67142Y-42302D02*
G01Y-42123D01*
X-66942*
Y-42302*
X-67142*
G37*
G36*
X-67272Y-44580D02*
G01Y-44401D01*
X-67072*
Y-44580*
X-67272*
G37*
G36*
X-67346Y-38974D02*
G01Y-38795D01*
X-67146*
Y-38974*
X-67346*
G37*
G36*
X-67633Y-44580D02*
G01Y-44401D01*
X-67433*
Y-44580*
X-67633*
G37*
G36*
X-14802Y-29618D02*
G01Y-29418D01*
X-14622*
Y-29618*
X-14802*
G37*
G36*
Y-29980D02*
G01Y-29780D01*
X-14622*
Y-29980*
X-14802*
G37*
G36*
X-15122Y-31013D02*
G01Y-30813D01*
X-14942*
Y-31013*
X-15122*
G37*
G36*
Y-31375D02*
G01Y-31175D01*
X-14942*
Y-31375*
X-15122*
G37*
G36*
X-15385Y-33244D02*
G01Y-33044D01*
X-15205*
Y-33244*
X-15385*
G37*
G36*
Y-33606D02*
G01Y-33406D01*
X-15205*
Y-33543*
X-15268Y-33606*
X-15385*
G37*
G36*
X-15439Y-34469D02*
G01Y-34269D01*
X-15259*
Y-34469*
X-15439*
G37*
G36*
Y-34831D02*
G01Y-34631D01*
X-15259*
Y-34831*
X-15439*
G37*
G36*
X-15783Y-32083D02*
G01Y-31883D01*
X-15603*
Y-32083*
X-15783*
G37*
G36*
Y-32446D02*
G01Y-32246D01*
X-15603*
Y-32446*
X-15783*
G37*
G36*
Y-33320D02*
G01Y-33140D01*
X-15583*
Y-33320*
X-15783*
G37*
G36*
X-15800Y-31124D02*
G01Y-30924D01*
X-15620*
Y-31124*
X-15800*
G37*
G36*
Y-31486D02*
G01Y-31286D01*
X-15620*
Y-31486*
X-15800*
G37*
G36*
X-16146Y-33320D02*
G01Y-33140D01*
X-15946*
Y-33320*
X-16146*
G37*
G36*
X-16450Y-32959D02*
G01Y-32759D01*
X-16270*
Y-32959*
X-16450*
G37*
G36*
Y-33321D02*
G01Y-33121D01*
X-16270*
Y-33321*
X-16450*
G37*
G36*
X-16474Y-32089D02*
G01Y-31889D01*
X-16294*
Y-32089*
X-16474*
G37*
G36*
Y-32451D02*
G01Y-32251D01*
X-16294*
Y-32451*
X-16474*
G37*
G36*
X-16859Y-45309D02*
G01Y-45109D01*
X-16679*
Y-45309*
X-16859*
G37*
G36*
Y-45671D02*
G01Y-45471D01*
X-16679*
Y-45671*
X-16859*
G37*
G36*
X-17249Y-45620D02*
G01Y-45440D01*
X-17049*
Y-45620*
X-17249*
G37*
G36*
X-17344Y-33670D02*
G01Y-33490D01*
X-17144*
Y-33670*
X-17344*
G37*
G36*
X-17349Y-33300D02*
G01Y-33120D01*
X-17149*
Y-33300*
X-17349*
G37*
G36*
X-17611Y-45620D02*
G01Y-45440D01*
X-17411*
Y-45620*
X-17611*
G37*
G36*
X-17705Y-33670D02*
G01Y-33490D01*
X-17505*
Y-33670*
X-17705*
G37*
G36*
X-17711Y-33300D02*
G01Y-33120D01*
X-17511*
Y-33300*
X-17711*
G37*
G36*
X-18409Y-46539D02*
G01Y-46339D01*
X-18229*
Y-46539*
X-18409*
G37*
G36*
Y-46901D02*
G01Y-46701D01*
X-18229*
Y-46901*
X-18409*
G37*
G36*
Y-47469D02*
G01Y-47269D01*
X-18229*
Y-47469*
X-18409*
G37*
G36*
Y-47831D02*
G01Y-47631D01*
X-18229*
Y-47831*
X-18409*
G37*
G36*
X-19198Y-31409D02*
G01Y-31209D01*
X-19018*
Y-31409*
X-19198*
G37*
G36*
Y-31772D02*
G01Y-31572D01*
X-19018*
Y-31772*
X-19198*
G37*
G36*
X-19209Y-33614D02*
G01Y-33414D01*
X-19029*
Y-33614*
X-19209*
G37*
G36*
Y-33976D02*
G01Y-33776D01*
X-19029*
Y-33976*
X-19209*
G37*
G36*
X-19361Y-67837D02*
G01Y-67657D01*
X-19161*
Y-67837*
X-19361*
G37*
G36*
X-19723D02*
G01Y-67657D01*
X-19523*
Y-67837*
X-19723*
G37*
G36*
X-20450Y-45899D02*
G01Y-45699D01*
X-20270*
Y-45899*
X-20450*
G37*
G36*
Y-46261D02*
G01Y-46061D01*
X-20270*
Y-46261*
X-20450*
G37*
G36*
X-20489Y-47459D02*
G01Y-47259D01*
X-20309*
Y-47459*
X-20489*
G37*
G36*
Y-47821D02*
G01Y-47621D01*
X-20309*
Y-47821*
X-20489*
G37*
G36*
X-20859Y-45899D02*
G01Y-45699D01*
X-20679*
Y-45899*
X-20859*
G37*
G36*
Y-46261D02*
G01Y-46061D01*
X-20679*
Y-46261*
X-20859*
G37*
G36*
X-20900Y-47459D02*
G01Y-47259D01*
X-20720*
Y-47459*
X-20900*
G37*
G36*
Y-47821D02*
G01Y-47621D01*
X-20720*
Y-47821*
X-20900*
G37*
G36*
X-20929Y-41050D02*
G01Y-40870D01*
X-20729*
Y-41050*
X-20929*
G37*
G36*
X-21290D02*
G01Y-40870D01*
X-21090*
Y-41050*
X-21290*
G37*
G36*
X-24890Y-82052D02*
G01Y-81852D01*
X-24710*
Y-82052*
X-24890*
G37*
G36*
Y-82414D02*
G01Y-82214D01*
X-24710*
Y-82414*
X-24890*
G37*
G36*
X-25740Y-73398D02*
G01Y-73218D01*
X-25540*
Y-73398*
X-25740*
G37*
G36*
X-26102D02*
G01Y-73218D01*
X-25902*
Y-73398*
X-26102*
G37*
G36*
X-26190Y-82727D02*
G01Y-82527D01*
X-26010*
Y-82727*
X-26190*
G37*
G36*
Y-83089D02*
G01Y-82889D01*
X-26010*
Y-83089*
X-26190*
G37*
G36*
X-26205Y-81032D02*
G01Y-80832D01*
X-26025*
Y-81032*
X-26205*
G37*
G36*
Y-81394D02*
G01Y-81194D01*
X-26025*
Y-81394*
X-26205*
G37*
G36*
X-27220Y-76395D02*
G01Y-76195D01*
X-27040*
Y-76395*
X-27220*
G37*
G36*
Y-76757D02*
G01Y-76557D01*
X-27040*
Y-76757*
X-27220*
G37*
G36*
X-28224Y-78246D02*
G01Y-78046D01*
X-28044*
Y-78246*
X-28224*
G37*
G36*
Y-78608D02*
G01Y-78408D01*
X-28044*
Y-78608*
X-28224*
G37*
G36*
X-28755Y-76412D02*
G01Y-76212D01*
X-28575*
Y-76412*
X-28755*
G37*
G36*
Y-76774D02*
G01Y-76574D01*
X-28575*
Y-76774*
X-28755*
G37*
G36*
Y-79439D02*
G01Y-79239D01*
X-28575*
Y-79439*
X-28755*
G37*
G36*
Y-79801D02*
G01Y-79601D01*
X-28575*
Y-79801*
X-28755*
G37*
G36*
X-28908Y-83531D02*
G01Y-83351D01*
X-28708*
Y-83531*
X-28908*
G37*
G36*
X-29270D02*
G01Y-83351D01*
X-29070*
Y-83531*
X-29270*
G37*
G36*
X-29340Y-83867D02*
G01Y-83667D01*
X-29160*
Y-83867*
X-29340*
G37*
G36*
Y-84229D02*
G01Y-84029D01*
X-29160*
Y-84229*
X-29340*
G37*
G36*
X-30792Y-79792D02*
G01Y-79592D01*
X-30612*
Y-79792*
X-30792*
G37*
G36*
Y-80154D02*
G01Y-79954D01*
X-30612*
Y-80154*
X-30792*
G37*
G36*
X-31003Y-78973D02*
G01Y-78773D01*
X-30823*
Y-78973*
X-31003*
G37*
G36*
Y-79335D02*
G01Y-79135D01*
X-30823*
Y-79335*
X-31003*
G37*
G36*
X-31379Y-63118D02*
G01Y-62938D01*
X-31179*
Y-63118*
X-31379*
G37*
G36*
X-31741D02*
G01Y-62938D01*
X-31541*
Y-63118*
X-31741*
G37*
G36*
X-31870Y-83682D02*
G01Y-83482D01*
X-31690*
Y-83682*
X-31870*
G37*
G36*
Y-84044D02*
G01Y-83844D01*
X-31690*
Y-84044*
X-31870*
G37*
G36*
X-32224Y-76113D02*
G01Y-75933D01*
X-32024*
Y-76113*
X-32224*
G37*
G36*
X-32586D02*
G01Y-75933D01*
X-32386*
Y-76113*
X-32586*
G37*
G36*
X-34079Y-72668D02*
G01Y-72488D01*
X-33879*
Y-72668*
X-34079*
G37*
G36*
X-34441D02*
G01Y-72488D01*
X-34241*
Y-72668*
X-34441*
G37*
G36*
X-34619Y-78646D02*
G01Y-78446D01*
X-34439*
Y-78646*
X-34619*
G37*
G36*
X-38003Y-80296D02*
G01Y-80096D01*
X-37823*
Y-80296*
X-38003*
G37*
G36*
Y-80658D02*
G01Y-80458D01*
X-37823*
Y-80658*
X-38003*
G37*
G36*
X-44961Y-32492D02*
G01Y-32292D01*
X-44781*
Y-32492*
X-44961*
G37*
G36*
X-45159Y-38450D02*
G01Y-38270D01*
X-44959*
Y-38450*
X-45159*
G37*
G36*
X-45520D02*
G01Y-38270D01*
X-45320*
Y-38450*
X-45520*
G37*
G36*
X-47014Y-35005D02*
G01Y-34825D01*
X-46814*
Y-35005*
X-47014*
G37*
G36*
X-47376D02*
G01Y-34825D01*
X-47176*
Y-35005*
X-47376*
G37*
G36*
X-47709Y-27094D02*
G01Y-26894D01*
X-47529*
Y-27094*
X-47709*
G37*
G36*
Y-27456D02*
G01Y-27256D01*
X-47529*
Y-27456*
X-47709*
G37*
G36*
X-47859Y-48000D02*
G01Y-47820D01*
X-47659*
Y-48000*
X-47859*
G37*
G36*
X-48220D02*
G01Y-47820D01*
X-48020*
Y-48000*
X-48220*
G37*
G36*
X-48285Y-30444D02*
G01Y-30244D01*
X-48105*
Y-30444*
X-48285*
G37*
G36*
Y-30806D02*
G01Y-30606D01*
X-48105*
Y-30806*
X-48285*
G37*
G36*
X-49259Y-31803D02*
G01Y-31603D01*
X-49079*
Y-31803*
X-49259*
G37*
G36*
Y-32165D02*
G01Y-31965D01*
X-49079*
Y-32165*
X-49259*
G37*
G36*
X-49826Y-34059D02*
G01Y-33859D01*
X-49646*
Y-34059*
X-49826*
G37*
G36*
Y-34422D02*
G01Y-34222D01*
X-49646*
Y-34422*
X-49826*
G37*
G36*
X-49835Y-31304D02*
G01Y-31104D01*
X-49655*
Y-31304*
X-49835*
G37*
G36*
Y-31666D02*
G01Y-31466D01*
X-49655*
Y-31666*
X-49835*
G37*
G36*
X-50322Y-33922D02*
G01Y-33722D01*
X-50142*
Y-33922*
X-50322*
G37*
G36*
Y-34284D02*
G01Y-34084D01*
X-50142*
Y-34284*
X-50322*
G37*
G36*
X-50329Y-27587D02*
G01Y-27407D01*
X-50129*
Y-27587*
X-50329*
G37*
G36*
X-50635Y-26892D02*
G01Y-26692D01*
X-50455*
Y-26892*
X-50635*
G37*
G36*
Y-27255D02*
G01Y-27055D01*
X-50455*
Y-27255*
X-50635*
G37*
G36*
X-50692Y-27587D02*
G01Y-27407D01*
X-50492*
Y-27587*
X-50692*
G37*
G36*
X-51876Y-30787D02*
G01Y-30587D01*
X-51696*
Y-30787*
X-51876*
G37*
G36*
Y-31149D02*
G01Y-30949D01*
X-51696*
Y-31149*
X-51876*
G37*
G36*
X-52359Y-34381D02*
G01Y-34181D01*
X-52179*
Y-34381*
X-52359*
G37*
G36*
Y-34743D02*
G01Y-34543D01*
X-52179*
Y-34743*
X-52359*
G37*
G36*
X-53498Y-37720D02*
G01Y-37540D01*
X-53298*
Y-37720*
X-53498*
G37*
G36*
X-53859D02*
G01Y-37540D01*
X-53659*
Y-37720*
X-53859*
G37*
G36*
X-55322Y-37382D02*
G01Y-37182D01*
X-55142*
Y-37382*
X-55322*
G37*
G36*
Y-37744D02*
G01Y-37544D01*
X-55142*
Y-37744*
X-55322*
G37*
G36*
X-58309Y-70068D02*
G01Y-69888D01*
X-58109*
Y-70068*
X-58309*
G37*
G36*
X-58671D02*
G01Y-69888D01*
X-58471*
Y-70068*
X-58671*
G37*
G36*
X-58720Y-64877D02*
G01Y-64677D01*
X-58540*
Y-64877*
X-58720*
G37*
G36*
Y-65239D02*
G01Y-65039D01*
X-58540*
Y-65239*
X-58720*
G37*
G36*
X-59877Y-43281D02*
G01Y-43101D01*
X-59677*
Y-43281*
X-59877*
G37*
G36*
X-60239D02*
G01Y-43101D01*
X-60039*
Y-43281*
X-60239*
G37*
G36*
X-60355Y-78232D02*
G01Y-78032D01*
X-60175*
Y-78232*
X-60355*
G37*
G36*
Y-78594D02*
G01Y-78394D01*
X-60175*
Y-78594*
X-60355*
G37*
G36*
X-60370Y-77162D02*
G01Y-76962D01*
X-60190*
Y-77162*
X-60370*
G37*
G36*
Y-77524D02*
G01Y-77324D01*
X-60190*
Y-77524*
X-60370*
G37*
G36*
X-61170Y-63307D02*
G01Y-63107D01*
X-60990*
Y-63307*
X-61170*
G37*
G36*
Y-63669D02*
G01Y-63469D01*
X-60990*
Y-63669*
X-61170*
G37*
G36*
Y-64237D02*
G01Y-64037D01*
X-60990*
Y-64237*
X-61170*
G37*
G36*
Y-64599D02*
G01Y-64399D01*
X-60990*
Y-64599*
X-61170*
G37*
G36*
X-61700Y-43277D02*
G01Y-43077D01*
X-61520*
Y-43277*
X-61700*
G37*
G36*
Y-43639D02*
G01Y-43439D01*
X-61520*
Y-43639*
X-61700*
G37*
G36*
X-61889Y-77818D02*
G01Y-77638D01*
X-61689*
Y-77818*
X-61889*
G37*
G36*
X-61894Y-77448D02*
G01Y-77268D01*
X-61694*
Y-77448*
X-61894*
G37*
G36*
X-61989Y-65498D02*
G01Y-65318D01*
X-61789*
Y-65498*
X-61989*
G37*
G36*
X-62251Y-77818D02*
G01Y-77638D01*
X-62051*
Y-77818*
X-62251*
G37*
G36*
X-62256Y-77448D02*
G01Y-77268D01*
X-62056*
Y-77448*
X-62256*
G37*
G36*
X-62351Y-65498D02*
G01Y-65318D01*
X-62151*
Y-65498*
X-62351*
G37*
G36*
X-62720Y-65467D02*
G01Y-65267D01*
X-62540*
Y-65467*
X-62720*
G37*
G36*
Y-65829D02*
G01Y-65629D01*
X-62540*
Y-65829*
X-62720*
G37*
G36*
X-62770Y-36111D02*
G01Y-35911D01*
X-62590*
Y-36111*
X-62770*
G37*
G36*
Y-36473D02*
G01Y-36273D01*
X-62590*
Y-36473*
X-62770*
G37*
G36*
X-62800Y-32606D02*
G01Y-32406D01*
X-62620*
Y-32606*
X-62800*
G37*
G36*
Y-32968D02*
G01Y-32768D01*
X-62620*
Y-32968*
X-62800*
G37*
G36*
X-63454Y-77798D02*
G01Y-77618D01*
X-63254*
Y-77798*
X-63454*
G37*
G36*
X-63816D02*
G01Y-77618D01*
X-63616*
Y-77798*
X-63816*
G37*
G36*
X-64195Y-77894D02*
G01Y-77694D01*
X-64015*
Y-77894*
X-64195*
G37*
G36*
X-64850Y-36466D02*
G01Y-36266D01*
X-64670*
Y-36466*
X-64850*
G37*
G36*
Y-36829D02*
G01Y-36629D01*
X-64670*
Y-36829*
X-64850*
G37*
G36*
X-65200Y-30587D02*
G01Y-30387D01*
X-65020*
Y-30587*
X-65200*
G37*
G36*
Y-30949D02*
G01Y-30749D01*
X-65020*
Y-30949*
X-65200*
G37*
G36*
Y-35937D02*
G01Y-35737D01*
X-65020*
Y-35937*
X-65200*
G37*
G36*
Y-36299D02*
G01Y-36099D01*
X-65020*
Y-36299*
X-65200*
G37*
G36*
X-19225Y-32544D02*
G01Y-32344D01*
X-19044*
Y-32544*
X-19225*
G37*
G36*
Y-32906D02*
G01Y-32706D01*
X-19044*
Y-32906*
X-19225*
G37*
G36*
X-41577Y-30480D02*
G01Y-30280D01*
X-41396*
Y-30480*
X-41577*
G37*
G36*
Y-30842D02*
G01Y-30642D01*
X-41396*
Y-30842*
X-41577*
G37*
G36*
X-48577Y-31803D02*
G01Y-31603D01*
X-48396*
Y-31803*
X-48577*
G37*
G36*
Y-32165D02*
G01Y-31965D01*
X-48396*
Y-32165*
X-48577*
G37*
G36*
X-48788Y-30984D02*
G01Y-30784D01*
X-48607*
Y-30984*
X-48788*
G37*
G36*
Y-31346D02*
G01Y-31146D01*
X-48607*
Y-31346*
X-48788*
G37*
G36*
X-50240Y-26909D02*
G01Y-26709D01*
X-50059*
Y-26909*
X-50240*
G37*
G36*
Y-27271D02*
G01Y-27071D01*
X-50059*
Y-27271*
X-50240*
G37*
G36*
X-50825Y-31337D02*
G01Y-31137D01*
X-50644*
Y-31337*
X-50825*
G37*
G36*
Y-31699D02*
G01Y-31499D01*
X-50644*
Y-31699*
X-50825*
G37*
G36*
Y-34364D02*
G01Y-34164D01*
X-50644*
Y-34364*
X-50825*
G37*
G36*
Y-34726D02*
G01Y-34526D01*
X-50644*
Y-34726*
X-50825*
G37*
G36*
X-53375Y-29744D02*
G01Y-29544D01*
X-53194*
Y-29744*
X-53375*
G37*
G36*
Y-30106D02*
G01Y-29906D01*
X-53194*
Y-30106*
X-53375*
G37*
G36*
X-53390Y-28049D02*
G01Y-27849D01*
X-53209*
Y-28049*
X-53390*
G37*
G36*
Y-28411D02*
G01Y-28211D01*
X-53209*
Y-28411*
X-53390*
G37*
G36*
X-54690Y-28724D02*
G01Y-28524D01*
X-54509*
Y-28724*
X-54690*
G37*
G36*
Y-29086D02*
G01Y-28886D01*
X-54509*
Y-29086*
X-54690*
G37*
G36*
X-14705Y-31447D02*
G01Y-31147D01*
X-14424*
Y-31447*
X-14522*
Y-31395*
X-14526Y-31377*
X-14537Y-31362*
X-14553Y-31354*
X-14565Y-31352*
X-14583Y-31356*
X-14597Y-31368*
X-14606Y-31384*
X-14607Y-31395*
Y-31447*
X-14705*
G37*
G36*
Y-32027D02*
G01Y-31727D01*
X-14607*
Y-31778*
X-14603Y-31796*
X-14591Y-31810*
X-14575Y-31819*
X-14564Y-31820*
X-14546Y-31816*
X-14532Y-31805*
X-14523Y-31789*
X-14522Y-31778*
Y-31727*
X-14424*
Y-32027*
X-14705*
G37*
G36*
X-13822Y-29573D02*
G01Y-29475D01*
X-13770*
X-13752Y-29471*
X-13738Y-29459*
X-13729Y-29443*
X-13728Y-29432*
X-13732Y-29414*
X-13743Y-29399*
X-13759Y-29391*
X-13770Y-29389*
X-13822*
Y-29291*
X-13522*
Y-29573*
X-13822*
G37*
G36*
X-14402D02*
G01Y-29291D01*
X-14102*
Y-29389*
X-14153*
X-14171Y-29393*
X-14186Y-29404*
X-14194Y-29420*
X-14196Y-29432*
X-14192Y-29450*
X-14181Y-29465*
X-14165Y-29473*
X-14153Y-29475*
X-14102*
Y-29573*
X-14402*
G37*
G36*
X-16575Y-76635D02*
G01Y-76537D01*
X-16523*
X-16505Y-76533*
X-16490Y-76522*
X-16482Y-76506*
X-16480Y-76494*
X-16484Y-76476*
X-16495Y-76461*
X-16511Y-76453*
X-16523Y-76451*
X-16575*
Y-76353*
X-16275*
Y-76635*
X-16575*
G37*
G36*
X-17155D02*
G01Y-76353D01*
X-16855*
Y-76451*
X-16906*
X-16924Y-76455*
X-16938Y-76467*
X-16947Y-76483*
X-16948Y-76494*
X-16944Y-76512*
X-16933Y-76527*
X-16917Y-76535*
X-16906Y-76537*
X-16855*
Y-76635*
X-17155*
G37*
G36*
X-22217Y-73713D02*
G01Y-73413D01*
X-21935*
Y-73713*
X-22033*
Y-73661*
X-22037Y-73643*
X-22049Y-73629*
X-22065Y-73620*
X-22076Y-73619*
X-22094Y-73623*
X-22109Y-73633*
X-22117Y-73649*
X-22119Y-73661*
Y-73713*
X-22217*
G37*
G36*
Y-74292D02*
G01Y-73992D01*
X-22119*
Y-74044*
X-22115Y-74062*
X-22104Y-74077*
X-22088Y-74085*
X-22076Y-74087*
X-22058Y-74083*
X-22043Y-74072*
X-22035Y-74056*
X-22033Y-74044*
Y-73992*
X-21935*
Y-74292*
X-22217*
G37*
G36*
X-22782Y-73698D02*
G01Y-73398D01*
X-22500*
Y-73698*
X-22598*
Y-73646*
X-22602Y-73628*
X-22614Y-73614*
X-22630Y-73605*
X-22641Y-73604*
X-22642*
X-22660Y-73608*
X-22674Y-73619*
X-22683Y-73635*
X-22684Y-73646*
Y-73698*
X-22782*
G37*
G36*
Y-74277D02*
G01Y-73977D01*
X-22684*
Y-74029*
X-22680Y-74047*
X-22669Y-74062*
X-22653Y-74070*
X-22641Y-74072*
X-22623Y-74068*
X-22608Y-74057*
X-22600Y-74041*
X-22598Y-74029*
Y-73977*
X-22500*
Y-74277*
X-22782*
G37*
G36*
X-32305Y-83578D02*
G01Y-83480D01*
X-32254*
X-32236Y-83476*
X-32221Y-83465*
X-32213Y-83449*
X-32211Y-83437*
X-32215Y-83419*
X-32226Y-83404*
X-32242Y-83396*
X-32254Y-83394*
X-32305*
Y-83296*
X-32005*
Y-83578*
X-32305*
G37*
G36*
X-32310Y-100859D02*
G01Y-100761D01*
X-32258*
X-32240Y-100757*
X-32225Y-100746*
X-32217Y-100730*
X-32215Y-100718*
X-32219Y-100700*
X-32230Y-100685*
X-32246Y-100677*
X-32258Y-100675*
X-32310*
Y-100577*
X-32010*
Y-100859*
X-32310*
G37*
G36*
X-32885Y-83578D02*
G01Y-83296D01*
X-32585*
Y-83394*
X-32637*
X-32655Y-83398*
X-32669Y-83410*
X-32678Y-83426*
X-32679Y-83437*
X-32675Y-83455*
X-32665Y-83470*
X-32649Y-83478*
X-32637Y-83480*
X-32585*
Y-83578*
X-32885*
G37*
G36*
X-32890Y-100859D02*
G01Y-100577D01*
X-32590*
Y-100675*
X-32641*
X-32659Y-100679*
X-32673Y-100691*
X-32682Y-100707*
X-32683Y-100718*
X-32679Y-100736*
X-32668Y-100751*
X-32652Y-100759*
X-32641Y-100761*
X-32590*
Y-100859*
X-32890*
G37*
G36*
X-39731Y-95468D02*
G01Y-95168D01*
X-39449*
Y-95468*
X-39547*
Y-95417*
X-39551Y-95399*
X-39562Y-95384*
X-39578Y-95376*
X-39590Y-95374*
X-39608Y-95378*
X-39623Y-95389*
X-39631Y-95405*
X-39633Y-95417*
Y-95468*
X-39731*
G37*
G36*
Y-96048D02*
G01Y-95748D01*
X-39633*
Y-95800*
X-39629Y-95818*
X-39617Y-95832*
X-39601Y-95841*
X-39590Y-95842*
X-39589*
X-39571Y-95838*
X-39557Y-95827*
X-39548Y-95811*
X-39547Y-95800*
Y-95748*
X-39449*
Y-96048*
X-39731*
G37*
G36*
X-46809Y-10361D02*
G01Y-10263D01*
X-46759*
X-46741Y-10259*
X-46726Y-10248*
X-46718Y-10232*
X-46716Y-10220*
X-46720Y-10202*
X-46731Y-10187*
X-46747Y-10179*
X-46759Y-10177*
X-46809*
Y-10079*
X-46509*
Y-10361*
X-46809*
G37*
G36*
X-46815Y-27642D02*
G01Y-27544D01*
X-46763*
X-46745Y-27540*
X-46730Y-27529*
X-46722Y-27513*
X-46720Y-27501*
Y-27500*
X-46725Y-27482*
X-46736Y-27468*
X-46753Y-27459*
X-46763Y-27458*
X-46815*
Y-27360*
X-46515*
Y-27642*
X-46815*
G37*
G36*
X-47390Y-10361D02*
G01Y-10079D01*
X-47090*
Y-10177*
X-47142*
X-47160Y-10181*
X-47175Y-10192*
X-47183Y-10208*
X-47185Y-10220*
X-47181Y-10238*
X-47170Y-10253*
X-47154Y-10261*
X-47142Y-10263*
X-47090*
Y-10361*
X-47390*
G37*
G36*
X-47394Y-27642D02*
G01Y-27360D01*
X-47094*
Y-27458*
X-47146*
X-47164Y-27462*
X-47179Y-27473*
X-47187Y-27489*
X-47189Y-27501*
X-47185Y-27519*
X-47174Y-27534*
X-47158Y-27542*
X-47146Y-27544*
X-47094*
Y-27642*
X-47394*
G37*
G36*
X-56900Y-36961D02*
G01Y-36661D01*
X-56618*
Y-36961*
X-56716*
Y-36909*
X-56720Y-36891*
X-56731Y-36876*
X-56747Y-36868*
X-56759Y-36866*
X-56777Y-36870*
X-56792Y-36881*
X-56800Y-36897*
X-56802Y-36909*
Y-36961*
X-56900*
G37*
G36*
Y-37540D02*
G01Y-37240D01*
X-56802*
Y-37292*
X-56797Y-37310*
X-56786Y-37324*
X-56769Y-37333*
X-56758Y-37334*
X-56740Y-37330*
X-56726Y-37319*
X-56717Y-37303*
X-56716Y-37292*
Y-37240*
X-56618*
Y-37540*
X-56900*
G37*
G36*
X-57465Y-36946D02*
G01Y-36646D01*
X-57183*
Y-36946*
X-57281*
Y-36894*
X-57285Y-36876*
X-57296Y-36861*
X-57312Y-36853*
X-57324Y-36851*
X-57342Y-36855*
X-57356Y-36867*
X-57365Y-36883*
X-57366Y-36894*
Y-36946*
X-57465*
G37*
G36*
Y-37525D02*
G01Y-37225D01*
X-57366*
Y-37277*
X-57362Y-37295*
X-57350Y-37309*
X-57334Y-37318*
X-57323Y-37319*
X-57305Y-37315*
X-57291Y-37304*
X-57282Y-37288*
X-57281Y-37277*
Y-37225*
X-57183*
Y-37525*
X-57465*
G37*
G36*
X-62544Y-34585D02*
G01Y-34487D01*
X-62494*
X-62476Y-34483*
X-62462Y-34471*
X-62453Y-34455*
X-62452Y-34444*
Y-34443*
X-62456Y-34425*
X-62467Y-34411*
X-62483Y-34402*
X-62494Y-34401*
X-62544*
Y-34303*
X-62244*
Y-34585*
X-62544*
G37*
G36*
X-63125D02*
G01Y-34303D01*
X-62825*
Y-34401*
X-62877*
X-62895Y-34405*
X-62910Y-34416*
X-62918Y-34432*
X-62920Y-34444*
X-62916Y-34462*
X-62905Y-34477*
X-62889Y-34485*
X-62877Y-34487*
X-62825*
Y-34585*
X-63125*
G37*
G36*
X-64976Y-79211D02*
G01Y-78911D01*
X-64694*
Y-79211*
X-64792*
Y-79160*
X-64796Y-79142*
X-64808Y-79128*
X-64824Y-79119*
X-64835Y-79118*
X-64853Y-79122*
X-64868Y-79133*
X-64876Y-79149*
X-64878Y-79160*
Y-79211*
X-64976*
G37*
G36*
Y-79791D02*
G01Y-79491D01*
X-64878*
Y-79543*
X-64874Y-79561*
X-64863Y-79576*
X-64847Y-79584*
X-64835Y-79586*
X-64817Y-79582*
X-64802Y-79571*
X-64794Y-79555*
X-64792Y-79543*
Y-79491*
X-64694*
Y-79791*
X-64976*
G37*
G36*
X-65298Y-81647D02*
G01Y-81549D01*
X-65246*
X-65228Y-81545*
X-65213Y-81534*
X-65205Y-81518*
X-65203Y-81506*
X-65207Y-81488*
X-65218Y-81473*
X-65234Y-81465*
X-65246Y-81463*
X-65298*
Y-81365*
X-64998*
Y-81647*
X-65298*
G37*
G36*
X-65878D02*
G01Y-81365D01*
X-65578*
Y-81463*
X-65629*
X-65647Y-81467*
X-65662Y-81478*
X-65670Y-81494*
X-65672Y-81506*
X-65668Y-81524*
X-65657Y-81539*
X-65641Y-81547*
X-65629Y-81549*
X-65578*
Y-81647*
X-65878*
G37*
G36*
X-39951Y-15190D02*
G01Y-14890D01*
X-39668*
Y-15190*
X-39766*
Y-15138*
X-39770Y-15120*
X-39782Y-15106*
X-39798Y-15097*
X-39809Y-15096*
X-39810*
X-39828Y-15100*
X-39843Y-15111*
X-39851Y-15127*
X-39853Y-15138*
Y-15190*
X-39951*
G37*
G36*
Y-15770D02*
G01Y-15470D01*
X-39853*
Y-15521*
X-39849Y-15539*
X-39838Y-15554*
X-39821Y-15562*
X-39809Y-15564*
X-39791Y-15560*
X-39776Y-15549*
X-39768Y-15533*
X-39766Y-15521*
Y-15470*
X-39668*
Y-15770*
X-39951*
G37*
G36*
X-15532Y-54203D02*
G01Y-53884D01*
X-15307*
X-15232Y-54003*
Y-54083*
X-15307Y-54203*
X-15532*
G37*
G36*
X-21123D02*
G01Y-53884D01*
X-20898*
X-20823Y-54003*
Y-54083*
X-20898Y-54203*
X-21123*
G37*
G36*
X-14992Y-54083D02*
G01Y-54003D01*
X-14917Y-53884*
X-14692*
Y-54203*
X-14917*
X-14992Y-54083*
G37*
G36*
X-20583D02*
G01Y-54003D01*
X-20507Y-53884*
X-20283*
Y-54203*
X-20507*
X-20583Y-54083*
G37*
G36*
X-59117Y-57055D02*
G01Y-56735D01*
X-58892*
X-58817Y-56855*
Y-56935*
X-58892Y-57055*
X-59117*
G37*
G36*
X-64708D02*
G01Y-56735D01*
X-64483*
X-64408Y-56855*
Y-56935*
X-64483Y-57055*
X-64708*
G37*
G36*
X-58577Y-56935D02*
G01Y-56855D01*
X-58502Y-56735*
X-58277*
Y-57055*
X-58502*
X-58577Y-56935*
G37*
G36*
X-64167D02*
G01Y-56855D01*
X-64093Y-56735*
X-63867*
Y-57055*
X-64093*
X-64167Y-56935*
G37*
G36*
X-32821Y-84748D02*
G01Y-84581D01*
X-32688Y-84498*
X-32555*
X-32421Y-84581*
Y-84748*
X-32821*
G37*
G36*
X-46979Y-26357D02*
G01Y-26190D01*
X-46579*
Y-26357*
X-46712Y-26440*
X-46844*
X-46979Y-26357*
G37*
G36*
X-32821Y-84081D02*
G01Y-83914D01*
X-32421*
Y-84081*
X-32555Y-84165*
X-32688*
X-32821Y-84081*
G37*
G36*
X-46979Y-27024D02*
G01Y-26857D01*
X-46844Y-26773*
X-46712*
X-46579Y-26857*
Y-27024*
X-46979*
G37*
G36*
X-61140Y-57347D02*
G01Y-57108D01*
X-61020Y-57028*
X-60940*
X-60821Y-57108*
Y-57347*
X-61140*
G37*
G36*
X-12179Y-54203D02*
G01Y-53884D01*
X-11939*
X-11859Y-54003*
Y-54083*
X-11939Y-54203*
X-12179*
G37*
G36*
X-11594Y-54083D02*
G01Y-54003D01*
X-11514Y-53884*
X-11274*
Y-54203*
X-11514*
X-11594Y-54083*
G37*
G36*
X-18579Y-53830D02*
G01Y-53591D01*
X-18259*
Y-53830*
X-18379Y-53910*
X-18459*
X-18579Y-53830*
G37*
G36*
X-61140Y-56682D02*
G01Y-56442D01*
X-60821*
Y-56682*
X-60941Y-56762*
X-61021*
X-61140Y-56682*
G37*
G36*
X-67540Y-56935D02*
G01Y-56855D01*
X-67460Y-56735*
X-67221*
Y-57055*
X-67460*
X-67540Y-56935*
G37*
G36*
X-68126Y-57055D02*
G01Y-56735D01*
X-67886*
X-67806Y-56855*
Y-56935*
X-67886Y-57055*
X-68126*
G37*
G36*
X-18579Y-54496D02*
G01Y-54256D01*
X-18459Y-54176*
X-18379*
X-18259Y-54256*
Y-54496*
X-18579*
G37*
G36*
X-12844Y-29871D02*
G01Y-29471D01*
X-12364*
Y-29871*
X-12525*
Y-29816*
X-12529Y-29791*
X-12540Y-29769*
X-12558Y-29751*
X-12581Y-29740*
X-12604Y-29737*
X-12629Y-29741*
X-12651Y-29753*
X-12669Y-29771*
X-12680Y-29793*
X-12683Y-29816*
Y-29817*
Y-29871*
X-12844*
G37*
G36*
Y-30692D02*
G01Y-30292D01*
X-12683*
Y-30346*
X-12679Y-30371*
X-12667Y-30393*
X-12650Y-30411*
X-12627Y-30422*
X-12603Y-30426*
X-12578Y-30421*
X-12556Y-30409*
X-12539Y-30391*
X-12528Y-30368*
X-12525Y-30346*
Y-30292*
X-12364*
Y-30692*
X-12844*
G37*
G36*
X-15655Y-29607D02*
G01Y-29207D01*
X-15175*
Y-29607*
X-15336*
Y-29553*
X-15335Y-29552*
X-15339Y-29527*
X-15351Y-29505*
X-15369Y-29487*
X-15392Y-29476*
X-15415Y-29473*
X-15416*
X-15441Y-29477*
X-15463Y-29489*
X-15480Y-29507*
X-15491Y-29530*
X-15494Y-29552*
Y-29607*
X-15655*
G37*
G36*
Y-30428D02*
G01Y-30028D01*
X-15494*
Y-30083*
X-15490Y-30108*
X-15479Y-30130*
X-15461Y-30148*
X-15438Y-30159*
X-15416Y-30162*
X-15391Y-30158*
X-15369Y-30146*
X-15351Y-30129*
X-15340Y-30106*
X-15336Y-30082*
Y-30028*
X-15175*
Y-30428*
X-15655*
G37*
G36*
X-50779Y-41734D02*
G01Y-41334D01*
X-50299*
Y-41734*
X-50459*
Y-41680*
X-50463Y-41655*
X-50475Y-41632*
X-50492Y-41615*
X-50515Y-41604*
X-50539Y-41600*
X-50540*
X-50565Y-41604*
X-50587Y-41616*
X-50604Y-41635*
X-50615Y-41657*
X-50618Y-41679*
Y-41680*
Y-41734*
X-50779*
G37*
G36*
Y-42555D02*
G01Y-42155D01*
X-50618*
Y-42209*
Y-42210*
X-50614Y-42235*
X-50603Y-42257*
X-50585Y-42275*
X-50562Y-42286*
X-50540Y-42289*
X-50515Y-42285*
X-50492Y-42274*
X-50475Y-42256*
X-50463Y-42234*
X-50459Y-42209*
Y-42155*
X-50299*
Y-42555*
X-50779*
G37*
G36*
X-13883Y-33207D02*
G01Y-32807D01*
X-13402*
Y-33207*
X-13563*
Y-33152*
X-13567Y-33127*
X-13578Y-33105*
X-13596Y-33087*
X-13619Y-33076*
X-13642Y-33073*
X-13667Y-33077*
X-13689Y-33088*
X-13707Y-33106*
X-13718Y-33128*
X-13722Y-33152*
Y-33207*
X-13883*
G37*
G36*
Y-34027D02*
G01Y-33627D01*
X-13722*
Y-33682*
X-13718Y-33707*
X-13706Y-33729*
X-13688Y-33747*
X-13665Y-33758*
X-13642Y-33761*
X-13617Y-33757*
X-13595Y-33745*
X-13577Y-33727*
X-13566Y-33704*
X-13563Y-33682*
Y-33627*
X-13402*
Y-34027*
X-13883*
G37*
G36*
X-16505Y-29616D02*
G01Y-29216D01*
X-16024*
Y-29616*
X-16186*
X-16185Y-29561*
X-16189Y-29536*
X-16201Y-29514*
X-16219Y-29496*
X-16242Y-29485*
X-16264Y-29482*
X-16266*
X-16291Y-29486*
X-16313Y-29498*
X-16330Y-29516*
X-16341Y-29539*
X-16344Y-29561*
Y-29616*
X-16505*
G37*
G36*
Y-30437D02*
G01Y-30037D01*
X-16344*
Y-30091*
X-16340Y-30116*
X-16328Y-30138*
X-16310Y-30156*
X-16287Y-30167*
X-16265Y-30170*
X-16240Y-30166*
X-16218Y-30155*
X-16200Y-30137*
X-16189Y-30114*
X-16186Y-30091*
Y-30037*
X-16024*
Y-30437*
X-16505*
G37*
G36*
X-17409Y-30569D02*
G01Y-30169D01*
X-16928*
Y-30569*
X-17089*
Y-30515*
Y-30514*
X-17093Y-30489*
X-17104Y-30467*
X-17122Y-30449*
X-17145Y-30438*
X-17168Y-30435*
X-17169*
X-17194Y-30439*
X-17216Y-30451*
X-17234Y-30468*
X-17245Y-30491*
X-17249Y-30515*
Y-30569*
X-17409*
G37*
G36*
Y-31390D02*
G01Y-30990D01*
X-17249*
X-17248Y-31045*
X-17244Y-31070*
X-17232Y-31092*
X-17214Y-31110*
X-17191Y-31121*
X-17168Y-31124*
X-17143Y-31120*
X-17121Y-31108*
X-17103Y-31090*
X-17092Y-31067*
X-17089Y-31044*
Y-30990*
X-16928*
Y-31390*
X-17409*
G37*
G36*
X-17489Y-34387D02*
G01Y-34226D01*
X-17435*
X-17434*
X-17410Y-34222*
X-17387Y-34210*
X-17370Y-34193*
X-17359Y-34170*
X-17355Y-34147*
X-17359Y-34122*
X-17371Y-34100*
X-17388Y-34082*
X-17411Y-34071*
X-17435Y-34067*
X-17489*
Y-33906*
X-17089*
Y-34387*
X-17489*
G37*
G36*
X-18020Y-29643D02*
G01Y-29482D01*
X-17966*
X-17941Y-29478*
X-17919Y-29466*
X-17901Y-29448*
X-17890Y-29425*
X-17887Y-29402*
X-17891Y-29377*
X-17903Y-29355*
X-17921Y-29337*
X-17944Y-29326*
X-17966Y-29323*
X-18020*
Y-29162*
X-17620*
Y-29643*
X-18020*
G37*
G36*
X-18229Y-35200D02*
G01Y-35039D01*
X-18176*
X-18151Y-35035*
X-18129Y-35023*
X-18111Y-35006*
X-18100Y-34983*
X-18096Y-34959*
X-18100Y-34934*
X-18112Y-34912*
X-18130Y-34894*
X-18153Y-34883*
X-18176Y-34880*
X-18229*
Y-34719*
X-17829*
Y-35200*
X-18229*
G37*
G36*
X-18309Y-34387D02*
G01Y-33906D01*
X-17909*
Y-34067*
X-17965*
X-17990Y-34071*
X-18012Y-34083*
X-18030Y-34101*
X-18041Y-34124*
X-18044Y-34147*
X-18040Y-34172*
X-18029Y-34194*
X-18011Y-34212*
X-17988Y-34223*
X-17965Y-34226*
X-17909*
Y-34387*
X-18309*
G37*
G36*
X-18842Y-29643D02*
G01Y-29162D01*
X-18442*
Y-29323*
X-18496*
X-18497*
X-18522Y-29327*
X-18544Y-29338*
X-18562Y-29356*
X-18573Y-29379*
X-18576Y-29402*
X-18572Y-29427*
X-18561Y-29449*
X-18543Y-29467*
X-18521Y-29478*
X-18496Y-29482*
X-18442*
Y-29643*
X-18842*
G37*
G36*
X-19051Y-35200D02*
G01Y-34719D01*
X-18651*
Y-34880*
X-18705*
X-18706*
X-18731Y-34884*
X-18753Y-34895*
X-18771Y-34913*
X-18782Y-34936*
X-18785Y-34959*
Y-34960*
X-18781Y-34985*
X-18769Y-35007*
X-18751Y-35025*
X-18729Y-35036*
X-18706Y-35039*
X-18705*
X-18651*
Y-35200*
X-19051*
G37*
G36*
X-25899Y-102218D02*
G01Y-102057D01*
X-25844*
X-25819Y-102053*
X-25797Y-102042*
X-25779Y-102024*
X-25768Y-102001*
X-25765Y-101978*
X-25769Y-101953*
X-25780Y-101931*
X-25798Y-101913*
X-25820Y-101902*
X-25845Y-101898*
X-25899*
Y-101737*
X-25499*
Y-102218*
X-25899*
G37*
G36*
X-26720D02*
G01Y-101737D01*
X-26320*
Y-101898*
X-26374*
X-26399Y-101902*
X-26421Y-101914*
X-26439Y-101931*
X-26450Y-101954*
X-26454Y-101978*
X-26450Y-102003*
X-26438Y-102025*
X-26420Y-102043*
X-26397Y-102054*
X-26374Y-102057*
X-26320*
Y-102218*
X-26720*
G37*
G36*
X-27014Y-88213D02*
G01Y-88052D01*
X-26959*
X-26934Y-88048*
X-26912Y-88036*
X-26894Y-88018*
X-26883Y-87996*
X-26880Y-87972*
X-26884Y-87947*
X-26896Y-87925*
X-26914Y-87907*
X-26937Y-87896*
X-26959Y-87893*
X-27014*
Y-87732*
X-26614*
Y-88213*
X-27014*
G37*
G36*
X-27544Y-71983D02*
G01Y-71822D01*
X-27489*
X-27464Y-71818*
X-27442Y-71807*
X-27424Y-71789*
X-27413Y-71766*
X-27410Y-71743*
X-27414Y-71718*
X-27425Y-71696*
X-27443Y-71678*
X-27465Y-71667*
X-27489Y-71663*
X-27544*
Y-71502*
X-27144*
Y-71983*
X-27544*
G37*
G36*
X-27835Y-88213D02*
G01Y-87732D01*
X-27435*
Y-87893*
X-27489*
X-27514Y-87897*
X-27536Y-87909*
X-27554Y-87926*
X-27565Y-87949*
X-27569Y-87973*
X-27565Y-87998*
X-27553Y-88020*
X-27535Y-88038*
X-27512Y-88049*
X-27489Y-88052*
X-27435*
Y-88213*
X-27835*
G37*
G36*
X-28365Y-71983D02*
G01Y-71502D01*
X-27965*
Y-71663*
X-28019*
X-28044Y-71667*
X-28066Y-71679*
X-28084Y-71696*
X-28095Y-71719*
X-28099Y-71743*
X-28095Y-71768*
X-28083Y-71790*
X-28065Y-71808*
X-28042Y-71819*
X-28019Y-71822*
X-27965*
Y-71983*
X-28365*
G37*
G36*
X-29101Y-68783D02*
G01Y-68383D01*
X-28620*
Y-68783*
X-28781*
Y-68728*
X-28785Y-68703*
X-28797Y-68681*
X-28815Y-68663*
X-28838Y-68652*
X-28860Y-68649*
X-28885Y-68653*
X-28907Y-68665*
X-28925Y-68682*
X-28936Y-68705*
X-28940Y-68729*
Y-68783*
X-29101*
G37*
G36*
Y-69604D02*
G01Y-69204D01*
X-28940*
Y-69258*
X-28936Y-69283*
X-28924Y-69306*
X-28907Y-69323*
X-28884Y-69334*
X-28860Y-69338*
X-28835Y-69334*
X-28813Y-69322*
X-28795Y-69304*
X-28784Y-69282*
X-28781Y-69259*
Y-69258*
Y-69204*
X-28620*
Y-69604*
X-29101*
G37*
G36*
X-29930Y-84822D02*
G01Y-84422D01*
X-29449*
Y-84822*
X-29610*
Y-84767*
X-29614Y-84742*
X-29626Y-84720*
X-29644Y-84702*
X-29667Y-84691*
X-29689Y-84688*
X-29714Y-84692*
X-29736Y-84703*
X-29754Y-84721*
X-29765Y-84743*
X-29769Y-84767*
Y-84822*
X-29930*
G37*
G36*
Y-85642D02*
G01Y-85242D01*
X-29769*
Y-85297*
X-29765Y-85322*
X-29753Y-85344*
X-29735Y-85362*
X-29712Y-85373*
X-29689Y-85376*
X-29664Y-85372*
X-29642Y-85360*
X-29624Y-85343*
X-29613Y-85320*
X-29610Y-85297*
Y-85242*
X-29449*
Y-85642*
X-29930*
G37*
G36*
X-30020Y-68772D02*
G01Y-68372D01*
X-29539*
Y-68772*
X-29700*
Y-68718*
X-29704Y-68693*
X-29716Y-68671*
X-29734Y-68653*
X-29757Y-68642*
X-29780Y-68639*
X-29805Y-68643*
X-29827Y-68655*
X-29845Y-68673*
X-29856Y-68696*
X-29859Y-68718*
Y-68772*
X-30020*
G37*
G36*
Y-69593D02*
G01Y-69193D01*
X-29859*
Y-69248*
X-29855Y-69273*
X-29843Y-69295*
X-29826Y-69313*
X-29803Y-69324*
X-29780Y-69327*
X-29779*
X-29754Y-69323*
X-29732Y-69311*
X-29714Y-69294*
X-29703Y-69271*
X-29700Y-69248*
Y-69193*
X-29539*
Y-69593*
X-30020*
G37*
G36*
X-31229Y-85028D02*
G01Y-84867D01*
X-31174*
X-31149Y-84863*
X-31127Y-84851*
X-31109Y-84834*
X-31098Y-84811*
X-31095Y-84788*
X-31099Y-84763*
X-31110Y-84741*
X-31128Y-84723*
X-31150Y-84712*
X-31174Y-84708*
X-31229*
Y-84547*
X-30829*
Y-85028*
X-31229*
G37*
G36*
X-32050D02*
G01Y-84547D01*
X-31650*
Y-84708*
X-31704*
X-31729Y-84712*
X-31751Y-84724*
X-31769Y-84741*
X-31780Y-84764*
X-31784Y-84788*
X-31780Y-84813*
X-31768Y-84835*
X-31750Y-84853*
X-31727Y-84864*
X-31704Y-84867*
X-31650*
Y-85028*
X-32050*
G37*
G36*
X-32159Y-101708D02*
G01Y-101547D01*
X-32104*
X-32079Y-101543*
X-32057Y-101531*
X-32039Y-101514*
X-32028Y-101491*
X-32025Y-101468*
Y-101467*
X-32029Y-101442*
X-32041Y-101420*
X-32059Y-101402*
X-32082Y-101391*
X-32105Y-101388*
X-32159*
Y-101227*
X-31759*
Y-101708*
X-32159*
G37*
G36*
X-32440Y-93298D02*
G01Y-92898D01*
X-31959*
Y-93298*
X-32120*
Y-93243*
X-32124Y-93218*
X-32136Y-93196*
X-32154Y-93178*
X-32177Y-93167*
X-32200Y-93164*
X-32225Y-93168*
X-32247Y-93180*
X-32265Y-93198*
X-32276Y-93221*
X-32279Y-93243*
Y-93298*
X-32440*
G37*
G36*
Y-94118D02*
G01Y-93718D01*
X-32279*
Y-93773*
X-32275Y-93798*
X-32263Y-93820*
X-32246Y-93838*
X-32223Y-93849*
X-32200Y-93852*
X-32199*
X-32174Y-93848*
X-32152Y-93836*
X-32134Y-93819*
X-32123Y-93796*
X-32120Y-93773*
Y-93718*
X-31959*
Y-94118*
X-32440*
G37*
G36*
X-32980Y-101708D02*
G01Y-101227D01*
X-32580*
Y-101388*
X-32634*
X-32659Y-101392*
X-32681Y-101404*
X-32699Y-101421*
X-32710Y-101444*
X-32714Y-101468*
X-32710Y-101493*
X-32698Y-101515*
X-32680Y-101533*
X-32657Y-101544*
X-32634Y-101547*
X-32580*
Y-101708*
X-32980*
G37*
G36*
X-33644Y-72198D02*
G01Y-72037D01*
X-33589*
X-33564Y-72033*
X-33542Y-72021*
X-33524Y-72004*
X-33513Y-71981*
X-33510Y-71958*
X-33514Y-71933*
X-33525Y-71911*
X-33543Y-71893*
X-33565Y-71882*
X-33589Y-71878*
X-33644*
Y-71717*
X-33244*
Y-72198*
X-33644*
G37*
G36*
X-33782Y-71236D02*
G01Y-71075D01*
X-33727*
X-33702Y-71071*
X-33680Y-71059*
X-33662Y-71042*
X-33651Y-71019*
X-33648Y-70996*
Y-70995*
X-33652Y-70970*
X-33664Y-70948*
X-33682Y-70930*
X-33704Y-70919*
X-33727Y-70916*
X-33728*
X-33782*
Y-70755*
X-33382*
Y-71236*
X-33782*
G37*
G36*
X-34465Y-72198D02*
G01Y-71717D01*
X-34065*
Y-71878*
X-34119*
X-34144Y-71882*
X-34166Y-71894*
X-34184Y-71911*
X-34195Y-71934*
X-34199Y-71958*
X-34195Y-71983*
X-34183Y-72005*
X-34165Y-72023*
X-34142Y-72034*
X-34119Y-72037*
X-34065*
Y-72198*
X-34465*
G37*
G36*
X-34603Y-71236D02*
G01Y-70755D01*
X-34203*
Y-70916*
X-34257*
X-34282Y-70920*
X-34304Y-70932*
X-34322Y-70949*
X-34333Y-70972*
X-34337Y-70996*
X-34333Y-71021*
X-34321Y-71043*
X-34303Y-71061*
X-34280Y-71072*
X-34257Y-71075*
X-34203*
Y-71236*
X-34603*
G37*
G36*
X-35561Y-101878D02*
G01Y-101717D01*
X-35507*
X-35482Y-101713*
X-35459Y-101701*
X-35442Y-101684*
X-35431Y-101661*
X-35427Y-101637*
X-35431Y-101612*
X-35443Y-101590*
X-35461Y-101572*
X-35484Y-101561*
X-35507Y-101558*
X-35561*
Y-101397*
X-35161*
Y-101878*
X-35561*
G37*
G36*
X-36359Y-102528D02*
G01Y-102128D01*
X-35878*
Y-102528*
X-36039*
Y-102473*
X-36043Y-102448*
X-36055Y-102426*
X-36073Y-102408*
X-36096Y-102397*
X-36119Y-102394*
X-36144Y-102398*
X-36166Y-102410*
X-36184Y-102427*
X-36195Y-102450*
X-36198Y-102473*
Y-102528*
X-36359*
G37*
G36*
Y-103349D02*
G01Y-102949D01*
X-36198*
Y-103003*
X-36194Y-103028*
X-36182Y-103050*
X-36165Y-103068*
X-36142Y-103079*
X-36119Y-103082*
X-36118*
X-36093Y-103078*
X-36071Y-103066*
X-36053Y-103049*
X-36042Y-103026*
X-36039Y-103003*
Y-102949*
X-35878*
Y-103349*
X-36359*
G37*
G36*
X-36382Y-101878D02*
G01Y-101397D01*
X-35982*
Y-101558*
X-36036*
X-36037*
X-36061Y-101562*
X-36084Y-101574*
X-36101Y-101591*
X-36112Y-101614*
X-36116Y-101637*
X-36112Y-101662*
X-36100Y-101684*
X-36083Y-101702*
X-36060Y-101713*
X-36036Y-101717*
X-35982*
Y-101878*
X-36382*
G37*
G36*
X-36698Y-98358D02*
G01Y-98197D01*
X-36643*
X-36618Y-98193*
X-36596Y-98182*
X-36578Y-98164*
X-36567Y-98141*
X-36564Y-98118*
Y-98117*
X-36568Y-98092*
X-36579Y-98070*
X-36597Y-98052*
X-36620Y-98041*
X-36643Y-98038*
X-36698*
Y-97877*
X-36298*
Y-98358*
X-36698*
G37*
G36*
X-37519D02*
G01Y-97877D01*
X-37119*
Y-98038*
X-37173*
X-37198Y-98042*
X-37220Y-98054*
X-37238Y-98071*
X-37249Y-98094*
X-37253Y-98118*
X-37249Y-98143*
X-37237Y-98165*
X-37219Y-98183*
X-37196Y-98194*
X-37173Y-98197*
X-37119*
Y-98358*
X-37519*
G37*
G36*
X-38108D02*
G01Y-98197D01*
X-38053*
X-38028Y-98193*
X-38006Y-98182*
X-37988Y-98164*
X-37977Y-98141*
X-37974Y-98118*
Y-98117*
X-37978Y-98092*
X-37990Y-98070*
X-38008Y-98052*
X-38031Y-98041*
X-38054Y-98038*
X-38108*
Y-97877*
X-37708*
Y-98358*
X-38108*
G37*
G36*
X-38929D02*
G01Y-97877D01*
X-38529*
Y-98038*
X-38583*
X-38608Y-98042*
X-38630Y-98054*
X-38648Y-98071*
X-38659Y-98094*
X-38663Y-98118*
X-38659Y-98143*
X-38647Y-98165*
X-38629Y-98183*
X-38606Y-98194*
X-38583Y-98197*
X-38529*
Y-98358*
X-38929*
G37*
G36*
X-39150Y-80268D02*
G01Y-79868D01*
X-38669*
Y-80268*
X-38830*
Y-80213*
X-38834Y-80188*
X-38846Y-80166*
X-38864Y-80148*
X-38887Y-80137*
X-38910Y-80134*
X-38935Y-80138*
X-38957Y-80149*
X-38975Y-80167*
X-38986Y-80190*
X-38989Y-80213*
Y-80268*
X-39150*
G37*
G36*
Y-81088D02*
G01Y-80688D01*
X-38989*
Y-80743*
X-38985Y-80768*
X-38973Y-80790*
X-38956Y-80808*
X-38933Y-80819*
X-38910Y-80822*
X-38909*
X-38884Y-80818*
X-38862Y-80807*
X-38844Y-80789*
X-38833Y-80766*
X-38830Y-80743*
Y-80688*
X-38669*
Y-81088*
X-39150*
G37*
G36*
X-39250Y-14611D02*
G01Y-14450D01*
X-39196*
X-39171Y-14446*
X-39149Y-14434*
X-39131Y-14417*
X-39120Y-14394*
X-39116Y-14370*
X-39120Y-14345*
X-39132Y-14323*
X-39150Y-14305*
X-39173Y-14294*
X-39196Y-14291*
X-39250*
Y-14130*
X-38850*
Y-14611*
X-39250*
G37*
G36*
X-39729Y-96808D02*
G01Y-96647D01*
X-39674*
X-39649Y-96643*
X-39627Y-96632*
X-39609Y-96614*
X-39598Y-96591*
X-39595Y-96568*
Y-96567*
X-39599Y-96542*
X-39611Y-96520*
X-39629Y-96502*
X-39652Y-96491*
X-39674Y-96488*
X-39729*
Y-96327*
X-39329*
Y-96808*
X-39729*
G37*
G36*
X-40070Y-14611D02*
G01Y-14130D01*
X-39670*
Y-14291*
X-39726*
X-39751Y-14295*
X-39773Y-14307*
X-39791Y-14325*
X-39802Y-14347*
X-39805Y-14371*
X-39801Y-14396*
X-39789Y-14418*
X-39771Y-14436*
X-39749Y-14447*
X-39726Y-14450*
X-39725*
X-39670*
Y-14611*
X-40070*
G37*
G36*
X-40550Y-96808D02*
G01Y-96327D01*
X-40150*
Y-96488*
X-40204*
X-40229Y-96492*
X-40251Y-96504*
X-40269Y-96521*
X-40280Y-96544*
X-40284Y-96568*
X-40280Y-96593*
X-40268Y-96615*
X-40250Y-96633*
X-40227Y-96644*
X-40204Y-96647*
X-40150*
Y-96808*
X-40550*
G37*
G36*
X-40731Y-30250D02*
G01Y-29850D01*
X-40250*
Y-30250*
X-40411*
Y-30195*
X-40415Y-30170*
X-40426Y-30148*
X-40444Y-30130*
X-40467Y-30119*
X-40490Y-30116*
X-40515Y-30120*
X-40537Y-30131*
X-40555Y-30149*
X-40566Y-30171*
X-40570Y-30195*
Y-30250*
X-40731*
G37*
G36*
Y-31070D02*
G01Y-30670D01*
X-40570*
Y-30725*
X-40566Y-30750*
X-40554Y-30772*
X-40536Y-30790*
X-40513Y-30801*
X-40490Y-30804*
X-40465Y-30800*
X-40443Y-30788*
X-40425Y-30770*
X-40414Y-30747*
X-40411Y-30725*
Y-30670*
X-40250*
Y-31070*
X-40731*
G37*
G36*
X-40870Y-13061D02*
G01Y-12900D01*
X-40816*
X-40791Y-12896*
X-40769Y-12884*
X-40751Y-12866*
X-40740Y-12843*
X-40737Y-12820*
X-40741Y-12795*
X-40753Y-12773*
X-40771Y-12755*
X-40794Y-12744*
X-40816Y-12741*
X-40870*
Y-12580*
X-40470*
Y-13061*
X-40870*
G37*
G36*
X-41692D02*
G01Y-12580D01*
X-41292*
Y-12741*
X-41346*
X-41371Y-12745*
X-41394Y-12757*
X-41411Y-12774*
X-41422Y-12797*
X-41426Y-12821*
X-41422Y-12846*
X-41410Y-12868*
X-41392Y-12886*
X-41370Y-12897*
X-41347Y-12900*
X-41346*
X-41292*
Y-13061*
X-41692*
G37*
G36*
X-42281D02*
G01Y-12900D01*
X-42227*
X-42226*
X-42201Y-12896*
X-42179Y-12885*
X-42161Y-12867*
X-42150Y-12844*
X-42146Y-12820*
X-42150Y-12795*
X-42162Y-12773*
X-42181Y-12755*
X-42203Y-12744*
X-42226Y-12741*
X-42227*
X-42281*
Y-12580*
X-41881*
Y-13061*
X-42281*
G37*
G36*
X-43102D02*
G01Y-12580D01*
X-42702*
Y-12741*
X-42757*
X-42782Y-12745*
X-42804Y-12756*
X-42822Y-12774*
X-42833Y-12797*
X-42836Y-12820*
Y-12821*
X-42832Y-12846*
X-42821Y-12868*
X-42803Y-12886*
X-42780Y-12897*
X-42757Y-12900*
X-42702*
Y-13061*
X-43102*
G37*
G36*
X-43418Y-9541D02*
G01Y-9380D01*
X-43363*
X-43338Y-9376*
X-43316Y-9364*
X-43298Y-9347*
X-43287Y-9324*
X-43283Y-9301*
X-43287Y-9276*
X-43299Y-9254*
X-43317Y-9236*
X-43340Y-9225*
X-43363Y-9221*
X-43364*
X-43418*
Y-9060*
X-43018*
Y-9541*
X-43418*
G37*
G36*
X-44239D02*
G01Y-9060D01*
X-43839*
Y-9221*
X-43893*
X-43918Y-9225*
X-43940Y-9236*
X-43958Y-9254*
X-43969Y-9277*
X-43972Y-9300*
Y-9301*
X-43968Y-9326*
X-43957Y-9348*
X-43939Y-9366*
X-43916Y-9377*
X-43893Y-9380*
X-43839*
Y-9541*
X-44239*
G37*
G36*
X-45196Y-40183D02*
G01Y-40022D01*
X-45142*
X-45117Y-40018*
X-45095Y-40006*
X-45077Y-39988*
X-45066Y-39965*
X-45063Y-39942*
X-45067Y-39917*
X-45079Y-39895*
X-45097Y-39877*
X-45120Y-39866*
X-45142Y-39863*
X-45196*
Y-39702*
X-44796*
Y-40183*
X-45196*
G37*
G36*
X-45335Y-39221D02*
G01Y-39060D01*
X-45281*
X-45256Y-39056*
X-45234Y-39044*
X-45216Y-39027*
X-45205Y-39004*
X-45201Y-38980*
X-45205Y-38955*
X-45217Y-38933*
X-45235Y-38915*
X-45258Y-38904*
X-45281Y-38901*
X-45335*
Y-38740*
X-44935*
Y-39221*
X-45335*
G37*
G36*
X-46018Y-40183D02*
G01Y-39702D01*
X-45618*
Y-39863*
X-45672*
X-45673*
X-45698Y-39867*
X-45720Y-39878*
X-45738Y-39896*
X-45749Y-39919*
X-45752Y-39942*
X-45748Y-39967*
X-45736Y-39989*
X-45719Y-40007*
X-45696Y-40018*
X-45672Y-40022*
X-45618*
Y-40183*
X-46018*
G37*
G36*
X-46155Y-39221D02*
G01Y-38740D01*
X-45755*
Y-38901*
X-45811*
X-45836Y-38905*
X-45858Y-38916*
X-45876Y-38934*
X-45887Y-38957*
X-45890Y-38980*
X-45886Y-39005*
X-45875Y-39027*
X-45857Y-39045*
X-45835Y-39056*
X-45810Y-39060*
X-45755*
Y-39221*
X-46155*
G37*
G36*
X-46759Y-33249D02*
G01Y-32849D01*
X-46278*
Y-33249*
X-46439*
Y-33195*
Y-33194*
X-46443Y-33170*
X-46455Y-33147*
X-46472Y-33130*
X-46495Y-33119*
X-46518Y-33115*
X-46519*
X-46544Y-33119*
X-46566Y-33131*
X-46584Y-33148*
X-46595Y-33171*
X-46599Y-33195*
Y-33249*
X-46759*
G37*
G36*
Y-34070D02*
G01Y-33670D01*
X-46599*
X-46598Y-33724*
X-46594Y-33749*
X-46582Y-33772*
X-46565Y-33789*
X-46542Y-33800*
X-46518Y-33804*
X-46493Y-33800*
X-46471Y-33788*
X-46453Y-33770*
X-46442Y-33747*
X-46439Y-33724*
Y-33670*
X-46278*
Y-34070*
X-46759*
G37*
G36*
X-46820Y-9711D02*
G01Y-9550D01*
X-46766*
X-46741Y-9546*
X-46719Y-9534*
X-46701Y-9517*
X-46690Y-9494*
X-46686Y-9470*
X-46690Y-9445*
X-46702Y-9423*
X-46720Y-9405*
X-46743Y-9394*
X-46766Y-9391*
X-46820*
Y-9230*
X-46420*
Y-9711*
X-46820*
G37*
G36*
X-47440Y-17220D02*
G01Y-16820D01*
X-46959*
Y-17220*
X-47120*
Y-17165*
X-47124Y-17140*
X-47136Y-17118*
X-47154Y-17100*
X-47176Y-17089*
X-47200Y-17086*
X-47201*
X-47226Y-17090*
X-47248Y-17102*
X-47265Y-17120*
X-47276Y-17143*
X-47279Y-17165*
Y-17220*
X-47440*
G37*
G36*
Y-18040D02*
G01Y-17640D01*
X-47279*
Y-17695*
X-47275Y-17720*
X-47263Y-17742*
X-47245Y-17760*
X-47222Y-17771*
X-47200Y-17774*
X-47175Y-17770*
X-47153Y-17759*
X-47135Y-17741*
X-47124Y-17719*
X-47120Y-17695*
Y-17640*
X-46959*
Y-18040*
X-47440*
G37*
G36*
X-47640Y-9711D02*
G01Y-9230D01*
X-47240*
Y-9391*
X-47296*
X-47321Y-9395*
X-47343Y-9407*
X-47361Y-9425*
X-47372Y-9447*
X-47375Y-9471*
X-47371Y-9496*
X-47359Y-9518*
X-47341Y-9536*
X-47318Y-9547*
X-47295Y-9550*
X-47240*
Y-9711*
X-47640*
G37*
G36*
X-47750Y-26391D02*
G01Y-26230D01*
X-47696*
X-47671Y-26226*
X-47649Y-26214*
X-47631Y-26197*
X-47620Y-26174*
X-47616Y-26150*
X-47620Y-26125*
X-47632Y-26103*
X-47650Y-26085*
X-47673Y-26074*
X-47696Y-26071*
X-47750*
Y-25910*
X-47350*
Y-26391*
X-47750*
G37*
G36*
X-48570D02*
G01Y-25910D01*
X-48170*
Y-26071*
X-48226*
X-48251Y-26075*
X-48273Y-26086*
X-48291Y-26104*
X-48302Y-26127*
X-48305Y-26150*
X-48301Y-26175*
X-48290Y-26197*
X-48272Y-26215*
X-48250Y-26226*
X-48225Y-26230*
X-48170*
Y-26391*
X-48570*
G37*
G36*
X-49951Y-25696D02*
G01Y-25296D01*
X-49470*
Y-25696*
X-49631*
Y-25641*
X-49635Y-25616*
X-49647Y-25594*
X-49665Y-25576*
X-49688Y-25565*
X-49711Y-25562*
X-49736Y-25566*
X-49758Y-25577*
X-49776Y-25595*
X-49787Y-25618*
X-49790Y-25641*
Y-25696*
X-49951*
G37*
G36*
Y-26516D02*
G01Y-26116D01*
X-49790*
Y-26171*
X-49786Y-26196*
X-49774Y-26218*
X-49756Y-26236*
X-49734Y-26247*
X-49710Y-26250*
X-49685Y-26246*
X-49663Y-26235*
X-49645Y-26217*
X-49634Y-26194*
X-49631Y-26171*
Y-26116*
X-49470*
Y-26516*
X-49951*
G37*
G36*
X-51435Y-39436D02*
G01Y-39275D01*
X-51381*
X-51356Y-39271*
X-51334Y-39259*
X-51316Y-39242*
X-51305Y-39219*
X-51301Y-39195*
X-51305Y-39170*
X-51317Y-39148*
X-51335Y-39130*
X-51358Y-39119*
X-51381Y-39116*
X-51435*
Y-38955*
X-51035*
Y-39436*
X-51435*
G37*
G36*
X-51965Y-23206D02*
G01Y-23045D01*
X-51911*
X-51886Y-23041*
X-51864Y-23029*
X-51846Y-23012*
X-51835Y-22989*
X-51831Y-22965*
X-51835Y-22940*
X-51847Y-22918*
X-51865Y-22900*
X-51888Y-22889*
X-51911Y-22886*
X-51965*
Y-22725*
X-51565*
Y-23206*
X-51965*
G37*
G36*
X-52255Y-39436D02*
G01Y-38955D01*
X-51855*
Y-39116*
X-51911*
X-51936Y-39120*
X-51958Y-39131*
X-51976Y-39149*
X-51987Y-39172*
X-51990Y-39195*
Y-39196*
X-51986Y-39221*
X-51974Y-39243*
X-51956Y-39261*
X-51934Y-39272*
X-51911Y-39275*
X-51910*
X-51855*
Y-39436*
X-52255*
G37*
G36*
X-52786Y-23206D02*
G01Y-22725D01*
X-52386*
Y-22886*
X-52440*
X-52441*
X-52466Y-22890*
X-52488Y-22901*
X-52506Y-22919*
X-52517Y-22942*
X-52520Y-22965*
X-52516Y-22990*
X-52505Y-23012*
X-52487Y-23030*
X-52465Y-23041*
X-52440Y-23045*
X-52386*
Y-23206*
X-52786*
G37*
G36*
X-53079Y-9201D02*
G01Y-9040D01*
X-53026*
X-53001Y-9036*
X-52979Y-9024*
X-52961Y-9007*
X-52950Y-8984*
X-52946Y-8960*
X-52950Y-8935*
X-52962Y-8913*
X-52980Y-8895*
X-53003Y-8884*
X-53026Y-8881*
X-53079*
Y-8720*
X-52679*
Y-9201*
X-53079*
G37*
G36*
X-53901D02*
G01Y-8720D01*
X-53501*
Y-8881*
X-53555*
X-53556*
X-53581Y-8885*
X-53603Y-8896*
X-53621Y-8914*
X-53632Y-8937*
X-53635Y-8960*
Y-8961*
X-53631Y-8986*
X-53619Y-9008*
X-53601Y-9026*
X-53578Y-9037*
X-53555Y-9040*
X-53501*
Y-9201*
X-53901*
G37*
G36*
X-59692Y-96924D02*
G01Y-96524D01*
X-59211*
Y-96924*
X-59372*
Y-96870*
X-59376Y-96845*
X-59388Y-96823*
X-59406Y-96805*
X-59429Y-96794*
X-59452Y-96791*
X-59477Y-96795*
X-59499Y-96807*
X-59517Y-96825*
X-59528Y-96848*
X-59531Y-96870*
Y-96924*
X-59692*
G37*
G36*
Y-97745D02*
G01Y-97345D01*
X-59531*
Y-97400*
X-59527Y-97425*
X-59515Y-97447*
X-59498Y-97465*
X-59475Y-97476*
X-59452Y-97479*
X-59451*
X-59426Y-97475*
X-59404Y-97464*
X-59386Y-97446*
X-59375Y-97423*
X-59372Y-97400*
Y-97345*
X-59211*
Y-97745*
X-59692*
G37*
G36*
X-60749Y-76219D02*
G01Y-76058D01*
X-60694*
X-60669Y-76054*
X-60647Y-76043*
X-60629Y-76025*
X-60618Y-76002*
X-60615Y-75979*
Y-75978*
X-60619Y-75953*
X-60630Y-75931*
X-60648Y-75913*
X-60671Y-75902*
X-60694Y-75899*
X-60749*
Y-75738*
X-60349*
Y-76219*
X-60749*
G37*
G36*
X-60907Y-96918D02*
G01Y-96518D01*
X-60426*
Y-96918*
X-60587*
Y-96864*
X-60591Y-96839*
X-60603Y-96817*
X-60620Y-96799*
X-60643Y-96788*
X-60667Y-96784*
X-60692Y-96788*
X-60714Y-96800*
X-60732Y-96818*
X-60743Y-96841*
X-60746Y-96864*
Y-96918*
X-60907*
G37*
G36*
Y-97739D02*
G01Y-97339D01*
X-60746*
Y-97394*
X-60742Y-97419*
X-60730Y-97441*
X-60713Y-97459*
X-60690Y-97470*
X-60667Y-97473*
X-60642Y-97469*
X-60620Y-97457*
X-60602Y-97440*
X-60591Y-97417*
X-60587Y-97393*
Y-97339*
X-60426*
Y-97739*
X-60907*
G37*
G36*
X-60958Y-81776D02*
G01Y-81615D01*
X-60903*
X-60878Y-81611*
X-60856Y-81600*
X-60838Y-81582*
X-60827Y-81559*
X-60824Y-81536*
X-60828Y-81511*
X-60840Y-81489*
X-60857Y-81471*
X-60880Y-81460*
X-60904Y-81456*
X-60958*
Y-81295*
X-60558*
Y-81776*
X-60958*
G37*
G36*
X-61218Y-80056D02*
G01Y-79656D01*
X-60737*
Y-80056*
X-60898*
Y-80002*
X-60902Y-79977*
X-60914Y-79955*
X-60931Y-79937*
X-60954Y-79926*
X-60978Y-79922*
X-61003Y-79926*
X-61025Y-79938*
X-61043Y-79956*
X-61054Y-79979*
X-61057Y-80001*
Y-80056*
X-61218*
G37*
G36*
Y-80877D02*
G01Y-80477D01*
X-61057*
Y-80532*
X-61053Y-80557*
X-61041Y-80579*
X-61024Y-80597*
X-61001Y-80608*
X-60978Y-80611*
X-60953Y-80607*
X-60931Y-80595*
X-60913Y-80578*
X-60902Y-80555*
X-60898Y-80531*
Y-80477*
X-60737*
Y-80877*
X-61218*
G37*
G36*
X-61490Y-77032D02*
G01Y-76871D01*
X-61435*
X-61410Y-76867*
X-61388Y-76855*
X-61370Y-76837*
X-61359Y-76814*
X-61356Y-76791*
X-61360Y-76766*
X-61371Y-76744*
X-61389Y-76726*
X-61412Y-76715*
X-61435Y-76712*
X-61490*
Y-76551*
X-61090*
Y-77032*
X-61490*
G37*
G36*
X-61570Y-76219D02*
G01Y-75738D01*
X-61170*
Y-75899*
X-61224*
X-61249Y-75903*
X-61271Y-75915*
X-61289Y-75932*
X-61300Y-75955*
X-61304Y-75979*
X-61300Y-76004*
X-61288Y-76026*
X-61270Y-76044*
X-61247Y-76055*
X-61224Y-76058*
X-61170*
Y-76219*
X-61570*
G37*
G36*
X-61779Y-81776D02*
G01Y-81295D01*
X-61379*
Y-81456*
X-61433*
X-61458Y-81460*
X-61480Y-81472*
X-61498Y-81489*
X-61509Y-81512*
X-61513Y-81536*
X-61509Y-81561*
X-61497Y-81583*
X-61479Y-81601*
X-61456Y-81612*
X-61433Y-81615*
X-61379*
Y-81776*
X-61779*
G37*
G36*
X-62311Y-77032D02*
G01Y-76551D01*
X-61911*
Y-76712*
X-61965*
X-61990Y-76716*
X-62012Y-76728*
X-62030Y-76746*
X-62041Y-76769*
X-62044Y-76791*
X-62040Y-76816*
X-62029Y-76838*
X-62011Y-76856*
X-61989Y-76867*
X-61965Y-76871*
X-61911*
Y-77032*
X-62311*
G37*
G36*
X-63307Y-96921D02*
G01Y-96521D01*
X-62826*
Y-96921*
X-62987*
Y-96867*
X-62991Y-96842*
X-63003Y-96820*
X-63020Y-96802*
X-63043Y-96791*
X-63067Y-96787*
X-63092Y-96791*
X-63114Y-96803*
X-63132Y-96821*
X-63143Y-96844*
X-63146Y-96867*
Y-96921*
X-63307*
G37*
G36*
Y-97742D02*
G01Y-97342D01*
X-63146*
Y-97397*
X-63142Y-97422*
X-63130Y-97444*
X-63113Y-97462*
X-63090Y-97473*
X-63067Y-97476*
X-63042Y-97472*
X-63020Y-97460*
X-63002Y-97443*
X-62991Y-97420*
X-62987Y-97396*
Y-97342*
X-62826*
Y-97742*
X-63307*
G37*
G36*
X-64225Y-80910D02*
G01Y-80510D01*
X-63744*
Y-80910*
X-63905*
Y-80856*
X-63909Y-80831*
X-63920Y-80808*
X-63938Y-80791*
X-63961Y-80780*
X-63984Y-80776*
X-64009Y-80780*
X-64031Y-80792*
X-64049Y-80809*
X-64060Y-80832*
X-64064Y-80856*
Y-80910*
X-64225*
G37*
G36*
Y-81731D02*
G01Y-81331D01*
X-64064*
Y-81385*
Y-81386*
X-64060Y-81410*
X-64048Y-81433*
X-64031Y-81450*
X-64008Y-81461*
X-63985Y-81465*
X-63984*
X-63959Y-81461*
X-63937Y-81449*
X-63919Y-81431*
X-63908Y-81409*
X-63905Y-81386*
Y-81385*
Y-81331*
X-63744*
Y-81731*
X-64225*
G37*
G36*
X-65159Y-77309D02*
G01Y-76909D01*
X-64678*
Y-77309*
X-64839*
Y-77254*
X-64843Y-77229*
X-64855Y-77207*
X-64873Y-77189*
X-64896Y-77178*
X-64918Y-77175*
X-64943Y-77179*
X-64965Y-77191*
X-64983Y-77208*
X-64994Y-77231*
X-64998Y-77255*
Y-77309*
X-65159*
G37*
G36*
Y-78130D02*
G01Y-77730D01*
X-64998*
Y-77784*
X-64994Y-77809*
X-64982Y-77832*
X-64965Y-77849*
X-64942Y-77860*
X-64918Y-77864*
X-64893Y-77860*
X-64871Y-77848*
X-64853Y-77830*
X-64842Y-77807*
X-64839Y-77784*
Y-77730*
X-64678*
Y-78130*
X-65159*
G37*
G36*
X-65998Y-77311D02*
G01Y-76911D01*
X-65517*
Y-77311*
X-65678*
Y-77256*
X-65682Y-77231*
X-65694Y-77209*
X-65712Y-77191*
X-65735Y-77180*
X-65758Y-77177*
X-65783Y-77181*
X-65805Y-77193*
X-65823Y-77210*
X-65834Y-77233*
X-65837Y-77256*
Y-77311*
X-65998*
G37*
G36*
Y-78131D02*
G01Y-77731D01*
X-65837*
Y-77786*
X-65833Y-77811*
X-65821Y-77833*
X-65804Y-77851*
X-65781Y-77862*
X-65758Y-77865*
X-65757*
X-65732Y-77861*
X-65710Y-77850*
X-65692Y-77832*
X-65681Y-77809*
X-65678Y-77786*
Y-77731*
X-65517*
Y-78131*
X-65998*
G37*
G36*
X-67036Y-80646D02*
G01Y-80246D01*
X-66555*
Y-80646*
X-66716*
Y-80592*
X-66720Y-80567*
X-66732Y-80545*
X-66749Y-80527*
X-66772Y-80516*
X-66796Y-80512*
X-66821Y-80516*
X-66843Y-80528*
X-66861Y-80546*
X-66872Y-80569*
X-66875Y-80592*
Y-80646*
X-67036*
G37*
G36*
Y-81467D02*
G01Y-81067D01*
X-66875*
Y-81122*
X-66871Y-81147*
X-66859Y-81169*
X-66842Y-81187*
X-66819Y-81198*
X-66796Y-81201*
X-66771Y-81197*
X-66749Y-81186*
X-66731Y-81168*
X-66720Y-81146*
X-66716Y-81121*
Y-81067*
X-66555*
Y-81467*
X-67036*
G37*
G36*
X-14722Y-33208D02*
G01Y-32808D01*
X-14240*
Y-33208*
X-14402*
Y-33154*
Y-33153*
X-14406Y-33128*
X-14417Y-33106*
X-14435Y-33088*
X-14458Y-33077*
X-14481Y-33074*
X-14506Y-33078*
X-14528Y-33089*
X-14546Y-33107*
X-14557Y-33129*
X-14561Y-33154*
Y-33208*
X-14722*
G37*
G36*
Y-34029D02*
G01Y-33629D01*
X-14561*
Y-33684*
X-14557Y-33709*
X-14545Y-33731*
X-14527Y-33749*
X-14505Y-33760*
X-14481Y-33763*
X-14456Y-33759*
X-14434Y-33747*
X-14416Y-33729*
X-14405Y-33706*
X-14402Y-33683*
Y-33629*
X-14240*
Y-34029*
X-14722*
G37*
G36*
X-16574Y-13596D02*
G01Y-13196D01*
X-16092*
Y-13596*
X-16253*
Y-13541*
X-16257Y-13516*
X-16269Y-13494*
X-16287Y-13476*
X-16309Y-13465*
X-16333Y-13462*
X-16358Y-13466*
X-16380Y-13477*
X-16398Y-13495*
X-16409Y-13517*
X-16413Y-13541*
Y-13596*
X-16574*
G37*
G36*
Y-14417D02*
G01Y-14017D01*
X-16413*
Y-14071*
X-16409Y-14096*
X-16397Y-14118*
X-16380Y-14136*
X-16357Y-14147*
X-16333Y-14151*
X-16308Y-14147*
X-16286Y-14135*
X-16268Y-14118*
X-16257Y-14095*
X-16253Y-14071*
Y-14017*
X-16092*
Y-14417*
X-16574*
G37*
G36*
X-18663Y-30461D02*
G01Y-30061D01*
X-18181*
Y-30461*
X-18342*
Y-30406*
X-18346Y-30381*
X-18358Y-30359*
X-18376Y-30341*
X-18398Y-30330*
X-18422Y-30327*
X-18447Y-30331*
X-18469Y-30342*
X-18487Y-30360*
X-18498Y-30382*
X-18502Y-30407*
Y-30461*
X-18663*
G37*
G36*
Y-31282D02*
G01Y-30882D01*
X-18502*
Y-30936*
X-18498Y-30961*
X-18486Y-30983*
X-18469Y-31001*
X-18446Y-31012*
X-18422Y-31016*
X-18397Y-31012*
X-18375Y-31000*
X-18357Y-30983*
X-18346Y-30960*
X-18342Y-30937*
Y-30882*
X-18181*
Y-31282*
X-18663*
G37*
G36*
X-18974Y-13599D02*
G01Y-13199D01*
X-18492*
Y-13599*
X-18653*
Y-13544*
X-18657Y-13519*
X-18669Y-13497*
X-18687Y-13479*
X-18709Y-13468*
X-18733Y-13465*
X-18758Y-13469*
X-18780Y-13480*
X-18798Y-13498*
X-18809Y-13520*
X-18813Y-13545*
Y-13599*
X-18974*
G37*
G36*
Y-14420D02*
G01Y-14020D01*
X-18813*
Y-14074*
X-18809Y-14099*
X-18797Y-14121*
X-18780Y-14139*
X-18757Y-14150*
X-18733Y-14154*
X-18708Y-14150*
X-18686Y-14138*
X-18668Y-14121*
X-18657Y-14098*
X-18653Y-14074*
Y-14020*
X-18492*
Y-14420*
X-18974*
G37*
G36*
X-20189Y-13593D02*
G01Y-13193D01*
X-19707*
Y-13593*
X-19868*
Y-13538*
X-19872Y-13513*
X-19884Y-13491*
X-19902Y-13473*
X-19924Y-13462*
X-19948Y-13459*
X-19949*
X-19974Y-13463*
X-19996Y-13474*
X-20014Y-13492*
X-20025Y-13515*
X-20028Y-13538*
Y-13593*
X-20189*
G37*
G36*
Y-14414D02*
G01Y-14014D01*
X-20028*
Y-14068*
X-20024Y-14093*
X-20012Y-14115*
X-19994Y-14133*
X-19971Y-14144*
X-19948Y-14147*
X-19923Y-14143*
X-19901Y-14131*
X-19883Y-14114*
X-19872Y-14091*
X-19868Y-14068*
Y-14014*
X-19707*
Y-14414*
X-20189*
G37*
G36*
X-33122Y-77268D02*
G01Y-76868D01*
X-32640*
Y-77268*
X-32801*
X-32802Y-77214*
Y-77213*
X-32806Y-77189*
X-32817Y-77166*
X-32835Y-77149*
X-32858Y-77138*
X-32881Y-77134*
X-32906Y-77138*
X-32928Y-77150*
X-32946Y-77167*
X-32957Y-77190*
X-32961Y-77214*
Y-77268*
X-33122*
G37*
G36*
Y-78089D02*
G01Y-77689D01*
X-32961*
Y-77743*
X-32957Y-77768*
X-32945Y-77791*
X-32928Y-77808*
X-32905Y-77819*
X-32881Y-77823*
X-32856Y-77819*
X-32834Y-77808*
X-32816Y-77790*
X-32805Y-77768*
X-32801Y-77743*
Y-77689*
X-32640*
Y-78089*
X-33122*
G37*
G36*
X-43522Y-7989D02*
G01Y-7589D01*
X-43040*
Y-7989*
X-43202*
Y-7935*
X-43206Y-7910*
X-43217Y-7888*
X-43235Y-7870*
X-43258Y-7859*
X-43281Y-7856*
X-43306Y-7860*
X-43328Y-7871*
X-43346Y-7889*
X-43357Y-7911*
X-43361Y-7935*
Y-7989*
X-43522*
G37*
G36*
Y-8810D02*
G01Y-8410D01*
X-43361*
Y-8465*
X-43357Y-8490*
X-43345Y-8512*
X-43327Y-8530*
X-43304Y-8541*
X-43281Y-8544*
X-43256Y-8540*
X-43234Y-8528*
X-43216Y-8510*
X-43205Y-8487*
X-43202Y-8465*
Y-8410*
X-43040*
Y-8810*
X-43522*
G37*
G36*
X-49861Y-41745D02*
G01Y-41345D01*
X-49379*
Y-41745*
X-49540*
Y-41690*
X-49544Y-41665*
X-49556Y-41643*
X-49574Y-41625*
X-49596Y-41614*
X-49620Y-41611*
X-49645Y-41615*
X-49667Y-41626*
X-49685Y-41644*
X-49696Y-41666*
X-49700Y-41690*
Y-41745*
X-49861*
G37*
G36*
Y-42566D02*
G01Y-42166D01*
X-49700*
Y-42220*
X-49696Y-42245*
X-49684Y-42267*
X-49666Y-42285*
X-49643Y-42296*
X-49620Y-42299*
X-49595Y-42295*
X-49573Y-42283*
X-49555Y-42266*
X-49544Y-42243*
X-49540Y-42220*
Y-42166*
X-49379*
Y-42566*
X-49861*
G37*
G36*
X-62120Y-96924D02*
G01Y-96524D01*
X-61638*
Y-96924*
X-61799*
X-61800Y-96870*
X-61804Y-96845*
X-61816Y-96823*
X-61834Y-96805*
X-61857Y-96794*
X-61879Y-96791*
X-61904Y-96795*
X-61926Y-96806*
X-61944Y-96824*
X-61955Y-96846*
X-61959Y-96870*
Y-96924*
X-62120*
G37*
G36*
Y-97745D02*
G01Y-97345D01*
X-61959*
Y-97400*
X-61955Y-97425*
X-61943Y-97447*
X-61925Y-97465*
X-61902Y-97476*
X-61879Y-97479*
X-61878*
X-61853Y-97475*
X-61831Y-97464*
X-61813Y-97446*
X-61802Y-97423*
X-61799Y-97400*
Y-97345*
X-61638*
Y-97745*
X-62120*
G37*
G36*
X-62472Y-79948D02*
G01Y-79548D01*
X-61990*
Y-79948*
X-62151*
X-62152Y-79894*
Y-79893*
X-62156Y-79868*
X-62168Y-79846*
X-62186Y-79828*
X-62209Y-79817*
X-62231Y-79814*
X-62256Y-79818*
X-62278Y-79830*
X-62296Y-79847*
X-62307Y-79870*
X-62311Y-79894*
Y-79948*
X-62472*
G37*
G36*
Y-80769D02*
G01Y-80369D01*
X-62311*
Y-80424*
X-62307Y-80449*
X-62295Y-80471*
X-62277Y-80489*
X-62255Y-80500*
X-62231Y-80503*
X-62206Y-80499*
X-62184Y-80488*
X-62166Y-80470*
X-62155Y-80448*
X-62151Y-80424*
Y-80369*
X-61990*
Y-80769*
X-62472*
G37*
G36*
X-63376Y-80901D02*
G01Y-80501D01*
X-62894*
Y-80901*
X-63055*
Y-80847*
X-63059Y-80822*
X-63071Y-80800*
X-63089Y-80782*
X-63112Y-80771*
X-63135Y-80768*
X-63160Y-80772*
X-63182Y-80784*
X-63200Y-80802*
X-63211Y-80825*
X-63214Y-80847*
Y-80901*
X-63376*
G37*
G36*
Y-81722D02*
G01Y-81322D01*
X-63214*
X-63215Y-81377*
X-63211Y-81402*
X-63199Y-81424*
X-63181Y-81442*
X-63159Y-81453*
X-63136Y-81456*
X-63135*
X-63134*
X-63109Y-81452*
X-63087Y-81441*
X-63069Y-81423*
X-63058Y-81400*
X-63055Y-81377*
Y-81322*
X-62894*
Y-81722*
X-63376*
G37*
G36*
X-17762Y-13593D02*
G01Y-13193D01*
X-17279*
Y-13593*
X-17440*
Y-13538*
X-17444Y-13513*
X-17456Y-13491*
X-17474Y-13473*
X-17496Y-13462*
X-17520Y-13459*
X-17522*
X-17547Y-13463*
X-17569Y-13474*
X-17587Y-13492*
X-17598Y-13515*
X-17601Y-13538*
Y-13593*
X-17762*
G37*
G36*
Y-14414D02*
G01Y-14014D01*
X-17601*
X-17600Y-14068*
X-17596Y-14093*
X-17584Y-14115*
X-17566Y-14133*
X-17544Y-14144*
X-17520Y-14147*
X-17495Y-14143*
X-17473Y-14131*
X-17455Y-14114*
X-17444Y-14091*
X-17440Y-14068*
Y-14014*
X-17279*
Y-14414*
X-17762*
G37*
G36*
X-50946Y-30220D02*
G01Y-30007D01*
X-50227*
Y-30220*
X-50466Y-30327*
X-50707*
X-50946Y-30220*
G37*
G36*
X-29173Y-80931D02*
G01Y-80718D01*
X-28934Y-80611*
X-28693*
X-28453Y-80718*
Y-80931*
X-29173*
G37*
G36*
X-50946Y-31036D02*
G01Y-30823D01*
X-50707Y-30716*
X-50466*
X-50226Y-30823*
Y-31036*
X-50946*
G37*
G36*
X-29174Y-80115D02*
G01Y-79902D01*
X-28453*
Y-80115*
X-28693Y-80222*
X-28934*
X-29174Y-80115*
G37*
G36*
X-46716Y-7772D02*
G01Y-7202D01*
X-46175*
Y-7772*
X-46366*
Y-7679*
X-46370Y-7654*
X-46382Y-7633*
X-46400Y-7615*
X-46423Y-7605*
X-46444Y-7602*
X-46468Y-7606*
X-46490Y-7618*
X-46507Y-7636*
X-46517Y-7659*
X-46520Y-7679*
Y-7772*
X-46716*
G37*
G36*
Y-9000D02*
G01Y-8430D01*
X-46520*
Y-8524*
X-46516Y-8548*
X-46504Y-8570*
X-46486Y-8587*
X-46463Y-8597*
X-46444Y-8600*
X-46420Y-8596*
X-46397Y-8585*
X-46380Y-8567*
X-46369Y-8545*
X-46366Y-8523*
Y-8430*
X-46175*
Y-9000*
X-46716*
G37*
G36*
X-15027Y-14423D02*
G01Y-13854D01*
X-14485*
Y-14423*
X-14677*
Y-14330*
Y-14329*
X-14681Y-14305*
X-14692Y-14283*
X-14710Y-14266*
X-14733Y-14256*
X-14753Y-14253*
X-14777Y-14257*
X-14800Y-14268*
X-14817Y-14286*
X-14828Y-14308*
X-14831Y-14330*
Y-14423*
X-15027*
G37*
G36*
Y-15651D02*
G01Y-15082D01*
X-14831*
Y-15175*
X-14827Y-15199*
X-14815Y-15221*
X-14797Y-15238*
X-14775Y-15249*
X-14753Y-15252*
X-14729Y-15248*
X-14707Y-15236*
X-14690Y-15218*
X-14680Y-15195*
X-14677Y-15175*
Y-15082*
X-14485*
Y-15652*
X-15027Y-15651*
G37*
G36*
X-26781Y-102989D02*
G01Y-102419D01*
X-26239*
Y-102989*
X-26435*
Y-102896*
X-26439Y-102872*
X-26450Y-102850*
X-26468Y-102833*
X-26491Y-102822*
X-26512Y-102819*
X-26536Y-102823*
X-26558Y-102834*
X-26575Y-102852*
X-26586Y-102875*
X-26589Y-102896*
Y-102989*
X-26781*
G37*
G36*
Y-104217D02*
G01Y-103647D01*
X-26589*
Y-103741*
X-26585Y-103765*
X-26573Y-103787*
X-26555Y-103804*
X-26532Y-103814*
X-26512Y-103817*
X-26488Y-103813*
X-26466Y-103802*
X-26449Y-103784*
X-26438Y-103761*
X-26435Y-103740*
Y-103647*
X-26239*
Y-104217*
X-26781*
G37*
G36*
X-33225Y-102508D02*
G01Y-101938D01*
X-32683*
Y-102508*
X-32879*
Y-102415*
Y-102414*
X-32883Y-102390*
X-32894Y-102368*
X-32912Y-102351*
X-32935Y-102341*
X-32955Y-102338*
X-32956*
X-32980Y-102342*
X-33002Y-102353*
X-33019Y-102371*
X-33030Y-102394*
X-33033Y-102415*
Y-102508*
X-33225*
G37*
G36*
Y-103736D02*
G01Y-103166D01*
X-33033*
Y-103259*
X-33029Y-103283*
X-33017Y-103305*
X-32999Y-103322*
X-32977Y-103333*
X-32955Y-103336*
X-32931Y-103332*
X-32909Y-103320*
X-32892Y-103302*
X-32882Y-103279*
X-32879Y-103259*
Y-103166*
X-32683*
Y-103736*
X-33225*
G37*
G36*
X-33324Y-94969D02*
G01X-33323Y-94427D01*
X-32754*
Y-94623*
X-32847*
X-32871Y-94627*
X-32893Y-94638*
X-32910Y-94656*
X-32921Y-94679*
X-32924Y-94700*
X-32920Y-94724*
X-32909Y-94746*
X-32891Y-94763*
X-32868Y-94774*
X-32847Y-94777*
X-32754*
Y-94969*
X-33324*
G37*
G36*
X-36805Y-94869D02*
G01Y-94677D01*
X-36712*
X-36688Y-94673*
X-36666Y-94662*
X-36649Y-94644*
X-36638Y-94621*
X-36635Y-94600*
X-36639Y-94576*
X-36650Y-94554*
X-36668Y-94537*
X-36691Y-94526*
X-36712Y-94523*
X-36805*
Y-94327*
X-36236*
X-36235Y-94869*
X-36805*
G37*
G36*
Y-95729D02*
G01Y-95537D01*
X-36712*
X-36688Y-95533*
X-36666Y-95522*
X-36649Y-95504*
X-36638Y-95481*
X-36635Y-95460*
X-36639Y-95436*
X-36650Y-95414*
X-36668Y-95397*
X-36691Y-95386*
X-36712Y-95383*
X-36805*
Y-95187*
X-36236*
X-36235Y-95729*
X-36805*
G37*
G36*
X-38034Y-94869D02*
G01X-38033Y-94327D01*
X-37464*
Y-94523*
X-37557*
X-37581Y-94527*
X-37603Y-94538*
X-37620Y-94556*
X-37631Y-94579*
X-37634Y-94600*
X-37630Y-94624*
X-37619Y-94646*
X-37601Y-94663*
X-37578Y-94674*
X-37557Y-94677*
X-37464*
Y-94869*
X-38034*
G37*
G36*
Y-95729D02*
G01X-38033Y-95187D01*
X-37464*
Y-95383*
X-37557*
X-37581Y-95387*
X-37603Y-95398*
X-37620Y-95416*
X-37631Y-95439*
X-37634Y-95460*
X-37630Y-95484*
X-37619Y-95506*
X-37601Y-95523*
X-37578Y-95534*
X-37557Y-95537*
X-37464*
Y-95729*
X-38034*
G37*
G36*
X-41936Y-15751D02*
G01Y-15555D01*
X-41842*
X-41818Y-15551*
X-41796Y-15539*
X-41779Y-15521*
X-41769Y-15498*
X-41766Y-15478*
X-41770Y-15454*
X-41781Y-15432*
X-41799Y-15415*
X-41821Y-15404*
X-41842Y-15401*
X-41936*
Y-15209*
X-41366*
Y-15751*
X-41936*
G37*
G36*
Y-16611D02*
G01Y-16415D01*
X-41842*
X-41818Y-16411*
X-41796Y-16399*
X-41779Y-16381*
X-41769Y-16358*
X-41766Y-16338*
X-41770Y-16314*
X-41781Y-16292*
X-41799Y-16275*
X-41821Y-16264*
X-41842Y-16261*
X-41936*
Y-16069*
X-41366*
Y-16611*
X-41936*
G37*
G36*
X-46646Y-16511D02*
G01Y-16315D01*
X-46553*
X-46529Y-16311*
X-46507Y-16300*
X-46490Y-16282*
X-46479Y-16259*
X-46476Y-16238*
X-46480Y-16214*
X-46491Y-16192*
X-46509Y-16175*
X-46532Y-16164*
X-46553Y-16161*
X-46646*
Y-15969*
X-46076*
X-46077Y-16511*
X-46646*
G37*
G36*
X-64915Y-95856D02*
G01Y-95286D01*
X-64373Y-95287*
Y-95856*
X-64569*
Y-95763*
X-64573Y-95739*
X-64584Y-95717*
X-64602Y-95700*
X-64625Y-95689*
X-64646Y-95686*
X-64670Y-95690*
X-64692Y-95701*
X-64709Y-95719*
X-64720Y-95742*
X-64723Y-95763*
Y-95856*
X-64915*
G37*
G36*
Y-97085D02*
G01Y-96515D01*
X-64723*
Y-96608*
X-64719Y-96632*
X-64708Y-96654*
X-64690Y-96671*
X-64667Y-96682*
X-64646Y-96685*
X-64622Y-96681*
X-64600Y-96670*
X-64583Y-96652*
X-64572Y-96629*
X-64569Y-96608*
Y-96515*
X-64373*
Y-97084*
X-64734Y-97085*
X-64915*
G37*
G36*
X-32096Y-94969D02*
G01Y-94777D01*
X-32002*
X-31978Y-94773*
X-31956Y-94761*
X-31939Y-94743*
X-31929Y-94720*
X-31926Y-94700*
X-31930Y-94676*
X-31941Y-94654*
X-31959Y-94637*
X-31982Y-94626*
X-32002Y-94623*
X-32096*
Y-94427*
X-31526*
X-31525Y-94969*
X-32096*
G37*
G36*
X-43165Y-15209D02*
G01X-42594D01*
Y-15401*
X-42688*
X-42712Y-15405*
X-42734Y-15416*
X-42751Y-15434*
X-42762Y-15457*
X-42765Y-15478*
X-42761Y-15502*
X-42750Y-15524*
X-42732Y-15541*
X-42709Y-15552*
X-42688Y-15555*
X-42594*
Y-15751*
X-43164*
X-43165Y-15209*
G37*
G36*
Y-16069D02*
G01X-42594D01*
Y-16261*
X-42688*
X-42712Y-16265*
X-42734Y-16276*
X-42751Y-16294*
X-42762Y-16317*
X-42765Y-16338*
X-42761Y-16362*
X-42750Y-16384*
X-42732Y-16401*
X-42709Y-16412*
X-42688Y-16415*
X-42594*
Y-16611*
X-43164*
X-43165Y-16069*
G37*
G36*
X-32355Y-102508D02*
G01Y-101938D01*
X-31812*
Y-102508*
X-32009*
Y-102415*
X-32013Y-102391*
X-32024Y-102369*
X-32042Y-102352*
X-32065Y-102341*
X-32085Y-102338*
X-32109Y-102342*
X-32131Y-102353*
X-32148Y-102371*
X-32159Y-102394*
X-32162Y-102415*
Y-102508*
X-32355*
G37*
G36*
Y-103736D02*
G01Y-103166D01*
X-32162*
X-32163Y-103259*
X-32159Y-103283*
X-32147Y-103305*
X-32129Y-103322*
X-32107Y-103333*
X-32085Y-103336*
X-32061Y-103332*
X-32039Y-103320*
X-32022Y-103302*
X-32012Y-103279*
X-32009Y-103259*
Y-103166*
X-31812*
Y-103736*
X-32355*
G37*
G36*
X-53161Y-7291D02*
G01Y-6721D01*
X-52618*
Y-7291*
X-52811*
Y-7197*
X-52815Y-7173*
X-52827Y-7151*
X-52845Y-7134*
X-52868Y-7124*
X-52888Y-7121*
X-52912Y-7125*
X-52934Y-7136*
X-52951Y-7154*
X-52962Y-7177*
X-52965Y-7198*
Y-7291*
X-53161*
G37*
G36*
Y-8519D02*
G01Y-7949D01*
X-52965*
Y-8042*
X-52961Y-8066*
X-52950Y-8088*
X-52932Y-8105*
X-52909Y-8116*
X-52888Y-8119*
X-52864Y-8115*
X-52842Y-8104*
X-52825Y-8086*
X-52814Y-8063*
X-52811Y-8042*
Y-7949*
X-52618*
Y-8519*
X-53161*
G37*
G36*
X-47875Y-15969D02*
G01X-47303D01*
Y-16161*
X-47398*
X-47422Y-16165*
X-47444Y-16177*
X-47461Y-16195*
X-47471Y-16218*
X-47474Y-16238*
X-47470Y-16262*
X-47459Y-16284*
X-47441Y-16301*
X-47419Y-16312*
X-47398Y-16315*
X-47303*
Y-16511*
X-47874*
X-47875Y-15969*
G37*
G36*
X-47588Y-7772D02*
G01Y-7202D01*
X-47044*
Y-7772*
X-47238*
X-47237Y-7679*
X-47241Y-7654*
X-47253Y-7633*
X-47271Y-7615*
X-47294Y-7605*
X-47315Y-7602*
X-47339Y-7607*
X-47361Y-7619*
X-47378Y-7637*
X-47388Y-7660*
X-47390Y-7679*
Y-7772*
X-47588*
G37*
G36*
Y-9000D02*
G01Y-8430D01*
X-47390*
Y-8524*
X-47386Y-8548*
X-47375Y-8570*
X-47357Y-8587*
X-47334Y-8597*
X-47315Y-8600*
X-47291Y-8596*
X-47269Y-8585*
X-47252Y-8567*
X-47241Y-8544*
X-47238Y-8523*
Y-8430*
X-47044*
Y-9000*
X-47588*
G37*
G36*
X-49394Y-7631D02*
G01Y-7038D01*
X-48605*
Y-7631*
X-48901Y-7828*
X-49099*
X-49394Y-7631*
G37*
G36*
Y-9402D02*
G01Y-8809D01*
X-49099Y-8612*
X-48901*
X-48605Y-8809*
Y-9402*
X-49394*
G37*
G36*
X-29462Y-103483D02*
G01Y-102693D01*
X-28869*
X-28672Y-102989*
Y-103187*
X-28869Y-103483*
X-29462*
G37*
G36*
X-35839Y-94273D02*
G01Y-93483D01*
X-35246*
X-35049Y-93779*
Y-93977*
X-35246Y-94273*
X-35839*
G37*
G36*
X-36022Y-96253D02*
G01Y-95463D01*
X-35429*
X-35232Y-95759*
Y-95957*
X-35429Y-96253*
X-36022*
G37*
G36*
X-45742Y-15475D02*
G01Y-14685D01*
X-45150*
X-44952Y-14981*
Y-15179*
X-45150Y-15475*
X-45742*
G37*
G36*
X-45925Y-17455D02*
G01Y-16665D01*
X-45331*
X-45135Y-16961*
Y-17159*
X-45331Y-17455*
X-45925*
G37*
G36*
X-52302Y-8245D02*
G01Y-7455D01*
X-51709*
X-51512Y-7751*
Y-7949*
X-51709Y-8245*
X-52302*
G37*
G36*
X-27888Y-103187D02*
G01Y-102989D01*
X-27690Y-102693*
X-27098*
Y-103483*
X-27690*
X-27888Y-103187*
G37*
G36*
X-30795Y-102129D02*
G01Y-101536D01*
X-30005*
Y-102129*
X-30301Y-102326*
X-30499*
X-30795Y-102129*
G37*
G36*
Y-103900D02*
G01Y-103307D01*
X-30499Y-103110*
X-30301*
X-30005Y-103307*
Y-103900*
X-30795*
G37*
G36*
X-34265Y-93977D02*
G01Y-93779D01*
X-34068Y-93483*
X-33475*
Y-94273*
X-34068*
X-34265Y-93977*
G37*
G36*
X-34448Y-95957D02*
G01Y-95759D01*
X-34250Y-95463*
X-33658*
Y-96253*
X-34250*
X-34448Y-95957*
G37*
G36*
X-44168Y-15179D02*
G01Y-14981D01*
X-43970Y-14685*
X-43378*
Y-15475*
X-43970*
X-44168Y-15179*
G37*
G36*
X-44351Y-17159D02*
G01Y-16961D01*
X-44153Y-16665*
X-43561*
Y-17455*
X-44153*
X-44351Y-17159*
G37*
G36*
X-50728Y-7949D02*
G01Y-7751D01*
X-50531Y-7455*
X-49938*
Y-8245*
X-50531*
X-50728Y-7949*
G37*
G36*
X-38458Y-97453D02*
G01Y-96274D01*
X-38092*
X-37908Y-96667*
Y-97060*
X-38092Y-97453*
X-38458*
G37*
G36*
X-63704Y-76266D02*
G01Y-75087D01*
X-63338*
X-63154Y-75480*
Y-75873*
X-63338Y-76266*
X-63704*
G37*
G36*
X-16246Y-35458D02*
G01Y-35065D01*
X-16062Y-34672*
X-15696*
Y-35851*
X-16062*
X-16246Y-35458*
G37*
G36*
X-41492Y-14271D02*
G01Y-13878D01*
X-41307Y-13485*
X-40942*
Y-14664*
X-41307*
X-41492Y-14271*
G37*
G36*
X-65670Y-75468D02*
G01Y-75101D01*
X-64491*
Y-75468*
X-64884Y-75651*
X-65277*
X-65670Y-75468*
G37*
G36*
Y-76601D02*
G01Y-76234D01*
X-65277Y-76051*
X-64884*
X-64491Y-76234*
Y-76601*
X-65670*
G37*
G36*
X-14909Y-34704D02*
G01Y-34337D01*
X-13729*
Y-34704*
X-14122Y-34887*
X-14516*
X-14909Y-34704*
G37*
G36*
Y-35837D02*
G01Y-35470D01*
X-14516Y-35287*
X-14122*
X-13729Y-35470*
Y-35837*
X-14909*
G37*
G36*
X-37509Y-97060D02*
G01Y-96667D01*
X-37325Y-96274*
X-36958*
Y-97453*
X-37325*
X-37509Y-97060*
G37*
G36*
X-62755Y-75873D02*
G01Y-75480D01*
X-62571Y-75087*
X-62204*
Y-76266*
X-62571*
X-62755Y-75873*
G37*
G36*
X-34970Y-102524D02*
G01Y-102157D01*
X-33790*
Y-102524*
X-34184Y-102708*
X-34577*
X-34970Y-102524*
G37*
G36*
Y-103658D02*
G01Y-103291D01*
X-34577Y-103107*
X-34184*
X-33790Y-103291*
Y-103658*
X-34970*
G37*
G36*
X-45609Y-7647D02*
G01Y-7280D01*
X-44429*
Y-7647*
X-44822Y-7831*
X-45216*
X-45609Y-7647*
G37*
G36*
Y-8781D02*
G01Y-8414D01*
X-45216Y-8230*
X-44822*
X-44429Y-8414*
Y-8781*
X-45609*
G37*
G36*
X-17196Y-35851D02*
G01Y-34672D01*
X-16829*
X-16644Y-35065*
Y-35458*
X-16829Y-35851*
X-17196*
G37*
G36*
X-42442Y-14664D02*
G01Y-13485D01*
X-42075*
X-41890Y-13878*
Y-14271*
X-42075Y-14664*
X-42442*
G37*
G36*
X-38738Y-103223D02*
G01Y-102443D01*
X-37238*
Y-103223*
X-38738*
G37*
G36*
X-42162Y-8495D02*
G01Y-7715D01*
X-40662*
Y-8495*
X-42162*
G37*
G36*
X-113711Y28355D02*
G01Y28552D01*
X-113145*
Y29733*
X-113711*
Y29929*
X-112950*
Y28355*
X-113711*
G37*
G36*
X-114604D02*
G01Y29929D01*
X-113841*
Y29733*
X-114406*
Y28552*
X-113841*
Y28355*
X-114604*
G37*
G54D928*
X-21026Y-12895D03*
X-22005Y-12504D03*
X-21026Y-12115D03*
G54D886*
X-45380Y-9947D03*
Y-10133D03*
X-45390Y-10657D03*
Y-10842D03*
X-45698Y-24398D03*
Y-24583D03*
X-49044Y-27098D03*
X-49229D03*
X-48050Y-27123D03*
X-48236D03*
X-52397Y-27551D03*
X-52583D03*
X-45438Y-27670D03*
X-49663Y-27716D03*
X-49848D03*
X-52393Y-27850D03*
X-52578D03*
X-48629Y-27853D03*
X-48814D03*
X-45438Y-27855D03*
X-50385Y-27960D03*
X-50570D03*
X-53993Y-28127D03*
X-54178D03*
X-52405Y-28144D03*
X-52590D03*
X-46298Y-28200D03*
X-46483D03*
X-47928Y-28246D03*
X-48113D03*
X-54424Y-28335D03*
X-54609D03*
X-65600Y-28342D03*
X-50043Y-28375D03*
X-50228D03*
X-47536Y-28383D03*
X-47721D03*
X-65600Y-28527D03*
X-48348Y-28540D03*
X-48533D03*
X-47536Y-28673D03*
X-47721D03*
X-55624Y-28685D03*
X-55809D03*
X-46885Y-28713D03*
X-47071D03*
X-46118Y-28954D03*
Y-29140D03*
X-48267Y-29291D03*
X-52328D03*
Y-29477D03*
X-48267Y-29476D03*
X-49068Y-29490D03*
X-49253D03*
X-55373Y-29690D03*
X-55558D03*
X-13216Y-29750D03*
X-50926Y-29780D03*
X-51112D03*
X-64234Y-29845D03*
X-64419D03*
X-13216Y-29936D03*
X-52725Y-29952D03*
X-52910D03*
X-61784Y-29995D03*
X-61969D03*
X-62473D03*
X-62658D03*
X-51192Y-30107D03*
X-51377D03*
X-54309Y-30232D03*
X-54495D03*
X-51650Y-30236D03*
X-51910D03*
X-52170D03*
X-52430D03*
X-52690D03*
X-53905Y-30360D03*
X-51192Y-30366D03*
X-51377D03*
X-47680Y-30383D03*
X-51650Y-30421D03*
X-51910D03*
X-52170D03*
X-52430D03*
X-52690D03*
X-54237Y-30502D03*
X-54422D03*
X-46704Y-30441D03*
X-53905Y-30545D03*
X-60852Y-30565D03*
X-61038D03*
X-47680Y-30568D03*
X-46704Y-30626D03*
X-51192D03*
X-51377D03*
X-49769Y-30758D03*
X-49955D03*
X-62630Y-30947D03*
X-51192Y-30886D03*
X-51377D03*
X-53860Y-30983D03*
X-54045D03*
X-64791Y-31121D03*
X-62630Y-31133D03*
X-53083Y-31188D03*
X-54263Y-31255D03*
X-54448D03*
X-64791Y-31307D03*
X-52254Y-31279D03*
X-53083Y-31373D03*
X-48198Y-31370D03*
X-19545Y-31397D03*
X-52254Y-31464D03*
X-52815Y-31642D03*
X-48198Y-31555D03*
X-19545Y-31583D03*
X-51764Y-31660D03*
X-52248Y-31700D03*
X-53075Y-31712D03*
X-52815Y-31827D03*
X-51764Y-31845D03*
X-50745Y-31861D03*
X-51320D03*
X-49721Y-31868D03*
X-50239D03*
X-52248Y-31886D03*
X-53075Y-31898D03*
X-54393Y-32018D03*
X-54578D03*
X-50745Y-32046D03*
X-51320Y-32047D03*
X-49721Y-32053D03*
X-50239D03*
X-52243Y-32132D03*
X-53515Y-32133D03*
X-55834Y-32219D03*
X-56020D03*
X-54987Y-32254D03*
X-55173D03*
X-49725Y-32292D03*
X-52243Y-32317D03*
X-53515Y-32318D03*
X-53514Y-32557D03*
X-49725Y-32477D03*
X-52245Y-32560D03*
X-62000Y-32646D03*
Y-32832D03*
X-54371Y-32786D03*
X-54556D03*
X-52793Y-32733D03*
X-53514Y-32743D03*
X-52245Y-32746D03*
X-53937Y-32853D03*
X-54123D03*
X-61180Y-32897D03*
X-53123Y-32898D03*
X-51765Y-32812D03*
X-52793Y-32919D03*
X-55834Y-32988D03*
X-56020D03*
X-53494Y-33040D03*
X-61180Y-33083D03*
X-50235Y-32935D03*
X-50735Y-32968D03*
X-51765Y-32998D03*
X-53123Y-33084D03*
X-50235Y-33121D03*
X-50735Y-33153D03*
X-52797Y-33155D03*
X-53494Y-33225D03*
X-64133Y-33475D03*
X-64318D03*
X-52797Y-33340D03*
X-53987Y-33355D03*
X-54172D03*
X-50235Y-33362D03*
X-60494Y-33405D03*
X-60679D03*
X-61743Y-33445D03*
X-61928D03*
X-62631Y-33495D03*
X-62816D03*
X-53475Y-33512D03*
X-54376Y-33585D03*
X-54561D03*
X-52283Y-33636D03*
X-52791Y-33650D03*
X-48658Y-33451D03*
X-50235Y-33548D03*
X-48658Y-33637D03*
X-50735Y-33652D03*
X-53169Y-33679D03*
X-53475Y-33698D03*
X-55830Y-33759D03*
X-56015D03*
X-62631Y-33845D03*
X-62816D03*
X-52283Y-33821D03*
X-52791Y-33835D03*
X-50735Y-33837D03*
X-53169Y-33864D03*
X-48628Y-33885D03*
X-53951Y-33937D03*
X-54136D03*
X-44428Y-33980D03*
X-44613D03*
X-48628Y-34071D03*
X-53951Y-34197D03*
X-54136D03*
X-48016Y-34215D03*
X-48322D03*
X-52862Y-34309D03*
X-54393Y-34361D03*
X-54578D03*
X-51254Y-34351D03*
X-48016Y-34400D03*
X-48322D03*
X-52571Y-34438D03*
X-52862Y-34494D03*
X-55821Y-34526D03*
X-56007D03*
X-51254Y-34537D03*
X-52571Y-34624D03*
X-48337Y-34668D03*
X-48522D03*
X-50546Y-34899D03*
X-50806D03*
X-51066D03*
X-51326D03*
X-51585D03*
X-51846D03*
X-52106D03*
X-52366D03*
X-52626D03*
X-52918Y-34905D03*
X-53242Y-34917D03*
X-53558Y-34928D03*
X-49028Y-34885D03*
X-49317D03*
X-50129Y-34959D03*
X-50546Y-35085D03*
X-50806D03*
X-51066D03*
X-51326D03*
X-51585D03*
X-51846D03*
X-52106D03*
X-52366D03*
X-52626D03*
X-52918Y-35091D03*
X-53242Y-35103D03*
X-53558Y-35114D03*
X-49028Y-35070D03*
X-49317D03*
X-50129Y-35145D03*
X-48682Y-35151D03*
X-64193Y-35295D03*
X-64378D03*
X-62443Y-35339D03*
X-62628D03*
X-55830Y-35294D03*
X-56015D03*
X-60855Y-35365D03*
X-61041D03*
X-47547Y-35307D03*
X-47733D03*
X-48682Y-35336D03*
X-52053Y-35385D03*
X-52238D03*
X-53405Y-35582D03*
X-50116Y-35475D03*
X-50302D03*
X-52895Y-35592D03*
X-53405Y-35768D03*
X-49602Y-35623D03*
X-49788D03*
X-51542Y-35718D03*
X-51802D03*
X-52306Y-35737D03*
X-52895Y-35777D03*
X-48321Y-35763D03*
X-48651Y-35764D03*
X-49645Y-35883D03*
X-51542Y-35903D03*
X-51802D03*
X-52306Y-35923D03*
X-55555Y-35947D03*
X-48321Y-35949D03*
X-48651D03*
X-49645Y-36068D03*
X-55555Y-36132D03*
Y-36377D03*
X-49332Y-36316D03*
X-49517D03*
X-50666Y-36386D03*
X-50851D03*
X-64421Y-36466D03*
X-55555Y-36562D03*
X-64421Y-36652D03*
X-20347Y-36770D03*
X-20532D03*
X-49429Y-36860D03*
X-49614D03*
X-49429Y-37160D03*
X-49614D03*
X-53512Y-37259D03*
X-53698D03*
X-49429Y-37460D03*
X-49614D03*
X-49429Y-37760D03*
X-49614D03*
X-49937Y-37816D03*
X-50123D03*
X-62680Y-37997D03*
X-61991Y-37999D03*
X-62680Y-38183D03*
X-48102Y-38130D03*
X-48288D03*
X-61991Y-38185D03*
X-66480Y-38425D03*
Y-38610D03*
X-64163Y-38855D03*
X-64348D03*
X-61793Y-38745D03*
X-61978D03*
X-57704Y-38649D03*
X-57889D03*
X-60494Y-38755D03*
X-60679D03*
X-62508Y-38855D03*
X-62693D03*
X-57715Y-38981D03*
X-57900D03*
X-62323Y-39220D03*
X-62508D03*
X-50122Y-39293D03*
Y-39479D03*
X-67380Y-39532D03*
Y-39718D03*
X-66700Y-40607D03*
X-65100Y-40622D03*
X-65990Y-40657D03*
X-64110Y-40672D03*
X-64515D03*
X-66700Y-40792D03*
X-65100Y-40807D03*
X-65990Y-40842D03*
X-50851Y-40759D03*
X-51037D03*
X-64110Y-40857D03*
X-64515D03*
X-50851Y-41084D03*
X-51036D03*
X-57125Y-45972D03*
Y-46158D03*
X-57126Y-46427D03*
Y-46612D03*
X-48040Y-46627D03*
Y-46812D03*
X-57140Y-47262D03*
Y-47448D03*
X-66211Y-28864D03*
X-66080Y-28996D03*
X-66521Y-29274D03*
X-66390Y-29405D03*
X-54311Y-35120D03*
X-54442Y-35251D03*
G54D929*
X-43493Y-32075D03*
X-44198D03*
X-43493Y-33026D03*
X-44198D03*
G54D930*
X-19651Y-32702D03*
X-20025D03*
X-20399D03*
X-19651Y-33830D03*
X-20399D03*
G54D931*
X-63378Y-41466D03*
X-64127D03*
X-63752Y-42269D03*
X-67568Y-42651D03*
X-68317D03*
X-63371Y-42944D03*
X-64120D03*
X-65552Y-42985D03*
X-66301D03*
X-67942Y-43454D03*
X-63745Y-43747D03*
X-59712Y-43762D03*
X-60461D03*
X-65926Y-43788D03*
X-60086Y-44565D03*
G54D951*
X-61935Y-44085D03*
X-61131Y-44459D03*
X-61935Y-44833D03*
X-21428Y-45496D03*
X-22232Y-45870D03*
X-18988Y-45726D03*
X-19792Y-46100D03*
X-21428Y-46245D03*
X-16982Y-46346D03*
X-18988Y-46475D03*
X-21438Y-46986D03*
X-22242Y-47361D03*
X-16178Y-46720D03*
X-16982Y-47095D03*
X-18968Y-47196D03*
X-19772Y-47570D03*
X-21438Y-47735D03*
X-18968Y-47945D03*
G54D897*
X-55926Y-35977D03*
X-56277D03*
X-55926Y-36329D03*
X-56277D03*
X-55926Y-36638D03*
X-56277D03*
X-55926Y-36990D03*
X-56277D03*
X-61930Y-36561D03*
X-62330D03*
Y-37566D03*
X-61930Y-37570D03*
X-51771Y-33255D03*
X-51794Y-34260D03*
G54D952*
X-44076Y-10135D03*
X-44904D03*
X-44076Y-10390D03*
X-44904D03*
X-44076Y-10646D03*
X-44904D03*
G54D953*
X-44620Y-13925D03*
G54D954*
X-43715Y-11445D03*
X-44620D03*
X-45526D03*
X-40506Y-10585D03*
X-41412D03*
X-42317D03*
G54D874*
X-63942Y-39438D03*
X-64621D03*
X-64992D03*
X-65671D03*
X-66042D03*
X-66721D03*
X-62892Y-39588D03*
X-63571D03*
X-63942Y-39938D03*
X-64621D03*
X-64992D03*
X-65671D03*
X-66042D03*
X-66721D03*
X-62892Y-40088D03*
X-63571D03*
G54D875*
X-64182Y-39438D03*
X-64379D03*
X-65232D03*
X-65429D03*
X-66282D03*
X-66479D03*
X-63132Y-39588D03*
X-63329D03*
X-64182Y-39938D03*
X-64379D03*
X-65232D03*
X-65429D03*
X-66282D03*
X-66479D03*
X-63132Y-40088D03*
X-63329D03*
G54D955*
X-48702Y-44431D03*
Y-49060D03*
X-56441D03*
Y-44431D03*
G54D956*
X-48702Y-44678D03*
X-56441D03*
X-48702Y-44875D03*
X-56441D03*
X-48702Y-45071D03*
X-56441D03*
X-48702Y-45268D03*
X-56441D03*
X-48702Y-45466D03*
X-56441D03*
X-48702Y-45662D03*
X-56441D03*
X-48702Y-45859D03*
X-56441D03*
X-48702Y-46056D03*
X-56441D03*
X-48702Y-46253D03*
X-56441D03*
X-48702Y-46450D03*
X-56441D03*
X-48702Y-46647D03*
X-56441D03*
X-48702Y-46844D03*
X-56441D03*
X-48702Y-47041D03*
X-56441D03*
X-48702Y-47238D03*
X-56441D03*
X-48702Y-47434D03*
X-56441D03*
X-48702Y-47631D03*
X-56441D03*
X-48702Y-47828D03*
X-56441D03*
X-48702Y-48025D03*
X-56441D03*
X-48702Y-48222D03*
X-56441D03*
X-48702Y-48419D03*
X-56441D03*
X-48702Y-48616D03*
X-56441D03*
X-48702Y-48813D03*
X-56441D03*
G54D928*
X-58374Y-98043D03*
X-57395Y-98434D03*
X-58374Y-98823D03*
G54D886*
X-34020Y-100991D03*
Y-100805D03*
X-34010Y-100281D03*
Y-100096D03*
X-33702Y-86540D03*
Y-86355D03*
X-30356Y-83840D03*
X-30171D03*
X-31350Y-83815D03*
X-31164D03*
X-27003Y-83387D03*
X-26817D03*
X-33962Y-83268D03*
X-29737Y-83222D03*
X-29552D03*
X-27007Y-83088D03*
X-26822D03*
X-30771Y-83085D03*
X-30586D03*
X-33962Y-83083D03*
X-29015Y-82978D03*
X-28830D03*
X-25407Y-82811D03*
X-25222D03*
X-26995Y-82794D03*
X-26810D03*
X-33102Y-82738D03*
X-32917D03*
X-31472Y-82692D03*
X-31287D03*
X-24976Y-82603D03*
X-24791D03*
X-13800Y-82596D03*
X-29357Y-82563D03*
X-29172D03*
X-31864Y-82555D03*
X-31679D03*
X-13800Y-82411D03*
X-31052Y-82398D03*
X-30867D03*
X-31864Y-82265D03*
X-31679D03*
X-23776Y-82253D03*
X-23591D03*
X-32515Y-82225D03*
X-32329D03*
X-33282Y-81984D03*
Y-81798D03*
X-31133Y-81647D03*
X-27072D03*
Y-81461D03*
X-31133Y-81462D03*
X-30332Y-81448D03*
X-30147D03*
X-24027Y-81248D03*
X-23842D03*
X-66184Y-81188D03*
X-28474Y-81158D03*
X-28288D03*
X-15166Y-81093D03*
X-14981D03*
X-66184Y-81002D03*
X-26675Y-80986D03*
X-26490D03*
X-17616Y-80943D03*
X-17431D03*
X-16927D03*
X-16742D03*
X-28208Y-80831D03*
X-28023D03*
X-25091Y-80706D03*
X-24905D03*
X-27750Y-80702D03*
X-27490D03*
X-27230D03*
X-26970D03*
X-26710D03*
X-25495Y-80578D03*
X-28208Y-80572D03*
X-28023D03*
X-31720Y-80555D03*
X-27750Y-80517D03*
X-27490D03*
X-27230D03*
X-26970D03*
X-26710D03*
X-25163Y-80436D03*
X-24978D03*
X-32696Y-80497D03*
X-25495Y-80393D03*
X-18548Y-80373D03*
X-18362D03*
X-31720Y-80370D03*
X-32696Y-80312D03*
X-28208D03*
X-28023D03*
X-29631Y-80180D03*
X-29445D03*
X-16770Y-79991D03*
X-28208Y-80052D03*
X-28023D03*
X-25540Y-79955D03*
X-25355D03*
X-14609Y-79817D03*
X-16770Y-79805D03*
X-26317Y-79750D03*
X-25137Y-79683D03*
X-24952D03*
X-14609Y-79631D03*
X-27146Y-79659D03*
X-26317Y-79565D03*
X-31202Y-79568D03*
X-59855Y-79541D03*
X-27146Y-79474D03*
X-26585Y-79296D03*
X-31202Y-79383D03*
X-59855Y-79355D03*
X-27636Y-79278D03*
X-27152Y-79238D03*
X-26325Y-79226D03*
X-26585Y-79111D03*
X-27636Y-79093D03*
X-28655Y-79077D03*
X-28080D03*
X-29679Y-79070D03*
X-29161D03*
X-27152Y-79052D03*
X-26325Y-79040D03*
X-25007Y-78920D03*
X-24822D03*
X-28655Y-78892D03*
X-28080Y-78891D03*
X-29679Y-78885D03*
X-29161D03*
X-27157Y-78806D03*
X-25885Y-78805D03*
X-23566Y-78719D03*
X-23380D03*
X-24413Y-78684D03*
X-24227D03*
X-29675Y-78646D03*
X-27157Y-78621D03*
X-25885Y-78620D03*
X-25886Y-78381D03*
X-29675Y-78461D03*
X-27155Y-78378D03*
X-17400Y-78292D03*
Y-78106D03*
X-25029Y-78152D03*
X-24844D03*
X-26607Y-78205D03*
X-25886Y-78195D03*
X-27155Y-78192D03*
X-25463Y-78085D03*
X-25277D03*
X-18220Y-78041D03*
X-26277Y-78040D03*
X-27635Y-78126D03*
X-26607Y-78019D03*
X-23566Y-77950D03*
X-23380D03*
X-25906Y-77898D03*
X-18220Y-77855D03*
X-29165Y-78003D03*
X-28665Y-77970D03*
X-27635Y-77940D03*
X-26277Y-77854D03*
X-29165Y-77817D03*
X-28665Y-77785D03*
X-26603Y-77783D03*
X-25906Y-77713D03*
X-15267Y-77463D03*
X-15082D03*
X-26603Y-77598D03*
X-25413Y-77583D03*
X-25228D03*
X-29165Y-77576D03*
X-18906Y-77533D03*
X-18721D03*
X-17657Y-77493D03*
X-17472D03*
X-16769Y-77443D03*
X-16584D03*
X-25925Y-77426D03*
X-25024Y-77353D03*
X-24839D03*
X-27117Y-77302D03*
X-26609Y-77288D03*
X-30742Y-77487D03*
X-29165Y-77390D03*
X-30742Y-77301D03*
X-28665Y-77286D03*
X-26231Y-77259D03*
X-25925Y-77240D03*
X-23570Y-77179D03*
X-23385D03*
X-16769Y-77093D03*
X-16584D03*
X-27117Y-77117D03*
X-26609Y-77103D03*
X-28665Y-77101D03*
X-26231Y-77074D03*
X-30772Y-77053D03*
X-25449Y-77001D03*
X-25264D03*
X-34972Y-76958D03*
X-34787D03*
X-30772Y-76867D03*
X-25449Y-76741D03*
X-25264D03*
X-31384Y-76723D03*
X-31078D03*
X-26538Y-76629D03*
X-25007Y-76577D03*
X-24822D03*
X-28146Y-76587D03*
X-31384Y-76538D03*
X-31078D03*
X-26829Y-76500D03*
X-26538Y-76444D03*
X-23579Y-76412D03*
X-23393D03*
X-28146Y-76401D03*
X-26829Y-76314D03*
X-31063Y-76270D03*
X-30878D03*
X-28854Y-76039D03*
X-28594D03*
X-28334D03*
X-28074D03*
X-27815D03*
X-27554D03*
X-27294D03*
X-27034D03*
X-26774D03*
X-26482Y-76033D03*
X-26158Y-76021D03*
X-25842Y-76010D03*
X-30372Y-76053D03*
X-30083D03*
X-29271Y-75979D03*
X-28854Y-75853D03*
X-28594D03*
X-28334D03*
X-28074D03*
X-27815D03*
X-27554D03*
X-27294D03*
X-27034D03*
X-26774D03*
X-26482Y-75847D03*
X-26158Y-75835D03*
X-25842Y-75824D03*
X-30372Y-75868D03*
X-30083D03*
X-29271Y-75793D03*
X-30718Y-75787D03*
X-15207Y-75643D03*
X-15022D03*
X-16957Y-75599D03*
X-16772D03*
X-23570Y-75644D03*
X-23385D03*
X-18545Y-75573D03*
X-18359D03*
X-31853Y-75631D03*
X-31667D03*
X-30718Y-75602D03*
X-27347Y-75553D03*
X-27162D03*
X-25995Y-75356D03*
X-29284Y-75463D03*
X-29098D03*
X-26505Y-75346D03*
X-25995Y-75170D03*
X-29798Y-75315D03*
X-29612D03*
X-27858Y-75220D03*
X-27598D03*
X-27094Y-75201D03*
X-26505Y-75161D03*
X-31079Y-75175D03*
X-30749Y-75174D03*
X-29755Y-75055D03*
X-27858Y-75035D03*
X-27598D03*
X-27094Y-75015D03*
X-23845Y-74991D03*
X-31079Y-74989D03*
X-30749D03*
X-29755Y-74870D03*
X-23845Y-74806D03*
Y-74561D03*
X-30068Y-74622D03*
X-29883D03*
X-28734Y-74552D03*
X-28549D03*
X-14979Y-74472D03*
X-23845Y-74376D03*
X-14979Y-74286D03*
X-59053Y-74168D03*
X-58868D03*
X-29971Y-74078D03*
X-29786D03*
X-29971Y-73778D03*
X-29786D03*
X-25888Y-73679D03*
X-25702D03*
X-29971Y-73478D03*
X-29786D03*
X-29971Y-73178D03*
X-29786D03*
X-29463Y-73122D03*
X-29277D03*
X-16720Y-72941D03*
X-17409Y-72939D03*
X-16720Y-72755D03*
X-31298Y-72808D03*
X-31112D03*
X-17409Y-72753D03*
X-12920Y-72513D03*
Y-72328D03*
X-15237Y-72083D03*
X-15052D03*
X-17607Y-72193D03*
X-17422D03*
X-21696Y-72289D03*
X-21511D03*
X-18906Y-72183D03*
X-18721D03*
X-16892Y-72083D03*
X-16707D03*
X-21685Y-71957D03*
X-21500D03*
X-17077Y-71718D03*
X-16892D03*
X-29278Y-71645D03*
Y-71459D03*
X-12020Y-71406D03*
Y-71220D03*
X-12700Y-70331D03*
X-14300Y-70316D03*
X-13410Y-70281D03*
X-15290Y-70266D03*
X-14885D03*
X-12700Y-70146D03*
X-14300Y-70131D03*
X-13410Y-70096D03*
X-28549Y-70179D03*
X-28363D03*
X-15290Y-70081D03*
X-14885D03*
X-28549Y-69854D03*
X-28364D03*
X-22275Y-64966D03*
Y-64780D03*
X-22274Y-64511D03*
Y-64326D03*
X-31360Y-64311D03*
Y-64126D03*
X-22260Y-63676D03*
Y-63490D03*
X-13189Y-82074D03*
X-13320Y-81942D03*
X-12879Y-81664D03*
X-13010Y-81533D03*
X-25089Y-75818D03*
X-24958Y-75687D03*
G54D929*
X-35907Y-78863D03*
X-35202D03*
X-35907Y-77912D03*
X-35202D03*
G54D930*
X-59749Y-78236D03*
X-59375D03*
X-59001D03*
X-59749Y-77108D03*
X-59001D03*
G54D931*
X-16022Y-69472D03*
X-15273D03*
X-15648Y-68669D03*
X-11832Y-68287D03*
X-11083D03*
X-16029Y-67994D03*
X-15280D03*
X-13848Y-67953D03*
X-13099D03*
X-11458Y-67484D03*
X-15655Y-67191D03*
X-19688Y-67176D03*
X-18939D03*
X-13474Y-67150D03*
X-19314Y-66373D03*
G54D951*
X-17465Y-66853D03*
X-18269Y-66479D03*
X-17465Y-66105D03*
X-57972Y-65442D03*
X-57168Y-65068D03*
X-60412Y-65212D03*
X-59608Y-64838D03*
X-57972Y-64693D03*
X-62418Y-64592D03*
X-60412Y-64463D03*
X-57962Y-63952D03*
X-57158Y-63577D03*
X-63222Y-64218D03*
X-62418Y-63843D03*
X-60432Y-63742D03*
X-59628Y-63368D03*
X-57962Y-63203D03*
X-60432Y-62993D03*
G54D897*
X-23474Y-74961D03*
X-23123D03*
X-23474Y-74609D03*
X-23123D03*
X-23474Y-74300D03*
X-23123D03*
X-23474Y-73948D03*
X-23123D03*
X-17470Y-74377D03*
X-17070D03*
Y-73372D03*
X-17470Y-73368D03*
X-27629Y-77683D03*
X-27606Y-76678D03*
G54D952*
X-35324Y-100803D03*
X-34496D03*
X-35324Y-100548D03*
X-34496D03*
X-35324Y-100292D03*
X-34496D03*
G54D953*
X-34780Y-97013D03*
G54D954*
X-35685Y-99493D03*
X-34780D03*
X-33874D03*
X-38894Y-100353D03*
X-37988D03*
X-37083D03*
G54D874*
X-15458Y-71500D03*
X-14779D03*
X-14408D03*
X-13729D03*
X-13358D03*
X-12679D03*
X-16508Y-71350D03*
X-15829D03*
X-15458Y-71000D03*
X-14779D03*
X-14408D03*
X-13729D03*
X-13358D03*
X-12679D03*
X-16508Y-70850D03*
X-15829D03*
G54D875*
X-15218Y-71500D03*
X-15021D03*
X-14168D03*
X-13971D03*
X-13118D03*
X-12921D03*
X-16268Y-71350D03*
X-16071D03*
X-15218Y-71000D03*
X-15021D03*
X-14168D03*
X-13971D03*
X-13118D03*
X-12921D03*
X-16268Y-70850D03*
X-16071D03*
G54D955*
X-30698Y-66507D03*
Y-61878D03*
X-22959D03*
Y-66507D03*
G54D956*
X-30698Y-66260D03*
X-22959D03*
X-30698Y-66063D03*
X-22959D03*
X-30698Y-65867D03*
X-22959D03*
X-30698Y-65670D03*
X-22959D03*
X-30698Y-65472D03*
X-22959D03*
X-30698Y-65276D03*
X-22959D03*
X-30698Y-65079D03*
X-22959D03*
X-30698Y-64882D03*
X-22959D03*
X-30698Y-64685D03*
X-22959D03*
X-30698Y-64488D03*
X-22959D03*
X-30698Y-64291D03*
X-22959D03*
X-30698Y-64094D03*
X-22959D03*
X-30698Y-63897D03*
X-22959D03*
X-30698Y-63700D03*
X-22959D03*
X-30698Y-63504D03*
X-22959D03*
X-30698Y-63307D03*
X-22959D03*
X-30698Y-63110D03*
X-22959D03*
X-30698Y-62913D03*
X-22959D03*
X-30698Y-62716D03*
X-22959D03*
X-30698Y-62519D03*
X-22959D03*
X-30698Y-62322D03*
X-22959D03*
X-30698Y-62125D03*
X-22959D03*
G54D17*
X-8609Y-100632D03*
X-71058Y-62968D03*
X-75527Y-97064D03*
X-3873D03*
Y-11906D03*
X-75527Y-11907D03*
X-70790Y-10306D03*
X-8342Y-47970D03*
G54D396*
X-151905Y56736D02*
G01X72505D01*
Y-167674*
X-151905*
Y56736*
G54D755*
X-101739Y-64568D02*
G01X-101809Y-64357D01*
X-102020Y-64216*
X-102372Y-64146*
X-102583*
X-102934Y-64216*
X-103145Y-64357*
X-103215Y-64568*
Y-64708*
X-103145Y-64919*
X-102934Y-65060*
X-102583Y-65130*
X-102372*
X-102020Y-65060*
X-101809Y-64919*
X-101739Y-64708*
Y-64568*
Y-62740D02*
G01Y-63724D01*
Y-63724D02*
G01X-103215Y-63021D01*
X-101739Y-62177D02*
G01Y-61474D01*
X-102372Y-61404*
X-102301Y-61474*
X-102231Y-61685*
Y-61896*
X-102301Y-62107*
X-102442Y-62248*
X-102653Y-62318*
X-102794*
X-103004Y-62177*
X-103145Y-62037*
X-103215Y-61826*
Y-61615*
X-103145Y-61404*
X-103075Y-61334*
X-102934Y-61263*
X-101829Y-59009D02*
G01X-101900Y-58798D01*
X-102111Y-58657*
X-102462Y-58587*
X-102673*
X-103025Y-58657*
X-103235Y-58798*
X-103306Y-59009*
Y-59149*
X-103235Y-59360*
X-103025Y-59501*
X-102673Y-59571*
X-102462*
X-102111Y-59501*
X-101900Y-59360*
X-101829Y-59149*
Y-59009*
Y-57181D02*
G01Y-58165D01*
Y-58165D02*
G01X-103306Y-57462D01*
X-101829Y-56618D02*
G01Y-55915D01*
X-102462Y-55845*
X-102392Y-55915*
X-102321Y-56126*
Y-56337*
X-102392Y-56548*
X-102532Y-56689*
X-102743Y-56759*
X-102884*
X-103095Y-56618*
X-103235Y-56478*
X-103306Y-56267*
Y-56056*
X-103235Y-55845*
X-103165Y-55775*
X-103025Y-55704*
X-103009Y-60068D02*
G01X-103065D01*
Y-60391*
X-103009*
Y-60369*
X-103008Y-60349*
X-103005Y-60332*
X-103001Y-60317*
X-102996Y-60304*
X-102990Y-60295*
X-102974Y-60280*
X-102969Y-60276*
X-102959*
X-102948Y-60277*
X-102938Y-60281*
X-102925Y-60288*
X-102912Y-60298*
X-102583Y-60522*
X-102938Y-60757*
X-102948Y-60761*
X-102956Y-60763*
X-102964*
X-102970Y-60761*
X-102977Y-60759*
X-102983Y-60753*
X-102987Y-60746*
X-102995Y-60738*
X-102998Y-60728*
X-103003Y-60717*
X-103005Y-60704*
X-103008Y-60691*
X-103009Y-60675*
Y-60659*
X-103065*
Y-61036*
X-103009*
Y-61022*
X-103008Y-61009*
X-103005Y-60997*
X-103003Y-60985*
X-102998Y-60974*
X-102995Y-60964*
X-102987Y-60954*
X-102983Y-60946*
X-102979Y-60939*
X-102974Y-60932*
X-102966Y-60924*
X-102957Y-60918*
X-102948Y-60911*
X-102938Y-60905*
X-102474Y-60598*
X-102161Y-60823*
X-102146Y-60834*
X-102133Y-60844*
X-102122Y-60854*
X-102111Y-60863*
X-102103Y-60873*
X-102096Y-60880*
X-102091Y-60888*
X-102088Y-60900*
X-102083Y-60913*
X-102080Y-60928*
X-102078Y-60945*
X-102076Y-60963*
X-102075Y-60982*
Y-61003*
X-102020*
Y-60659*
X-102075*
Y-60681*
X-102076Y-60702*
X-102078Y-60718*
X-102080Y-60733*
X-102083Y-60746*
X-102088Y-60755*
X-102091Y-60763*
X-102096Y-60769*
X-102103Y-60774*
X-102109Y-60776*
X-102119*
X-102129Y-60774*
X-102140Y-60769*
X-102151Y-60763*
X-102425Y-60566*
X-102140Y-60374*
X-102129Y-60366*
X-102119Y-60360*
X-102107Y-60356*
X-102098Y-60355*
X-102093Y-60356*
X-102085Y-60358*
X-102080Y-60363*
Y-60369*
X-102078Y-60376*
X-102076Y-60385*
X-102075Y-60397*
Y-60409*
Y-60424*
Y-60440*
X-102020*
Y-60085*
X-102075*
Y-60101*
X-102076Y-60117*
X-102078Y-60131*
X-102080Y-60145*
X-102083Y-60157*
X-102088Y-60168*
X-102091Y-60178*
X-102096Y-60185*
X-102103Y-60194*
X-102109Y-60202*
X-102119Y-60211*
X-102129Y-60219*
X-102140Y-60228*
X-102151Y-60238*
X-102534Y-60489*
X-102900Y-60238*
X-102915Y-60225*
X-102930Y-60213*
X-102941Y-60202*
X-102952Y-60191*
X-102961Y-60181*
X-102970Y-60171*
X-102977Y-60161*
X-102985Y-60150*
X-102992Y-60138*
X-102998Y-60125*
X-103005Y-60112*
X-103008Y-60098*
X-103009Y-60084*
Y-60068*
X-103910Y-45096D02*
G75*
G03X-104107Y-45096I-98D01*
X-103910D02*
G01Y-78696D01*
X-104105Y-78715D02*
G03X-103910Y-78696I97J19D01*
X-104105Y-78715D02*
G01X-104675Y-76178D01*
X-104482Y-76134D02*
G03X-104675Y-76178I-97J-22D01*
X-104482Y-76134D02*
G01X-104107Y-77806D01*
Y-45096*
X-103371Y-76237D02*
G03X-103563Y-76195I-96J21D01*
X-103371Y-76237D02*
G01X-103912Y-78717D01*
X-104104Y-78675D02*
G03X-103912Y-78717I96J-21D01*
X-104104Y-78675D02*
G01X-103563Y-76195D01*
X-117696Y-76422D02*
G01Y-103981D01*
X-106671*
Y-76422*
X-117696*
X-117539Y-9950D02*
G01Y-49320D01*
X-106516*
Y-9950*
X-117539*
X-108214Y-15178D02*
G01X-108247Y-15007D01*
X-108723Y-15008*
X-109133Y-15009*
X-109476Y-15012*
X-109751Y-15016*
X-109960Y-15020*
X-110101Y-15026*
X-110176Y-15033*
X-110214Y-15042*
X-110246Y-15050*
X-110272Y-15058*
X-110292Y-15064*
X-110305Y-15070*
X-110313Y-15075*
X-110314Y-15079*
X-110309Y-15085*
X-110297Y-15091*
X-110278Y-15097*
X-110253Y-15104*
X-110221Y-15111*
X-110182Y-15118*
X-110137Y-15125*
X-110080Y-15132*
X-110006Y-15138*
X-109915Y-15143*
X-109807Y-15147*
X-109682Y-15149*
X-109541Y-15151*
X-109382*
X-109214Y-15152*
X-109046Y-15153*
X-108879Y-15156*
X-108712Y-15160*
X-108546Y-15165*
X-108380Y-15171*
X-108214Y-15178*
X-108481Y-17920D02*
G01X-108448Y-17750D01*
X-108613Y-17756*
X-108779Y-17762*
X-108945Y-17767*
X-109112Y-17771*
X-109280Y-17774*
X-109447Y-17775*
X-109616Y-17776*
X-109775*
X-109916Y-17778*
X-110041Y-17781*
X-110149Y-17784*
X-110239Y-17789*
X-110313Y-17795*
X-110371Y-17802*
X-110416Y-17809*
X-110455Y-17816*
X-110487Y-17823*
X-110512Y-17830*
X-110530Y-17836*
X-110543Y-17842*
X-110548Y-17848*
X-110547Y-17852*
X-110539Y-17857*
X-110526Y-17863*
X-110506Y-17869*
X-110480Y-17877*
X-110448Y-17885*
X-110410Y-17894*
X-110335Y-17901*
X-110193Y-17907*
X-109985Y-17911*
X-109709Y-17915*
X-109367Y-17918*
X-108957Y-17920*
X-108481*
X-108077Y-20783D02*
G01X-108081Y-20781D01*
X-108087Y-20783*
X-108098Y-20789*
X-108112Y-20799*
X-108132Y-20813*
X-108157Y-20831*
X-108185Y-20853*
X-108219Y-20879*
X-108253Y-20907*
X-108283Y-20931*
X-108310Y-20954*
X-108333Y-20975*
X-108353Y-20994*
X-108370Y-21010*
X-108383Y-21024*
X-108393Y-21039*
X-108401Y-21052*
X-108407Y-21065*
X-108411Y-21078*
X-108412Y-21089*
Y-21100*
X-108409Y-21109*
X-108404Y-21118*
X-108397Y-21126*
X-108388Y-21131*
X-108377Y-21136*
X-108363Y-21139*
X-108348Y-21141*
X-108330Y-21142*
X-108310Y-21141*
X-108290Y-21139*
X-108272Y-21136*
X-108254Y-21131*
X-108237Y-21126*
X-108221Y-21118*
X-108205Y-21109*
X-108189Y-21099*
X-108174Y-21087*
X-108159Y-21073*
X-108144Y-21057*
X-108131Y-21039*
X-108119Y-21019*
X-108107Y-20998*
X-108097Y-20974*
X-108088Y-20951*
X-108081Y-20928*
X-108075Y-20907*
X-108071Y-20886*
X-108068Y-20866*
Y-20847*
Y-20830*
X-108069Y-20815*
X-108070Y-20803*
X-108072Y-20793*
X-108074Y-20787*
X-108077Y-20783*
X-108791Y-20378D02*
G01X-108796Y-20381D01*
X-108802Y-20384*
X-108807Y-20390*
X-108813Y-20398*
X-108819Y-20408*
X-108824Y-20420*
X-108830Y-20436*
X-108835Y-20453*
X-108841Y-20470*
X-108845Y-20487*
X-108849Y-20505*
X-108851Y-20523*
X-108853Y-20541*
X-108855Y-20559*
Y-20578*
X-108853Y-20606*
X-108849Y-20649*
X-108841Y-20707*
X-108829Y-20780*
X-108815Y-20868*
X-108798Y-20972*
X-108776Y-21090*
X-108757Y-21208*
X-108738Y-21309*
X-108722Y-21391*
X-108707Y-21456*
X-108694Y-21503*
X-108682Y-21531*
X-108672Y-21542*
X-108662*
X-108652Y-21538*
X-108642Y-21529*
X-108632Y-21516*
X-108621Y-21498*
X-108611Y-21476*
X-108599Y-21450*
X-108590Y-21420*
X-108585Y-21383*
Y-21342*
X-108588Y-21295*
X-108597Y-21243*
X-108609Y-21185*
X-108626Y-21122*
X-108644Y-21057*
X-108661Y-20991*
X-108677Y-20924*
X-108692Y-20858*
X-108706Y-20791*
X-108719Y-20724*
X-108731Y-20657*
X-108739Y-20593*
X-108747Y-20539*
X-108754Y-20492*
X-108759Y-20455*
X-108764Y-20426*
X-108768Y-20406*
X-108770Y-20394*
X-108772Y-20387*
X-108775Y-20382*
X-108778Y-20379*
X-108782Y-20377*
X-108786*
X-108791Y-20378*
X-109696Y-20927D02*
G01X-109787Y-20893D01*
Y-20978*
X-109714Y-21015*
X-109643Y-21050*
X-109574Y-21085*
X-109505Y-21117*
X-109438Y-21149*
X-109372Y-21179*
X-109308Y-21208*
X-109246Y-21235*
X-109193Y-21259*
X-109147Y-21277*
X-109110Y-21291*
X-109080Y-21301*
X-109059Y-21306*
X-109046*
X-109036Y-21300*
X-109025Y-21291*
X-109014Y-21278*
X-109001Y-21261*
X-108989Y-21241*
X-108975Y-21216*
X-108960Y-21188*
X-108949Y-21161*
X-108940Y-21138*
X-108935Y-21118*
X-108933Y-21101*
X-108935Y-21088*
X-108939Y-21077*
X-108947Y-21070*
X-108956Y-21067*
X-108965Y-21066*
X-108974Y-21067*
X-108983Y-21070*
X-108990Y-21075*
X-108998Y-21081*
X-109006Y-21090*
X-109017Y-21096*
X-109036Y-21099*
X-109062*
X-109096Y-21096*
X-109137Y-21090*
X-109186Y-21081*
X-109242Y-21070*
X-109307Y-21054*
X-109375Y-21034*
X-109448Y-21012*
X-109526Y-20987*
X-109609Y-20958*
X-109696Y-20927*
X-109296Y-20761D02*
G01X-109268Y-20748D01*
X-109243Y-20733*
X-109220Y-20718*
X-109198Y-20702*
X-109179Y-20686*
X-109161Y-20670*
X-109145Y-20654*
X-109131Y-20637*
X-109120Y-20621*
X-109112Y-20606*
X-109105Y-20593*
X-109101Y-20580*
X-109098Y-20569*
X-109097Y-20560*
X-109098Y-20552*
X-109101Y-20547*
X-109109Y-20544*
X-109119Y-20542*
X-109133*
X-109151Y-20544*
X-109172Y-20547*
X-109196Y-20552*
X-109225Y-20560*
X-109254Y-20569*
X-109283Y-20580*
X-109313Y-20593*
X-109344Y-20606*
X-109375Y-20621*
X-109406Y-20637*
X-109434Y-20653*
X-109458Y-20667*
X-109477Y-20680*
X-109492Y-20692*
X-109503Y-20701*
X-109509Y-20709*
X-109511Y-20716*
X-109510Y-20720*
X-109505Y-20725*
X-109498Y-20731*
X-109488Y-20737*
X-109475Y-20744*
X-109458Y-20753*
X-109439Y-20761*
X-109418Y-20771*
X-109396Y-20777*
X-109372Y-20778*
X-109348Y-20777*
X-109323Y-20771*
X-109296Y-20761*
X-109796Y-21175D02*
G01X-109794Y-21208D01*
X-109792Y-21239*
Y-21277*
X-109793Y-21321*
X-109794Y-21372*
X-109798Y-21429*
X-109801Y-21492*
X-109807Y-21562*
X-109810Y-21630*
X-109812Y-21688*
X-109813Y-21736*
Y-21773*
X-109812Y-21800*
X-109810Y-21818*
X-109807Y-21824*
X-109804Y-21828*
X-109800Y-21829*
X-109795*
X-109788Y-21827*
X-109781Y-21823*
X-109771Y-21818*
X-109761Y-21811*
X-109751Y-21803*
X-109741Y-21792*
X-109730Y-21779*
X-109719Y-21764*
X-109707Y-21747*
X-109695Y-21728*
X-109682Y-21706*
X-109670Y-21685*
X-109659Y-21664*
X-109651Y-21642*
X-109644Y-21620*
X-109640Y-21597*
X-109637Y-21573*
X-109636Y-21549*
Y-21526*
X-109637Y-21502*
X-109639Y-21478*
X-109640Y-21453*
X-109643Y-21426*
X-109646Y-21400*
X-109649Y-21372*
X-109655Y-21338*
X-109664Y-21294*
X-109673Y-21238*
X-109685Y-21172*
X-109698Y-21094*
X-109712Y-21005*
X-109728Y-20906*
X-109744Y-20803*
X-109759Y-20707*
X-109771Y-20619*
X-109783Y-20539*
X-109792Y-20465*
X-109800Y-20400*
X-109807Y-20342*
X-109811Y-20289*
X-109814Y-20244*
X-109818Y-20207*
X-109822Y-20177*
X-109826Y-20154*
X-109829Y-20139*
X-109833Y-20131*
X-109835*
X-109839Y-20133*
X-109844Y-20137*
X-109851Y-20143*
X-109859Y-20152*
X-109868Y-20164*
X-109879Y-20178*
X-109891Y-20194*
X-109901Y-20210*
X-109910Y-20224*
X-109916Y-20239*
X-109921Y-20252*
X-109924Y-20265*
X-109925Y-20276*
X-109924Y-20296*
X-109919Y-20331*
X-109913Y-20379*
X-109903Y-20442*
X-109891Y-20519*
X-109877Y-20610*
X-109859Y-20716*
X-109843Y-20824*
X-109830Y-20919*
X-109818Y-21002*
X-109809Y-21072*
X-109801Y-21130*
X-109796Y-21175*
X-108851Y-20045D02*
G01X-108835Y-20040D01*
X-108824Y-20033*
X-108812Y-20023*
X-108800Y-20010*
X-108786Y-19994*
X-108773Y-19975*
X-108759Y-19953*
X-108744Y-19928*
X-108803Y-19933*
X-108867Y-19937*
X-108937Y-19940*
X-109011Y-19942*
X-109092Y-19943*
X-109177Y-19942*
X-109268Y-19941*
X-109359*
X-109443Y-19939*
X-109520Y-19937*
X-109590Y-19933*
X-109653Y-19928*
X-109711Y-19922*
X-109761Y-19915*
X-109805Y-19908*
X-109843Y-19902*
X-109875Y-19898*
X-109901Y-19894*
X-109922Y-19891*
X-109936Y-19889*
X-109944*
X-109951*
X-109962Y-19892*
X-109976Y-19895*
X-109993Y-19900*
X-110013Y-19906*
X-110036Y-19913*
X-110063Y-19922*
X-110088Y-19929*
X-110111Y-19936*
X-110129Y-19943*
X-110143Y-19950*
X-110153Y-19956*
X-110159Y-19962*
X-110161Y-19968*
X-110162Y-19975*
X-110160Y-19982*
X-110156Y-19989*
X-110149Y-19995*
X-110140Y-20002*
X-110129Y-20008*
X-110115Y-20013*
X-110094Y-20020*
X-110063Y-20027*
X-110020Y-20032*
X-109965Y-20037*
X-109899Y-20041*
X-109823Y-20044*
X-109735Y-20046*
X-109640Y-20048*
X-109549Y-20050*
X-109461Y-20052*
X-109376Y-20054*
X-109293Y-20056*
X-109214Y-20057*
X-109137Y-20059*
X-109067*
X-109005Y-20058*
X-108953Y-20056*
X-108910Y-20053*
X-108876Y-20050*
X-108851Y-20045*
X-109305Y-19514D02*
G01X-109268Y-19561D01*
X-109227Y-19609*
X-109183Y-19657*
X-109136Y-19705*
X-109085Y-19752*
X-109031Y-19798*
X-108974Y-19844*
X-108914Y-19889*
X-108854Y-19931*
X-108793Y-19972*
X-108731Y-20012*
X-108668Y-20051*
X-108604Y-20088*
X-108540Y-20124*
X-108475Y-20158*
X-108415Y-20189*
X-108363Y-20216*
X-108318Y-20237*
X-108282Y-20254*
X-108253Y-20267*
X-108232Y-20274*
X-108219Y-20276*
X-108211Y-20275*
X-108203Y-20273*
X-108194Y-20270*
X-108185Y-20265*
X-108175Y-20259*
X-108164Y-20252*
X-108153Y-20243*
X-108144Y-20231*
X-108135Y-20218*
X-108126Y-20205*
X-108118Y-20190*
X-108110Y-20174*
X-108101Y-20156*
X-108094Y-20138*
X-108087Y-20120*
X-108083Y-20105*
X-108080Y-20092*
X-108079Y-20080*
X-108080Y-20071*
X-108083Y-20064*
X-108087Y-20059*
X-108093Y-20055*
X-108100Y-20052*
X-108107Y-20051*
X-108114Y-20052*
X-108122Y-20055*
X-108131Y-20059*
X-108140Y-20066*
X-108151Y-20072*
X-108168Y-20074*
X-108192Y-20072*
X-108224Y-20066*
X-108261Y-20057*
X-108305Y-20044*
X-108357Y-20027*
X-108410Y-20007*
X-108465Y-19984*
X-108522Y-19958*
X-108581Y-19930*
X-108642Y-19900*
X-108705Y-19866*
X-108770Y-19830*
X-108835Y-19790*
X-108898Y-19749*
X-108958Y-19707*
X-109017Y-19664*
X-109075Y-19620*
X-109130Y-19574*
X-109183Y-19528*
X-109233Y-19485*
X-109275Y-19449*
X-109311Y-19420*
X-109340Y-19398*
X-109362Y-19384*
X-109378Y-19377*
X-109387*
X-109389Y-19382*
X-109385Y-19395*
X-109375Y-19414*
X-109358Y-19440*
X-109335Y-19474*
X-109305Y-19514*
X-109368Y-19003D02*
G01X-109354Y-18990D01*
X-109338Y-18974*
X-109323Y-18956*
X-109309Y-18937*
X-109297Y-18915*
X-109286Y-18891*
X-109277Y-18866*
X-109268Y-18839*
X-109262Y-18811*
X-109256Y-18785*
X-109251Y-18759*
X-109247Y-18735*
X-109244Y-18712*
X-109243Y-18689*
X-109242Y-18668*
X-109243Y-18645*
X-109245Y-18616*
X-109248Y-18582*
X-109253Y-18543*
X-109259Y-18498*
X-109266Y-18448*
X-109275Y-18393*
X-109285Y-18333*
X-109294Y-18270*
X-109303Y-18203*
X-109313Y-18133*
X-109322Y-18059*
X-109331Y-17981*
X-109341Y-17901*
X-109352Y-17815*
X-109364Y-17725*
X-109377Y-17629*
X-109390Y-17528*
X-109404Y-17421*
X-109418Y-17309*
X-109433Y-17192*
X-109445Y-17079*
X-109456Y-16982*
X-109465Y-16900*
X-109472Y-16832*
X-109478Y-16779*
X-109483Y-16742*
X-109485Y-16720*
X-109487Y-16704*
X-109489Y-16691*
X-109492Y-16680*
X-109495Y-16671*
X-109498Y-16665*
X-109501Y-16662*
X-109505Y-16661*
X-109511Y-16662*
X-109518Y-16665*
X-109525Y-16671*
X-109534Y-16680*
X-109543Y-16691*
X-109553Y-16704*
X-109564Y-16720*
X-109574Y-16734*
X-109583Y-16748*
X-109590Y-16762*
X-109596Y-16775*
X-109600Y-16788*
X-109602Y-16800*
X-109603Y-16811*
X-109602Y-16833*
X-109597Y-16872*
X-109590Y-16927*
X-109580Y-16999*
X-109566Y-17088*
X-109550Y-17194*
X-109531Y-17316*
X-109511Y-17444*
X-109494Y-17565*
X-109477Y-17678*
X-109464Y-17784*
X-109451Y-17883*
X-109441Y-17974*
X-109433Y-18058*
X-109425Y-18136*
X-109420Y-18213*
X-109415Y-18290*
X-109411Y-18365*
X-109409Y-18439*
X-109407Y-18511*
X-109406Y-18583*
X-109407Y-18651*
X-109408Y-18711*
X-109410Y-18763*
X-109413Y-18808*
X-109416Y-18846*
X-109421Y-18876*
X-109426Y-18898*
X-109429Y-18914*
X-109433Y-18928*
X-109435Y-18940*
X-109437Y-18950*
X-109438Y-18959*
X-109439Y-18966*
Y-18970*
Y-18976*
X-109438Y-18982*
X-109437Y-18988*
X-109435Y-18995*
X-109433Y-19002*
X-109429Y-19009*
X-109426Y-19016*
X-109420Y-19022*
X-109412Y-19025*
X-109403Y-19024*
X-109393Y-19020*
X-109381Y-19013*
X-109368Y-19003*
X-109042Y-18389D02*
G01X-109035D01*
X-109027*
X-109019Y-18386*
X-109010Y-18381*
X-109001Y-18374*
X-108990Y-18366*
X-108980Y-18355*
X-108969Y-18344*
X-108961Y-18328*
X-108953Y-18311*
X-108947Y-18292*
X-108942Y-18273*
X-108939Y-18252*
X-108937Y-18229*
Y-18206*
X-108938Y-18177*
X-108943Y-18137*
X-108951Y-18084*
X-108962Y-18019*
X-108977Y-17942*
X-108994Y-17854*
X-109015Y-17753*
X-109038Y-17654*
X-109057Y-17569*
X-109073Y-17496*
X-109085Y-17436*
X-109094Y-17389*
X-109099Y-17354*
X-109100Y-17333*
X-109101Y-17318*
X-109103Y-17307*
X-109108Y-17300*
X-109113Y-17298*
X-109120Y-17299*
X-109129Y-17304*
X-109140Y-17313*
X-109151Y-17327*
X-109161Y-17341*
X-109170Y-17356*
X-109178Y-17372*
X-109186Y-17389*
X-109193Y-17407*
X-109199Y-17425*
X-109202Y-17446*
X-109203Y-17474*
X-109202Y-17506*
X-109199Y-17545*
X-109194Y-17589*
X-109188Y-17639*
X-109179Y-17694*
X-109172Y-17752*
X-109164Y-17811*
X-109157Y-17869*
X-109149Y-17928*
X-109142Y-17988*
X-109134Y-18047*
X-109127Y-18107*
X-109119Y-18162*
X-109112Y-18210*
X-109105Y-18252*
X-109099Y-18286*
X-109092Y-18314*
X-109087Y-18335*
X-109081Y-18350*
X-109075Y-18361*
X-109069Y-18369*
X-109062Y-18377*
X-109056Y-18382*
X-109049Y-18386*
X-109042Y-18389*
X-108676Y-18390D02*
G01X-108669Y-18391D01*
X-108661Y-18389*
X-108653Y-18387*
X-108644Y-18382*
X-108634Y-18376*
X-108624Y-18367*
X-108614Y-18357*
X-108603Y-18344*
X-108594Y-18329*
X-108587Y-18312*
X-108581Y-18293*
X-108576Y-18274*
X-108573Y-18253*
X-108571Y-18230*
X-108570Y-18207*
X-108572Y-18178*
X-108577Y-18137*
X-108585Y-18085*
X-108596Y-18020*
X-108611Y-17944*
X-108628Y-17855*
X-108649Y-17754*
X-108672Y-17655*
X-108691Y-17570*
X-108706Y-17497*
X-108718Y-17437*
X-108727Y-17390*
X-108733Y-17356*
X-108734Y-17334*
X-108735Y-17319*
X-108737Y-17308*
X-108742Y-17302*
X-108747Y-17298*
X-108754Y-17300*
X-108763Y-17305*
X-108774Y-17314*
X-108785Y-17328*
X-108794Y-17342*
X-108804Y-17357*
X-108812Y-17373*
X-108820Y-17390*
X-108827Y-17407*
X-108833Y-17426*
X-108835Y-17447*
X-108837Y-17474*
X-108835Y-17507*
X-108833Y-17546*
X-108828Y-17590*
X-108822Y-17639*
X-108813Y-17695*
X-108805Y-17753*
X-108798Y-17812*
X-108790Y-17870*
X-108783Y-17929*
X-108776Y-17989*
X-108768Y-18048*
X-108761Y-18108*
X-108753Y-18163*
X-108746Y-18211*
X-108739Y-18252*
X-108733Y-18287*
X-108726Y-18315*
X-108720Y-18337*
X-108714Y-18351*
X-108709Y-18361*
X-108703Y-18370*
X-108696Y-18378*
X-108690Y-18383*
X-108683Y-18387*
X-108676Y-18390*
X-108321Y-17992D02*
G01X-108284Y-18039D01*
X-108244Y-18086*
X-108205Y-18130*
X-108169Y-18172*
X-108134Y-18210*
X-108101Y-18245*
X-108071Y-18278*
X-108042Y-18307*
X-108015Y-18333*
X-107991Y-18356*
X-107969Y-18374*
X-107950Y-18388*
X-107935Y-18398*
X-107921Y-18404*
X-107910Y-18406*
X-107902Y-18405*
X-107894Y-18402*
X-107884Y-18396*
X-107874Y-18389*
X-107863Y-18379*
X-107851Y-18367*
X-107838Y-18354*
X-107828Y-18338*
X-107818Y-18322*
X-107809Y-18306*
X-107802Y-18289*
X-107795Y-18272*
X-107790Y-18254*
X-107786Y-18235*
X-107781Y-18218*
X-107778Y-18202*
X-107777Y-18189*
X-107778Y-18178*
X-107781Y-18168*
X-107786Y-18161*
X-107792Y-18157*
X-107798Y-18155*
X-107804*
X-107810Y-18156*
X-107817Y-18157*
X-107824Y-18161*
X-107831Y-18165*
X-107838Y-18170*
X-107848Y-18174*
X-107860Y-18177*
X-107874*
X-107889Y-18175*
X-107905Y-18171*
X-107923Y-18165*
X-107943Y-18157*
X-107970Y-18141*
X-108012Y-18115*
X-108066Y-18077*
X-108135Y-18027*
X-108217Y-17966*
X-108313Y-17893*
X-108422Y-17809*
X-108419Y-17828*
X-108411Y-17852*
X-108397Y-17880*
X-108377Y-17913*
X-108352Y-17950*
X-108321Y-17992*
X-108007Y-17520D02*
G01X-107996Y-17494D01*
X-107985Y-17468*
X-107976Y-17445*
X-107969Y-17424*
X-107963Y-17404*
X-107959Y-17386*
X-107957Y-17370*
X-107956Y-17356*
X-107957Y-17345*
Y-17336*
X-107959Y-17327*
X-107961Y-17320*
X-107963Y-17313*
X-107966Y-17308*
X-107969Y-17303*
X-107974*
X-107981*
X-107990Y-17306*
X-108001Y-17311*
X-108015Y-17318*
X-108031Y-17326*
X-108048Y-17336*
X-108066Y-17349*
X-108084Y-17363*
X-108103Y-17380*
X-108124Y-17398*
X-108146Y-17419*
X-108169Y-17442*
X-108192Y-17468*
X-108216Y-17494*
X-108235Y-17519*
X-108250Y-17541*
X-108259Y-17561*
X-108263Y-17578*
Y-17593*
X-108258Y-17605*
X-108250Y-17616*
X-108240Y-17625*
X-108229Y-17632*
X-108217Y-17637*
X-108204Y-17642*
X-108189Y-17644*
X-108173Y-17645*
X-108158Y-17644*
X-108143Y-17642*
X-108129Y-17640*
X-108115Y-17636*
X-108101Y-17631*
X-108088Y-17626*
X-108074Y-17618*
X-108063Y-17609*
X-108052Y-17598*
X-108040Y-17583*
X-108029Y-17565*
X-108018Y-17544*
X-108007Y-17520*
X-108475Y-17108D02*
G01X-108494Y-17120D01*
X-108517Y-17133*
X-108543Y-17146*
X-108573Y-17158*
X-108607Y-17170*
X-108644Y-17182*
X-108685Y-17194*
X-108731Y-17205*
X-108777Y-17216*
X-108824Y-17228*
X-108870Y-17239*
X-108916Y-17250*
X-108962Y-17261*
X-109007Y-17273*
X-109052Y-17284*
X-109092Y-17298*
X-109125Y-17315*
X-109153Y-17333*
X-109173Y-17354*
X-109187Y-17376*
X-109195Y-17401*
X-109196Y-17428*
X-109072Y-17406*
X-108954Y-17384*
X-108842Y-17363*
X-108736Y-17343*
X-108636Y-17322*
X-108542Y-17303*
X-108455Y-17284*
X-108440Y-17243*
X-108427Y-17207*
X-108418Y-17176*
X-108411Y-17150*
X-108407Y-17129*
Y-17112*
X-108409Y-17100*
X-108414Y-17094*
X-108421Y-17091*
X-108431*
X-108443Y-17094*
X-108458Y-17100*
X-108475Y-17108*
X-108277Y-18317D02*
G01X-108284Y-18307D01*
X-108293Y-18287*
X-108303Y-18250*
X-108314Y-18195*
X-108327Y-18123*
X-108342Y-18034*
X-108358Y-17927*
X-108376Y-17802*
X-108395Y-17676*
X-108412Y-17563*
X-108425Y-17465*
X-108435Y-17379*
X-108442Y-17307*
X-108447Y-17250*
X-108448Y-17205*
X-108540*
X-108504Y-17481*
X-108473Y-17716*
X-108448Y-17911*
X-108428Y-18064*
X-108414Y-18178*
X-108405Y-18250*
X-108402Y-18281*
X-108403Y-18292*
X-108406Y-18303*
X-108410Y-18314*
X-108415Y-18324*
X-108422Y-18334*
X-108431Y-18344*
X-108442Y-18354*
X-108455Y-18361*
X-108477Y-18364*
X-108506Y-18363*
X-108544Y-18359*
X-108589Y-18350*
X-108643Y-18337*
X-108704Y-18320*
X-108768Y-18305*
X-108823Y-18290*
X-108871Y-18278*
X-108910Y-18268*
X-108941Y-18260*
X-108964Y-18253*
X-108980Y-18248*
X-108992Y-18247*
X-109006*
X-109022Y-18249*
X-109040Y-18252*
X-109059Y-18256*
X-109081Y-18261*
X-109105Y-18268*
X-109090Y-18284*
X-109067Y-18303*
X-109034Y-18324*
X-108992Y-18347*
X-108940Y-18373*
X-108879Y-18402*
X-108809Y-18432*
X-108739Y-18461*
X-108678Y-18487*
X-108626Y-18511*
X-108584Y-18533*
X-108551Y-18552*
X-108528Y-18569*
X-108514Y-18583*
X-108503Y-18595*
X-108492Y-18605*
X-108483Y-18614*
X-108473Y-18620*
X-108464Y-18625*
X-108456Y-18628*
X-108448Y-18629*
X-108438Y-18627*
X-108426Y-18620*
X-108413Y-18610*
X-108398Y-18595*
X-108381Y-18576*
X-108363Y-18552*
X-108343Y-18524*
X-108324Y-18494*
X-108307Y-18467*
X-108294Y-18443*
X-108282Y-18422*
X-108274Y-18405*
X-108268Y-18391*
X-108264Y-18379*
X-108263Y-18368*
X-108264Y-18358*
X-108265Y-18347*
X-108268Y-18337*
X-108272Y-18327*
X-108277Y-18317*
X-109890Y-15493D02*
G01X-109912Y-15525D01*
X-109936Y-15558*
X-109961Y-15585*
X-109985Y-15607*
X-110009Y-15623*
X-110033Y-15633*
X-110058Y-15638*
X-110082Y-15637*
X-110105Y-15636*
X-110125*
X-110141Y-15639*
X-110154Y-15642*
X-110164Y-15648*
X-110171Y-15655*
X-110174Y-15663*
Y-15673*
X-110172Y-15685*
X-110166Y-15697*
X-110158Y-15711*
X-110147Y-15727*
X-110132Y-15744*
X-110115Y-15761*
X-110097Y-15778*
X-110077Y-15793*
X-110056Y-15806*
X-110033Y-15818*
X-110007Y-15829*
X-109980Y-15839*
X-109951Y-15847*
X-109922Y-15854*
X-109893Y-15860*
X-109863Y-15866*
X-109832Y-15870*
X-109800Y-15874*
X-109768Y-15878*
X-109735Y-15880*
X-109691Y-15881*
X-109625*
X-109535Y-15879*
X-109423Y-15876*
X-109287Y-15872*
X-109129Y-15867*
X-108947Y-15860*
X-108767Y-15854*
X-108613Y-15850*
X-108486Y-15848*
X-108385Y-15849*
X-108310Y-15853*
X-108261Y-15858*
X-108238Y-15867*
X-108227Y-15877*
X-108217Y-15886*
X-108207Y-15893*
X-108198Y-15899*
X-108189Y-15903*
X-108181Y-15905*
X-108173Y-15906*
X-108164Y-15904*
X-108155Y-15897*
X-108144Y-15885*
X-108132Y-15870*
X-108118Y-15849*
X-108104Y-15824*
X-108087Y-15794*
X-108072Y-15766*
X-108058Y-15740*
X-108046Y-15717*
X-108037Y-15696*
X-108030Y-15678*
X-108025Y-15663*
X-108022Y-15650*
X-108021Y-15641*
Y-15632*
X-108024Y-15623*
X-108027Y-15615*
X-108033Y-15607*
X-108040Y-15598*
X-108048Y-15591*
X-108056Y-15578*
X-108065Y-15552*
X-108075Y-15514*
X-108087Y-15465*
X-108099Y-15403*
X-108112Y-15329*
X-108127Y-15243*
X-108141Y-15155*
X-108153Y-15076*
X-108164Y-15004*
X-108174Y-14940*
X-108182Y-14884*
X-108188Y-14837*
X-108192Y-14797*
X-108198Y-14761*
X-108204Y-14722*
X-108209Y-14683*
X-108215Y-14642*
X-108221Y-14599*
X-108226Y-14554*
X-108232Y-14508*
X-108330*
X-108298Y-14715*
X-108271Y-14896*
X-108247Y-15051*
X-108227Y-15180*
X-108212Y-15283*
X-108200Y-15361*
X-108192Y-15414*
X-108189Y-15450*
X-108187Y-15483*
X-108186Y-15513*
Y-15540*
X-108187Y-15565*
X-108189Y-15586*
X-108192Y-15604*
X-108197Y-15622*
X-108207Y-15637*
X-108222Y-15651*
X-108243Y-15662*
X-108269Y-15671*
X-108300Y-15678*
X-108337Y-15683*
X-108380Y-15687*
X-108431Y-15690*
X-108490Y-15694*
X-108557Y-15698*
X-108631Y-15702*
X-108713Y-15705*
X-108803Y-15709*
X-108892Y-15713*
X-108974Y-15715*
X-109046Y-15718*
X-109111Y-15720*
X-109168Y-15721*
X-109216Y-15722*
X-109255*
X-109293*
X-109333*
X-109377*
X-109424*
X-109474*
X-109527*
X-109583*
X-109638*
X-109685Y-15720*
X-109726Y-15717*
X-109758Y-15714*
X-109784Y-15709*
X-109802Y-15703*
X-109813Y-15696*
X-109820Y-15688*
X-109824Y-15676*
X-109826Y-15659*
Y-15637*
X-109824Y-15611*
X-109820Y-15580*
X-109813Y-15545*
X-109807Y-15510*
X-109802Y-15480*
X-109799Y-15455*
X-109798Y-15436*
X-109799Y-15421*
X-109802Y-15412*
X-109807Y-15407*
X-109815Y-15408*
X-109826Y-15414*
X-109839Y-15426*
X-109854Y-15442*
X-109871Y-15465*
X-109890Y-15493*
X-108542Y-15383D02*
G01X-108555Y-15337D01*
X-108568Y-15285*
X-108581Y-15226*
X-108595Y-15161*
X-108609Y-15090*
X-108624Y-15013*
X-108639Y-14928*
X-108653Y-14838*
X-108667Y-14751*
X-108680Y-14677*
X-108691Y-14616*
X-108700Y-14568*
X-108708Y-14533*
X-108714Y-14512*
X-108719Y-14503*
X-108725Y-14502*
X-108732Y-14504*
X-108740Y-14511*
X-108750Y-14522*
X-108760Y-14538*
X-108772Y-14558*
X-108785Y-14582*
X-108797Y-14606*
X-108807Y-14630*
X-108815Y-14653*
X-108822Y-14675*
X-108827Y-14697*
X-108829Y-14718*
X-108830Y-14739*
X-108829Y-14768*
X-108825Y-14811*
X-108818Y-14869*
X-108809Y-14942*
X-108797Y-15030*
X-108782Y-15133*
X-108765Y-15251*
X-108749Y-15369*
X-108735Y-15472*
X-108722Y-15561*
X-108712Y-15634*
X-108704Y-15692*
X-108697Y-15735*
X-108692Y-15763*
X-108687Y-15782*
X-108680Y-15798*
X-108672Y-15812*
X-108664Y-15822*
X-108654Y-15829*
X-108644Y-15834*
X-108633Y-15835*
X-108622Y-15834*
X-108611Y-15829*
X-108600Y-15821*
X-108588Y-15809*
X-108577Y-15795*
X-108566Y-15778*
X-108555Y-15757*
X-108542Y-15732*
X-108532Y-15708*
X-108524Y-15685*
X-108517Y-15661*
X-108513Y-15638*
X-108510Y-15615*
X-108509Y-15592*
X-108510Y-15567*
X-108513Y-15537*
X-108517Y-15504*
X-108524Y-15467*
X-108532Y-15427*
X-108542Y-15383*
X-108985Y-15377D02*
G01X-108997Y-15330D01*
X-109010Y-15278*
X-109024Y-15220*
X-109038Y-15155*
X-109052Y-15084*
X-109066Y-15006*
X-109081Y-14922*
X-109096Y-14831*
X-109110Y-14744*
X-109122Y-14670*
X-109133Y-14609*
X-109142Y-14561*
X-109150Y-14527*
X-109157Y-14505*
X-109161Y-14497*
X-109167Y-14495*
X-109174Y-14498*
X-109183Y-14505*
X-109192Y-14516*
X-109203Y-14531*
X-109214Y-14552*
X-109227Y-14576*
X-109239Y-14600*
X-109249Y-14623*
X-109258Y-14646*
X-109264Y-14669*
X-109269Y-14691*
X-109272Y-14712*
X-109273Y-14733*
X-109271Y-14761*
X-109267Y-14804*
X-109261Y-14862*
X-109251Y-14935*
X-109239Y-15024*
X-109224Y-15127*
X-109207Y-15245*
X-109191Y-15363*
X-109177Y-15466*
X-109165Y-15554*
X-109155Y-15627*
X-109146Y-15685*
X-109140Y-15728*
X-109135Y-15757*
X-109129Y-15776*
X-109122Y-15792*
X-109114Y-15805*
X-109106Y-15816*
X-109097Y-15823*
X-109087Y-15827*
X-109076Y-15829*
X-109064Y-15827*
X-109053Y-15822*
X-109042Y-15814*
X-109031Y-15803*
X-109020Y-15789*
X-109008Y-15771*
X-108997Y-15750*
X-108985Y-15726*
X-108975Y-15702*
X-108966Y-15678*
X-108959Y-15655*
X-108955Y-15631*
X-108952Y-15609*
X-108951Y-15586*
X-108952Y-15560*
X-108955Y-15530*
X-108959Y-15497*
X-108966Y-15461*
X-108975Y-15421*
X-108985Y-15377*
X-108318Y-14580D02*
G01X-108232D01*
X-108222Y-14545*
X-108214Y-14513*
X-108208Y-14486*
X-108204Y-14463*
X-108202Y-14443*
X-108203Y-14428*
X-108205Y-14417*
X-108211Y-14408*
X-108217Y-14402*
X-108227Y-14399*
X-108238Y-14398*
X-108251Y-14400*
X-108267Y-14404*
X-108284Y-14410*
X-108308Y-14415*
X-108339Y-14420*
X-108376Y-14423*
X-108420Y-14426*
X-108471Y-14428*
X-108529Y-14429*
X-108593*
X-108663*
X-108733Y-14428*
X-108805Y-14425*
X-108877Y-14421*
X-108950Y-14416*
X-109024Y-14410*
X-109098Y-14403*
X-109172Y-14394*
X-109244Y-14383*
X-109313Y-14370*
X-109381Y-14354*
X-109446Y-14336*
X-109509Y-14315*
X-109570Y-14292*
X-109631Y-14265*
X-109688Y-14237*
X-109742Y-14208*
X-109792Y-14178*
X-109840Y-14147*
X-109884Y-14115*
X-109925Y-14082*
X-109962Y-14049*
X-109994Y-14022*
X-110022Y-14000*
X-110046Y-13984*
X-110065Y-13974*
X-110079Y-13969*
X-110089Y-13970*
X-110092Y-13978*
X-110088Y-13992*
X-110079Y-14010*
X-110064Y-14033*
X-110043Y-14062*
X-110016Y-14096*
X-109984Y-14134*
X-109947Y-14176*
X-109907Y-14216*
X-109864Y-14254*
X-109818Y-14290*
X-109769Y-14323*
X-109717Y-14354*
X-109662Y-14383*
X-109603Y-14412*
X-109542Y-14438*
X-109479Y-14461*
X-109415Y-14482*
X-109348Y-14500*
X-109280Y-14515*
X-109209Y-14528*
X-109139Y-14540*
X-109070Y-14550*
X-109003Y-14559*
X-108937Y-14565*
X-108874Y-14570*
X-108811Y-14573*
X-108750Y-14574*
X-108688Y-14576*
X-108622Y-14577*
X-108552Y-14578*
X-108478Y-14579*
X-108400Y-14580*
X-108318*
X-109283Y-12018D02*
G01X-109288Y-12015D01*
X-109296*
X-109303Y-12017*
X-109311Y-12022*
X-109318Y-12031*
X-109326Y-12042*
X-109333Y-12057*
X-109341Y-12074*
X-109348Y-12096*
X-109358Y-12122*
X-109371Y-12152*
X-109387Y-12184*
X-109406Y-12220*
X-109427Y-12260*
X-109452Y-12304*
X-109482Y-12352*
X-109519Y-12407*
X-109563Y-12468*
X-109613Y-12537*
X-109671Y-12612*
X-109735Y-12694*
X-109807Y-12783*
X-109878Y-12869*
X-109939Y-12944*
X-109989Y-13007*
X-110028Y-13060*
X-110057Y-13101*
X-110075Y-13131*
X-110082Y-13150*
X-110083Y-13168*
Y-13194*
X-110082Y-13228*
X-110079Y-13268*
X-110075Y-13315*
X-110069Y-13370*
X-110063Y-13432*
X-110057Y-13493*
X-110051Y-13544*
X-110044Y-13587*
X-110038Y-13620*
X-110031Y-13643*
X-110024Y-13657*
X-110016Y-13662*
X-110007Y-13657*
X-109995Y-13642*
X-109981Y-13617*
X-109966Y-13583*
X-109950Y-13538*
X-109931Y-13483*
X-109912Y-13419*
X-109889Y-13349*
X-109864Y-13277*
X-109835Y-13202*
X-109803Y-13127*
X-109768Y-13049*
X-109730Y-12969*
X-109688Y-12887*
X-109648Y-12805*
X-109607Y-12725*
X-109566Y-12649*
X-109526Y-12576*
X-109486Y-12506*
X-109446Y-12439*
X-109406Y-12376*
X-109370Y-12315*
X-109339Y-12261*
X-109314Y-12213*
X-109294Y-12172*
X-109280Y-12137*
X-109272Y-12109*
X-109268Y-12087*
X-109269Y-12070*
X-109270Y-12054*
X-109272Y-12042*
X-109275Y-12031*
X-109279Y-12024*
X-109283Y-12018*
X-109085Y-12629D02*
G01X-109100Y-12574D01*
X-109114Y-12518*
X-109126Y-12470*
X-109135Y-12427*
X-109143Y-12390*
X-109148Y-12360*
X-109151Y-12336*
X-109153Y-12318*
X-109238*
X-109220Y-12457*
X-109203Y-12578*
X-109189Y-12678*
X-109176Y-12759*
X-109164Y-12820*
X-109154Y-12861*
X-109146Y-12882*
X-109140Y-12892*
X-109134Y-12901*
X-109128Y-12908*
X-109122Y-12914*
X-109114Y-12918*
X-109107Y-12920*
X-109100Y-12921*
X-109093Y-12920*
X-109086Y-12915*
X-109079Y-12908*
X-109072Y-12898*
X-109066Y-12884*
X-109060Y-12868*
X-109054Y-12849*
X-109052Y-12826*
X-109053Y-12797*
X-109056Y-12763*
X-109063Y-12724*
X-109072Y-12679*
X-109085Y-12629*
X-108779Y-12170D02*
G01X-108776Y-12153D01*
Y-12137*
Y-12122*
Y-12109*
Y-12098*
Y-12089*
Y-12080*
Y-12074*
X-108780Y-12071*
X-108786*
X-108795Y-12074*
X-108807Y-12078*
X-108823Y-12085*
X-108841Y-12095*
X-108862Y-12107*
X-108886Y-12120*
X-108912Y-12133*
X-108941Y-12146*
X-108973Y-12159*
X-109008Y-12172*
X-109045Y-12185*
X-109085Y-12198*
X-109125Y-12212*
X-109159Y-12225*
X-109187Y-12239*
X-109208Y-12253*
X-109224Y-12268*
X-109233Y-12282*
X-109236Y-12297*
X-109231Y-12309*
X-109218Y-12317*
X-109196Y-12320*
X-109165Y-12318*
X-109125Y-12312*
X-109077Y-12300*
X-109019Y-12284*
X-108962Y-12268*
X-108912Y-12254*
X-108872Y-12243*
X-108840Y-12233*
X-108817Y-12226*
X-108802Y-12221*
X-108796Y-12218*
X-108792Y-12217*
X-108789Y-12213*
X-108786Y-12206*
X-108783Y-12197*
X-108781Y-12185*
X-108779Y-12170*
X-109054Y-12765D02*
G01X-109070Y-12709D01*
X-109084Y-12655*
X-109096Y-12605*
X-109105Y-12563*
X-109113Y-12526*
X-109118Y-12496*
X-109121Y-12472*
X-109122Y-12454*
X-109207*
X-109190Y-12594*
X-109173Y-12714*
X-109159Y-12815*
X-109145Y-12895*
X-109134Y-12956*
X-109124Y-12997*
X-109116Y-13018*
X-109110Y-13028*
X-109104Y-13037*
X-109098Y-13044*
X-109091Y-13050*
X-109084Y-13054*
X-109077Y-13057*
X-109070*
X-109062Y-13056*
X-109055Y-13052*
X-109048Y-13044*
X-109042Y-13034*
X-109035Y-13020*
X-109029Y-13004*
X-109024Y-12985*
X-109022Y-12962*
Y-12933*
X-109026Y-12899*
X-109032Y-12860*
X-109042Y-12815*
X-109054Y-12765*
X-108618Y-13182D02*
G01X-108613Y-13163D01*
X-108605Y-13145*
X-108600Y-13128*
X-108595Y-13113*
X-108591Y-13099*
X-108588Y-13086*
X-108587Y-13075*
X-108586Y-13065*
X-108587Y-13057*
X-108588Y-13050*
X-108591Y-13042*
X-108595Y-13035*
X-108600Y-13027*
X-108605Y-13020*
X-108613Y-13012*
X-108621Y-13000*
X-108632Y-12974*
X-108646Y-12934*
X-108662Y-12880*
X-108680Y-12813*
X-108701Y-12733*
X-108724Y-12638*
X-108745Y-12540*
X-108763Y-12452*
X-108777Y-12375*
X-108788Y-12307*
X-108796Y-12250*
X-108801Y-12203*
X-108803Y-12166*
X-108894*
X-108851Y-12362*
X-108815Y-12531*
X-108785Y-12672*
X-108763Y-12785*
X-108747Y-12871*
X-108739Y-12929*
X-108737Y-12960*
X-108739Y-12974*
X-108741Y-12987*
X-108744Y-12998*
X-108747Y-13007*
X-108750Y-13015*
X-108753Y-13021*
X-108757Y-13025*
X-108768Y-13027*
X-108789Y-13025*
X-108821Y-13019*
X-108863Y-13008*
X-108916Y-12994*
X-108979Y-12976*
X-109052Y-12953*
Y-13039*
X-108984Y-13085*
X-108925Y-13128*
X-108876Y-13165*
X-108837Y-13199*
X-108807Y-13229*
X-108787Y-13254*
X-108776Y-13275*
X-108773Y-13292*
X-108768Y-13307*
X-108764Y-13319*
X-108759Y-13328*
X-108754Y-13335*
X-108749Y-13339*
X-108744Y-13340*
X-108737Y-13339*
X-108730Y-13336*
X-108722Y-13331*
X-108713Y-13323*
X-108702Y-13313*
X-108690Y-13302*
X-108678Y-13288*
X-108665Y-13271*
X-108654Y-13254*
X-108644Y-13236*
X-108634Y-13218*
X-108626Y-13200*
X-108618Y-13182*
X-109205Y-12661D02*
G01X-109153Y-12675D01*
X-109096Y-12688*
X-109032Y-12699*
X-108959Y-12710*
X-108879Y-12719*
X-108790Y-12728*
X-108693Y-12735*
X-108588Y-12741*
X-108483Y-12746*
X-108382Y-12750*
X-108288Y-12754*
X-108199Y-12757*
X-108115Y-12759*
X-108037Y-12760*
X-107965Y-12761*
X-107955Y-12710*
X-107946Y-12666*
X-107939Y-12630*
X-107933Y-12601*
X-107929Y-12579*
X-107927Y-12565*
X-107926Y-12557*
X-107929Y-12554*
X-107933Y-12553*
X-107940*
X-107948Y-12555*
X-107959Y-12558*
X-107971Y-12563*
X-107985Y-12570*
X-108007Y-12577*
X-108042Y-12583*
X-108091Y-12588*
X-108154Y-12592*
X-108231Y-12594*
X-108321Y-12596*
X-108425*
X-108534Y-12595*
X-108638Y-12592*
X-108736Y-12587*
X-108829Y-12579*
X-108917Y-12570*
X-108998Y-12558*
X-109074Y-12544*
X-109148Y-12526*
X-109221Y-12505*
X-109292Y-12481*
X-109361Y-12455*
X-109429Y-12426*
X-109495Y-12394*
X-109560Y-12360*
X-109620Y-12326*
X-109677Y-12292*
X-109731Y-12258*
X-109781Y-12223*
X-109829Y-12188*
X-109873Y-12153*
X-109914Y-12117*
X-109949Y-12085*
X-109979Y-12057*
X-110005Y-12036*
X-110026Y-12020*
X-110041Y-12010*
X-110052Y-12005*
X-110059Y-12006*
X-110062Y-12013*
Y-12024*
X-110059Y-12039*
X-110051Y-12056*
X-110040Y-12078*
X-110025Y-12102*
X-110006Y-12131*
X-109984Y-12163*
X-109960Y-12194*
X-109933Y-12226*
X-109904Y-12258*
X-109873Y-12290*
X-109839Y-12322*
X-109803Y-12354*
X-109763Y-12387*
X-109722Y-12418*
X-109679Y-12448*
X-109637Y-12476*
X-109592Y-12502*
X-109547Y-12527*
X-109501Y-12550*
X-109453Y-12572*
X-109405Y-12593*
X-109357Y-12612*
X-109307Y-12630*
X-109256Y-12646*
X-109205Y-12661*
X-108374Y-13241D02*
G01X-108366Y-13242D01*
X-108358Y-13241*
X-108350Y-13238*
X-108341Y-13233*
X-108332Y-13226*
X-108322Y-13218*
X-108311Y-13208*
X-108300Y-13196*
X-108292Y-13180*
X-108284Y-13163*
X-108278Y-13144*
X-108274Y-13125*
X-108270Y-13104*
X-108268Y-13081*
Y-13058*
X-108269Y-13029*
X-108274Y-12989*
X-108282Y-12936*
X-108293Y-12871*
X-108308Y-12795*
X-108326Y-12706*
X-108346Y-12605*
X-108369Y-12507*
X-108388Y-12421*
X-108404Y-12348*
X-108416Y-12288*
X-108425Y-12241*
X-108430Y-12207*
X-108431Y-12185*
X-108433Y-12170*
X-108435Y-12159*
X-108439Y-12153*
X-108444Y-12150*
X-108452Y-12151*
X-108461Y-12156*
X-108471Y-12165*
X-108482Y-12179*
X-108492Y-12193*
X-108501Y-12208*
X-108509Y-12224*
X-108517Y-12241*
X-108524Y-12259*
X-108530Y-12277*
X-108533Y-12298*
X-108534Y-12326*
X-108533Y-12359*
X-108530Y-12397*
X-108525Y-12441*
X-108519Y-12491*
X-108510Y-12546*
X-108503Y-12604*
X-108495Y-12663*
X-108488Y-12722*
X-108480Y-12781*
X-108473Y-12840*
X-108465Y-12900*
X-108458Y-12959*
X-108450Y-13014*
X-108443Y-13062*
X-108437Y-13104*
X-108430Y-13138*
X-108424Y-13166*
X-108418Y-13187*
X-108412Y-13202*
X-108406Y-13213*
X-108400Y-13222*
X-108394Y-13229*
X-108387Y-13234*
X-108381Y-13238*
X-108374Y-13241*
X-108950Y-11790D02*
G01X-108914Y-11792D01*
X-108888*
X-108864*
X-108844*
X-108827*
X-108814*
X-108803*
X-108796*
X-108788Y-11788*
X-108775Y-11780*
X-108757Y-11767*
X-108735Y-11750*
X-108708Y-11729*
X-108675Y-11704*
X-108639Y-11674*
X-108854Y-11673*
X-109045Y-11670*
X-109213Y-11665*
X-109357Y-11659*
X-109478Y-11650*
X-109576Y-11640*
X-109649Y-11628*
X-109709Y-11617*
X-109761Y-11608*
X-109804Y-11601*
X-109840Y-11596*
X-109868Y-11592*
X-109887Y-11589*
X-109898Y-11588*
X-109907Y-11589*
X-109918Y-11591*
X-109932Y-11593*
X-109948Y-11597*
X-109966Y-11602*
X-109987Y-11607*
X-110010Y-11615*
X-110033Y-11622*
X-110052Y-11630*
X-110069Y-11637*
X-110082Y-11644*
X-110092Y-11652*
X-110098Y-11659*
X-110102Y-11667*
X-110101Y-11675*
X-110093Y-11683*
X-110080Y-11691*
X-110060Y-11699*
X-110034Y-11708*
X-110002Y-11717*
X-109964Y-11726*
X-109918Y-11733*
X-109861Y-11741*
X-109793Y-11748*
X-109716Y-11754*
X-109627Y-11760*
X-109529Y-11766*
X-109420Y-11772*
X-109311Y-11776*
X-109215Y-11779*
X-109131Y-11782*
X-109059Y-11785*
X-108998Y-11787*
X-108950Y-11790*
X-108916Y-11357D02*
G01X-108980Y-11300D01*
X-109040Y-11246*
X-109091Y-11201*
X-109135Y-11165*
X-109170Y-11138*
X-109198Y-11120*
X-109218Y-11110*
X-109229Y-11109*
X-109234Y-11114*
Y-11123*
X-109229Y-11137*
X-109218Y-11156*
X-109203Y-11179*
X-109183Y-11207*
X-109157Y-11241*
X-109128Y-11277*
X-109098Y-11313*
X-109065Y-11351*
X-109032Y-11389*
X-108996Y-11429*
X-108959Y-11469*
X-108921Y-11509*
X-108878Y-11553*
X-108830Y-11598*
X-108775Y-11644*
X-108714Y-11691*
X-108647Y-11739*
X-108574Y-11788*
X-108494Y-11838*
X-108419Y-11886*
X-108353Y-11927*
X-108298Y-11959*
X-108253Y-11983*
X-108218Y-12000*
X-108194Y-12008*
X-108179*
X-108169Y-12005*
X-108158Y-11998*
X-108145Y-11988*
X-108131Y-11975*
X-108116Y-11959*
X-108099Y-11939*
X-108081Y-11917*
X-108064Y-11895*
X-108050Y-11875*
X-108039Y-11857*
X-108032Y-11841*
X-108027Y-11828*
X-108026Y-11815*
X-108028Y-11805*
X-108035Y-11797*
X-108042Y-11791*
X-108050Y-11789*
X-108059*
X-108070Y-11791*
X-108081Y-11797*
X-108094Y-11805*
X-108109Y-11812*
X-108128Y-11816*
X-108150*
X-108177Y-11812*
X-108207Y-11805*
X-108240Y-11794*
X-108278Y-11779*
X-108318Y-11763*
X-108359Y-11744*
X-108402Y-11723*
X-108446Y-11699*
X-108491Y-11674*
X-108538Y-11645*
X-108586Y-11615*
X-108635Y-11582*
X-108685Y-11546*
X-108739Y-11505*
X-108795Y-11460*
X-108854Y-11411*
X-108916Y-11357*
X-115377Y-67167D02*
G03X-108684Y-67167I3347D01*
Y-67167D02*
G01Y-60081D01*
Y-60081D02*
G03X-115377Y-60081I-3346D01*
Y-60081D02*
G01Y-67167D01*
G54D756*
X-108473Y-22516D02*
G01X-108557Y-22432D01*
X-108641Y-22516*
X-108557Y-22601*
X-108473Y-22516*
X-109485D02*
G01X-109569Y-22432D01*
X-109654Y-22516*
X-109569Y-22601*
X-109485Y-22516*
X-110850Y-59518D02*
G01X-113212D01*
X-110850D02*
G01Y-60530D01*
X-110962Y-60868*
X-111075Y-60980*
X-111299Y-61093*
X-111524*
X-111749Y-60980*
X-111862Y-60868*
X-111974Y-60530*
Y-59518*
Y-60305D02*
G01X-113212Y-61093D01*
X-111637Y-62330D02*
G01X-111749Y-62105D01*
X-111974Y-61880*
X-112312Y-61767*
X-112537*
X-112874Y-61880*
X-113099Y-62105*
X-113212Y-62330*
Y-62667*
X-113099Y-62892*
X-112874Y-63117*
X-112537Y-63230*
X-112312*
X-111974Y-63117*
X-111749Y-62892*
X-111637Y-62667*
Y-62330*
X-110850Y-63905D02*
G01X-113212D01*
X-110850Y-65480D02*
G01X-113212D01*
X-111974Y-63905D02*
G01Y-65480D01*
X-111187Y-67729D02*
G01X-110962Y-67504D01*
X-110850Y-67167*
Y-66717*
X-110962Y-66379*
X-111187Y-66154*
X-111412*
X-111637Y-66267*
X-111749Y-66379*
X-111862Y-66604*
X-112087Y-67279*
X-112199Y-67504*
X-112312Y-67617*
X-112537Y-67729*
X-112874*
X-113099Y-67504*
X-113212Y-67167*
Y-66717*
X-113099Y-66379*
X-112874Y-66154*
G54D757*
X-110338Y-84531D02*
G01X-110408Y-84320D01*
X-110619Y-84179*
X-110971Y-84109*
X-111182*
X-111533Y-84179*
X-111744Y-84320*
X-111814Y-84531*
Y-84671*
X-111744Y-84882*
X-111533Y-85023*
X-111182Y-85093*
X-110971*
X-110619Y-85023*
X-110408Y-84882*
X-110338Y-84671*
Y-84531*
X-110675Y-83336D02*
G01X-110604Y-83477D01*
X-110393Y-83688*
X-111870*
X-108457Y-79200D02*
G01X-108317Y-79059D01*
X-108246Y-78848*
Y-78567*
X-108317Y-78356*
X-108457Y-78215*
X-108598*
X-108739Y-78286*
X-108809Y-78356*
X-108879Y-78497*
X-109020Y-78918*
X-109090Y-79059*
X-109160Y-79129*
X-109301Y-79200*
X-109512*
X-109653Y-79059*
X-109723Y-78848*
Y-78567*
X-109653Y-78356*
X-109512Y-78215*
X-108246Y-79621D02*
G01X-109723D01*
X-108246Y-80043D02*
G01X-109723D01*
X-108246D02*
G01Y-80535D01*
X-108317Y-80746*
X-108457Y-80887*
X-108598Y-80957*
X-108809Y-81027*
X-109160*
X-109371Y-80957*
X-109512Y-80887*
X-109653Y-80746*
X-109723Y-80535*
Y-80043*
X-108246Y-81449D02*
G01X-109723D01*
X-108246D02*
G01Y-82363D01*
X-108949Y-81449D02*
G01Y-82012D01*
X-109723Y-81449D02*
G01Y-82363D01*
X-108739Y-82855D02*
G01X-108809Y-82785D01*
X-108879Y-82855*
X-108809Y-82926*
X-108739Y-82855*
X-109582D02*
G01X-109653Y-82785D01*
X-109723Y-82855*
X-109653Y-82926*
X-109582Y-82855*
X-110356Y-78707D02*
G01X-111832D01*
X-110356Y-78215D02*
G01Y-79200D01*
Y-79621D02*
G01X-111832D01*
X-110356Y-80606D02*
G01X-111832D01*
X-111059Y-79621D02*
G01Y-80606D01*
X-110848Y-81098D02*
G01X-110918Y-81027D01*
X-110988Y-81098*
X-110918Y-81168*
X-110848Y-81098*
X-111691D02*
G01X-111762Y-81027D01*
X-111832Y-81098*
X-111762Y-81168*
X-111691Y-81098*
X-110356Y-82012D02*
G01X-110426Y-81801D01*
X-110637Y-81660*
X-110988Y-81590*
X-111199*
X-111551Y-81660*
X-111762Y-81801*
X-111832Y-82012*
Y-82152*
X-111762Y-82363*
X-111551Y-82504*
X-111199Y-82574*
X-110988*
X-110637Y-82504*
X-110426Y-82363*
X-110356Y-82152*
Y-82012*
X-111691Y-83066D02*
G01X-111762Y-82996D01*
X-111832Y-83066*
X-111762Y-83137*
X-111691Y-83066*
X-110356Y-85738D02*
G01X-111832D01*
X-110356D02*
G01X-111832Y-86300D01*
X-110356Y-86863D02*
G01X-111832Y-86300D01*
X-110356Y-86863D02*
G01X-111832D01*
X-110356Y-87285D02*
G01X-111832D01*
X-110356D02*
G01X-111832Y-87847D01*
X-110356Y-88409D02*
G01X-111832Y-87847D01*
X-110356Y-88409D02*
G01X-111832D01*
X-108502Y-23659D02*
G01X-109979D01*
X-108502D02*
G01Y-24573D01*
X-109205Y-23659D02*
G01Y-24222D01*
X-108502Y-25417D02*
G01X-108573Y-25276D01*
X-108713Y-25136*
X-108854Y-25065*
X-109065Y-24995*
X-109416*
X-109627Y-25065*
X-109768Y-25136*
X-109908Y-25276*
X-109979Y-25417*
Y-25698*
X-109908Y-25839*
X-109768Y-25979*
X-109627Y-26049*
X-109416Y-26120*
X-109065*
X-108854Y-26049*
X-108713Y-25979*
X-108573Y-25839*
X-108502Y-25698*
Y-25417*
Y-26542D02*
G01X-109979Y-27526D01*
X-108502D02*
G01X-109979Y-26542D01*
X-108854Y-29002D02*
G01X-108713Y-28932D01*
X-108573Y-28791*
X-108502Y-28651*
Y-28370*
X-108573Y-28229*
X-108713Y-28088*
X-108854Y-28018*
X-109065Y-27948*
X-109416*
X-109627Y-28018*
X-109768Y-28088*
X-109908Y-28229*
X-109979Y-28370*
Y-28651*
X-109908Y-28791*
X-109768Y-28932*
X-109627Y-29002*
X-108502Y-29846D02*
G01X-108573Y-29705D01*
X-108713Y-29565*
X-108854Y-29494*
X-109065Y-29424*
X-109416*
X-109627Y-29494*
X-109768Y-29565*
X-109908Y-29705*
X-109979Y-29846*
Y-30127*
X-109908Y-30268*
X-109768Y-30408*
X-109627Y-30479*
X-109416Y-30549*
X-109065*
X-108854Y-30479*
X-108713Y-30408*
X-108573Y-30268*
X-108502Y-30127*
Y-29846*
Y-30971D02*
G01X-109979D01*
X-108502D02*
G01X-109979Y-31955D01*
X-108502D02*
G01X-109979D01*
X-108502Y-32377D02*
G01X-109979D01*
X-108502D02*
G01X-109979Y-33361D01*
X-108502D02*
G01X-109979D01*
X-108854Y-36244D02*
G01X-108713Y-36173D01*
X-108573Y-36033*
X-108502Y-35892*
Y-35611*
X-108573Y-35470*
X-108713Y-35330*
X-108854Y-35259*
X-109065Y-35189*
X-109416*
X-109627Y-35259*
X-109768Y-35330*
X-109908Y-35470*
X-109979Y-35611*
Y-35892*
X-109908Y-36033*
X-109768Y-36173*
X-109627Y-36244*
X-108502Y-36665D02*
G01X-109979D01*
X-108502D02*
G01Y-37298D01*
X-108573Y-37509*
X-108643Y-37579*
X-108783Y-37650*
X-108994*
X-109135Y-37579*
X-109205Y-37509*
X-109276Y-37298*
Y-36665*
X-108502Y-38071D02*
G01X-109979D01*
X-108502D02*
G01Y-38985D01*
X-109205Y-38071D02*
G01Y-38634D01*
X-109979Y-38071D02*
G01Y-38985D01*
X-108502Y-39407D02*
G01X-109979D01*
X-110578Y-11667D02*
G01X-112054D01*
X-110578D02*
G01Y-12300D01*
X-110648Y-12511*
X-110718Y-12581*
X-110859Y-12652*
X-111070*
X-111210Y-12581*
X-111281Y-12511*
X-111351Y-12300*
Y-11667*
X-110929Y-14128D02*
G01X-110788Y-14058D01*
X-110648Y-13917*
X-110578Y-13776*
Y-13495*
X-110648Y-13355*
X-110788Y-13214*
X-110929Y-13144*
X-111140Y-13073*
X-111492*
X-111702Y-13144*
X-111843Y-13214*
X-111984Y-13355*
X-112054Y-13495*
Y-13776*
X-111984Y-13917*
X-111843Y-14058*
X-111702Y-14128*
X-110578Y-14550D02*
G01X-112054D01*
X-110578D02*
G01Y-15182D01*
X-110648Y-15393*
X-110718Y-15464*
X-110859Y-15534*
X-110999*
X-111140Y-15464*
X-111210Y-15393*
X-111281Y-15182*
Y-14550D02*
G01Y-15182D01*
X-111351Y-15393*
X-111421Y-15464*
X-111562Y-15534*
X-111773*
X-111913Y-15464*
X-111984Y-15393*
X-112054Y-15182*
Y-14550*
X-110578Y-16518D02*
G01X-112054Y-15956D01*
X-110578Y-16518D02*
G01X-112054Y-17081D01*
X-111562Y-16167D02*
G01Y-16870D01*
X-110578Y-18909D02*
G01X-112054D01*
X-110578D02*
G01Y-19541D01*
X-110648Y-19752*
X-110718Y-19823*
X-110859Y-19893*
X-111070*
X-111210Y-19823*
X-111281Y-19752*
X-111351Y-19541*
Y-18909*
X-110578Y-21158D02*
G01X-112124Y-20315D01*
X-110578Y-22002D02*
G01X-112054D01*
X-110578D02*
G01X-112054Y-22986D01*
X-110578D02*
G01X-112054D01*
X-111070Y-23478D02*
G01X-111140Y-23408D01*
X-111210Y-23478*
X-111140Y-23549*
X-111070Y-23478*
X-111913D02*
G01X-111984Y-23408D01*
X-112054Y-23478*
X-111984Y-23549*
X-111913Y-23478*
X-112687Y-11667D02*
G01X-114163D01*
X-112687D02*
G01Y-12300D01*
X-112757Y-12511*
X-112827Y-12581*
X-112968Y-12652*
X-113179*
X-113319Y-12581*
X-113390Y-12511*
X-113460Y-12300*
Y-11667*
X-113038Y-14128D02*
G01X-112898Y-14058D01*
X-112757Y-13917*
X-112687Y-13776*
Y-13495*
X-112757Y-13355*
X-112898Y-13214*
X-113038Y-13144*
X-113249Y-13073*
X-113601*
X-113812Y-13144*
X-113952Y-13214*
X-114093Y-13355*
X-114163Y-13495*
Y-13776*
X-114093Y-13917*
X-113952Y-14058*
X-113812Y-14128*
X-112687Y-14550D02*
G01X-114163D01*
X-112687D02*
G01Y-15182D01*
X-112757Y-15393*
X-112827Y-15464*
X-112968Y-15534*
X-113109*
X-113249Y-15464*
X-113319Y-15393*
X-113390Y-15182*
Y-14550D02*
G01Y-15182D01*
X-113460Y-15393*
X-113530Y-15464*
X-113671Y-15534*
X-113882*
X-114022Y-15464*
X-114093Y-15393*
X-114163Y-15182*
Y-14550*
X-112687Y-17362D02*
G01X-114163D01*
X-112687D02*
G01Y-17995D01*
X-112757Y-18206*
X-112827Y-18276*
X-112968Y-18346*
X-113179*
X-113319Y-18276*
X-113390Y-18206*
X-113460Y-17995*
Y-17362*
X-112687Y-19612D02*
G01X-114233Y-18768D01*
X-112687Y-20455D02*
G01X-114163D01*
X-112687D02*
G01X-114163Y-21439D01*
X-112687D02*
G01X-114163D01*
X-113179Y-21932D02*
G01X-113249Y-21861D01*
X-113319Y-21932*
X-113249Y-22002*
X-113179Y-21932*
X-114022D02*
G01X-114093Y-21861D01*
X-114163Y-21932*
X-114093Y-22002*
X-114022Y-21932*
X-114796Y-11667D02*
G01X-116272D01*
X-114796D02*
G01Y-12300D01*
X-114866Y-12511*
X-114936Y-12581*
X-115077Y-12652*
X-115288*
X-115429Y-12581*
X-115499Y-12511*
X-115569Y-12300*
Y-11667*
X-115147Y-14128D02*
G01X-115007Y-14058D01*
X-114866Y-13917*
X-114796Y-13776*
Y-13495*
X-114866Y-13355*
X-115007Y-13214*
X-115147Y-13144*
X-115358Y-13073*
X-115710*
X-115921Y-13144*
X-116061Y-13214*
X-116202Y-13355*
X-116272Y-13495*
Y-13776*
X-116202Y-13917*
X-116061Y-14058*
X-115921Y-14128*
X-114796Y-14550D02*
G01X-116272D01*
X-114796D02*
G01Y-15182D01*
X-114866Y-15393*
X-114936Y-15464*
X-115077Y-15534*
X-115218*
X-115358Y-15464*
X-115429Y-15393*
X-115499Y-15182*
Y-14550D02*
G01Y-15182D01*
X-115569Y-15393*
X-115639Y-15464*
X-115780Y-15534*
X-115991*
X-116132Y-15464*
X-116202Y-15393*
X-116272Y-15182*
Y-14550*
X-114796Y-17362D02*
G01X-116272D01*
X-114796D02*
G01Y-17995D01*
X-114866Y-18206*
X-114936Y-18276*
X-115077Y-18346*
X-115218*
X-115358Y-18276*
X-115429Y-18206*
X-115499Y-17995*
Y-17362*
Y-17854D02*
G01X-116272Y-18346D01*
X-114796Y-18768D02*
G01X-116272D01*
X-114796D02*
G01Y-19682D01*
X-115499Y-18768D02*
G01Y-19330D01*
X-116272Y-18768D02*
G01Y-19682D01*
X-114796Y-20104D02*
G01X-116272Y-20666D01*
X-114796Y-21229D02*
G01X-116272Y-20666D01*
X-115288Y-21721D02*
G01X-115358Y-21650D01*
X-115429Y-21721*
X-115358Y-21791*
X-115288Y-21721*
X-116132D02*
G01X-116202Y-21650D01*
X-116272Y-21721*
X-116202Y-21791*
X-116132Y-21721*
X-115007Y-28892D02*
G01X-114866Y-28751D01*
X-114796Y-28540*
Y-28259*
X-114866Y-28048*
X-115007Y-27907*
X-115147*
X-115288Y-27978*
X-115358Y-28048*
X-115429Y-28189*
X-115569Y-28610*
X-115639Y-28751*
X-115710Y-28821*
X-115850Y-28892*
X-116061*
X-116202Y-28751*
X-116272Y-28540*
Y-28259*
X-116202Y-28048*
X-116061Y-27907*
X-114796Y-29524D02*
G01X-115991D01*
X-116202Y-29595*
X-116272Y-29735*
Y-29876*
X-115288Y-29314D02*
G01Y-29806D01*
X-115710Y-30298D02*
G01Y-31141D01*
X-115569*
X-115429Y-31071*
X-115358Y-31001*
X-115288Y-30860*
Y-30649*
X-115358Y-30509*
X-115499Y-30368*
X-115710Y-30298*
X-115850*
X-116061Y-30368*
X-116202Y-30509*
X-116272Y-30649*
Y-30860*
X-116202Y-31001*
X-116061Y-31141*
X-115288Y-31563D02*
G01X-116272D01*
X-115569D02*
G01X-115358Y-31774D01*
X-115288Y-31915*
Y-32126*
X-115358Y-32266*
X-115569Y-32337*
X-116272*
X-115499Y-33602D02*
G01X-115358Y-33461D01*
X-115288Y-33321*
Y-33110*
X-115358Y-32969*
X-115499Y-32829*
X-115710Y-32758*
X-115850*
X-116061Y-32829*
X-116202Y-32969*
X-116272Y-33110*
Y-33321*
X-116202Y-33461*
X-116061Y-33602*
X-114796Y-34024D02*
G01X-114866Y-34094D01*
X-114796Y-34164*
X-114725Y-34094*
X-114796Y-34024*
X-115288Y-34094D02*
G01X-116272D01*
X-114796Y-34586D02*
G01X-116272D01*
X-114796Y-36414D02*
G01X-116272D01*
X-114796D02*
G01Y-37047D01*
X-114866Y-37258*
X-114936Y-37328*
X-115077Y-37398*
X-115218*
X-115358Y-37328*
X-115429Y-37258*
X-115499Y-37047*
Y-36414*
Y-36906D02*
G01X-116272Y-37398D01*
X-114796Y-37820D02*
G01X-116272D01*
X-114796D02*
G01Y-38734D01*
X-115499Y-37820D02*
G01Y-38383D01*
X-116272Y-37820D02*
G01Y-38734D01*
X-114796Y-39156D02*
G01X-116272Y-39718D01*
X-114796Y-40281D02*
G01X-116272Y-39718D01*
X-115288Y-40773D02*
G01X-115358Y-40703D01*
X-115429Y-40773*
X-115358Y-40843*
X-115288Y-40773*
X-116132D02*
G01X-116202Y-40703D01*
X-116272Y-40773*
X-116202Y-40843*
X-116132Y-40773*
G54D957*
X-110735Y-35518D02*
G01X-110805Y-35307D01*
X-111016Y-35167*
X-111368Y-35096*
X-111579*
X-111930Y-35167*
X-112141Y-35307*
X-112211Y-35518*
Y-35659*
X-112141Y-35870*
X-111930Y-36010*
X-111579Y-36080*
X-111368*
X-111016Y-36010*
X-110805Y-35870*
X-110735Y-35659*
Y-35518*
X-111016Y-34323D02*
G01X-110946Y-34463D01*
X-110735Y-34674*
X-112211*
X-110735Y-32917D02*
G01Y-33901D01*
Y-33409D02*
G01X-112211D01*
X-110735Y-31651D02*
G01Y-32425D01*
X-111298Y-32003*
Y-32214*
X-111368Y-32354*
X-111438Y-32425*
X-111649Y-32495*
X-111790*
X-112001Y-32425*
X-112141Y-32284*
X-112211Y-32073*
Y-31862*
X-112141Y-31651*
X-112071Y-31581*
X-111930Y-31511*
X-110735Y-30948D02*
G01Y-30245D01*
X-111368Y-30175*
X-111298Y-30245*
X-111227Y-30456*
Y-30667*
X-111298Y-30878*
X-111438Y-31019*
X-111649Y-31089*
X-111790*
X-112001Y-30948*
X-112141Y-30808*
X-112211Y-30597*
Y-30386*
X-112141Y-30175*
X-112071Y-30105*
X-111930Y-30034*
X-111016Y-29261D02*
G01X-110946Y-29402D01*
X-110735Y-29613*
X-112211*
X-111087Y-28839D02*
G01X-110946Y-28769D01*
X-110805Y-28628*
X-110735Y-28488*
Y-28206*
X-110805Y-28066*
X-110946Y-27925*
X-111087Y-27855*
X-111298Y-27785*
X-111649*
X-111860Y-27855*
X-112001Y-27925*
X-112141Y-28066*
X-112211Y-28206*
Y-28488*
X-112141Y-28628*
X-112001Y-28769*
X-111860Y-28839*
X-110735Y-26800D02*
G01X-110805Y-26589D01*
X-111016Y-26449*
X-111368Y-26379*
X-111579*
X-111930Y-26449*
X-112141Y-26589*
X-112211Y-26800*
Y-26941*
X-112141Y-27152*
X-111930Y-27292*
X-111579Y-27363*
X-111368*
X-111016Y-27292*
X-110805Y-27152*
X-110735Y-26941*
Y-26800*
X-111016Y-25605D02*
G01X-110946Y-25746D01*
X-110735Y-25957*
X-112211*
X-110735Y-24199D02*
G01X-111790D01*
X-112001Y-24269*
X-112141Y-24410*
X-112211Y-24621*
Y-24762*
X-112141Y-24972*
X-112001Y-25113*
X-111790Y-25183*
X-110735*
X-112756Y-34977D02*
G01X-112826Y-34766D01*
X-113037Y-34626*
X-113388Y-34555*
X-113599*
X-113951Y-34626*
X-114162Y-34766*
X-114232Y-34977*
Y-35118*
X-114162Y-35329*
X-113951Y-35469*
X-113599Y-35540*
X-113388*
X-113037Y-35469*
X-112826Y-35329*
X-112756Y-35118*
Y-34977*
X-114091Y-34063D02*
G01X-114162Y-33993D01*
X-114232Y-34063*
X-114162Y-34133*
X-114091Y-34063*
X-113248Y-33571D02*
G01X-113459Y-33501D01*
X-113599Y-33360*
X-113670Y-33149*
Y-33079*
X-113599Y-32868*
X-113459Y-32727*
X-113248Y-32657*
X-113177*
X-112967Y-32727*
X-112826Y-32868*
X-112756Y-33079*
Y-33149*
X-112826Y-33360*
X-112967Y-33501*
X-113248Y-33571*
X-113599*
X-113951Y-33501*
X-114162Y-33360*
X-114232Y-33149*
Y-33009*
X-114162Y-32798*
X-114021Y-32727*
X-113248Y-32235D02*
G01X-113459Y-32165D01*
X-113599Y-32024*
X-113670Y-31813*
Y-31743*
X-113599Y-31532*
X-113459Y-31392*
X-113248Y-31321*
X-113177*
X-112967Y-31392*
X-112826Y-31532*
X-112756Y-31743*
Y-31813*
X-112826Y-32024*
X-112967Y-32165*
X-113248Y-32235*
X-113599*
X-113951Y-32165*
X-114162Y-32024*
X-114232Y-31813*
Y-31673*
X-114162Y-31462*
X-114021Y-31392*
X-112756Y-30056D02*
G01Y-30829D01*
X-113318Y-30407*
Y-30618*
X-113388Y-30759*
X-113459Y-30829*
X-113670Y-30899*
X-113810*
X-114021Y-30829*
X-114162Y-30689*
X-114232Y-30478*
Y-30267*
X-114162Y-30056*
X-114091Y-29986*
X-113951Y-29915*
X-112756Y-28650D02*
G01Y-29423D01*
X-113318Y-29001*
Y-29212*
X-113388Y-29353*
X-113459Y-29423*
X-113670Y-29493*
X-113810*
X-114021Y-29423*
X-114162Y-29282*
X-114232Y-29072*
Y-28861*
X-114162Y-28650*
X-114091Y-28579*
X-113951Y-28509*
X-112756Y-27525D02*
G01X-112826Y-27314D01*
X-113037Y-27173*
X-113388Y-27103*
X-113599*
X-113951Y-27173*
X-114162Y-27314*
X-114232Y-27525*
Y-27666*
X-114162Y-27876*
X-113951Y-28017*
X-113599Y-28087*
X-113388*
X-113037Y-28017*
X-112826Y-27876*
X-112756Y-27666*
Y-27525*
X-114091Y-26611D02*
G01X-114162Y-26541D01*
X-114232Y-26611*
X-114162Y-26681*
X-114091Y-26611*
X-112756Y-25486D02*
G01X-112826Y-25275D01*
X-112967Y-25205*
X-113107*
X-113248Y-25275*
X-113318Y-25416*
X-113388Y-25697*
X-113459Y-25908*
X-113599Y-26049*
X-113740Y-26119*
X-113951*
X-114091Y-26049*
X-114162Y-25978*
X-114232Y-25767*
Y-25486*
X-114162Y-25275*
X-114091Y-25205*
X-113951Y-25135*
X-113740*
X-113599Y-25205*
X-113459Y-25345*
X-113388Y-25556*
X-113318Y-25838*
X-113248Y-25978*
X-113107Y-26049*
X-112967*
X-112826Y-25978*
X-112756Y-25767*
Y-25486*
Y-24150D02*
G01X-112826Y-23939D01*
X-113037Y-23799*
X-113388Y-23729*
X-113599*
X-113951Y-23799*
X-114162Y-23939*
X-114232Y-24150*
Y-24291*
X-114162Y-24502*
X-113951Y-24642*
X-113599Y-24713*
X-113388*
X-113037Y-24642*
X-112826Y-24502*
X-112756Y-24291*
Y-24150*
Y-22463D02*
G01Y-23236D01*
X-113318Y-22815*
Y-23025*
X-113388Y-23166*
X-113459Y-23236*
X-113670Y-23307*
X-113810*
X-114021Y-23236*
X-114162Y-23096*
X-114232Y-22885*
Y-22674*
X-114162Y-22463*
X-114091Y-22393*
X-113951Y-22322*
X-114828Y-22688D02*
G01X-114898Y-22477D01*
X-115109Y-22336*
X-115461Y-22266*
X-115671*
X-116023Y-22336*
X-116234Y-22477*
X-116304Y-22688*
Y-22828*
X-116234Y-23039*
X-116023Y-23180*
X-115671Y-23250*
X-115461*
X-115109Y-23180*
X-114898Y-23039*
X-114828Y-22828*
Y-22688*
X-115855Y-46967D02*
G01Y-47670D01*
X-114871Y-47319D02*
G01X-116347Y-47881D01*
X-114871Y-47319D02*
G01X-116347Y-46756D01*
X-115715Y-45069D02*
G01Y-46334D01*
X-114871Y-41835D02*
G01X-114941Y-41624D01*
X-115152Y-41483*
X-115504Y-41413*
X-115715*
X-116066Y-41483*
X-116277Y-41624*
X-116347Y-41835*
Y-41976*
X-116277Y-42186*
X-116066Y-42327*
X-115715Y-42397*
X-115504*
X-115152Y-42327*
X-114941Y-42186*
X-114871Y-41976*
Y-41835*
X-115303Y-93643D02*
G01X-115162Y-93503D01*
X-115092Y-93292*
Y-93010*
X-115162Y-92800*
X-115303Y-92659*
X-115443*
X-115584Y-92729*
X-115654Y-92800*
X-115725Y-92940*
X-115865Y-93362*
X-115935Y-93503*
X-116006Y-93573*
X-116146Y-93643*
X-116357*
X-116498Y-93503*
X-116568Y-93292*
Y-93010*
X-116498Y-92800*
X-116357Y-92659*
X-115303Y-92237D02*
G01X-115162Y-92097D01*
X-115092Y-91886*
Y-91604*
X-115162Y-91394*
X-115303Y-91253*
X-115443*
X-115584Y-91323*
X-115654Y-91394*
X-115725Y-91534*
X-115865Y-91956*
X-115935Y-92097*
X-116006Y-92167*
X-116146Y-92237*
X-116357*
X-116498Y-92097*
X-116568Y-91886*
Y-91604*
X-116498Y-91394*
X-116357Y-91253*
X-115443Y-89917D02*
G01X-115373D01*
X-115232Y-89987*
X-115162Y-90058*
X-115092Y-90198*
Y-90480*
X-115162Y-90620*
X-115232Y-90690*
X-115373Y-90761*
X-115514*
X-115654Y-90690*
X-115865Y-90550*
X-116568Y-89847*
Y-90831*
X-115092Y-88863D02*
G01X-115162Y-88652D01*
X-115373Y-88511*
X-115725Y-88441*
X-115935*
X-116287Y-88511*
X-116498Y-88652*
X-116568Y-88863*
Y-89003*
X-116498Y-89214*
X-116287Y-89355*
X-115935Y-89425*
X-115725*
X-115373Y-89355*
X-115162Y-89214*
X-115092Y-89003*
Y-88863*
X-115373Y-87667D02*
G01X-115303Y-87808D01*
X-115092Y-88019*
X-116568*
X-115092Y-86261D02*
G01Y-87246D01*
Y-86753D02*
G01X-116568D01*
X-115092Y-84855D02*
G01Y-85488D01*
X-115162Y-85699*
X-115232Y-85769*
X-115373Y-85840*
X-115584*
X-115725Y-85769*
X-115795Y-85699*
X-115865Y-85488*
Y-84855*
X-115092D02*
G01X-116568D01*
X-115795Y-83449D02*
G01Y-84433D01*
X-115092D02*
G01X-116568D01*
X-115092Y-83449D02*
G01X-116568D01*
X-116428Y-82957D02*
G01X-116498Y-82887D01*
X-116568Y-82957*
X-116498Y-83027*
X-116428Y-82957*
X-115584D02*
G01X-115654Y-82887D01*
X-115725Y-82957*
X-115654Y-83027*
X-115584Y-82957*
X-115092Y-82465D02*
G01X-116568D01*
X-115092Y-81481D02*
G01X-116568Y-82465D01*
X-115092Y-81481D02*
G01X-116568D01*
X-115092Y-80637D02*
G01X-116639Y-79793D01*
X-115092Y-78387D02*
G01Y-79020D01*
X-115162Y-79231*
X-115232Y-79301*
X-115373Y-79372*
X-115584*
X-115725Y-79301*
X-115795Y-79231*
X-115865Y-79020*
Y-78387*
X-115092D02*
G01X-116568D01*
X-114318Y-84152D02*
G01X-114389Y-84082D01*
X-114459Y-84152*
X-114389Y-84223*
X-114318Y-84152*
X-113475D02*
G01X-113545Y-84082D01*
X-113615Y-84152*
X-113545Y-84223*
X-113475Y-84152*
X-114459Y-82746D02*
G01Y-83660D01*
X-113686Y-82746D02*
G01Y-83309D01*
X-112983Y-82746D02*
G01Y-83660D01*
Y-82746D02*
G01X-114459D01*
X-112983Y-81340D02*
G01Y-82324D01*
Y-81832D02*
G01X-114459D01*
X-113967Y-80004D02*
G01Y-80707D01*
X-112983Y-80356D02*
G01X-114459Y-80918D01*
X-112983Y-80356D02*
G01X-114459Y-79793D01*
X-112983Y-78387D02*
G01Y-78879D01*
X-113053Y-79090*
X-113194Y-79231*
X-113334Y-79301*
X-113545Y-79372*
X-113897*
X-114108Y-79301*
X-114248Y-79231*
X-114389Y-79090*
X-114459Y-78879*
Y-78387*
X-112983D02*
G01X-114459D01*
X-108251Y-86959D02*
G01Y-87943D01*
Y-87451D02*
G01X-109727D01*
X-108251Y-85834D02*
G01X-108321Y-85693D01*
X-108462Y-85553*
X-108602Y-85482*
X-108813Y-85412*
X-109165*
X-109376Y-85482*
X-109516Y-85553*
X-109657Y-85693*
X-109727Y-85834*
Y-86115*
X-109657Y-86256*
X-109516Y-86396*
X-109376Y-86467*
X-109165Y-86537*
X-108813*
X-108602Y-86467*
X-108462Y-86396*
X-108321Y-86256*
X-108251Y-86115*
Y-85834*
X-108954Y-84006D02*
G01Y-84639D01*
X-109024Y-84850*
X-109095Y-84920*
X-109235Y-84990*
X-109446*
X-109587Y-84920*
X-109657Y-84850*
X-109727Y-84639*
Y-84006*
X-108251D02*
G01Y-84639D01*
X-108321Y-84850*
X-108392Y-84920*
X-108532Y-84990*
X-108673*
X-108813Y-84920*
X-108884Y-84850*
X-108954Y-84639*
X-108251Y-84006D02*
G01X-109727D01*
G54D959*
X-115461Y-93930D02*
G01X-115391D01*
X-115250Y-94001*
X-115180Y-94071*
X-115109Y-94212*
Y-94493*
X-115180Y-94633*
X-115250Y-94704*
X-115391Y-94774*
X-115531*
X-115672Y-94704*
X-115883Y-94563*
X-116586Y-93860*
Y-94844*
X-115109Y-95688D02*
G01X-115180Y-95477D01*
X-115391Y-95336*
X-115742Y-95266*
X-115953*
X-116305Y-95336*
X-116516Y-95477*
X-116586Y-95688*
Y-95829*
X-116516Y-96039*
X-116305Y-96180*
X-115953Y-96250*
X-115742*
X-115391Y-96180*
X-115180Y-96039*
X-115109Y-95829*
Y-95688*
Y-97094D02*
G01X-115180Y-96883D01*
X-115391Y-96742*
X-115742Y-96672*
X-115953*
X-116305Y-96742*
X-116516Y-96883*
X-116586Y-97094*
Y-97235*
X-116516Y-97446*
X-116305Y-97586*
X-115953Y-97656*
X-115742*
X-115391Y-97586*
X-115180Y-97446*
X-115109Y-97235*
Y-97094*
Y-98781D02*
G01X-116094Y-98078D01*
Y-99133*
X-115109Y-98781D02*
G01X-116586D01*
X-115109Y-99976D02*
G01X-115180Y-99766D01*
X-115391Y-99625*
X-115742Y-99555*
X-115953*
X-116305Y-99625*
X-116516Y-99766*
X-116586Y-99976*
Y-100117*
X-116516Y-100328*
X-116305Y-100469*
X-115953Y-100539*
X-115742*
X-115391Y-100469*
X-115180Y-100328*
X-115109Y-100117*
Y-99976*
Y-101664D02*
G01X-116094Y-100961D01*
Y-102015*
X-115109Y-101664D02*
G01X-116586D01*
X-115109Y-102578D02*
G01Y-103351D01*
X-115672Y-102929*
Y-103140*
X-115742Y-103281*
X-115813Y-103351*
X-116023Y-103421*
X-116164*
X-116375Y-103351*
X-116516Y-103210*
X-116586Y-103000*
Y-102789*
X-116516Y-102578*
X-116445Y-102507*
X-116305Y-102437*
X-113236Y-84514D02*
G01X-113166D01*
X-113026Y-84585*
X-112955Y-84655*
X-112885Y-84795*
Y-85077*
X-112955Y-85217*
X-113026Y-85288*
X-113166Y-85358*
X-113307*
X-113447Y-85288*
X-113658Y-85147*
X-114361Y-84444*
Y-85428*
X-112885Y-86272D02*
G01X-112955Y-86061D01*
X-113166Y-85920*
X-113518Y-85850*
X-113729*
X-114080Y-85920*
X-114291Y-86061*
X-114361Y-86272*
Y-86412*
X-114291Y-86623*
X-114080Y-86764*
X-113729Y-86834*
X-113518*
X-113166Y-86764*
X-112955Y-86623*
X-112885Y-86412*
Y-86272*
X-113236Y-87326D02*
G01X-113166D01*
X-113026Y-87397*
X-112955Y-87467*
X-112885Y-87608*
Y-87889*
X-112955Y-88029*
X-113026Y-88100*
X-113166Y-88170*
X-113307*
X-113447Y-88100*
X-113658Y-87959*
X-114361Y-87256*
Y-88240*
X-112885Y-89084D02*
G01X-112955Y-88873D01*
X-113166Y-88732*
X-113518Y-88662*
X-113729*
X-114080Y-88732*
X-114291Y-88873*
X-114361Y-89084*
Y-89225*
X-114291Y-89435*
X-114080Y-89576*
X-113729Y-89646*
X-113518*
X-113166Y-89576*
X-112955Y-89435*
X-112885Y-89225*
Y-89084*
X-113729Y-90068D02*
G01Y-91334D01*
X-112885Y-92177D02*
G01X-112955Y-91966D01*
X-113166Y-91826*
X-113518Y-91756*
X-113729*
X-114080Y-91826*
X-114291Y-91966*
X-114361Y-92177*
Y-92318*
X-114291Y-92529*
X-114080Y-92669*
X-113729Y-92740*
X-113518*
X-113166Y-92669*
X-112955Y-92529*
X-112885Y-92318*
Y-92177*
Y-93865D02*
G01X-113869Y-93162D01*
Y-94216*
X-112885Y-93865D02*
G01X-114361D01*
X-113729Y-94638D02*
G01Y-95903D01*
X-113166Y-96325D02*
G01X-113096Y-96466D01*
X-112885Y-96677*
X-114361*
X-112885Y-97450D02*
G01X-112955Y-97239D01*
X-113096Y-97169*
X-113236*
X-113377Y-97239*
X-113447Y-97380*
X-113518Y-97661*
X-113588Y-97872*
X-113729Y-98013*
X-113869Y-98083*
X-114080*
X-114221Y-98013*
X-114291Y-97942*
X-114361Y-97731*
Y-97450*
X-114291Y-97239*
X-114221Y-97169*
X-114080Y-97099*
X-113869*
X-113729Y-97169*
X-113588Y-97310*
X-113518Y-97520*
X-113447Y-97802*
X-113377Y-97942*
X-113236Y-98013*
X-113096*
X-112955Y-97942*
X-112885Y-97731*
Y-97450*
X-114891Y-44835D02*
G01Y-44132D01*
X-115524Y-44062*
X-115454Y-44132*
X-115384Y-44343*
Y-44554*
X-115454Y-44765*
X-115595Y-44905*
X-115805Y-44976*
X-115946*
X-116157Y-44835*
X-116298Y-44694*
X-116368Y-44484*
Y-44273*
X-116298Y-44062*
X-116227Y-43991*
X-116087Y-43921*
X-112762Y-38118D02*
G01Y-37415D01*
X-113394Y-37345*
X-113324Y-37415*
X-113254Y-37626*
Y-37837*
X-113324Y-38048*
X-113465Y-38189*
X-113676Y-38259*
X-113816*
X-114027Y-38118*
X-114168Y-37978*
X-114238Y-37767*
Y-37556*
X-114168Y-37345*
X-114097Y-37275*
X-113957Y-37204*
X-114840Y-25877D02*
G01Y-25174D01*
X-115473Y-25104*
X-115402Y-25174*
X-115332Y-25385*
Y-25596*
X-115402Y-25807*
X-115543Y-25948*
X-115754Y-26018*
X-115895*
X-116105Y-25877*
X-116246Y-25737*
X-116316Y-25526*
Y-25315*
X-116246Y-25104*
X-116176Y-25034*
X-116035Y-24964*
G54D396*
X-118440Y17366D02*
G01Y23271D01*
X-112535*
X33135D02*
G01X39040D01*
Y17366*
Y-128304D02*
G01Y-134209D01*
X33135*
X-112535D02*
G01X-118440D01*
Y-128304*
G54D959*
X-114850Y-24575D02*
G01Y-23872D01*
X-115483Y-23802*
X-115412Y-23872*
X-115342Y-24083*
Y-24294*
X-115412Y-24505*
X-115553Y-24646*
X-115764Y-24716*
X-115905*
X-116115Y-24575*
X-116256Y-24435*
X-116326Y-24224*
Y-24013*
X-116256Y-23802*
X-116186Y-23732*
X-116045Y-23662*
X-112830Y-36819D02*
G01Y-36116D01*
X-113463Y-36046*
X-113392Y-36116*
X-113322Y-36327*
Y-36538*
X-113392Y-36749*
X-113533Y-36890*
X-113744Y-36960*
X-113885*
X-114095Y-36819*
X-114236Y-36679*
X-114306Y-36468*
Y-36257*
X-114236Y-36046*
X-114166Y-35976*
X-114025Y-35906*
X-115034Y-43517D02*
G01Y-42814D01*
X-115667Y-42744*
X-115596Y-42814*
X-115526Y-43025*
Y-43236*
X-115596Y-43447*
X-115737Y-43588*
X-115948Y-43658*
X-116089*
X-116299Y-43517*
X-116440Y-43377*
X-116510Y-43166*
Y-42955*
X-116440Y-42744*
X-116370Y-42674*
X-116229Y-42604*
M02*
